<svg xmlns="http://www.w3.org/2000/svg" data-name="Layer 1" width="834.97592" height="540.81" viewBox="0 0 834.97592 540.81" xmlns:xlink="http://www.w3.org/1999/xlink"><path d="M272.51,709.09c-.03.97-.08,1.94-.16,2.92q-1.725,2.22-3.41,4.43c-.92,1.2-1.83,2.38-2.73,3.56-.02.02-.03.04-.05.06-.05.07-.1.14-.16.22l-.38-.28-.95-.7-5.38-3.97a37.28111,37.28111,0,0,1-26.01-19.66c-3.41-6.79-4.77-14.57-6.14-22.26-1.89-10.62-3.84-21.04-11.38-28.37a60.86409,60.86409,0,0,1,15.14,3.29,16.50421,16.50421,0,0,0-.72,6.32c.05.6.23,1.33.82,1.5a1.67723,1.67723,0,0,0,1.39-.57c.94-.83,1.89-1.66,2.84-2.49q1.14-.99,2.28-1.98a63.86513,63.86513,0,0,1,10.59,6.5,61.28369,61.28369,0,0,1,13.38,13.85,62.43521,62.43521,0,0,1,10.53,27.57A63.81013,63.81013,0,0,1,272.51,709.09Z" transform="translate(-202.61935 -180)" fill="#3f3d56"/><path d="M282.89,695.91a37.67658,37.67658,0,0,1-1.28,4.3q-4.755,5.97006-9.26,11.8-1.725,2.22-3.41,4.43c-.92,1.2-1.83,2.38-2.73,3.56-.02.02-.03.04-.05.06-.02-.02-.05-.04-.06994-.06-.39-.35-.76-.7-1.13-1.07a61.84043,61.84043,0,0,1-5.96-6.67,63.12859,63.12859,0,0,1-12.86-31.63c-.07-.69-.13-1.37-.19-2.06a61.806,61.806,0,0,1,2.15-20.96,62.64873,62.64873,0,0,1,16.79-28.32c-.88,7.25,1.29,13.97,4.45,20.57a16.63829,16.63829,0,0,0-1.53,8.37c.05.6.23,1.33.82,1.49.5.14.99-.22,1.39-.56.94-.83,1.9-1.66,2.84-2.49,3.32,6.06,6.86,12.13,9.01,18.56a42.90346,42.90346,0,0,1,1.22,4.44A36.93871,36.93871,0,0,1,282.89,695.91Z" transform="translate(-202.61935 -180)" fill="#6c63ff"/><path d="M268.94,716.44c-.92,1.2-1.83,2.38-2.73,3.56-.02.02-.03.04-.05.06-.05.07-.1.14-.16.22l-.38-.28H244.71l-.25.81c-.74-.25-1.48-.52-2.21-.81a61.59326,61.59326,0,0,1-19.66-12.17,63.07706,63.07706,0,0,1-19.89-48.9c4.16,5.68,10.06,9.06,16.59,11.68-.1.27-.2.53-.28.8a16.28256,16.28256,0,0,0-.72,6.31c.05.61.23,1.34.81,1.5a1.62818,1.62818,0,0,0,1.39-.56c.95-.83,1.9-1.67,2.85-2.49.75995-.66,1.50995-1.32,2.27-1.98.36-.31.72-.62,1.07-.93.16.05.31.1.46.15,6.47,2.12,13.11,4.1,19,7.22a45.21226,45.21226,0,0,1,4.29,2.59,37.67981,37.67981,0,0,1,15.33,23.62,35.74866,35.74866,0,0,1,.6,4.84l1.71,3.16Z" transform="translate(-202.61935 -180)" fill="#6c63ff"/><path d="M794.96,705.04a46.18149,46.18149,0,0,1-2,14.45c-.05.17-.11.34-.17.51H763.35a26.4209,26.4209,0,0,1,1.99-6c2.45-5.2,6.45-9.65,10.4-14.07,5.44-6.09,10.75-12.13,11.59-20.05a45.48374,45.48374,0,0,1,5.12,10.57,12.42354,12.42354,0,0,0-4.11,2.52c-.33.31-.68006.76-.51,1.19.16.36.6.48.99.56.94.18,1.88.36,2.82.53.74.15,1.49.29,2.24.43A49.103,49.103,0,0,1,794.96,705.04Z" transform="translate(-202.61935 -180)" fill="#e6e6e6"/><path d="M819.69,701.8c-4.72,2.87-7.72,7.31-10.17,12.28a12.5609,12.5609,0,0,0-5.71,3c-.34.31-.69.76-.51,1.19.15.36.6.48.99.56.93.18,1.88.36,2.81.53-.09.21-.18.43-.27.64h-31.2a44.1194,44.1194,0,0,1,4.69-5.36c.37-.37.75-.72,1.14-1.08a46.66462,46.66462,0,0,1,13.5-8.52A47.49253,47.49253,0,0,1,819.69,701.8Z" transform="translate(-202.61935 -180)" fill="#e6e6e6"/><path d="M780.83,720H753.05a45.12494,45.12494,0,0,1,.04-6.68,47.76875,47.76875,0,0,1,19.85-34.73c-1.44,5.13-.7,10.23.8,15.35-.21.07-.42.13-.61.21a12.42479,12.42479,0,0,0-4.11,2.52c-.33.31-.68.76-.51,1.19.15.36.6.48.99.56.94.18,1.88.36,2.81.53.75.15,1.5.29,2.25.44.35.06.7.13,1.05.2.05.12.08.23.13.34,1.76,4.85,3.68,9.74,4.58,14.71a34.33722,34.33722,0,0,1,.46,3.77C780.81,718.94,780.83,719.47,780.83,720Z" transform="translate(-202.61935 -180)" fill="#e6e6e6"/><path d="M580.96,705.04a46.18149,46.18149,0,0,1-2,14.45c-.05.17-.11.34-.17.51H549.35a26.4209,26.4209,0,0,1,1.99-6c2.45-5.2,6.45-9.65,10.4-14.07,5.44-6.09,10.75-12.13,11.59-20.05a45.48374,45.48374,0,0,1,5.12,10.57,12.42354,12.42354,0,0,0-4.11,2.52c-.33.31-.68006.76-.51,1.19.16.36.6.48.99.56.94.18,1.88.36,2.82.53.74.15,1.49.29,2.24.43A49.103,49.103,0,0,1,580.96,705.04Z" transform="translate(-202.61935 -180)" fill="#e6e6e6"/><path d="M605.69,701.8c-4.72,2.87-7.72,7.31-10.17,12.28a12.5609,12.5609,0,0,0-5.71,3c-.34.31-.69.76-.51,1.19.15.36.6.48.99.56.93.18,1.88.36,2.81.53-.09.21-.18.43-.27.64h-31.2a44.1194,44.1194,0,0,1,4.69-5.36c.37-.37.75-.72,1.14-1.08a46.66462,46.66462,0,0,1,13.5-8.52A47.49253,47.49253,0,0,1,605.69,701.8Z" transform="translate(-202.61935 -180)" fill="#e6e6e6"/><path d="M566.83,720H539.05a45.12494,45.12494,0,0,1,.04-6.68,47.76875,47.76875,0,0,1,19.85-34.73c-1.44,5.13-.7,10.23.8,15.35-.21.07-.42.13-.61.21a12.42479,12.42479,0,0,0-4.11,2.52c-.33.31-.68.76-.51,1.19.15.36.6.48.99.56.94.18,1.88.36,2.81.53.75.15,1.5.29,2.25.44.35.06.7.13,1.05.2.05.12.08.23.13.34,1.76,4.85,3.68,9.74,4.58,14.71a34.33722,34.33722,0,0,1,.46,3.77C566.81,718.94,566.83,719.47,566.83,720Z" transform="translate(-202.61935 -180)" fill="#e6e6e6"/><path d="M635.70911,352.45534c-7.66934-12.68446-16.7572-26.22768-30.98954-30.36953-16.482-4.7965-33.4132,4.73193-47.77473,14.13453a1392.155,1392.155,0,0,0-123.89338,91.28311l.04331.49238q46.22556-3.1878,92.451-6.37555c22.26532-1.53545,45.29557-3.28269,64.97195-13.81559,7.46652-3.99683,14.74475-9.33579,23.20555-9.70782,10.51175-.46217,19.67733,6.87923,26.8802,14.5493,42.60731,45.371,54.937,114.7541,102.73817,154.61592A1516.99453,1516.99453,0,0,0,635.70911,352.45534Z" transform="translate(-202.61935 -180)" fill="#f2f2f2"/><path d="M887.52,720H883.3q-55.095-71.58-103.68-147.86Q745.69,518.92,715.13,463.64q-1.8-3.25506-3.59-6.52-12.645-23.07-24.7-46.45-10.68009-20.7-20.87006-41.64c-1.93994-3.99-3.83-7.99-5.71-12.01-4.43-9.44-8.77-18.93-13.44-28.24-4.71-9.41-10.33-19.21-18.33-26.28a40.18685,40.18685,0,0,0-3.22-2.6,33.68264,33.68264,0,0,0-3.98-2.51c-.14-.08-.28-.15-.42-.23a27.3651,27.3651,0,0,0-10.92-3.15c-7.95-.52-15.28,2.77-22.18,6.35q-17.46,9.105-34.39,19.26a726.00467,726.00467,0,0,0-105.73,77.32c-.08.07-.17.15-.25.22A730.606,730.606,0,0,0,333.36,523.75c-1.01,1.44-3.39.06-2.37-1.38q6-8.505,12.25-16.82a732.72408,732.72408,0,0,1,105.51-113.2q6.555-5.7,13.26-11.24a734.4632,734.4632,0,0,1,68.83-50.54q10.97991-7.125,22.21-13.82,7.44-4.455,14.98-8.73c6.36-3.6,12.75-7.16,19.25-10.49,6.37-3.28,13.12994-6.22,20.41-6.33a30.45258,30.45258,0,0,1,15.04,3.66c.14.08.29.15.43.24a40.0731,40.0731,0,0,1,7.8,5.7c10.57,9.79,17.64,25.15,23.14,36.94q4.155,8.925,8.41,17.77,16.06494,33.615,33.38,66.63,9.255,17.625,18.86,35.1c.98,1.81,1.98,3.62,2.98,5.42q34.71,62.715,73.78,122.9C822.44,633.2,853.16,675.86,887.52,720Z" transform="translate(-202.61935 -180)" fill="#e4e4e4"/><path d="M444.9555,383.30624c-1.43911-1.60428-2.86927-3.20857-4.31777-4.81285-11.42244-12.63258-23.6788-25.11846-39.3644-32.36066a57.11025,57.11025,0,0,0-23.92679-5.54622c-8.56213.02753-16.93178,2.27348-24.84306,5.41792-3.74034,1.49427-7.39831,3.1902-11.00078,4.99614-4.11634,2.07182-8.15927,4.28117-12.1834,6.50883q-11.33112,6.27043-22.36816,13.09089-21.9606,13.57221-42.54566,29.21623-10.67111,8.11311-20.90174,16.75788-9.51556,8.03052-18.64618,16.492c-1.30169,1.20091-3.24527-.74256-1.94358-1.94347,1.60428-1.49428,3.22691-2.97938,4.84955-4.44613q6.87547-6.21546,13.9712-12.19257,12.93921-10.91828,26.54851-20.99312,21.16293-15.67614,43.78289-29.22541,11.3036-6.76545,22.91828-12.96259c2.33794-1.24675,4.70318-2.466,7.09572-3.62111a113.1168,113.1168,0,0,1,16.86777-6.86631,60.00646,60.00646,0,0,1,25.476-2.50266,66.32727,66.32727,0,0,1,23.50512,8.13141c15.40091,8.60812,27.34573,21.919,38.97,34.90915C448.07274,382.67369,446.13812,384.62633,444.9555,383.30624Z" transform="translate(-202.61935 -180)" fill="#e4e4e4"/><path d="M760.516,514.2132l36.90462-13.498,18.32327-6.70182c5.96758-2.18267,11.92082-4.66747,18.08988-6.23037a28.5388,28.5388,0,0,1,16.37356.20863,37.73753,37.73753,0,0,1,12.771,7.91666,103.63965,103.63965,0,0,1,10.47487,11.18643c3.98932,4.79426,7.91971,9.63877,11.86772,14.46706q24.44136,29.89094,48.56307,60.04134,24.12117,30.1499,47.91981,60.556,23.85681,30.4804,47.38548,61.21573,2.8823,3.76518,5.75966,7.53415c1.0598,1.38809,3.44949.01962,2.37472-1.38808q-23.70225-31.04439-47.73491-61.83464-24.09177-30.86384-48.51647-61.46586Q916.648,555.619,891.89368,525.28294q-6.16706-7.55761-12.35445-15.09858c-3.47953-4.24073-6.91983-8.52719-10.73628-12.47427-7.00539-7.24516-15.75772-13.64794-26.23437-13.82166-6.15972-.10214-12.121,1.85248-17.844,3.92287-6.16968,2.232-12.32455,4.50571-18.48633,6.75941l-37.16269,13.59243-9.29067,3.3981c-1.64875.603-.93651,3.2619.73111,2.652Z" transform="translate(-202.61935 -180)" fill="#e4e4e4"/><path d="M396.41678,362.02837c-18.75411-9.63866-42.77137-7.75087-60.00508,4.29119a855.84708,855.84708,0,0,1,97.37056,22.72581C420.49967,381.26144,410.1095,369.06578,396.41678,362.02837Z" transform="translate(-202.61935 -180)" fill="#f2f2f2"/><path d="M336.22712,366.28638,332.6167,369.221c1.22123-1.02713,2.4908-1.99013,3.795-2.90144C336.3501,366.30893,336.28872,366.297,336.22712,366.28638Z" transform="translate(-202.61935 -180)" fill="#f2f2f2"/><path d="M861.58866,514.348c-3.6328-4.42207-7.56046-9.05222-12.99421-10.84836l-5.07308.20008A575.436,575.436,0,0,0,996.78866,678.92032Q929.18866,596.63421,861.58866,514.348Z" transform="translate(-202.61935 -180)" fill="#f2f2f2"/><path d="M635.0127,621.69531l-28.49122-216.585a11.5571,11.5571,0,0,0-4.51318-7.75293l1.81152-2.39062a14.532,14.532,0,0,1,5.67579,9.752L637.9873,621.30469Z" transform="translate(-202.61935 -180)" fill="#3f3d56"/><circle cx="439.95202" cy="312.46538" r="12.07455" fill="#ffb8b8"/><path d="M581.99391,539.81174a39.31263,39.31263,0,0,1,8.41421-9.62341,26.56591,26.56591,0,0,0-5.89463,12.14368,20.35515,20.35515,0,0,0,2.51168,1.8326,26.39885,26.39885,0,0,0,8.62824,3.34062A39.391,39.391,0,0,1,606.242,533.88442a26.62938,26.62938,0,0,0-6.22524,14.20679,41.69662,41.69662,0,0,0,10.36767-.651c5.12408-.94778,10.22892-2.74435,14.18147-6.13484,4.27769-3.66959,6.90709-8.963,8.31664-14.42108,1.40891-5.45373,1.69928-11.12788,1.97818-16.755.13519-2.68133,2.79049-5.39332,2.92568-8.07465l-.17329-.02591a17.7185,17.7185,0,0,1-2.14131-5.524,5.9991,5.9991,0,0,1,1.71167-5.43507,6.11528,6.11528,0,0,1,2.90161-1.24908c.11345-.107.2349-.20846.36069-.30923a24.97122,24.97122,0,0,1,7.58579-4.08287,10.30843,10.30843,0,0,0-4.32909,4.04278q2.46992-.16879,4.93921-.33325a23.29,23.29,0,0,1,1.92174-1.36015,17.88616,17.88616,0,0,1,2.37642-1.17261,6.945,6.945,0,0,0-2.25479,2.37327c2.12607-.20914,4.291-.67818,5.62029-2.28194,2.20334-2.65114.69046-6.89866-1.98186-9.0786a11.816,11.816,0,0,0-13.79541-.53475c-3.774-3.75744-9.82044-4.60836-14.887-2.97879a22.1723,22.1723,0,0,0-8.841,5.63571,30.94091,30.94091,0,0,1,3.58043.2829,10.98809,10.98809,0,0,0-4.91413,1.143,32.31161,32.31161,0,0,0-2.12059,2.69006q-.649.9194-1.24554,1.87316a98.88087,98.88087,0,0,0-6.14992,12.25164c-2.18735,4.85463-4.48384,9.72834-7.83915,13.8636a33.39915,33.39915,0,0,1-20.38883,11.81C576.22855,529.29055,578.18882,535.31449,581.99391,539.81174Z" transform="translate(-202.61935 -180)" fill="#2f2e41"/><path d="M640.55516,477.4195a16.81475,16.81475,0,0,0-4.18608,14.31626Z" transform="translate(-202.61935 -180)" fill="#fd6584"/><path d="M677.93052,548.46935a4.685,4.685,0,0,1-7.014,1.55316L657,559.16118l.01674-8.65162,13.21282-7.35185a4.71039,4.71039,0,0,1,7.701,5.31164Z" transform="translate(-202.61935 -180)" fill="#ffb8b8"/><path d="M627.87462,515.19066s-5.71021,7.9123-5.54,17.18045,8.05183,39.86514,11.95422,39.79345,34.808-17.71811,34.808-17.71811l-4.54253-8.21194-22.25961,10.16817S644.3881,510.9836,627.87462,515.19066Z" transform="translate(-202.61935 -180)" fill="#6c63ff"/><polygon points="415.236 367.793 414 384.396 410.696 396.906 439.403 399.542 447.955 372.113 444.818 364.69 415.236 367.793" fill="#ffb8b8"/><path d="M650.95019,519.75134l-2.37053-2.20944-1.17921-7.17665-13.02237-4.16408-5.58988,4.86948-9.69886,2.59232-3.778,18.31943-3.49576,22.70319,35.27865,9.6371,6.3689-15.54987s11.12246-9.77453,3.22521-18.41085Z" transform="translate(-202.61935 -180)" fill="#6c63ff"/><path d="M655.34,609.88a5.05113,5.05113,0,0,0-2.84-.88h-61a5,5,0,0,0,0,10h61a5.0195,5.0195,0,0,0,4.76-3.45,5.29023,5.29023,0,0,0,.24-1.55A5.02111,5.02111,0,0,0,655.34,609.88Z" transform="translate(-202.61935 -180)" fill="#6c63ff"/><path d="M560.42,502.24c-4.84,83.8-23.69,166.92-71.72,217.76H266.21c-.02.02-.03.04-.05.06-.05.07-.1.14-.16.22l-.38-.28H244.71l.27-.88a72.02827,72.02827,0,0,0,10.54-4.74c1.23-.69,2.38995-1.39,3.48-2.12a45.15477,45.15477,0,0,0,6.76-5.42,42.00107,42.00107,0,0,0,6.25-7.81c3.34-5.32,5.41-11.05,7.43-16.89.79-2.29,1.58-4.6,2.43-6.91,4.52-12.26,10.92-24.51,30.26-34.18,58.38-29.19,101.68-121.86,127.52-213.5q.99-3.525,1.95-7.05,3.225-11.835,6.05-23.56c.38-1.53.74-3.06,1.1-4.59a769.17022,769.17022,0,0,0,15.7-88.26c2.45-21.59,3.4-40.62,2.79-55.59a111.74928,111.74928,0,0,0-2.63-21.62l73.68-3.11s1.12,5.22,2.88,14.65c1.78,9.58,4.22,23.51,6.79,40.71,1.69,11.24,3.43,23.89,5.09,37.62.11.95.22,1.91.33,2.87.68,5.7,1.34,11.6,1.97,17.65,2.58,24.61,4.72,51.89,5.75,80.42q.195,5.205.33,10.46C562.07,452.36,561.86,477.33,560.42,502.24Z" transform="translate(-202.61935 -180)" fill="#2f2e41"/><polygon points="354.014 251.007 455.686 190.329 469.504 232.938 301.666 367.121 354.014 251.007" fill="#2f2e41"/><path d="M782.83,325.29q-.135-.285-.3-.57a45.758,45.758,0,0,0-42.32-24.22,28.78752,28.78752,0,0,1-21.87-8.54l-.4-.41a64.63487,64.63487,0,0,0-12.4-9.77l-.34-.21-.28.3a43.91413,43.91413,0,0,1-8.81,7.21c.37-.42.71-.85,1.05-1.3a.0098.0098,0,0,0,.01-.01,35.15892,35.15892,0,0,0,4.41-7.68l.18-.43-.36-.18-.06-.03a64.34352,64.34352,0,0,0-74.55,11.74c-1.27,1.26-2.49,2.57-3.63,3.91-.63995.75-1.27,1.51-1.87,2.29a63.86819,63.86819,0,0,0-12.17,26.34v.01c-.12.56-.23,1.11-.33,1.67a64.39117,64.39117,0,0,0,17.61,56.93c1.48,1.49,3.04,2.92,4.65,4.26,1.17.98,2.38,1.91,3.61,2.79a139.685,139.685,0,0,1,30.32,29.26,124.66748,124.66748,0,0,1,9.67,14.89,46.35261,46.35261,0,0,0,7.64,10.19c.52.51,1.06,1.03,1.62,1.54l.64.6.18-.86a33.77681,33.77681,0,0,0,.58-3.92v-.01a27.896,27.896,0,0,0,.09-3.86,42.2993,42.2993,0,0,1,2.05,8v.01c.16,1.01.28,2.01.37,3.04l.02.22.19.14q.86994.63,1.77,1.2a45.53685,45.53685,0,0,0,21.74,7.29c1.06.08,2.14.12,3.21.12q1.68,0,3.36-.12a45.66255,45.66255,0,0,0,42.29-46.18,44.83369,44.83369,0,0,1,13.61-32.01c.05-.06.11-.12.17-.18l.16-.16a45.65951,45.65951,0,0,0,11.97-20.62l.16-.61-.36-.01h-.27a41.32724,41.32724,0,0,1-4.58-.34,43.67586,43.67586,0,0,1-9.83-2.37c4.67.26,9.76-.7,15.82-2.94l.29-.11.03-.3A45.47423,45.47423,0,0,0,782.83,325.29Z" transform="translate(-202.61935 -180)" fill="#3f3d56"/><path d="M754.33531,428.83315a45.568,45.568,0,0,1-.21893,4.93461,46.18846,46.18846,0,0,0,6.04291-23.28634c-.01419-1.249.04216-2.49737.14347-3.74288A43.34673,43.34673,0,0,0,754.33531,428.83315Z" transform="translate(-202.61935 -180)" opacity="0.15"/><path d="M765.36564,372.53487a44.47239,44.47239,0,0,0,11.5372,2.5276,45.73505,45.73505,0,0,0,3.85288-5.32107C774.88926,371.87446,769.92344,372.786,765.36564,372.53487Z" transform="translate(-202.61935 -180)" opacity="0.15"/><path d="M781.18657,356.55441a45.96608,45.96608,0,0,1,.38487,11.85436,45.43807,45.43807,0,0,0,4.49891-10.89433l.16468-.61429-.6355-.01228A44.16084,44.16084,0,0,1,781.18657,356.55441Z" transform="translate(-202.61935 -180)" opacity="0.15"/><path d="M774.37114,313.51785a45.79473,45.79473,0,0,0-34.4046-13.47224,28.78185,28.78185,0,0,1-21.86294-8.54219l-.40089-.40763a64.74849,64.74849,0,0,0-12.397-9.77051l-.34484-.20847-.27572.29309a43.79632,43.79632,0,0,1-8.81316,7.20769,33.58579,33.58579,0,0,0,5.46442-8.98655l.18374-.42872-.41617-.2113a64.42488,64.42488,0,0,0-92.784,47.34523,64.43674,64.43674,0,0,1,86.96-28.9935l.41618.21129-.18375.42872a33.5856,33.5856,0,0,1-5.46442,8.98656,43.79671,43.79671,0,0,0,8.81317-7.2077l.27572-.29309.34484.20847a64.74778,64.74778,0,0,1,12.397,9.77052l.4009.40762a28.78189,28.78189,0,0,0,21.86294,8.5422A45.69515,45.69515,0,0,1,780.504,353.241a55.37839,55.37839,0,0,0,6.50486-2.002l.28776-.10634.03382-.30436A45.51166,45.51166,0,0,0,774.37114,313.51785Z" transform="translate(-202.61935 -180)" opacity="0.15"/><path d="M228.67,180a156.29106,156.29106,0,0,0,6.05,34.1,154.46978,154.46978,0,0,0,33.08,59.49c.46.51.92,1.02,1.38,1.52.46.51.93,1.01,1.4,1.51.47.5.94.99,1.42,1.48s.95.98,1.44,1.47c1.92,1.94,3.9,3.82,5.92,5.65.51.46,1.02.91,1.53,1.36,1.53,1.36,3.08,2.68,4.67,3.96.53.43,1.06.86,1.59,1.28.54.42,1.07.84,1.61,1.26q.81.615,1.62,1.23c1.09.82,2.19,1.62,3.29,2.41.47.33.93.65,1.4.98,1.21.84,2.42,1.66,3.65,2.46.5.32,1,.65,1.5.96.15.1.3.2.45.29.49.32.99.62,1.49.93.57.36,1.15.71,1.74,1.06,1.16.7,2.33,1.38,3.51,2.05,1.2.67,2.4,1.33,3.61005,1.97,1.19.63,2.38,1.25,3.58,1.84.52.26,1.03.51,1.55.76.2.1.39.19.59.29l1.53.72c.61.29,1.23.57,1.85.85s1.24.55,1.86.82c1.24.55,2.5,1.07,3.75,1.58.63.25,1.27.51,1.9.75.63.25,1.27.49,1.9.73,1.04.38995,2.09.77,3.13995,1.13.59.22,1.18.42,1.77.61.31.1.61.21.91.31.79.26,1.59.52,2.39.76,2.08.65,4.18,1.26,6.28,1.82.95.26,1.91.5,2.87.74.78.19,1.56.37,2.34.55.46.11.93.22,1.4.32,1.91.42,3.82.8,5.75,1.15.75.14,1.49.27,2.24.39.18.03.35.06.52.09.91.15,1.83.29,2.75.42l.42.06c.79.11,1.58.22,2.37.32.31.03.62.07.93.11q1.05.135,2.1.24c.55.06,1.1.11,1.66.16.69.07,1.37.13,2.06.19,1.01.08,2.03.15,3.04.21q1.455.09,2.91.15c.9.04,1.8.07,2.69.09.35.01.69.02,1.03.02.93.02,1.86.03,2.78.03a154.92616,154.92616,0,0,0,43.83-6.35,158.35938,158.35938,0,0,0,24.4-9.46q6.165-3,12.34-5.73a332.20332,332.20332,0,0,1,83.51-24.96,299.98649,299.98649,0,0,1,43.63-3.63,110.71282,110.71282,0,0,0,30.37-4.55c1.68-.49,3.41-1.05,5.14-1.65l2-.69-1.63-1.36a75.21722,75.21722,0,0,0-15.76-10.34,105.21861,105.21861,0,0,1,26.22,7.51l.5.22.5-.24A110.21839,110.21839,0,0,0,700.01,180Z" transform="translate(-202.61935 -180)" fill="#3f3d56"/><g opacity="0.15"><path d="M700.01,180a110.21839,110.21839,0,0,1-61.08,84.4l-.5.24-.5-.22a105.21861,105.21861,0,0,0-26.22-7.51,75.21722,75.21722,0,0,1,15.76,10.34l1.63,1.36-2,.69c-1.73.6-3.46,1.16-5.14,1.65a110.71282,110.71282,0,0,1-30.37,4.55,299.98649,299.98649,0,0,0-43.63,3.63,332.20332,332.20332,0,0,0-83.51,24.96q-6.18,2.73-12.34,5.73a158.35938,158.35938,0,0,1-24.4,9.46,154.92616,154.92616,0,0,1-43.83,6.35c-.92,0-1.85-.01-2.78-.03-.34,0-.68-.01-1.03-.02-.89-.02-1.79-.05-2.69-.09q-1.455-.06-2.91-.15c-1.01-.06-2.03-.13-3.04-.21-.69-.06-1.37-.12-2.06-.19-.56-.05-1.11-.1-1.66-.16q-1.05-.105-2.1-.24c-.31-.04-.62-.08-.93-.11-.79-.1-1.58-.21-2.37-.32l-.42-.06c-.92-.13-1.84-.27-2.75-.42-.17-.03-.34-.06-.52-.09-.75-.12-1.49-.25-2.24-.39-1.93-.35-3.84-.73-5.75-1.15-.47-.1-.94-.21-1.4-.32-.78-.18-1.56-.36-2.34-.55-.96-.24-1.92-.48-2.87-.74-2.1-.56-4.2-1.17-6.28-1.82-.8-.24-1.6-.5-2.39-.76-.3-.1-.6-.21-.91-.31-.59-.19-1.18-.39-1.77-.61-1.05-.36-2.1-.74-3.13995-1.13-.63-.24-1.27-.48-1.9-.73-.63-.24-1.27-.5-1.9-.75-1.25-.51-2.51-1.03-3.75-1.58-.62-.27-1.24-.54-1.86-.82s-1.24-.56-1.85-.85l-1.53-.72c-.2-.1-.39-.19-.59-.29-.52-.25-1.03-.5-1.55-.76-1.2-.59-2.39-1.21-3.58-1.84-1.21-.64-2.41-1.3-3.61005-1.97-1.18-.67-2.35-1.35-3.51-2.05-.59-.35-1.17-.7-1.74-1.06-.5-.31-1-.61-1.49-.93-.15-.09-.3-.19-.45-.29-.5-.31-1-.64-1.5-.96-1.23-.8-2.43994-1.62-3.65-2.46-.47-.33-.93-.65-1.4-.98-1.1-.79-2.2-1.59-3.29-2.41q-.81-.61506-1.62-1.23c-.54-.42-1.07-.84-1.61-1.26-.53-.42005-1.06-.85-1.59-1.28q-2.37-1.935-4.67-3.96c-.51-.45-1.02-.9-1.53-1.36-2.02-1.83-4-3.71-5.92-5.65-.49-.49-.96-.98-1.44-1.47s-.95-.98-1.42-1.48c-.47-.5-.94-1-1.4-1.51-.46-.5-.92-1.01-1.38-1.52a154.78007,154.78007,0,0,0,110.17,8.59,158.13564,158.13564,0,0,0,24.4-9.46,350.32788,350.32788,0,0,1,64.87-24.22,305.62026,305.62026,0,0,1,73.93-10.08c.22-.01.45-.01.67-.01A111.17443,111.17443,0,0,0,572.22,233.85c1.68005-.49,3.4-1.05,5.13-1.65l2-.69L577.73,230.15a75.27172,75.27172,0,0,0-15.77-10.34,105.289,105.289,0,0,1,26.23,7.51l.5.22.5-.24A110.21663,110.21663,0,0,0,638.3,180Z" transform="translate(-202.61935 -180)"/></g><polygon points="471.029 496.509 477.326 495.726 477.448 470.539 468.154 471.695 471.029 496.509" fill="#ffb8b8"/><path d="M638.46828,660.69147c.31223.37921.62583.75433.94338,1.13088.63118.75168,1.273,1.498,1.91744,2.2364.32422.3699.65243.74113.978,1.107l-.004.01188.0226.012.00662.00665.56358.35677,1.65942-2.03483.76518-.937,1.08189-1.32775,1.98146-2.42817,10.43293-12.78551-7.90877-5.00468-.764,1.21226-.004-.00133-.378.60076-7.0904,11.20659-1.44815,2.29156-.04524.06909-.86915,1.36775-.75072,1.18564-.83721,1.32528Z" transform="translate(-202.61935 -180)" fill="#ffb8b8"/><path d="M604.223,592.11523c.25332,1.05995.51995,2.11991.79322,3.17321q.76015,2.9405,1.628,5.83717c-.00133.004.00266.00533.00532.01066a11.87264,11.87264,0,0,0,1.59827,2.24955c.02392.03458.05447.06251.07973.09311a8.21579,8.21579,0,0,0,1.54035,1.30809c.2047.13042.41338.2622.61808.39264.74169.46053,1.48473.89051,2.23048,1.2992q1.99191,1.08429,4.01456,1.94386c.10768.04928.21669.09454.3257.13983a68.41388,68.41388,0,0,0,17.51645,4.33908c3.04484.41408,6.18544.74047,9.43775,1.07757,1.0637.107,2.13007.21939,3.20841.33575.08111.00937.16755.01605.25264.02675,1.541.16451,3.10468.341,4.7029.53345,2.01173.24193,4.07929.5158,6.216.83492l-1.09343,2.79574a22.56521,22.56521,0,0,1-3.48356,5.94307,11.63344,11.63344,0,0,0-2.99855,8.632l.02255,2.24192a7.23793,7.23793,0,0,0-1.323,6.31008l.069.258-10.67757,12.70826-.692.824,2.96337.98982,3.644,1.22161,6.178,2.06356,14.88752-14.90635.71185-.711.01465-.04387,10.55815-34.67538c.08927-.30712.16792-.62222.2293-.93866a11.01629,11.01629,0,0,0-1.62643-8.36364,10.609,10.609,0,0,0-6.80937-4.5532l-3.183-.62428-6.50291-1.27655-4.58166-.8964-.09175-.01736-13.5097-2.6505.33629-4.09934-.15019-.12109-4.78467-3.81927L619.9495,568.7909l-.04254-.03193-1.0885-.869-.22749.19c-.06788.05715-.13572.11428-.19958.17275a38.97149,38.97149,0,0,0-5.28932,5.92065,114.46236,114.46236,0,0,0-7.12342,10.90735q-.14178.24523-.25558.44663l-.02663.03987c-.0346.0638-.05723.105-.06523.11564A11.76124,11.76124,0,0,0,604.223,592.11523Z" transform="translate(-202.61935 -180)" fill="#2f2e41"/><path d="M607.65767,579.1839c.1451-.23528.30746-.46919.47114-.69383a57.53077,57.53077,0,0,1,4.07727-4.85365C613.84007,571.87687,615.97178,563.0221,616,563h0l25.06606,9.11312L645,572l-2.72772,7.28874-.00133.004,3.3398,6.21088.03325.00666,10.75617,2.10762,11.08459,2.173,5.95378,1.16853a10.60251,10.60251,0,0,1,6.80937,4.55319,11.02184,11.02184,0,0,1,1.6264,8.36366c-.05735.29118-.12934.58632-.212.8735l1.12261,14.5572a86.78853,86.78853,0,0,1-1.91222,25.979l-.26789,13.942-.57967-.136-8.62734-2.0172-2.27882-.53062-2.49317-8.72854c-.284-.99482-.532-2.00422-.73746-3.02159a39.97629,39.97629,0,0,1-.70563-5.04144l-2.15914-28.56251q-1.29042-.19821-2.55016-.40847-5.83362-.951-11.1139-2.08523a131.99314,131.99314,0,0,1-29.19363-9.43647q-3.43767-1.63368-6.5441-3.46265-1.14051-.66694-2.23576-1.363c-.17279-.10648-.34161-.21163-.50909-.32079a10.73077,10.73077,0,0,1-4.89711-9.03053A10.94885,10.94885,0,0,1,607.65767,579.1839Z" transform="translate(-202.61935 -180)" fill="#2f2e41"/><path d="M673.15171,672.224l6.81536-.85346,1.06918-.135.26474,4.105,9.51865,5.69313a2.57018,2.57018,0,0,1-1.1505,4.77168l-11.40684.74293-2.22885-3.93205-.50384,4.10989-4.2965.28058.26166-14.57363Z" transform="translate(-202.61935 -180)" fill="#2f2e41"/><polygon points="436.287 474.599 435.595 475.423 435.97 475.548 436.287 474.599" fill="#2f2e41"/><path d="M640.56752,656.43467l5.44335,4.189.8547.65639-2.70026,3.10322,2.75792,10.74292a2.57018,2.57018,0,0,1-4.175,2.58112l-8.62817-7.49817,1.1829-4.36228-3.24981,2.56587-3.25042-2.82374L639.243,655.41741Z" transform="translate(-202.61935 -180)" fill="#2f2e41"/><path d="M592.84467,503.34806a4.685,4.685,0,0,1-1.82779,6.94747l1.75942,16.55566-7.68546-3.973-.49251-15.11244a4.71039,4.71039,0,0,1,8.24634-4.41771Z" transform="translate(-202.61935 -180)" fill="#ffb8b8"/><path d="M630.41,525.04a25.54674,25.54674,0,0,1-3.86,5.48C622.17,535.2,608.25,544.98,599.13,549.7c-4.09,2.11-6.99905,2.88117-8.1,2.38-5.25568-2.3927-10.00183-41.74982-7.03-42.08l8,7v2l3.63,16.02s.81-.98,2.19-2.55c4.5-5.09,12.15-14.49,21.18-18.47,2.83,5.19,10.86,10.42,10.86,10.42S630.07,524.64,630.41,525.04Z" transform="translate(-202.61935 -180)" fill="#6c63ff"/><path d="M636.5,622H608.68506l-.17188-1.30371L580.47656,408.55273a14.63543,14.63543,0,0,1,23.34326-13.58593l-1.81152,2.39062a11.63584,11.63584,0,0,0-18.55762,10.80274L611.31494,619H636.5Z" transform="translate(-202.61935 -180)" fill="#3f3d56"/><circle cx="723.12248" cy="118.88324" r="26.70075" fill="#fd6584"/><path d="M985.5,286.24a13.23511,13.23511,0,0,0-11.17-9.29,1.0808,1.0808,0,0,0-.18,0,1.41774,1.41774,0,0,0-.22-.05c-8.94-1.16-18.88,1.66-25.57,7.8a23.958,23.958,0,0,0-5.83,8.04,12.917,12.917,0,0,0-10.83-5.28,13.18351,13.18351,0,0,0-11.8,9.51,1.52646,1.52646,0,0,0,.69,1.69,6.67287,6.67287,0,0,0,2.79,1.42c2.21.47,4.44.9,6.67,1.29q6.54,1.14,13.15,1.85,4.365.465,8.75.74c6.04.38,12.11.47,18.16.28,3-.1,5.88-.2,8.62-1.52a12.79756,12.79756,0,0,0,4.95-4.31A14.54772,14.54772,0,0,0,985.5,286.24Z" transform="translate(-202.61935 -180)" fill="#e6e6e6"/><path d="M930.57,325.14a13.6523,13.6523,0,0,0-.56-3.3,13.26026,13.26026,0,0,0-11.18-9.29.96481.96481,0,0,0-.17,0,1.88644,1.88644,0,0,0-.23-.05,33.19374,33.19374,0,0,0-14.69,1.51c-7.26,2.43-13.63,7.33-16.7,14.33a12.92231,12.92231,0,0,0-10.84-5.28,13.18343,13.18343,0,0,0-11.8,9.51,1.55528,1.55528,0,0,0,.69,1.69,6.73285,6.73285,0,0,0,2.79,1.42c2.22.47,4.44.9,6.68,1.29q6.54,1.14,13.14,1.85a195.16411,195.16411,0,0,0,26.92,1.02c2.99-.1,5.88-.2,8.62-1.52a12.76962,12.76962,0,0,0,4.94-4.31A14.26452,14.26452,0,0,0,930.57,325.14Z" transform="translate(-202.61935 -180)" fill="#e6e6e6"/><path d="M940.48238,390.38568a5.60966,5.60966,0,0,0,.62524,4.0841,3.40813,3.40813,0,0,0,3.96161,1.31053c2.797-.86838,5.55644-1.8854,8.32953-2.82773a1.53545,1.53545,0,0,0,1.04766-1.84518,1.51454,1.51454,0,0,0-1.84518-1.04766l-6.9298,2.35485c-.52273.17763-1.04358.37962-1.57624.52547-.05569.01525-.2592.06-.24824.059.02556-.00237.18358.0145.0082.00235q-.15-.04512.00207.01968l-.13254-.07544c.121.10071-.01458-.01348-.05627-.05577-.03674-.03728-.14476-.18594-.06132-.06376a1.85484,1.85484,0,0,1-.15709-.2756c.07319.16206-.06425-.23882-.07395-.29431a6.42383,6.42383,0,0,1,.10632-1.87054,1.50734,1.50734,0,0,0-1.5-1.5,1.53857,1.53857,0,0,0-1.5,1.5Z" transform="translate(-202.61935 -180)" fill="#3f3d56"/><path d="M828.80082,395.65277,836.194,404.975c.94082,1.1863,2.95772-.09794,2.50708-1.45942-.92159-2.78427,2.25946-4.33569,4.45517-4.79414,2.91329-.60828,5.83651-.50961,8.60082-1.76169,1.756-.79538.23267-3.38163-1.51416-2.59041-3.23363,1.46466-7.00411.79322-10.27848,2.2179-2.92669,1.27341-5.24082,4.449-4.15619,7.72586l2.50708-1.45942-7.39319-9.32218a1.51044,1.51044,0,0,0-2.12132,0,1.53489,1.53489,0,0,0,0,2.12132Z" transform="translate(-202.61935 -180)" fill="#3f3d56"/><path d="M813.80082,286.65277,821.194,295.975c.94082,1.1863,2.95772-.09794,2.50708-1.45942-.92159-2.78427,2.25946-4.33569,4.45517-4.79414,2.91329-.60828,5.83651-.50961,8.60082-1.76169,1.756-.79538.23267-3.38163-1.51416-2.59041-3.23363,1.46466-7.00411.79322-10.27848,2.2179-2.92669,1.27341-5.24082,4.449-4.15619,7.72586l2.50708-1.45942-7.39319-9.32218a1.51044,1.51044,0,0,0-2.12132,0,1.53489,1.53489,0,0,0,0,2.12132Z" transform="translate(-202.61935 -180)" fill="#3f3d56"/></svg>