<svg width="32" height="32" viewBox="0 0 32 32" fill="none" xmlns="http://www.w3.org/2000/svg">
<rect width="32" height="32" rx="16" fill="url(#paint0_linear_54_2843)"/>
<path fill-rule="evenodd" clip-rule="evenodd" d="M16.0007 10.6668C14.6992 10.6668 13.4994 10.7742 12.5365 10.9013C11.6698 11.0158 11.0163 11.6693 10.9018 12.536C10.7747 13.4989 10.6673 14.6987 10.6673 16.0002C10.6673 17.3017 10.7747 18.5014 10.9018 19.4644C11.0163 20.331 11.6698 20.9845 12.5365 21.099C13.4994 21.2262 14.6992 21.3335 16.0007 21.3335C17.3021 21.3335 18.5019 21.2262 19.4648 21.099C20.3315 20.9845 20.985 20.331 21.0995 19.4644C21.2266 18.5014 21.334 17.3017 21.334 16.0002C21.334 14.6987 21.2266 13.4989 21.0995 12.536C20.985 11.6693 20.3315 11.0158 19.4648 10.9013C18.5019 10.7742 17.3021 10.6668 16.0007 10.6668ZM12.3619 9.57949C10.8973 9.77291 9.7734 10.8969 9.57998 12.3614C9.44701 13.3682 9.33398 14.6277 9.33398 16.0002C9.33398 17.3726 9.44701 18.6321 9.57998 19.6389C9.7734 21.1035 10.8973 22.2274 12.3619 22.4208C13.3687 22.5538 14.6282 22.6668 16.0007 22.6668C17.3731 22.6668 18.6326 22.5538 19.6394 22.4208C21.104 22.2274 22.2279 21.1035 22.4213 19.6389C22.5543 18.6321 22.6673 17.3726 22.6673 16.0002C22.6673 14.6277 22.5543 13.3682 22.4213 12.3614C22.2279 10.8969 21.104 9.77291 19.6394 9.57949C18.6326 9.44652 17.3731 9.3335 16.0007 9.3335C14.6282 9.3335 13.3687 9.44652 12.3619 9.57949Z" fill="#FCFCFD"/>
<path d="M14.0004 15.3332C14.7368 15.3332 15.3337 14.7362 15.3337 13.9998C15.3337 13.2635 14.7368 12.6665 14.0004 12.6665C13.264 12.6665 12.6671 13.2635 12.6671 13.9998C12.6671 14.7362 13.264 15.3332 14.0004 15.3332Z" fill="#FCFCFD"/>
<path d="M20.0813 16.4714L21.2775 17.6676C21.2362 18.2917 21.176 18.8709 21.1095 19.3852L19.1385 17.4142C18.8781 17.1538 18.456 17.1538 18.1957 17.4142L16.748 18.8619C15.9669 19.6429 14.7006 19.6429 13.9195 18.8619L13.8051 18.7475C13.5448 18.4872 13.1227 18.4872 12.8623 18.7475L11.2563 20.3536C11.0702 20.1013 10.9458 19.7985 10.9016 19.464C10.8775 19.2816 10.8541 19.0907 10.832 18.8922L11.9195 17.8047C12.7006 17.0236 13.9669 17.0237 14.748 17.8047L14.8623 17.9191C15.1227 18.1794 15.5448 18.1794 15.8051 17.9191L17.2529 16.4714C18.0339 15.6903 19.3002 15.6903 20.0813 16.4714Z" fill="#FCFCFD"/>
<defs>
<linearGradient id="paint0_linear_54_2843" x1="24" y1="5" x2="6" y2="28.5" gradientUnits="userSpaceOnUse">
<stop stop-color="#07DA67"/>
<stop offset="1" stop-color="#FBE449"/>
</linearGradient>
</defs>
</svg>
