<svg width="280" height="213" viewBox="0 0 280 213" fill="none" xmlns="http://www.w3.org/2000/svg">
<path d="M171.146 1.31142C171.325 2.10151 171.497 2.86241 171.678 3.65542C170.418 4.21977 169.119 3.90548 167.833 4.08452C167.506 7.89193 167.972 11.6799 168.224 15.4863C167.112 15.4464 166.07 15.4075 164.937 15.3666C164.827 11.5213 164.38 7.73625 164.945 3.83153C163.465 3.96484 162.064 4.09036 160.584 4.22367C160.568 3.12318 160.554 2.04702 160.537 0.878428C164.103 0.251805 167.579 1.25499 171.146 1.31142Z" fill="white"/>
<path d="M153.632 3.80969C153.339 4.07127 152.799 4.43445 152.423 4.91794C151.955 5.51895 151.568 6.19447 151.252 6.8864C151.068 7.2895 151.033 7.78401 151.03 8.24366C151.025 9.26491 151.204 10.2791 151.532 11.2726C151.718 11.8359 152.355 12.29 152.952 12.2751C153.853 12.2527 154.757 12.2314 155.653 12.1639C156.313 12.1142 156.961 11.9913 157.662 11.8945C157.793 12.8355 157.918 13.7325 158.049 14.6745C158.033 14.6836 157.967 14.7493 157.89 14.7571C157.023 14.8458 156.158 14.9602 155.286 14.9975C154.507 15.0308 153.719 15.0145 152.937 14.9466C152.415 14.9011 151.869 14.7955 151.383 14.5953C150.545 14.2504 149.919 13.6724 149.457 12.8749C148.969 12.0335 148.788 11.1512 148.563 10.2536C148.287 9.15138 148.201 8.06166 148.415 6.98851C148.702 5.55298 149.213 4.20152 150.318 3.17146C150.884 2.64341 151.463 2.1041 152.13 1.70443C152.616 1.41291 153.273 1.37944 153.822 1.16308C154.721 0.807814 155.672 0.911709 156.605 1.02401C157.315 1.10962 158.013 1.37259 158.722 1.55818C158.667 2.20661 158.616 2.81211 158.559 3.48821C156.993 3.50576 155.367 3.05386 153.632 3.80969Z" fill="white"/>
<path d="M138.415 14.5661C138.314 13.5038 138.173 12.398 138.112 11.2927C138.058 10.3037 138.067 9.31343 138.093 8.32745C138.143 6.42794 138.255 4.53309 138.281 2.6322C138.293 1.74782 138.602 1.08543 139.457 0.796844C140.048 0.597214 140.696 0.520576 141.328 0.426883C142.398 0.267979 143.474 0.133965 144.551 0.00321865C144.697 -0.014492 144.858 0.0472088 145.141 0.0926676C145.153 0.647241 145.165 1.22197 145.178 1.79173C143.675 2.15491 142.144 2.52487 140.569 2.90569C140.516 4.36545 140.463 5.85141 140.406 7.42927C141.375 7.42217 142.268 7.41564 143.21 7.40879C143.259 8.09868 143.306 8.77453 143.363 9.58219C142.443 9.68209 141.542 9.77978 140.506 9.89208C140.567 10.7716 140.633 11.7188 140.704 12.7421C142.213 12.4413 143.705 12.1436 145.271 11.8315C145.299 11.8606 145.424 11.9352 145.453 12.031C145.661 12.7294 145.871 13.429 146.025 14.1363C146.052 14.2625 145.848 14.5277 145.703 14.5552C144.756 14.7363 143.793 14.8645 142.838 15.0203C141.88 15.1765 140.934 15.4101 139.965 15.4751C139.582 15.5008 139.142 15.179 138.745 14.9819C138.622 14.9214 138.555 14.7498 138.415 14.5661Z" fill="white"/>
<path d="M114.99 14.813C114.106 14.813 113.252 14.813 112.287 14.813C111.398 13.2447 110.495 11.6456 109.586 10.0491C108.805 8.67634 108.02 7.30617 107.232 5.93728C107.198 5.87821 107.122 5.84302 106.998 5.74067C106.723 8.72932 106.453 11.6578 106.178 14.6387C105.255 14.574 104.463 14.5185 103.549 14.4544C103.854 9.87324 104.155 5.35896 104.46 0.788279C105.563 0.788279 106.543 0.788279 107.515 0.788279C108.434 2.29832 109.381 3.81024 110.283 5.34825C111.172 6.86412 112.016 8.40648 112.94 10.0452C113.389 8.47893 113.438 6.91369 113.696 5.38933C113.96 3.83486 114.141 2.26628 114.363 0.673215C115.342 0.673215 116.267 0.673215 117.191 0.673215C117.339 1.51296 115.433 13.8525 114.99 14.813Z" fill="white"/>
<path d="M132.254 14.813C131.37 14.813 130.516 14.813 129.55 14.813C128.662 13.2447 127.758 11.6456 126.85 10.0491C126.069 8.67634 125.283 7.30617 124.496 5.93728C124.462 5.87821 124.386 5.84302 124.262 5.74067C123.986 8.72932 123.717 11.6578 123.442 14.6387C122.518 14.574 121.727 14.5185 120.812 14.4544C121.118 9.87324 121.419 5.35896 121.723 0.788279C122.827 0.788279 123.806 0.788279 124.779 0.788279C125.698 2.29832 126.644 3.81024 127.546 5.34825C128.435 6.86412 129.279 8.40648 130.204 10.0452C130.653 8.47893 130.701 6.91369 130.96 5.38933C131.224 3.83486 131.405 2.26628 131.626 0.673215C132.605 0.673215 133.531 0.673215 134.454 0.673215C134.603 1.51296 132.697 13.8525 132.254 14.813Z" fill="white"/>
<path d="M99.0711 3.09841C99.5681 3.86266 99.8375 4.81706 99.9174 5.47398C99.9729 5.92604 99.9762 6.39231 99.9215 6.86837C99.9117 7.05494 99.9264 7.24527 99.8864 7.42735C99.7469 8.05693 99.6285 8.69369 99.4253 9.30865C99.2106 9.95782 99.0042 10.64 98.6247 11.2108C97.7816 12.4781 96.8397 13.6422 95.3356 14.351C94.4362 14.7747 93.6094 14.8582 92.7068 14.7693C91.4646 14.6468 90.566 13.9926 89.8886 13.0879C89.101 12.0357 88.7729 10.789 88.7982 9.46576C88.8178 8.49357 88.866 7.50668 89.052 6.54428C89.3565 4.96274 90.2404 3.58541 91.0581 2.16547C91.1651 1.97882 93.1809 0.320325 95.6865 0.741458C97.7661 1.0911 98.7862 2.66022 99.0711 3.09841ZM94.6508 3.28115C93.9865 3.27046 93.407 4.04205 93.3172 4.16226C93.1075 4.44139 93.0748 4.65938 92.8161 5.31687C92.6072 5.84753 92.3158 6.37574 92.2367 6.9184C92.0538 8.18 91.7649 9.4301 92.3183 10.6861C92.7745 11.722 93.7816 11.7832 94.455 11.1152C95.1266 10.4494 95.7494 9.78994 96.1183 8.86948C96.3288 8.34209 96.4496 7.83134 96.4904 7.32908C96.559 6.47082 96.3998 5.75547 96.2138 5.24399C95.9795 4.59727 95.5061 3.29494 94.6508 3.28115Z" fill="white"/>
<path d="M74.7936 11.0419C74.7422 10.779 74.6908 10.5158 74.6385 10.2531C74.4745 9.44098 74.5006 8.63405 74.7536 7.80795C74.9291 7.23656 74.956 6.63057 75.1445 6.06367C75.3078 5.57129 75.5485 5.07817 75.853 4.64553C76.4087 3.85673 76.9686 3.08343 77.7921 2.47034C78.5805 1.88328 79.3885 1.42444 80.3312 1.21518C81.6305 0.926998 82.9281 0.907818 84.2079 1.1303C84.487 1.17878 84.7473 1.3052 85.1513 1.4415C85.397 2.18974 84.8551 3.02368 84.8592 3.87509C84.243 3.79331 83.6725 3.68338 83.093 3.64861C82.2369 3.59727 81.3938 3.76875 80.5695 4.05244C79.8088 4.31434 79.2375 4.79766 78.8197 5.46111C78.5299 5.9215 78.1431 6.35104 77.9562 6.84089C77.7334 7.42583 77.6852 8.06169 77.5456 8.67315C77.4142 9.25016 77.4836 9.77617 77.7995 10.2629C78.2418 10.9454 79.0171 11.0087 79.737 11.0071C80.6445 11.005 81.5701 10.9523 82.4711 10.632C82.7657 10.5272 83.1142 10.586 83.5574 10.5641C83.4227 11.5338 83.2913 12.4738 83.1477 13.5073C82.5095 13.6028 81.8076 13.7471 81.104 13.8021C80.3752 13.8592 79.6333 13.8943 78.9168 13.8225C77.9137 13.7219 76.9409 13.4954 76.2063 12.7868C75.9239 12.515 75.5763 12.2975 75.338 11.9958C75.1135 11.7119 74.9944 11.3497 74.8287 11.0219C74.8173 11.0285 74.805 11.0352 74.7936 11.0419Z" fill="white"/>
<path d="M8.16068 146.353C7.91667 146.325 5.35535 146.031 4.21835 145.129C4.02798 144.978 3.66801 144.693 3.5088 144.201C3.41707 143.918 3.40151 143.599 3.48111 143.248C3.64206 142.526 3.7632 141.794 3.92414 141.072C4.03836 140.558 4.36373 140.29 4.91233 140.349C5.40382 140.403 5.54572 140.706 5.61148 141.166C5.78108 142.36 6.2397 143.378 7.42343 143.944C7.64668 144.051 7.76263 144.383 7.96511 144.66C8.31988 144.733 8.78024 144.774 9.19905 144.93C9.41018 145.008 9.66631 145.288 9.67496 145.486C9.68015 145.657 9.38767 145.877 9.18346 146.006C8.94118 146.16 8.65217 146.24 8.3822 146.353C8.30951 146.353 8.2351 146.353 8.16068 146.353Z" fill="#221F14"/>
<path d="M11.1611 118.675C11.7911 118.836 12.4279 118.974 13.051 119.159C14.143 119.485 15.2211 119.86 16.3183 120.172C17.0296 120.374 17.7721 120.468 18.4799 120.679C18.8295 120.783 19.186 120.985 19.4525 121.236C21.0169 122.702 21.0688 122.721 20.702 124.972C20.2953 127.461 19.8124 129.939 19.2638 132.4C19.0319 133.433 18.5404 134.408 18.1805 135.415C17.9451 136.078 17.8119 136.791 17.4934 137.409C16.9171 138.521 16.0743 139.44 15.0135 140.117C14.6275 140.365 14.1637 140.325 13.7155 140.178C13.5303 140.115 13.3106 140.089 13.1185 140.121C11.2113 140.429 9.37514 140.178 7.57877 139.496C6.55252 139.105 5.63185 138.57 4.94653 137.698C4.21102 136.761 4.27505 135.652 4.44119 134.589C4.73366 132.727 5.11959 130.879 5.50032 129.033C6.03335 126.442 6.40024 123.796 7.72761 121.444C8.34371 120.35 8.99095 119.246 10.3287 118.86C10.3962 118.839 10.4585 118.78 10.526 118.775C10.7302 118.765 10.9344 118.772 11.1369 118.772C11.1456 118.741 11.1525 118.708 11.1611 118.675Z" fill="white"/>
<path d="M220.808 212.543C219.363 212.43 218.377 212.275 216.056 212.103C215.199 212.041 214.396 211.993 214.298 211.986C213.545 211.944 212.792 211.911 212.039 211.871C209.947 211.761 207.848 211.714 205.764 211.515C204.418 211.385 203.068 211.112 201.934 210.25C200.541 209.191 199.916 207.817 200.169 206.064C200.352 204.778 200.813 203.623 201.803 202.755C203.537 201.23 205.537 200.155 207.758 199.555C209.208 199.164 210.7 198.918 212.179 198.648C214.092 198.298 216.011 197.994 217.927 197.663C219.877 197.326 221.826 196.983 223.775 196.637C227.078 196.052 230.415 195.595 233.578 194.411C236.38 193.361 239.17 192.281 241.944 191.165C244.635 190.081 247.309 188.951 249.976 187.811C251.816 187.023 253.662 186.236 255.232 184.955C256.23 184.14 257.118 183.216 257.746 182.069C258.721 180.284 259.276 178.407 259.385 176.351C259.527 173.691 259.062 171.178 258.001 168.755C257.101 166.704 255.718 165.029 253.994 163.619C252.101 162.068 250.227 160.491 248.32 158.958C246.657 157.624 244.999 156.277 243.266 155.038C241.629 153.867 239.93 152.768 238.189 151.757C237.292 151.236 236.25 150.956 235.262 150.601C234.155 150.205 233.026 149.867 231.919 149.473C229.548 148.628 227.184 147.763 224.792 146.898C223.903 148.803 222.677 150.613 221.224 152.271C220.594 152.988 219.991 153.735 219.306 154.396C217.541 156.097 215.609 157.584 213.484 158.823C210.88 160.339 208.133 161.495 205.2 162.174C203.822 162.492 202.414 162.684 201.017 162.921C199.755 163.136 198.677 163.29 198.322 163.34C194.809 163.833 193.311 163.122 189.318 163.247C185.883 163.354 183.358 164.178 180.913 165.524C180.091 165.977 179.599 166.789 179.23 167.67C178.637 169.094 177.744 170.313 176.475 171.213C175.669 171.785 174.759 172.055 173.76 172.175C170.543 172.557 167.315 172.5 164.089 172.481C162.963 172.474 161.838 172.299 160.713 172.287C160.045 172.28 159.373 172.434 158.707 172.531C157.574 172.697 156.444 172.893 155.308 173.042C154.277 173.179 153.24 173.286 152.204 173.371C151.883 173.397 151.553 173.31 151.229 173.269C150.379 173.161 149.535 173.023 148.683 172.943C146.586 172.746 144.964 171.727 143.748 170.06C142.613 168.504 141.602 166.864 141.09 164.981C140.631 163.293 140.878 161.777 142.093 160.4C142.945 159.436 144.018 158.846 145.108 158.295C145.686 158.005 146.428 158.006 147.105 157.944C149.407 157.733 151.709 157.522 154.015 157.371C156.97 157.177 159.929 157.044 162.887 156.883C163.072 156.873 163.295 156.906 163.43 156.816C163.735 156.608 164.091 156.385 164.249 156.077C164.439 155.705 164.065 155.459 163.792 155.23C162.331 154.014 160.632 153.304 158.837 152.725C156.059 151.825 153.342 150.736 150.553 149.876C147.872 149.049 145.148 148.346 142.413 147.718C141.178 147.434 139.87 147.451 138.594 147.351C136.583 147.193 134.572 147.052 132.559 146.908C131.919 146.861 131.274 146.854 130.635 146.789C128.638 146.581 126.644 146.352 124.649 146.134C123.559 146.017 122.47 145.863 121.378 145.8C119.466 145.693 117.552 145.615 115.636 145.577C113.58 145.536 111.541 145.778 109.546 146.254C107.133 146.828 104.716 147.41 102.353 148.156C100.647 148.694 99.0272 149.502 97.3693 150.193C94.0984 151.555 90.7203 152.583 87.2642 153.346C85.3156 153.775 83.3513 154.166 81.3767 154.448C79.4436 154.723 77.488 154.864 75.5377 155.018C74.1099 155.132 72.6752 155.213 71.2423 155.239C69.2071 155.275 67.1684 155.324 65.1384 155.229C62.3885 155.099 59.6628 154.711 56.9769 154.08C56.6931 154.014 56.3712 154.131 56.0666 154.131C54.5471 154.138 53.0224 154.204 51.5064 154.116C50.0164 154.029 48.535 153.782 47.0501 153.611C46.2506 153.519 45.4511 153.432 44.6515 153.358C42.6302 153.169 40.6019 153.039 38.5875 152.79C36.3688 152.515 34.1571 152.166 31.9523 151.783C30.9382 151.608 29.9569 151.248 28.9497 151.027C26.8418 150.559 24.7201 150.167 22.6192 149.677C19.0195 148.838 15.3956 148.074 11.9171 146.79C10.1155 146.124 8.34512 145.375 6.54183 144.71C5.83228 144.449 5.06907 144.338 4.34222 144.116C2.56142 143.575 1.05061 142.652 0.446628 140.785C-0.235231 138.67 -0.108904 136.552 0.638718 134.446C0.98484 133.477 1.26866 132.511 2.07512 131.8C2.79852 131.163 3.59806 130.614 4.54817 130.507C5.121 130.441 5.73016 130.709 6.32376 130.822C10.5413 131.618 14.7501 132.468 18.9797 133.186C21.1049 133.548 23.2699 133.696 25.421 133.897C30.1681 134.34 34.929 134.399 39.6916 134.332C41.2284 134.311 42.7738 134.274 44.2967 134.091C44.9198 134.015 45.5393 133.598 46.0775 133.217C47.2993 132.355 48.3948 131.341 48.8742 129.865C49.0161 129.427 49.0196 128.915 48.9555 128.454C48.9261 128.242 48.6181 127.984 48.381 127.897C47.3236 127.511 46.2627 127.17 45.3524 126.452C44.1133 125.476 43.3068 124.227 42.8828 122.737C42.4658 121.274 42.1352 119.788 41.7527 118.315C41.7181 118.182 41.5935 118.048 41.4776 117.962C39.9927 116.846 38.4888 115.757 37.0213 114.622C36.3256 114.083 35.6437 113.507 35.0536 112.862C34.4323 112.178 33.8404 111.439 33.3853 110.64C32.2102 108.58 31.4279 106.337 30.5488 104.145C30.0331 102.857 29.6125 101.504 29.3685 100.142C29.0674 98.4682 28.9099 96.7567 29.1816 95.0451C29.372 93.8423 29.5485 92.6361 29.7302 91.4333C29.9933 89.6992 30.817 88.2075 31.7741 86.7849C32.8644 85.1616 33.6656 83.4137 33.9581 81.4841C34.2696 79.4454 34.967 77.5279 35.5831 75.581C35.6056 75.5135 35.6558 75.4564 35.6697 75.4356C37.4089 75.7575 38.9232 76.4861 40.3458 77.5002C41.4672 78.3015 42.7184 78.9245 43.9298 79.596C44.1929 79.7431 44.5338 79.8452 44.8263 79.8192C45.9218 79.724 47.0103 79.5579 48.1041 79.435C48.4727 79.3952 48.8448 79.3987 49.2151 79.3866C51.3144 79.3104 53.4136 79.2343 55.5145 79.1633C56.8454 79.12 58.1779 79.1253 59.5053 79.0353C60.1681 78.9903 60.8171 78.767 61.4747 78.6493C63.5117 78.2876 64.4791 76.5588 65.7718 75.2643C66.4329 74.598 66.9521 73.7932 67.5526 73.0629C67.8918 72.651 68.2656 72.2651 68.7277 71.7511C69.6103 72.7532 70.4064 73.6427 71.1869 74.5461C72.2097 75.7263 73.1944 76.9378 74.2466 78.0903C74.6464 78.5264 75.169 78.8622 75.6692 79.1927C76.5899 79.8019 77.1921 80.6932 77.8809 81.5187C78.8829 82.7232 79.7551 84.0038 80.1566 85.5285C80.3158 86.1342 80.2155 86.8057 80.2743 87.4443C80.3037 87.7523 80.3505 88.1279 80.5408 88.3217C80.6447 88.4255 81.0739 88.2213 81.3508 88.1348C81.8959 87.9635 82.1468 87.6225 81.9426 87.0393C81.9305 87.0064 81.9253 86.958 81.9409 86.932C82.2576 86.4405 82.531 85.911 82.91 85.4749C83.2821 85.0439 83.7182 84.6303 84.2063 84.3482C85.4056 83.6577 86.6308 83.0018 87.8855 82.4169C89.1333 81.8354 90.4088 81.2989 91.7102 80.8524C93.7817 80.1411 95.8723 79.4766 97.9784 78.883C99.1622 78.549 100.389 78.3153 101.611 78.1803C103.324 77.9934 105.051 77.9346 106.772 77.829C107.563 77.7806 108.353 77.7061 109.143 77.7269C110.816 77.7684 112.491 77.8255 114.161 77.9519C116.02 78.0903 117.868 78.3465 119.727 78.4866C121.425 78.6147 123.128 78.6666 124.829 78.7289C126.246 78.7809 127.67 78.7324 129.083 78.8449C131.102 79.0059 133.111 79.2879 135.128 79.487C138.784 79.8469 142.298 80.8161 145.752 82.0067C147.583 82.6384 149.362 83.4223 151.16 84.1475C152.808 84.812 154.45 85.4904 156.094 86.1619C156.883 86.4838 157.66 86.8438 158.467 87.1103C159.064 87.3076 159.695 87.4495 160.32 87.4927C162.36 87.6381 164.358 87.8406 166.291 88.6557C167.371 89.1108 168.615 89.2008 169.795 89.3877C171.072 89.5902 172.36 89.7373 173.649 89.8706C175.195 90.0298 176.744 90.2392 178.294 90.2548C179.274 90.2652 180.265 90.0298 181.089 89.3358C181.427 89.052 181.47 88.7267 181.477 88.3909C181.515 86.4976 181.269 84.632 180.911 82.7768C180.577 81.0497 180.246 79.3208 179.931 77.5885C179.684 76.2351 179.789 74.887 180.059 73.5441C180.085 73.4194 180.087 73.2637 180.035 73.1512C178.569 69.9825 177.104 66.8137 175.615 63.6553C175.061 62.4785 174.686 61.2723 174.816 59.9588C174.944 58.6747 175.562 57.6121 176.539 56.8298C177.441 56.1064 178.415 55.4402 179.442 54.9123C181.207 54.002 183.031 53.9899 184.855 54.8622C185.386 55.1165 186.052 55.1131 186.547 55.409C187.51 55.987 188.458 56.6239 189.297 57.3646C190.408 58.3424 191.412 59.4448 192.461 60.4953C193.331 61.3658 194.238 62.2034 195.062 63.1171C195.78 63.9132 196.405 64.7941 197.069 65.6404C197.744 66.5005 198.499 67.3121 199.07 68.238C199.809 69.4391 200.427 70.7197 201.046 71.9917C201.304 72.523 201.417 73.1252 201.628 73.6825C201.695 73.859 201.856 74.0131 202.002 74.1463C202.628 74.7122 203.236 75.3041 203.909 75.8077C204.272 76.0794 204.74 76.2369 205.184 76.3684C206.825 76.8564 208.213 77.7892 209.485 78.8778C210.717 79.93 211.915 81.0341 213.034 82.2023C215.346 84.613 217.383 87.247 218.638 90.3673C219.46 92.4128 220.042 94.5553 220.746 96.6494C221.343 98.418 221.976 100.173 222.565 101.943C223.2 103.85 223.835 105.759 224.408 107.687C225.064 109.892 225.661 112.114 226.263 114.334C226.99 117.01 227.781 119.665 228.231 122.413C228.52 124.171 228.67 125.942 228.483 127.684C228.361 128.825 228.644 129.325 229.619 129.874C230.783 130.531 232.035 130.817 233.253 131.265C235.38 132.047 237.483 132.899 239.561 133.8C241.491 134.638 243.398 135.533 245.27 136.488C247.262 137.504 249.223 138.584 251.16 139.703C252.871 140.695 254.559 141.739 256.204 142.836C257.791 143.891 259.337 145.018 260.858 146.167C262.241 147.213 263.563 148.337 264.92 149.416C266.162 150.404 267.432 151.356 268.656 152.363C269.456 153.022 270.245 153.709 270.953 154.462C272.197 155.784 273.457 157.106 274.564 158.541C276.253 160.732 277.676 163.096 278.595 165.732C279.033 166.983 279.734 169.248 279.941 172.111C279.964 172.434 280.064 173.898 279.936 175.833C279.879 176.705 279.806 178.019 279.453 179.516C278.95 181.646 278.334 183.746 277.43 185.762C275.983 188.993 274.268 192.053 271.832 194.631C270.407 196.14 268.871 197.564 267.256 198.868C265.039 200.655 262.692 202.27 260.148 203.596C257.376 205.041 254.548 206.34 251.577 207.304C249.907 207.846 248.211 208.306 246.511 208.748C244.794 209.194 243.06 209.584 241.33 209.978C240.624 210.139 239.857 210.132 239.206 210.409C237.607 211.091 235.927 211.326 234.233 211.537C232.966 211.695 231.699 211.847 230.43 211.991C228.762 212.179 227.094 212.356 225.425 212.543C225.275 212.56 225.13 212.617 224.981 212.655C223.2 212.693 221.772 212.617 220.808 212.543Z" fill="#FFDB2C"/>
<path d="M86.7046 136.28C86.9157 133.508 87.9575 131.154 90.2783 129.515C90.967 129.029 91.7545 128.61 92.5592 128.383C93.8779 128.013 94.9249 129.006 94.7225 130.41C94.494 131.987 93.646 133.25 92.6561 134.422C91.9483 135.256 91.1695 136.029 90.3925 136.803C89.7902 137.403 89.0564 137.798 88.2154 137.971C87.5439 138.108 86.7547 137.455 86.7063 136.723C86.6959 136.576 86.7046 136.427 86.7046 136.28Z" fill="#221F14"/>
<path d="M96.4812 146.29C95.1227 146.235 94.4425 145.25 94.9911 144.03C95.7751 142.284 97.0298 140.941 98.6894 139.989C99.2432 139.67 99.8455 139.487 100.425 139.934C101.052 140.416 101.323 141.01 101.059 141.832C100.449 143.722 99.3609 145.191 97.523 146.029C97.2028 146.176 96.829 146.207 96.4812 146.29Z" fill="#221F14"/>
<path d="M72.259 148.597C72.4234 148.138 72.6795 147.309 73.0205 146.515C73.4445 145.527 73.91 144.554 74.7303 143.803C75.4191 143.173 76.2307 142.964 76.8711 143.268C77.6169 143.623 77.809 144.331 77.7692 145.008C77.6758 146.539 77.0701 147.896 75.9763 148.995C75.3775 149.597 74.6628 150.051 73.8217 150.213C73.0776 150.357 72.1967 150.056 72.259 148.597Z" fill="#221F14"/>
<path d="M45.3365 140.06C46.1828 139.965 46.7037 141.034 46.3178 141.732C45.8817 142.526 45.4421 143.338 44.8675 144.03C44.2549 144.769 43.5229 145.423 42.7718 146.027C42.083 146.579 41.3267 146.503 40.9633 146.065C40.6535 145.69 40.5756 145.278 40.6864 144.835C41.19 142.832 42.5105 141.463 44.2099 140.418C44.5353 140.217 44.9593 140.176 45.3365 140.06Z" fill="#221F14"/>
<path d="M117.452 78.2716C117.121 78.9932 116.751 79.5384 116.455 79.9157C116.251 80.1804 115.152 81.6722 113.205 82.3506C112.689 82.5306 112.056 82.6795 111.561 82.5393C110.626 82.2745 110.337 81.5459 110.9 80.4279C111.163 79.9053 111.365 79.7167 112.17 78.6645C112.435 78.3201 112.641 78.0362 112.767 77.8614C113.375 77.8943 113.994 77.9359 114.624 77.9878C115.597 78.0657 116.54 78.1626 117.452 78.2716Z" fill="#221F14"/>
<path d="M216.021 85.7223C216.497 86.3661 216.997 87.1172 217.483 87.9807C217.938 88.7907 218.302 89.5608 218.594 90.2617C218.549 90.3309 218.482 90.4348 218.398 90.5628C217.043 92.643 216.652 92.8801 216.41 93.0064C215.232 93.6208 214.524 92.9009 214.429 91.9456C214.165 89.296 215.42 86.6967 215.801 86.0702C215.891 85.9231 215.967 85.8036 216.021 85.7223Z" fill="#221F14"/>
<path d="M204.405 101.453C204.23 103.182 203.829 104.849 202.918 106.353C202.731 106.661 202.441 106.927 202.146 107.144C201.494 107.623 200.563 107.126 200.523 106.271C200.501 105.818 200.527 105.344 200.639 104.908C200.892 103.928 201.212 102.966 201.503 101.997C201.712 101.296 202.198 100.771 202.761 100.38C203.031 100.193 203.541 100.202 203.887 100.306C204.408 100.463 204.431 100.974 204.405 101.453Z" fill="#221F14"/>
<path d="M198.5 146.558C198.633 145.015 199.386 143.827 200.651 142.941C200.902 142.765 201.136 142.554 201.404 142.408C202.332 141.908 203.174 142.408 203.173 143.448C203.169 144.701 202.472 145.688 201.861 146.688C201.603 147.109 201.188 147.449 200.795 147.768C200.309 148.161 199.746 148.246 199.18 147.905C198.682 147.604 198.401 147.183 198.5 146.558Z" fill="#221F14"/>
<path d="M87.2601 90.9193C87.2549 89.5435 88.4854 87.6311 89.6484 87.2781C90.0516 87.157 90.5085 87.067 90.9134 87.131C91.6593 87.2487 92.2945 88.4376 91.886 89.0779C91.1557 90.2219 90.3908 91.3675 89.1742 92.0978C88.2812 92.6343 87.2013 91.975 87.2601 90.9193Z" fill="#221F14"/>
<path d="M267.648 177.232C267.623 177.815 267.589 178.671 266.999 179.435C266.76 179.743 266.331 180.4 265.713 180.272C264.839 180.092 264.372 179.587 264.368 178.813C264.365 178.071 264.295 177.32 264.387 176.59C264.474 175.922 264.664 175.241 264.957 174.637C265.078 174.386 265.583 174.194 265.914 174.196C266.327 174.2 266.751 174.307 267.014 174.617C267.153 174.778 267.201 174.942 267.234 175.048C267.528 176.044 267.675 176.543 267.648 177.232Z" fill="#221F14"/>
<path d="M118.83 89.3861C118.634 89.4121 118.402 89.4208 118.203 89.291C117.722 88.976 117.793 88.0951 117.822 88.0155C118.155 87.1138 118.736 86.4026 119.432 85.7726C119.795 85.4438 120.176 85.1271 120.579 84.8485C120.842 84.6668 121.149 84.5231 121.455 84.4297C122.043 84.2532 122.665 85.0441 122.822 85.6896C122.914 86.0668 122.839 86.3783 122.791 86.5756C122.604 87.3336 122.09 87.787 121.867 87.9618C121.408 88.2733 119.944 89.2321 118.83 89.3861Z" fill="#221F14"/>
<path d="M56.1973 154.125C57.7531 151.925 59.1168 150.47 59.6827 150.245C60.1361 150.065 60.5134 150.137 60.5134 150.137C60.7107 150.174 60.8993 150.26 61.0776 150.393C61.5483 150.75 61.6937 151.217 61.6089 151.832C61.512 152.538 61.2143 152.865 60.3992 154.422C60.3334 154.552 60.278 154.658 60.2451 154.725C59.629 154.649 59.1289 154.566 58.7845 154.502C58.1304 154.381 57.7617 154.284 57.1024 154.202C56.7199 154.156 56.4049 154.135 56.1973 154.125Z" fill="#221F14"/>
<path d="M171.451 89.6369C170.52 91.6859 169.589 93.1535 168.968 93.7281C168.764 93.9167 168.346 94.2957 167.807 94.2819C167.639 94.2784 167.469 94.2334 167.299 94.1503C166.92 93.9634 166.668 93.709 166.578 93.3975C166.483 93.0721 166.595 92.7745 166.657 92.6153C167.128 91.4229 168.201 89.3496 168.295 89.1696C169.347 89.3254 170.399 89.4811 171.451 89.6369Z" fill="#221F14"/>
<path d="M105.049 88.1847C104.867 88.5429 104.646 89.1902 104.256 89.7146C103.613 90.5851 102.848 91.3829 101.737 91.6303C101.392 91.7082 100.916 91.6148 100.627 91.4157C100.314 91.1977 100.193 90.7616 100.309 90.322C100.62 89.1642 101.304 88.2764 102.289 87.6223C102.733 87.3263 103.197 87.0217 103.697 86.8504C104.544 86.5631 105.065 87.2173 105.049 88.1847Z" fill="#221F14"/>
<path d="M28.8709 151.004C27.7149 150.764 26.5606 150.523 25.4062 150.283C25.9462 149.378 26.5311 148.736 26.969 148.318C27.322 147.983 27.971 147.498 28.8398 147.01C29.3053 146.747 29.8106 146.399 30.4181 146.692C31.0238 146.982 31.2869 147.427 30.9875 148.021C30.6015 148.789 30.0841 149.495 29.5943 150.208C29.4005 150.49 29.1322 150.721 28.8709 151.004Z" fill="#221F14"/>
<path d="M45.846 113.632C45.8788 113.741 45.9273 113.914 45.9844 114.125C46.4569 115.869 46.3271 116.352 46.7528 117.172C46.9882 117.624 47.2806 118.053 47.632 118.458C48.2861 119.213 49.2587 119.279 49.5702 119.331C49.9215 119.386 50.2209 119.388 50.4355 119.377C50.5065 119.46 50.7124 119.718 50.7349 120.106C50.7522 120.402 50.6553 120.629 50.6034 120.731C50.1586 120.831 49.3989 120.937 48.5353 120.698C47.0712 120.294 46.2925 119.173 45.8789 118.576C44.5636 116.679 44.6605 114.596 44.7349 113.834C45.1053 113.767 45.4756 113.699 45.846 113.632Z" fill="#221F14"/>
<path d="M207.519 91.7953C207.551 90.7223 207.826 89.7237 208.412 88.8152C208.695 88.3808 209.158 88.0987 209.575 88.3219C210.069 88.5867 210.548 89.0246 210.825 89.5074C211.235 90.2221 210.816 90.9646 210.532 91.6378C210.28 92.24 209.877 92.7644 209.29 93.1209C208.456 93.6314 207.568 93.1676 207.521 92.1846C207.514 92.0548 207.519 91.925 207.519 91.7953Z" fill="#221F14"/>
<path d="M38.4601 107.351C38.4185 107.021 38.5743 106.753 38.6418 106.635C39.3444 105.399 39.8463 103.892 40.7168 103.158C41.1079 102.829 41.5232 102.776 41.9455 102.909C42.3626 103.042 42.6654 103.719 42.5149 104.176C42.0199 105.664 41.3277 107.033 40.009 107.985C39.739 108.18 39.4396 108.27 39.1627 108.198C39.0312 108.163 38.9394 108.099 38.8875 108.063C38.6383 107.886 38.4912 107.606 38.4601 107.351Z" fill="#221F14"/>
<path d="M214.963 99.1639C214.8 100.69 214.373 102.073 212.947 102.93C212.415 103.248 212.002 103.295 211.592 102.938C211.244 102.637 211.213 102.184 211.348 101.777C211.609 100.99 211.858 100.185 212.244 99.4581C212.521 98.9371 212.954 98.4474 213.428 98.0943C214.134 97.57 214.949 98.058 214.963 98.9423C214.965 99.0167 214.963 99.0894 214.963 99.1639Z" fill="#221F14"/>
<path d="M81.0645 154.492C81.4556 153.69 81.864 153.09 82.1617 152.694C82.8885 151.721 83.7884 150.816 84.9947 150.43C85.4689 150.278 85.8929 150.387 86.1403 150.695C86.3255 150.927 86.3186 151.373 86.2753 151.709C86.2078 152.235 86.059 152.431 85.9205 153.214C85.8877 153.396 85.8686 153.547 85.8565 153.647C85.6644 153.692 85.4689 153.737 85.2733 153.78C83.92 154.078 82.6012 154.305 81.324 154.469C81.2375 154.476 81.151 154.485 81.0645 154.492Z" fill="#221F14"/>
<path d="M149.745 144.281C149.015 144.236 148.459 143.634 148.696 142.995C149.3 141.38 150.347 140.145 151.972 139.451C152.268 139.323 152.552 139.336 152.702 139.575C152.882 139.861 153.132 140.287 153.038 140.534C152.507 141.957 151.669 143.185 150.413 144.078C150.233 144.206 149.97 144.215 149.745 144.281Z" fill="#221F14"/>
<path d="M140.895 147.495C140.235 147.472 139.559 147.439 138.863 147.393C138.095 147.341 137.351 147.277 136.629 147.202C137.01 146.512 137.387 145.989 137.678 145.653C138.323 144.909 138.974 144.136 139.986 143.864C140.263 143.789 140.585 143.75 140.855 143.819C141.075 143.874 141.26 143.971 141.385 144.132C141.537 144.328 141.547 144.551 141.552 144.669C141.585 145.473 140.933 147.382 140.895 147.495Z" fill="#221F14"/>
<path d="M208.133 77.8271C208.415 78.0244 208.706 78.2407 209.002 78.4761C209.317 78.727 209.609 78.9762 209.881 79.2185C209.618 79.954 209.315 80.7397 208.958 81.5669C208.827 81.875 208.514 82.4444 207.953 82.9601C207.335 83.5277 206.459 83.0587 206.302 82.1259C206.144 81.2001 206.191 80.2863 206.522 79.3985C206.546 79.3345 206.681 79.1078 206.897 78.8395C207.33 78.3048 207.814 77.995 208.133 77.8271Z" fill="#221F14"/>
<path d="M158.845 95.6713C158.675 96.0279 158.544 96.4778 158.279 96.8222C157.673 97.6096 157.019 98.3624 156.349 99.0979C156.046 99.432 155.627 99.6189 155.155 99.477C154.657 99.3281 154.447 98.8038 154.693 98.1669C155.167 96.9312 155.787 95.7787 156.803 94.8874C157.297 94.453 158.391 94.5482 158.665 95.0622C158.748 95.2162 158.768 95.4048 158.845 95.6713Z" fill="#221F14"/>
<path d="M192.544 163.318C191.951 163.273 191.323 163.243 190.662 163.235C190.071 163.226 189.507 163.237 188.971 163.261C189.014 163.041 189.078 162.766 189.177 162.454C189.177 162.454 189.255 162.119 189.402 161.833C190.014 160.653 190.784 159.607 192.058 159.038C192.489 158.846 192.903 158.948 193.148 159.242C193.38 159.524 193.361 159.912 193.327 160.199C193.256 160.796 192.994 161.913 192.544 163.318Z" fill="#221F14"/>
<path d="M208.44 161.215C208.305 160.016 208.809 159.114 209.378 158.245C209.757 157.669 210.19 157.129 210.59 156.566C210.946 156.063 211.408 155.895 211.886 156.118C212.27 156.296 212.438 156.778 212.289 157.321C212.147 157.842 212.099 158.065 211.713 159.301C211.637 159.541 211.579 159.742 211.541 159.872C211.183 160.05 210.811 160.227 210.425 160.401C209.742 160.71 209.077 160.978 208.44 161.215Z" fill="#221F14"/>
<path d="M122.59 145.901C122.803 145.645 125.144 142.855 126.032 142.559C126.129 142.526 126.371 142.448 126.603 142.549C126.837 142.651 126.996 142.897 127.043 143.225C127.107 143.693 127.018 144.094 126.125 146.103C126.091 146.183 126.061 146.247 126.044 146.289C124.892 146.159 123.741 146.031 122.59 145.901Z" fill="#221F14"/>
<path d="M35.7442 97.6635C35.6058 98.5426 35.1108 99.4928 34.2715 100.249C33.9773 100.514 32.8697 100.445 32.5876 100.182C32.1705 99.7921 32.2328 99.3007 32.4319 98.8594C32.7364 98.1827 33.0756 97.5164 33.465 96.8865C33.7869 96.3638 34.3719 96.2202 34.9395 96.2392C35.4794 96.2583 35.746 96.7117 35.7442 97.6635Z" fill="#221F14"/>
<path d="M82.8705 97.8937C82.739 98.1636 82.6473 98.463 82.469 98.6967C81.8079 99.562 81.0447 100.297 79.9302 100.567C79.5218 100.666 79.2189 100.554 78.9524 100.27C78.6773 99.9756 78.5977 99.6364 78.7794 99.2643C79.3834 98.0286 80.4321 97.2914 81.6868 96.883C82.2389 96.703 82.8515 97.3104 82.8705 97.8937Z" fill="#221F14"/>
<path d="M205.186 151.892C205.192 151.759 205.216 151.588 205.991 150.402C206.154 150.151 206.507 149.753 206.927 149.227C207.26 148.812 207.713 148.689 208.141 148.905C208.563 149.118 208.585 149.412 208.539 150.009C208.449 151.165 207.755 151.935 207.004 152.686C206.841 152.849 206.625 152.974 206.41 153.064C206.301 153.109 206.034 153.181 205.79 153.093C205.372 152.943 205.171 152.346 205.186 151.892Z" fill="#221F14"/>
<path d="M101.016 80.4577C101.286 80.5875 101.423 80.8817 101.599 81.2641C101.755 81.5999 101.831 81.7677 101.826 81.972C101.812 82.5119 101.384 82.9757 100.855 83.1644C100.332 83.3495 99.8182 83.5572 99.2991 83.751C98.8699 83.9085 98.4562 83.8877 98.1465 83.5226C97.8367 83.1574 97.8973 82.7663 98.1222 82.3561C98.8128 81.0963 100.012 80.5961 100.012 80.5961C100.395 80.4404 100.716 80.314 101.016 80.4577Z" fill="#221F14"/>
<path d="M177.028 96.3811C177.087 97.3053 176.609 98.0443 176.069 98.7313C175.767 99.1138 175.365 99.4305 174.969 99.7247C174.543 100.04 173.951 100.059 173.702 99.7783C173.368 99.4062 173.342 98.9476 173.596 98.5323C173.946 97.9612 174.346 97.4212 174.737 96.8744C174.842 96.7255 175.007 96.6182 175.116 96.4711C175.803 95.528 176.244 95.4985 177.028 96.3811Z" fill="#221F14"/>
<path d="M188.051 151.442C188.21 150.713 188.4 149.803 189.106 149.166C189.423 148.881 189.88 148.72 190.301 148.597C190.674 148.488 191.263 148.841 191.247 149.159C191.207 150.004 191.216 150.883 190.493 151.522C190.264 151.722 190.083 151.982 189.839 152.16C189.6 152.335 189.319 152.529 189.041 152.56C188.309 152.643 188.047 152.359 188.051 151.442Z" fill="#221F14"/>
<path d="M135.532 139.979C135.387 140.271 135.236 140.851 134.878 141.237C134.293 141.867 133.651 142.519 132.704 142.571C132.443 142.587 132.137 142.46 131.912 142.308C131.659 142.137 131.612 141.86 131.749 141.536C132.139 140.619 132.86 140.018 133.637 139.465C133.873 139.298 134.13 139.16 134.388 139.028C134.935 138.755 135.532 139.127 135.532 139.979Z" fill="#221F14"/>
<path d="M222.787 102.606C223.102 103.57 223.417 104.534 223.732 105.496C223.495 106.59 222.669 107.271 221.904 107.216C221.435 107.183 220.957 106.872 220.762 106.434C220.359 105.536 221.269 104.361 221.857 103.601C222.214 103.141 222.558 102.81 222.787 102.606Z" fill="#221F14"/>
<path d="M78.0114 81.6623C78.6344 82.3735 79.1173 83.1177 79.4928 83.8498C79.4028 83.9605 78.3731 85.2238 77.6964 85.8694C77.5718 85.987 77.3642 86.1774 77.0734 86.1913C76.9021 86.1982 76.7238 86.1463 76.556 86.0303C76.3898 85.9161 76.2773 85.7673 76.2185 85.6011C76.1233 85.3294 76.2098 85.0681 76.26 84.9314C76.4417 84.4347 77.0111 83.1523 77.8349 81.465C77.8937 81.529 77.9526 81.5948 78.0114 81.6623Z" fill="#221F14"/>
<path d="M34.146 106.784C34.5614 106.91 34.7638 107.265 34.8348 107.388C35.1151 107.881 35.0321 108.395 34.975 108.743C34.8832 109.3 34.6634 109.691 34.3139 110.311C34.0975 110.695 33.8933 111.001 33.7428 111.214C33.478 110.909 33.1838 110.522 32.9121 110.047C32.5002 109.329 32.2787 108.656 32.1523 108.14C32.2354 108.026 32.3635 107.858 32.5279 107.659C32.9484 107.154 33.1647 106.899 33.4901 106.796C33.5714 106.771 33.838 106.69 34.146 106.784Z" fill="#221F14"/>
<path d="M155.426 151.546C154.632 151.264 153.837 150.98 153.043 150.698C153.218 150.366 154.273 148.389 155.265 147.96C155.379 147.91 155.63 147.81 155.886 147.893C156.21 147.998 156.44 148.334 156.449 148.773C156.459 149.416 156.4 149.928 156.276 150.257C156.051 150.855 155.699 151.278 155.426 151.546Z" fill="#221F14"/>
<path d="M69.6373 94.0447C68.9676 94.0897 68.6198 93.4148 68.8274 92.8212C69.0957 92.0597 69.4435 91.3104 69.871 90.6268C70.3296 89.8947 71.2814 89.803 71.6639 90.3274C71.8404 90.5697 71.9356 90.7826 71.8231 91.1252C71.5185 92.0563 71.0911 92.906 70.4006 93.5983C70.1998 93.8007 69.8952 93.8994 69.6373 94.0447Z" fill="#221F14"/>
<path d="M157.322 86.6775C157.657 86.8298 158.04 86.9786 158.466 87.1101C159.154 87.323 159.784 87.4355 160.319 87.4926C160.158 87.7903 160.002 88.0222 159.885 88.1831C159.454 88.7784 158.924 89.1384 157.914 89.9224C157.559 90.1958 157.097 90.1439 156.742 89.8341C156.633 89.7372 156.555 89.6316 156.503 89.5174C156.354 89.1903 156.453 88.8476 156.527 88.6123C156.784 87.8076 157.149 87.0305 157.322 86.6775Z" fill="#221F14"/>
<path d="M145.314 104.629C144.567 104.633 144.158 104.031 144.454 103.508C144.908 102.71 145.289 101.847 146.124 101.334C146.67 100.999 147.18 100.986 147.523 101.331C147.852 101.661 147.878 102.098 147.544 102.631C147.076 103.373 146.564 104.083 145.742 104.481C145.565 104.565 145.372 104.61 145.314 104.629Z" fill="#221F14"/>
<path d="M144.889 133.716C144.828 134.422 144.548 134.995 143.911 135.374C143.599 135.559 143.321 135.796 143.014 135.991C142.679 136.204 142.333 136.165 142.063 135.891C141.831 135.656 141.692 135.363 141.876 135.01C142.198 134.387 142.442 133.709 142.847 133.148C143.078 132.828 143.542 132.584 143.942 132.501C144.468 132.392 144.916 133.032 144.889 133.716Z" fill="#221F14"/>
<path d="M198.277 154.216C198.272 155.21 197.436 156.38 196.458 156.637C196.212 156.703 195.821 156.573 195.634 156.392C195.47 156.229 195.359 155.795 195.461 155.613C195.856 154.903 196.326 154.235 196.806 153.578C197.022 153.28 197.351 153.154 197.732 153.315C198.145 153.489 198.279 153.706 198.277 154.216Z" fill="#221F14"/>
<path d="M215.409 111.861C215.392 112.555 215.086 113.36 214.568 114.087C214.343 114.405 213.692 114.621 213.44 114.495C213.019 114.284 212.872 113.874 213.031 113.304C213.163 112.834 213.272 112.353 213.461 111.906C213.649 111.458 213.871 111.046 214.47 110.942C215.253 110.807 215.411 110.878 215.409 111.861Z" fill="#221F14"/>
<path d="M38.0456 90.1908C37.6908 90.1977 37.3377 89.9156 37.227 89.5799C37.1976 89.4933 37.1474 89.2857 37.4191 88.6471C37.7167 87.9462 38.0525 87.2626 38.8209 86.9234C39.2172 86.7486 39.5512 86.8663 39.8281 87.1017C40.1119 87.3457 40.1379 87.6693 39.9856 88.0483C39.5581 89.1126 38.7395 89.8135 38.6271 89.9035C38.3588 90.1164 38.2134 90.1873 38.0456 90.1908Z" fill="#221F14"/>
<path d="M146.148 95.3999C145.255 95.0624 144.995 94.3044 145.575 93.5724C145.987 93.0515 146.503 92.6015 147.024 92.1861C147.358 91.9214 147.769 92.0166 148.069 92.3211C148.337 92.5946 148.32 92.958 148.161 93.2695C147.704 94.166 147.055 94.8911 146.148 95.3999Z" fill="#221F14"/>
<path d="M29.5664 92.5269C29.6097 91.6131 29.8 90.3463 30.4456 89.0033C30.648 88.5828 30.8678 88.2107 31.0893 87.8853C31.3143 87.9494 31.6379 88.0809 31.8283 88.3786C32.3406 89.1798 31.4545 90.5055 31.1413 90.9728C30.8817 91.3604 30.4006 91.9713 29.5664 92.5269Z" fill="#221F14"/>
<path d="M202.416 157.148C203.15 157.141 203.593 157.776 203.366 158.403C203.131 159.05 202.75 159.64 202.079 159.893C201.793 160.002 201.366 159.995 201.118 159.848C200.931 159.737 200.793 159.27 200.873 159.045C201.106 158.375 201.343 157.667 202.025 157.28C202.179 157.193 202.364 157.165 202.416 157.148Z" fill="#221F14"/>
<path d="M13.7215 147.797C13.3251 147.709 12.9254 147.633 12.5308 147.531C11.0079 147.14 9.47975 146.756 7.96547 146.33C7.63146 146.236 7.34072 145.987 7.05171 145.821C7.02748 145.643 7.01882 145.426 7.04651 145.182C7.05862 145.087 7.0742 144.997 7.09323 144.916C7.2438 144.876 7.44109 144.812 7.66261 144.712C7.66261 144.712 8.04333 144.537 8.39638 144.263C9.10074 143.717 9.61646 142.829 9.61646 142.829C10.6687 140.574 11.3955 138.22 11.6915 135.744C11.7866 134.939 11.6101 134.205 11.1688 133.525C10.4748 132.456 9.59742 131.592 8.46907 130.985C8.18006 130.829 7.94816 130.576 8.06584 130.223C8.13506 130.021 8.31678 129.732 8.47946 129.709C8.82558 129.662 9.25476 129.661 9.53858 129.83C9.94873 130.073 10.3208 130.439 10.596 130.834C10.8677 131.225 11.2623 131.109 11.5859 131.197C12.6329 131.481 13.7024 131.696 14.7685 131.907C15.2842 132.011 15.812 132.049 16.3347 132.116C16.9663 132.199 17.6084 132.241 18.228 132.378C18.9375 132.533 19.1936 133.089 18.9877 133.804C18.1345 136.761 17.2796 139.717 16.4472 142.68C16.1028 143.898 15.7999 145.13 15.5074 146.363C15.3413 147.067 14.9658 147.559 14.277 147.797C14.0918 147.797 13.9066 147.797 13.7215 147.797Z" fill="white"/>
<path d="M69.2731 78.2412C68.9373 78.2412 68.5618 78.2412 68.0703 78.2412C68.1586 76.2199 68.2486 74.2002 68.3368 72.1806C68.4666 72.037 68.5981 71.8933 68.7279 71.7514C68.9252 71.9747 69.1225 72.1979 69.3198 72.4212C69.3042 74.3612 69.2887 76.3012 69.2731 78.2412Z" fill="#221F14"/>
<path d="M57.6047 92.2152C58.0426 92.1633 58.4787 92.1096 58.9788 92.0508C59.0602 92.615 59.1657 93.1462 59.2107 93.6827C59.3042 94.7609 59.3492 95.8408 59.4461 96.919C59.5759 98.3744 59.7351 99.8264 59.8839 101.28C59.8857 101.297 59.8839 101.316 59.8839 101.335C59.922 102.478 59.9566 103.618 59.9982 104.76C60.0103 105.138 59.8666 105.402 59.5586 105.643C59.2332 105.897 58.9685 106.235 58.6933 106.552C58.1187 107.214 57.5753 107.907 56.9748 108.545C56.7463 108.787 56.395 108.916 56.0455 109.007C55.592 109.442 55.1386 109.874 54.6471 110.343C54.6367 110.329 54.7025 110.404 54.7509 110.49C54.9552 110.864 54.9742 111.264 54.661 111.555C54.3598 111.832 53.9428 111.858 53.5845 111.643C52.4475 110.963 51.2915 110.307 50.2081 109.549C49.3342 108.936 49.0486 107.984 48.9777 106.925C48.8929 105.672 48.6973 104.426 48.5554 103.177C48.436 102.125 48.3252 101.072 48.2127 100.019C48.0656 98.6582 47.8753 97.2997 47.7887 95.936C47.7195 94.8232 47.7749 93.7018 47.7749 92.5475C48.0379 92.5475 48.3633 92.5475 48.8132 92.5475C49.3134 96.5434 49.8153 100.564 50.3102 104.527C51.783 105.364 53.2021 106.173 54.6056 106.969C55.843 106.041 57.0596 105.129 58.4025 104.122C58.3143 102.876 58.2139 101.503 58.1187 100.131C58.0391 98.9784 57.9664 97.8258 57.892 96.6732C57.7951 95.197 57.7016 93.7208 57.6047 92.2152Z" fill="#221F14"/>
<path d="M45.7323 93.3454C45.2598 93.3662 44.7856 93.3852 44.3132 93.406C44.3634 92.8868 44.1782 92.4646 43.8719 92.3435C43.7075 92.2794 43.5552 92.3192 43.5153 92.3296C43.1537 92.43 42.8941 92.899 42.8646 93.4943C42.4112 93.541 41.9578 93.5877 41.4455 93.6396C41.3711 92.667 41.5857 91.8277 42.323 91.2549C43.0775 90.6682 43.9411 90.6838 44.7873 91.1424C45.3913 91.4712 45.7946 92.3902 45.7323 93.3454Z" fill="#221F14"/>
<path d="M64.331 91.9556C63.8845 92.0006 63.4847 92.0404 63.0746 92.0802C62.86 91.6528 62.8254 91.1284 62.1556 91.1543C61.4738 91.182 61.1449 91.4987 61.0982 92.146C60.6136 92.146 60.1741 92.146 59.7414 92.146C59.3693 90.9761 60.3541 89.6747 61.6987 89.7352C62.2439 89.7612 62.8427 89.711 63.3151 89.9222C64.1008 90.2735 64.3483 91.0349 64.331 91.9556Z" fill="#221F14"/>
<path d="M38.4651 80.707C37.9546 80.8593 37.5513 80.9787 37.091 81.1172C36.5562 79.371 36.0215 77.6248 35.4885 75.8787C35.4867 75.8112 35.4971 75.6866 35.5715 75.5602C35.6027 75.5066 35.6373 75.4668 35.6684 75.4356C35.9073 75.4893 36.1461 75.5412 36.3849 75.5948C36.8055 76.2905 37.2519 77.1385 37.6517 78.1336C38.0307 79.0751 38.2868 79.9473 38.4651 80.707Z" fill="#221F14"/>
<path d="M202.175 74.8195C202.063 75.2106 201.954 75.6017 201.836 75.9894C201.123 78.324 199.652 80.0355 197.523 81.1933C196.243 81.8907 194.905 81.8059 193.533 81.4996C192.184 81.2002 189.677 81.1293 187.626 79.3398C187.346 79.0941 187.133 78.8726 186.996 78.7237C187.202 78.3949 187.41 78.0661 187.616 77.7373C189.512 78.3932 190.966 78.9297 191.887 79.274C193.382 79.833 194.107 79.8504 195.156 80.0407C196.109 80.2138 196.906 79.7205 197.624 79.1875C198.461 78.568 199.238 77.8567 199.713 76.8945C200.254 75.8007 200.464 74.887 200.633 73.8555C200.792 72.8898 200.817 72.073 200.808 71.5019C201.016 71.874 201.142 72.1907 201.218 72.407C201.279 72.5784 201.467 73.1321 201.563 73.4159C201.621 73.5907 201.677 73.7534 201.81 73.9386C201.935 74.1134 202.073 74.2293 202.175 74.3038C202.175 74.4751 202.175 74.6481 202.175 74.8195Z" fill="#221F14"/>
<path d="M84.717 84.0574C85.0337 84.5022 85.3504 84.9487 85.6671 85.3934C85.1428 85.7361 84.6374 86.0476 84.1511 86.3851C82.9432 87.2261 81.7058 88.0309 80.548 88.9377C78.3899 90.6285 76.3772 92.4855 74.4528 94.4428C73.2379 95.6767 71.9538 96.8448 70.6732 98.0095C69.017 99.5152 67.3296 100.986 65.6596 102.476C64.5485 103.468 63.4479 104.468 62.3403 105.46C60.9593 106.695 59.5402 107.891 58.2024 109.174C56.8629 110.456 55.5805 111.803 54.3172 113.163C53.2702 114.289 52.2855 115.475 51.2783 116.638C51.1537 116.781 51.0637 116.953 50.9304 117.154C52.6956 115.951 54.3951 114.793 56.1187 113.62C56.342 113.824 56.5653 114.03 56.7902 114.234C56.5583 114.525 56.1932 114.949 55.6878 115.406C55.449 115.62 55.3071 115.714 54.665 116.214C53.7461 116.934 52.8168 117.64 51.8943 118.355C51.7178 118.491 51.5482 118.635 51.363 118.787C51.7299 119.32 52.0449 119.779 52.3841 120.27C54.3432 118.875 56.252 117.517 58.173 116.148C58.3478 116.423 58.526 116.7 58.7683 117.081C57.2125 118.818 55.1963 120.03 53.3238 121.494C53.824 122.19 54.3241 122.887 54.8554 123.626C56.6674 122.117 58.4187 120.66 60.2134 119.166C60.4418 119.441 60.6581 119.699 60.8883 119.974C59.4052 121.999 57.3025 123.245 55.5182 124.824C55.9942 125.448 55.9924 125.445 56.6241 125.235C57.8701 124.82 58.9189 124.059 59.959 123.299C61.1929 122.396 62.3836 121.43 63.5759 120.469C65.04 119.289 66.4695 118.066 67.944 116.899C69.5154 115.657 71.111 114.445 72.7222 113.256C72.9766 113.069 73.3816 112.993 73.7 113.024C73.8956 113.043 74.1378 113.332 74.2261 113.554C74.3871 113.957 74.1396 114.286 73.8402 114.532C73.3746 114.911 72.8814 115.257 72.4055 115.624C71.1075 116.626 69.8027 117.617 68.522 118.64C67.096 119.779 65.6544 120.904 64.289 122.112C62.7401 123.484 61.0596 124.668 59.3394 125.796C58.4776 126.36 57.569 126.861 56.5099 127.018C55.8713 127.113 54.9489 126.781 54.556 126.225C53.6146 124.893 52.7112 123.533 51.7196 122.24C50.9183 121.198 50.143 120.156 49.5338 118.981C48.9021 117.766 49.0163 116.66 49.854 115.636C50.7816 114.502 51.7646 113.415 52.7233 112.306C53.4311 111.489 54.1095 110.646 54.852 109.862C55.5113 109.168 56.2347 108.535 56.9425 107.89C57.306 107.559 57.7144 107.275 58.0795 106.946C59.0331 106.081 59.9728 105.198 60.9229 104.331C62.5532 102.845 64.1799 101.357 65.8205 99.8821C67.4715 98.3989 69.1416 96.9366 70.7943 95.4534C71.4658 94.8512 72.1147 94.2212 72.7672 93.5965C73.8073 92.5997 74.8145 91.5665 75.8875 90.606C76.1488 90.3724 77.4866 89.1367 79.2362 87.7748C80.574 86.7347 82.4032 85.4211 84.717 84.0574Z" fill="#221F14"/>
<path d="M168.803 159.414C168.99 159.071 169.177 158.727 169.363 158.382C170.886 158.592 172.129 158.889 173.018 159.137C174.806 159.633 175.832 159.928 176.992 160.732C177.991 161.425 178.617 162.169 179.089 162.729C179.977 163.785 180.552 164.791 180.912 165.524C180.699 165.651 180.432 165.839 180.168 166.113C179.815 166.478 179.607 166.85 179.488 167.111C179.271 166.272 178.78 164.853 177.594 163.519C176.507 162.297 175.325 161.695 174.777 161.423C173.87 160.971 173.463 160.943 170.769 160.069C169.935 159.8 169.254 159.569 168.803 159.414Z" fill="#221F14"/>
<path d="M183.863 61.8535C183.42 62.0855 183.03 62.2897 182.565 62.5337C181.73 61.6061 180.865 60.5712 179.996 59.4238C179.098 58.2418 178.314 57.0944 177.629 56.011C177.698 55.9643 177.786 55.9037 177.887 55.8362C178.049 55.7255 178.177 55.6441 178.231 55.6095C178.318 55.5541 178.42 55.4901 178.537 55.4191C180.313 57.5634 182.087 59.7093 183.863 61.8535Z" fill="#221F14"/>
<path d="M5.02369 135.863C6.02917 136.102 7.18868 136.448 8.43645 136.955C9.64615 137.447 10.688 137.988 11.5585 138.502C11.4235 138.937 11.2885 139.369 11.1535 139.804C10.9458 139.729 10.6343 139.615 10.257 139.475C8.98504 138.997 8.21319 138.636 7.68709 138.449C6.68333 138.092 5.65881 137.8 4.55469 137.452C4.70006 136.962 4.85063 136.446 5.02369 135.863Z" fill="#221F14"/>
<path d="M182.855 54.2614C184.375 56.153 185.896 58.0445 187.417 59.9378C186.99 60.2043 186.59 60.4535 186.112 60.7529C185.351 59.8115 184.582 58.8285 183.812 57.8057C182.914 56.6133 182.07 55.4417 181.273 54.2926C181.49 54.2562 181.739 54.2285 182.016 54.2216C182.331 54.2112 182.613 54.2303 182.855 54.2614Z" fill="#221F14"/>
<path d="M3.54297 141.465C3.66411 140.962 3.78699 140.448 3.92544 139.87C4.36329 140.003 4.76478 140.095 5.14206 140.249C6.58192 140.836 8.01487 141.445 9.44954 142.047C9.4755 142.059 9.58452 142.125 9.73854 142.201C9.97736 142.322 10.1833 142.407 10.3322 142.466C10.2283 142.779 10.1227 143.094 10.0189 143.407C9.85796 143.402 9.62432 143.388 9.34397 143.357C8.25541 143.234 7.48356 142.919 6.72729 142.668C5.66642 142.315 4.63152 141.881 3.54297 141.465Z" fill="#221F14"/>
<path d="M174.898 59.431C174.93 59.2821 174.973 59.1195 175.03 58.9481C175.12 58.6799 175.227 58.4497 175.331 58.2576C175.708 58.6401 176.087 59.0416 176.466 59.4639C177.962 61.1304 179.173 62.8022 180.158 64.3822C179.905 64.6903 179.64 65.0139 179.286 65.4448C177.823 63.4408 176.361 61.4367 174.898 59.431Z" fill="#221F14"/>
<path d="M12.0482 134.389C11.9375 134.688 11.8267 134.988 11.7159 135.287C11.536 135.249 11.2348 135.183 10.8627 135.104C9.18406 134.742 8.58354 134.623 7.47422 134.38C7.09522 134.297 6.51028 134.167 5.78516 134C6.03263 133.473 6.25415 132.999 6.51548 132.442C7.75113 132.752 8.98851 133.058 10.2242 133.371C10.5893 133.463 10.951 133.579 11.3179 133.672C11.709 133.769 11.9548 134.003 12.0482 134.389Z" fill="#221F14"/>
<path d="M141.434 166.031C143.052 165.813 144.284 165.623 145.135 165.486C145.708 165.393 146.468 165.296 147.515 165.183C147.984 165.133 148.456 165.135 149.003 165.109C149.102 165.306 149.228 165.562 149.415 165.94C148.79 166.094 148.23 166.263 147.659 166.365C146.833 166.512 146.246 166.625 144.222 166.916C143.263 167.052 142.481 167.163 141.97 167.236C141.892 167.08 141.813 166.917 141.735 166.748C141.622 166.5 141.522 166.261 141.434 166.031Z" fill="#221F14"/>
<path d="M143.77 170.12C143.662 169.973 143.565 169.828 143.482 169.69C144.066 169.556 144.538 169.529 144.853 169.527C145.59 169.523 146.085 169.657 147.236 169.617C147.331 169.613 147.387 169.608 147.458 169.608C148.56 169.607 149.661 169.607 150.855 169.607C150.955 169.833 151.101 170.164 151.3 170.617C150.268 170.728 149.321 170.856 148.371 170.927C146.305 171.079 145.793 171.065 145.542 171.039C145.031 170.984 144.623 170.891 144.379 170.827C144.183 170.633 143.974 170.399 143.77 170.12Z" fill="#221F14"/>
<path d="M140.881 163.216C140.888 163.069 140.905 162.908 140.933 162.736C140.985 162.427 141.064 162.158 141.147 161.937C142.046 161.677 143.061 161.437 144.186 161.252C145.417 161.047 146.55 160.95 147.554 160.914C147.646 161.255 147.725 161.553 147.824 161.918C145.51 162.351 143.195 162.783 140.881 163.216Z" fill="#221F14"/>
<path d="M56.8855 81.4946C55.9216 81.4946 54.9576 81.4946 53.9937 81.4946C53.4935 81.4548 52.9934 81.3994 52.4932 81.3787C51.3891 81.3337 50.285 81.2887 49.1791 81.2748C47.7496 81.2575 46.315 81.3268 44.889 81.2523C43.7398 81.1918 43.5477 80.7574 43.8558 79.6325C44.2331 78.2532 44.5965 76.8653 44.8595 75.4617C45.1537 73.8886 45.2368 72.2757 45.5725 70.7147C46.0363 68.5566 46.5296 66.3933 47.227 64.3028C48.4851 60.5249 49.88 56.7902 51.268 53.0556C51.6625 51.9912 52.071 50.8992 52.8982 50.0616C53.5766 49.3728 54.4107 49.4819 54.7603 50.38C55.5253 52.3547 56.2435 54.3483 56.927 56.3541C57.7629 58.8046 58.5746 61.2656 59.3361 63.7403C59.9037 65.5903 60.3779 67.4715 60.8884 69.3388C61.5962 71.9226 62.3075 74.5064 62.9946 77.0954C63.1555 77.6977 63.2265 78.3224 63.3389 78.9368C63.3389 79.1583 63.3389 79.3815 63.3389 79.6031C63.1157 79.8055 62.9253 80.1205 62.6657 80.1932C61.2588 80.5843 59.8379 80.9287 58.4154 81.2627C57.9152 81.3787 57.3961 81.4202 56.8855 81.4946Z" fill="#FF6136"/>
<path d="M45.5125 82.1257C44.488 81.809 43.685 81.4162 43.1641 81.1306C43.3077 80.5491 43.4496 79.9676 43.5933 79.3879C43.8875 79.5471 44.289 79.7461 44.7787 79.9382C45.2529 80.1234 46.1459 80.5353 47.3919 80.5976C48.4286 80.6478 49.4687 80.6218 50.507 80.6062C52.1165 80.5803 53.7329 80.6253 55.3302 80.4678C56.5486 80.3484 57.7687 80.0507 58.9351 79.6717C60.3248 79.22 61.6279 79.0418 63.1664 78.3063C63.2772 78.2526 63.3689 78.2076 63.4312 78.1765C63.5489 78.6524 63.6648 79.1283 63.7825 79.6025C63.4537 79.7928 62.9812 80.049 62.3946 80.3138C61.216 80.8451 60.1811 81.1393 59.058 81.3971C56.6818 81.9423 54.5861 82.1759 53.5927 82.2745C49.7629 82.657 47.8004 82.8318 45.5125 82.1257Z" fill="#221F14"/>
<path d="M55.0562 47.5954C55.3417 47.7459 55.6134 47.8896 55.9665 48.0748C55.6411 48.4659 55.3469 48.8189 54.987 49.2533C55.5494 49.2273 56.0323 49.2048 56.5809 49.1789C56.6034 49.3917 56.6311 49.6375 56.6657 49.968C56.2763 50.0736 55.8955 50.1757 55.5096 50.2813C55.764 50.489 56.0098 50.6914 56.3317 50.9545C56.0426 51.195 55.8142 51.3871 55.5581 51.6C55.1566 51.4148 54.7655 51.2331 54.3899 51.0583C54.312 51.5256 54.2376 51.9669 54.1597 52.4272C53.8292 52.4272 53.5765 52.4272 53.1629 52.4272C53.13 52.0032 53.0937 51.5498 53.0556 51.0722C52.7579 51.4252 52.4672 51.7696 52.0813 52.2265C51.813 51.9167 51.569 51.6346 51.3285 51.356C51.5206 51.1016 51.6902 50.8766 51.9169 50.5755C51.4842 50.5755 51.1606 50.5755 50.8145 50.5755C50.7037 50.1913 50.5912 49.8071 50.4805 49.4229C51.0412 49.4592 51.6019 49.4973 52.1626 49.5354C51.6694 49.1304 51.1745 48.7272 50.6812 48.324C50.9356 48.0471 51.19 47.7702 51.4444 47.4933C51.9671 47.8377 52.4914 48.1821 53.0141 48.5247C53.0591 48.0177 53.1041 47.5088 53.1491 47C53.4554 47.0381 53.7617 47.0745 54.068 47.1125C54.1217 47.5833 54.1736 48.054 54.2255 48.5247C54.5024 48.2149 54.7793 47.9052 55.0562 47.5954Z" fill="#221F14"/>
<path d="M166.155 25.8618C166.625 25.8934 167.096 25.925 167.666 25.9633C167.656 27.0184 167.645 28.1645 167.634 29.368C167.078 29.3638 166.479 29.3664 165.879 29.3532C164.761 29.3286 163.685 29.4826 162.596 29.6779C161.448 29.8838 161.189 30.4936 161.206 31.4862C161.223 32.3934 161.099 33.2949 161.039 34.1731C162.655 33.9871 164.294 33.7984 165.944 33.6084C166.034 34.7959 166.117 35.8811 166.212 37.1305C164.514 37.5702 162.852 37.9997 161.143 38.4422C161.086 39.8238 161.028 41.2503 160.969 42.7219C163.762 42.0942 166.579 42.0516 169.498 42.1393C169.548 42.904 169.597 43.5749 169.633 44.2457C169.644 44.4455 169.622 44.6453 169.614 44.845C169.595 45.3374 169.757 46.1392 169.518 46.2581C169.016 46.5075 168.296 46.4868 167.676 46.4178C166.151 46.248 164.692 46.4705 163.219 46.664C161.892 46.8382 160.562 47.0355 159.219 47.0824C157.79 47.1324 156.425 45.3932 156.547 44.043C156.698 42.3606 156.652 40.6513 156.718 38.9561C156.766 37.7167 156.878 36.4831 156.927 35.2437C157.008 33.153 157.025 31.0558 157.144 28.9693C157.19 28.1475 157.555 27.4497 158.44 27.1093C159.156 26.8337 159.801 26.3881 160.538 26.1772C161.386 25.9339 162.29 25.8023 163.187 25.7384C164.142 25.6703 165.118 25.7378 166.085 25.7461C166.108 25.7846 166.132 25.8232 166.155 25.8618Z" fill="white"/>
<path d="M123.38 25.3996C124.724 25.3957 125.753 25.3931 126.914 25.3904C126.43 30.9262 125.555 36.3273 125.807 41.9193C129.046 41.464 132.242 41.0165 135.597 40.5455C135.687 41.9729 135.785 43.5299 135.88 45.0359C135.55 45.0987 135.218 45.1602 134.885 45.2204C130.57 46.008 126.32 46.6229 122.143 47.0835C121.944 43.7929 121.897 40.0889 122.135 36.0486C122.365 32.1313 122.824 28.5633 123.38 25.3996Z" fill="white"/>
<path d="M113.852 46.5179C113.229 44.8778 112.592 43.1995 111.892 41.3592C109.766 41.5118 107.655 41.6633 105.575 41.8137C104.985 43.6858 104.448 45.3937 103.907 47.1133C102.438 47.1133 101.089 47.1133 99.5664 47.1133C99.6528 46.5761 99.6831 46.0633 99.8216 45.5802C100.76 42.3127 101.682 39.04 102.688 35.7926C103.39 33.5253 104.223 31.2972 104.984 29.0469C105.337 28.0033 105.658 26.948 106.029 25.7879C107.619 25.7879 109.206 25.7879 110.688 25.7879C112.994 31.6172 115.311 37.4327 117.586 43.2642C117.967 44.24 118.161 45.2878 118.501 46.5179C116.844 46.5179 115.396 46.5179 113.852 46.5179ZM110.309 36.9761C109.694 35.6083 109.129 34.3517 108.468 32.8822C107.872 34.4778 107.376 35.8064 106.839 37.2473C108.028 37.1541 109.075 37.0725 110.309 36.9761Z" fill="white"/>
<path d="M74.906 45.7961C73.2643 45.6665 71.673 45.541 69.9312 45.4036C68.1295 38.2014 66.3665 30.9781 65 23.5627C66.425 23.5627 67.8352 23.5627 69.4474 23.5627C70.6992 29.1626 71.8222 34.8007 73.4845 40.4352C75.3564 38.2635 77.1232 36.2139 78.9978 34.039C80.5533 34.1741 82.2174 34.3187 83.6675 34.4447C84.8072 36.9212 85.8637 39.2171 86.9203 41.5131C87.0269 41.5081 87.1336 41.5032 87.2402 41.4982C90.0491 36.2275 92.5333 30.7976 95.1647 25.2138C96.5162 25.397 98.0339 25.6028 99.5486 25.8081C99.4788 27.4391 91.5244 44.036 89.373 47.0537C88.6529 47.0158 87.8771 47.0021 87.1074 46.9264C86.3747 46.8542 85.6483 46.7172 84.8411 46.5971C83.1539 44.4057 81.9651 41.8835 80.6923 39.1379C78.7468 41.3766 76.8836 43.5206 74.906 45.7961Z" fill="white"/>
<path d="M188.155 25.6407C188.426 26.8359 188.687 27.9869 188.959 29.1865C187.055 30.0402 185.091 29.5648 183.146 29.8356C182.651 35.5952 183.356 41.3254 183.738 47.0835C182.056 47.0231 180.48 46.9643 178.766 46.9024C178.6 41.0854 177.924 35.3597 178.778 29.4529C176.541 29.6546 174.422 29.8445 172.184 30.0461C172.16 28.3814 172.138 26.7535 172.113 24.9857C177.506 24.0378 182.761 25.5553 188.155 25.6407Z" fill="white"/>
<path d="M151.949 41.6877C152.023 43.2585 152.091 44.6667 152.169 46.293C148.397 46.1387 144.835 47.5334 141.029 46.9322C140.906 46.5165 140.722 46.1414 140.695 45.7555C140.534 43.4115 140.328 41.0648 140.289 38.7181C140.221 34.7113 140.263 30.7032 140.263 26.695C140.263 26.6016 140.304 26.5081 140.345 26.3226C141.271 26.1628 142.227 25.9976 143.44 25.7878C143.638 31.3545 143.833 36.8874 144.033 42.5313C146.646 42.2524 149.236 41.9775 151.949 41.6877Z" fill="white"/>
</svg>
