<svg fill="none" height="24" width="24" xmlns="http://www.w3.org/2000/svg"><circle cx="12" cy="12" fill="#d1e634" r="12"/><g fill="#39484c"><path clip-rule="evenodd" d="m14.2 8.6a3.1 3.1 0 0 0 0 6.2h3.1a3.1 3.1 0 0 0 0-6.2zm0 1.8a1.3 1.3 0 0 0 0 2.6h3a1.3 1.3 0 0 0 0-2.6z" fill-rule="evenodd"/><path d="m21.4 15.6a1.1 1.1 0 1 1 -2.2 0 1.1 1.1 0 0 1 2.2 0zm-11-1.9c-.4 1.9-2 3-3.8 3-2.2 0-4-1.4-4-4.1 0-2.8 1.8-4.2 4-4.2 1.8 0 3.4 1.2 3.8 3h-2c-.4-.7-1-1.1-1.8-1.1-1.1 0-2 .8-2 2.3 0 1.4.9 2.2 2 2.2.7 0 1.4-.4 1.7-1.1z"/></g></svg>