<svg xmlns="http://www.w3.org/2000/svg" width="290" height="335" viewbox="0 0 290 335" preserveAspectRatio="none"><rect x="0" y="0" width="100%" height="100%" fill="rgb(247, 247, 247)" /><polyline points="0,27.943753028778,16.133333333333,0,48.4,0,64.533333333333,27.943753028778,48.4,55.887506057556,16.133333333333,55.887506057556,0,27.943753028778" stroke="#000" stroke-opacity="0.01" fill-opacity="0.02019" fill="#2f2" transform="translate(-32.266666666667, -27.943753028778)" /><polyline points="0,27.943753028778,16.133333333333,0,48.4,0,64.533333333333,27.943753028778,48.4,55.887506057556,16.133333333333,55.887506057556,0,27.943753028778" stroke="#000" stroke-opacity="0.01" fill-opacity="0.02019" fill="#2f2" transform="translate(258.13333333333, -27.943753028778)" /><polyline points="0,27.943753028778,16.133333333333,0,48.4,0,64.533333333333,27.943753028778,48.4,55.887506057556,16.133333333333,55.887506057556,0,27.943753028778" stroke="#000" stroke-opacity="0.01" fill-opacity="0.02019" fill="#2f2" transform="translate(-32.266666666667, 307.38128331656)" /><polyline points="0,27.943753028778,16.133333333333,0,48.4,0,64.533333333333,27.943753028778,48.4,55.887506057556,16.133333333333,55.887506057556,0,27.943753028778" stroke="#000" stroke-opacity="0.01" fill-opacity="0.02019" fill="#2f2" transform="translate(258.13333333333, 307.38128331656)" /><polyline points="0,27.943753028778,16.133333333333,0,48.4,0,64.533333333333,27.943753028778,48.4,55.887506057556,16.133333333333,55.887506057556,0,27.943753028778" stroke="#000" stroke-opacity="0.01" fill-opacity="0.037333333333333" fill="#dfd" transform="translate(16.133333333333, 0)" /><polyline points="0,27.943753028778,16.133333333333,0,48.4,0,64.533333333333,27.943753028778,48.4,55.887506057556,16.133333333333,55.887506057556,0,27.943753028778" stroke="#000" stroke-opacity="0.01" fill-opacity="0.037333333333333" fill="#dfd" transform="translate(16.133333333333, 335.32503634533)" /><polyline points="0,27.943753028778,16.133333333333,0,48.4,0,64.533333333333,27.943753028778,48.4,55.887506057556,16.133333333333,55.887506057556,0,27.943753028778" stroke="#000" stroke-opacity="0.01" fill-opacity="0.009336666666667" fill="#2f2" transform="translate(64.533333333333, -27.943753028778)" /><polyline points="0,27.943753028778,16.133333333333,0,48.4,0,64.533333333333,27.943753028778,48.4,55.887506057556,16.133333333333,55.887506057556,0,27.943753028778" stroke="#000" stroke-opacity="0.01" fill-opacity="0.009336666666667" fill="#2f2" transform="translate(64.533333333333, 307.38128331656)" /><polyline points="0,27.943753028778,16.133333333333,0,48.4,0,64.533333333333,27.943753028778,48.4,55.887506057556,16.133333333333,55.887506057556,0,27.943753028778" stroke="#000" stroke-opacity="0.01" fill-opacity="0.07066333333333" fill="#dfd" transform="translate(112.93333333333, 0)" /><polyline points="0,27.943753028778,16.133333333333,0,48.4,0,64.533333333333,27.943753028778,48.4,55.887506057556,16.133333333333,55.887506057556,0,27.943753028778" stroke="#000" stroke-opacity="0.01" fill-opacity="0.07066333333333" fill="#dfd" transform="translate(112.93333333333, 335.32503634533)" /><polyline points="0,27.943753028778,16.133333333333,0,48.4,0,64.533333333333,27.943753028778,48.4,55.887506057556,16.133333333333,55.887506057556,0,27.943753028778" stroke="#000" stroke-opacity="0.01" fill-opacity="0.02733" fill="#dfd" transform="translate(161.33333333333, -27.943753028778)" /><polyline points="0,27.943753028778,16.133333333333,0,48.4,0,64.533333333333,27.943753028778,48.4,55.887506057556,16.133333333333,55.887506057556,0,27.943753028778" stroke="#000" stroke-opacity="0.01" fill-opacity="0.02733" fill="#dfd" transform="translate(161.33333333333, 307.38128331656)" /><polyline points="0,27.943753028778,16.133333333333,0,48.4,0,64.533333333333,27.943753028778,48.4,55.887506057556,16.133333333333,55.887506057556,0,27.943753028778" stroke="#000" stroke-opacity="0.01" fill-opacity="0.058" fill="#2f2" transform="translate(209.73333333333, 0)" /><polyline points="0,27.943753028778,16.133333333333,0,48.4,0,64.533333333333,27.943753028778,48.4,55.887506057556,16.133333333333,55.887506057556,0,27.943753028778" stroke="#000" stroke-opacity="0.01" fill-opacity="0.058" fill="#2f2" transform="translate(209.73333333333, 335.32503634533)" /><polyline points="0,27.943753028778,16.133333333333,0,48.4,0,64.533333333333,27.943753028778,48.4,55.887506057556,16.133333333333,55.887506057556,0,27.943753028778" stroke="#000" stroke-opacity="0.01" fill-opacity="0.055" fill="#22f" transform="translate(-32.266666666667, 27.943753028778)" /><polyline points="0,27.943753028778,16.133333333333,0,48.4,0,64.533333333333,27.943753028778,48.4,55.887506057556,16.133333333333,55.887506057556,0,27.943753028778" stroke="#000" stroke-opacity="0.01" fill-opacity="0.055" fill="#22f" transform="translate(258.13333333333, 27.943753028778)" /><polyline points="0,27.943753028778,16.133333333333,0,48.4,0,64.533333333333,27.943753028778,48.4,55.887506057556,16.133333333333,55.887506057556,0,27.943753028778" stroke="#000" stroke-opacity="0.01" fill-opacity="0.10666666666667" fill="#dfd" transform="translate(16.133333333333, 55.887506057556)" /><polyline points="0,27.943753028778,16.133333333333,0,48.4,0,64.533333333333,27.943753028778,48.4,55.887506057556,16.133333333333,55.887506057556,0,27.943753028778" stroke="#000" stroke-opacity="0.01" fill-opacity="0.0316" fill="#2f2" transform="translate(64.533333333333, 27.943753028778)" /><polyline points="0,27.943753028778,16.133333333333,0,48.4,0,64.533333333333,27.943753028778,48.4,55.887506057556,16.133333333333,55.887506057556,0,27.943753028778" stroke="#000" stroke-opacity="0.01" fill-opacity="0.062" fill="#dfd" transform="translate(112.93333333333, 55.887506057556)" /><polyline points="0,27.943753028778,16.133333333333,0,48.4,0,64.533333333333,27.943753028778,48.4,55.887506057556,16.133333333333,55.887506057556,0,27.943753028778" stroke="#000" stroke-opacity="0.01" fill-opacity="0.058" fill="#2f2" transform="translate(161.33333333333, 27.943753028778)" /><polyline points="0,27.943753028778,16.133333333333,0,48.4,0,64.533333333333,27.943753028778,48.4,55.887506057556,16.133333333333,55.887506057556,0,27.943753028778" stroke="#000" stroke-opacity="0.01" fill-opacity="0.023" fill="#2f2" transform="translate(209.73333333333, 55.887506057556)" /><polyline points="0,27.943753028778,16.133333333333,0,48.4,0,64.533333333333,27.943753028778,48.4,55.887506057556,16.133333333333,55.887506057556,0,27.943753028778" stroke="#000" stroke-opacity="0.01" fill-opacity="0.089333333333333" fill="#dfd" transform="translate(-32.266666666667, 83.831259086334)" /><polyline points="0,27.943753028778,16.133333333333,0,48.4,0,64.533333333333,27.943753028778,48.4,55.887506057556,16.133333333333,55.887506057556,0,27.943753028778" stroke="#000" stroke-opacity="0.01" fill-opacity="0.089333333333333" fill="#dfd" transform="translate(258.13333333333, 83.831259086334)" /><polyline points="0,27.943753028778,16.133333333333,0,48.4,0,64.533333333333,27.943753028778,48.4,55.887506057556,16.133333333333,55.887506057556,0,27.943753028778" stroke="#000" stroke-opacity="0.01" fill-opacity="0.10666666666667" fill="#dfd" transform="translate(16.133333333333, 111.77501211511)" /><polyline points="0,27.943753028778,16.133333333333,0,48.4,0,64.533333333333,27.943753028778,48.4,55.887506057556,16.133333333333,55.887506057556,0,27.943753028778" stroke="#000" stroke-opacity="0.01" fill-opacity="0.036" fill="#dfd" transform="translate(64.533333333333, 83.831259086334)" /><polyline points="0,27.943753028778,16.133333333333,0,48.4,0,64.533333333333,27.943753028778,48.4,55.887506057556,16.133333333333,55.887506057556,0,27.943753028778" stroke="#000" stroke-opacity="0.01" fill-opacity="0.10666666666667" fill="#dfd" transform="translate(112.93333333333, 111.77501211511)" /><polyline points="0,27.943753028778,16.133333333333,0,48.4,0,64.533333333333,27.943753028778,48.4,55.887506057556,16.133333333333,55.887506057556,0,27.943753028778" stroke="#000" stroke-opacity="0.01" fill-opacity="0.062" fill="#dfd" transform="translate(161.33333333333, 83.831259086334)" /><polyline points="0,27.943753028778,16.133333333333,0,48.4,0,64.533333333333,27.943753028778,48.4,55.887506057556,16.133333333333,55.887506057556,0,27.943753028778" stroke="#000" stroke-opacity="0.01" fill-opacity="0.0316" fill="#2f2" transform="translate(209.73333333333, 111.77501211511)" /><polyline points="0,27.943753028778,16.133333333333,0,48.4,0,64.533333333333,27.943753028778,48.4,55.887506057556,16.133333333333,55.887506057556,0,27.943753028778" stroke="#000" stroke-opacity="0.01" fill-opacity="0.062" fill="#dfd" transform="translate(-32.266666666667, 139.71876514389)" /><polyline points="0,27.943753028778,16.133333333333,0,48.4,0,64.533333333333,27.943753028778,48.4,55.887506057556,16.133333333333,55.887506057556,0,27.943753028778" stroke="#000" stroke-opacity="0.01" fill-opacity="0.062" fill="#dfd" transform="translate(258.13333333333, 139.71876514389)" /><polyline points="0,27.943753028778,16.133333333333,0,48.4,0,64.533333333333,27.943753028778,48.4,55.887506057556,16.133333333333,55.887506057556,0,27.943753028778" stroke="#000" stroke-opacity="0.01" fill-opacity="0.075" fill="#2f2" transform="translate(16.133333333333, 167.66251817267)" /><polyline points="0,27.943753028778,16.133333333333,0,48.4,0,64.533333333333,27.943753028778,48.4,55.887506057556,16.133333333333,55.887506057556,0,27.943753028778" stroke="#000" stroke-opacity="0.01" fill-opacity="0.0316" fill="#2f2" transform="translate(64.533333333333, 139.71876514389)" /><polyline points="0,27.943753028778,16.133333333333,0,48.4,0,64.533333333333,27.943753028778,48.4,55.887506057556,16.133333333333,55.887506057556,0,27.943753028778" stroke="#000" stroke-opacity="0.01" fill-opacity="0.02733" fill="#dfd" transform="translate(112.93333333333, 167.66251817267)" /><polyline points="0,27.943753028778,16.133333333333,0,48.4,0,64.533333333333,27.943753028778,48.4,55.887506057556,16.133333333333,55.887506057556,0,27.943753028778" stroke="#000" stroke-opacity="0.01" fill-opacity="0.037333333333333" fill="#faa" transform="translate(161.33333333333, 139.71876514389)" /><polyline points="0,27.943753028778,16.133333333333,0,48.4,0,64.533333333333,27.943753028778,48.4,55.887506057556,16.133333333333,55.887506057556,0,27.943753028778" stroke="#000" stroke-opacity="0.01" fill-opacity="0.058" fill="#2f2" transform="translate(209.73333333333, 167.66251817267)" /><polyline points="0,27.943753028778,16.133333333333,0,48.4,0,64.533333333333,27.943753028778,48.4,55.887506057556,16.133333333333,55.887506057556,0,27.943753028778" stroke="#000" stroke-opacity="0.01" fill-opacity="0.02733" fill="#dfd" transform="translate(-32.266666666667, 195.60627120145)" /><polyline points="0,27.943753028778,16.133333333333,0,48.4,0,64.533333333333,27.943753028778,48.4,55.887506057556,16.133333333333,55.887506057556,0,27.943753028778" stroke="#000" stroke-opacity="0.01" fill-opacity="0.02733" fill="#dfd" transform="translate(258.13333333333, 195.60627120145)" /><polyline points="0,27.943753028778,16.133333333333,0,48.4,0,64.533333333333,27.943753028778,48.4,55.887506057556,16.133333333333,55.887506057556,0,27.943753028778" stroke="#000" stroke-opacity="0.01" fill-opacity="0.02019" fill="#2f2" transform="translate(16.133333333333, 223.55002423022)" /><polyline points="0,27.943753028778,16.133333333333,0,48.4,0,64.533333333333,27.943753028778,48.4,55.887506057556,16.133333333333,55.887506057556,0,27.943753028778" stroke="#000" stroke-opacity="0.01" fill-opacity="0.01" fill="#dfd" transform="translate(64.533333333333, 195.60627120145)" /><polyline points="0,27.943753028778,16.133333333333,0,48.4,0,64.533333333333,27.943753028778,48.4,55.887506057556,16.133333333333,55.887506057556,0,27.943753028778" stroke="#000" stroke-opacity="0.01" fill-opacity="0.036" fill="#dfd" transform="translate(112.93333333333, 223.55002423022)" /><polyline points="0,27.943753028778,16.133333333333,0,48.4,0,64.533333333333,27.943753028778,48.4,55.887506057556,16.133333333333,55.887506057556,0,27.943753028778" stroke="#000" stroke-opacity="0.01" fill-opacity="0.062" fill="#dfd" transform="translate(161.33333333333, 195.60627120145)" /><polyline points="0,27.943753028778,16.133333333333,0,48.4,0,64.533333333333,27.943753028778,48.4,55.887506057556,16.133333333333,55.887506057556,0,27.943753028778" stroke="#000" stroke-opacity="0.01" fill-opacity="0.0316" fill="#22f" transform="translate(209.73333333333, 223.55002423022)" /><polyline points="0,27.943753028778,16.133333333333,0,48.4,0,64.533333333333,27.943753028778,48.4,55.887506057556,16.133333333333,55.887506057556,0,27.943753028778" stroke="#000" stroke-opacity="0.01" fill-opacity="0.023" fill="#2f2" transform="translate(-32.266666666667, 251.493777259)" /><polyline points="0,27.943753028778,16.133333333333,0,48.4,0,64.533333333333,27.943753028778,48.4,55.887506057556,16.133333333333,55.887506057556,0,27.943753028778" stroke="#000" stroke-opacity="0.01" fill-opacity="0.023" fill="#2f2" transform="translate(258.13333333333, 251.493777259)" /><polyline points="0,27.943753028778,16.133333333333,0,48.4,0,64.533333333333,27.943753028778,48.4,55.887506057556,16.133333333333,55.887506057556,0,27.943753028778" stroke="#000" stroke-opacity="0.01" fill-opacity="0.01" fill="#dfd" transform="translate(16.133333333333, 279.43753028778)" /><polyline points="0,27.943753028778,16.133333333333,0,48.4,0,64.533333333333,27.943753028778,48.4,55.887506057556,16.133333333333,55.887506057556,0,27.943753028778" stroke="#000" stroke-opacity="0.01" fill-opacity="0.02019" fill="#2f2" transform="translate(64.533333333333, 251.493777259)" /><polyline points="0,27.943753028778,16.133333333333,0,48.4,0,64.533333333333,27.943753028778,48.4,55.887506057556,16.133333333333,55.887506057556,0,27.943753028778" stroke="#000" stroke-opacity="0.01" fill-opacity="0.02019" fill="#2f2" transform="translate(112.93333333333, 279.43753028778)" /><polyline points="0,27.943753028778,16.133333333333,0,48.4,0,64.533333333333,27.943753028778,48.4,55.887506057556,16.133333333333,55.887506057556,0,27.943753028778" stroke="#000" stroke-opacity="0.01" fill-opacity="0.0316" fill="#2f2" transform="translate(161.33333333333, 251.493777259)" /><polyline points="0,27.943753028778,16.133333333333,0,48.4,0,64.533333333333,27.943753028778,48.4,55.887506057556,16.133333333333,55.887506057556,0,27.943753028778" stroke="#000" stroke-opacity="0.01" fill-opacity="0.023" fill="#2f2" transform="translate(209.73333333333, 279.43753028778)" /></svg>
