
<?xml version="1.0" standalone="no"?>
<!DOCTYPE svg PUBLIC "-//W3C//DTD SVG 20010904//EN"
 "http://www.w3.org/TR/2001/REC-SVG-20010904/DTD/svg10.dtd">
<svg version="1.0" xmlns="http://www.w3.org/2000/svg"
 width="1920.000000pt" height="1080.000000pt" viewBox="0 0 1920.000000 1080.000000"
 preserveAspectRatio="xMidYMid meet">

<g transform="translate(0.000000,1080.000000) scale(0.100000,-0.100000)"
fill="#000000" stroke="none">
<path d="M5240 9240 c-13 -13 -20 -33 -20 -60 0 -35 5 -43 33 -60 17 -11 40
-19 49 -16 13 3 85 -70 260 -262 134 -146 256 -282 271 -302 16 -19 52 -60 80
-90 29 -30 70 -75 91 -100 46 -52 187 -208 267 -295 48 -52 92 -101 288 -320
32 -35 135 -150 267 -295 22 -25 70 -76 105 -115 46 -50 59 -71 48 -73 -14 -3
-134 34 -494 153 -71 23 -224 73 -340 110 -196 63 -213 71 -247 108 -33 35
-41 39 -70 33 -98 -19 -86 -156 13 -156 19 0 40 5 45 10 10 10 74 -7 294 -80
30 -10 143 -46 250 -80 107 -34 233 -75 280 -90 47 -15 139 -45 205 -66 66
-20 124 -41 129 -45 7 -7 -87 -120 -269 -323 -39 -44 -156 -176 -177 -201
-143 -168 -453 -517 -462 -520 -6 -2 -23 -6 -39 -9 -65 -15 -87 -81 -42 -130
29 -32 72 -34 103 -6 23 21 38 63 29 78 -3 4 2 20 11 34 17 25 213 249 387
442 136 151 258 287 291 325 72 85 133 149 137 145 5 -5 -2 -36 -28 -129 -9
-33 -20 -73 -25 -90 -5 -16 -16 -57 -25 -90 -9 -33 -27 -101 -40 -152 -23 -85
-82 -303 -105 -383 -15 -53 -69 -246 -92 -330 -43 -159 -68 -248 -89 -320 -11
-41 -31 -113 -44 -160 -42 -153 -55 -201 -80 -290 -14 -48 -31 -112 -39 -141
-16 -61 -71 -256 -86 -309 -16 -55 -70 -249 -86 -310 -33 -121 -93 -337 -115
-415 -5 -16 -41 -145 -79 -285 -88 -319 -142 -512 -169 -605 -5 -16 -26 -94
-47 -172 -21 -79 -43 -143 -49 -143 -11 1 -133 101 -550 450 -148 124 -323
270 -389 325 -67 54 -128 106 -136 115 -8 9 -134 115 -280 236 -146 122 -341
285 -435 364 -93 78 -208 174 -255 213 -47 39 -108 91 -136 116 -27 25 -60 54
-72 63 -12 10 -103 86 -203 170 -100 84 -232 194 -293 245 -130 107 -205 175
-190 171 6 -2 379 -187 828 -412 770 -387 817 -412 834 -445 30 -63 111 -69
136 -10 28 67 -12 116 -86 106 -45 -6 94 -74 -1348 655 -310 157 -566 290
-567 295 -2 6 32 13 79 16 46 3 160 13 253 22 158 15 216 20 496 44 59 5 123
13 142 16 28 6 39 3 57 -15 16 -16 31 -20 63 -18 37 3 44 7 60 40 17 34 17 39
2 67 -30 58 -79 66 -127 21 -17 -16 -38 -30 -47 -30 -9 0 -90 -7 -181 -15 -91
-8 -217 -20 -280 -25 -63 -6 -160 -14 -215 -20 -220 -21 -329 -30 -332 -26 -3
2 10 17 29 34 18 16 98 87 178 158 80 71 181 161 224 199 43 39 100 88 126
110 39 33 519 456 556 490 6 5 60 53 120 105 59 52 166 148 237 213 183 167
209 187 243 187 86 0 120 100 50 146 -46 29 -116 -8 -116 -62 0 -28 -21 -52
-125 -140 -93 -80 -309 -268 -315 -274 -6 -6 -287 -254 -430 -379 -52 -46
-115 -102 -140 -125 -25 -22 -79 -70 -120 -106 -89 -77 -133 -116 -215 -190
-34 -30 -77 -68 -96 -84 -53 -46 -190 -167 -234 -208 -22 -21 -43 -38 -47 -38
-5 0 -9 287 -9 638 -1 350 -4 882 -8 1182 l-6 545 22 28 c35 44 34 81 -3 115
-33 29 -69 28 -101 -4 -20 -21 -24 -32 -20 -59 3 -19 15 -44 26 -57 21 -22 21
-23 21 -1145 0 -618 -3 -1123 -7 -1123 -5 0 -21 33 -37 73 -16 39 -40 95 -52
122 -12 28 -50 118 -84 200 -34 83 -68 165 -76 183 -8 17 -20 47 -28 65 -8 17
-42 100 -76 182 -34 83 -70 168 -80 190 -10 22 -30 69 -45 105 -15 36 -37 88
-50 115 -44 99 -49 120 -36 153 30 73 -73 136 -127 79 -41 -44 -24 -99 39
-131 15 -7 35 -44 61 -111 21 -55 44 -113 52 -130 8 -16 24 -55 36 -85 12 -30
28 -68 35 -85 7 -16 30 -70 50 -120 21 -49 45 -108 55 -130 10 -22 46 -107 80
-190 34 -82 68 -163 76 -180 28 -61 174 -418 174 -425 0 -5 -438 211 -973 479
-913 458 -973 490 -992 524 -36 66 -108 69 -140 7 -19 -37 -13 -62 22 -90 21
-17 35 -19 68 -14 40 5 63 -5 416 -183 206 -105 636 -322 956 -484 320 -161
577 -297 570 -300 -7 -4 -73 -12 -147 -18 -158 -13 -300 -26 -460 -42 -370
-35 -390 -36 -421 -17 -52 31 -101 22 -124 -23 -21 -40 -19 -57 14 -90 38 -38
72 -37 113 1 17 17 40 30 52 31 24 0 183 13 341 28 543 51 648 59 657 52 4 -4
-29 -38 -74 -76 -45 -39 -109 -95 -142 -125 -34 -30 -95 -84 -136 -120 -41
-36 -97 -86 -125 -111 -55 -50 -473 -418 -680 -599 -72 -63 -181 -160 -241
-215 -191 -175 -219 -197 -247 -190 -74 19 -129 -81 -74 -133 44 -42 99 -24
127 42 14 31 55 73 156 161 75 66 163 143 194 170 31 28 72 63 91 79 43 38
192 169 199 176 3 3 77 69 165 146 303 267 350 308 475 419 69 61 166 147 215
190 50 44 99 88 110 98 11 10 32 28 48 39 l27 19 0 -218 c0 -120 5 -649 10
-1177 l9 -958 -24 -37 c-30 -44 -31 -70 -4 -105 42 -53 129 -19 129 51 0 17
-10 42 -25 59 l-25 29 0 1123 c0 618 4 1121 9 1118 4 -3 16 -27 26 -53 10 -26
28 -70 41 -98 12 -27 50 -117 84 -200 34 -82 70 -168 80 -190 10 -22 50 -119
90 -215 40 -96 81 -194 91 -216 10 -23 39 -93 65 -155 25 -63 55 -133 66 -157
17 -35 18 -47 9 -70 -20 -48 21 -112 71 -112 31 0 71 44 71 78 0 34 -35 82
-60 82 -7 0 -17 10 -22 23 -30 78 -67 168 -82 202 -10 22 -30 69 -44 105 -14
36 -32 79 -40 95 -7 17 -36 84 -63 150 -167 402 -214 513 -227 542 -8 17 -15
34 -15 37 0 3 -9 25 -20 49 -48 104 -87 206 -77 200 13 -8 140 -111 357 -293
80 -67 154 -129 165 -138 12 -9 48 -39 80 -67 33 -27 62 -52 65 -55 3 -3 43
-37 90 -75 47 -38 103 -85 126 -105 22 -19 96 -80 164 -135 68 -55 128 -105
134 -110 13 -13 236 -199 280 -235 17 -14 63 -51 101 -83 39 -33 162 -136 275
-231 176 -147 343 -288 455 -385 17 -14 53 -44 80 -66 28 -21 52 -42 55 -45 5
-5 100 -85 149 -125 14 -11 43 -36 65 -56 47 -40 437 -367 500 -417 22 -19 44
-39 48 -47 4 -7 3 -199 -3 -426 -5 -228 -9 -459 -7 -514 3 -99 3 -100 28 -100
l25 0 6 175 c4 96 7 327 8 513 1 307 3 344 22 415 18 69 105 382 144 522 9 30
20 73 26 95 6 22 15 51 19 65 4 14 13 43 19 65 9 32 117 426 161 585 5 19 21
76 35 125 14 50 30 108 37 130 6 22 15 54 19 70 5 17 41 145 79 285 73 264 87
314 102 365 4 17 44 161 88 320 44 160 84 306 90 325 5 19 21 76 35 125 14 50
29 104 34 120 5 17 46 165 91 330 45 165 86 309 91 320 10 23 39 127 46 169 3
15 9 23 12 17 7 -10 -8 -186 -28 -331 -6 -41 -15 -111 -21 -155 -6 -44 -15
-109 -20 -144 -6 -45 -15 -70 -28 -80 -35 -28 -45 -59 -31 -92 22 -54 83 -66
124 -24 30 29 32 60 5 100 -10 16 -17 39 -15 50 3 11 10 61 16 110 12 104 26
214 39 300 17 109 29 198 55 399 14 110 27 202 30 205 9 9 21 -12 55 -94 62
-153 160 -379 215 -500 18 -38 45 -99 60 -135 15 -36 35 -83 45 -105 10 -22
82 -191 160 -375 78 -184 150 -353 160 -375 10 -22 32 -76 50 -120 18 -44 37
-84 41 -90 12 -12 11 -52 -1 -75 -22 -41 25 -100 79 -100 27 0 71 46 71 74 0
40 -10 56 -49 76 -27 14 -41 30 -55 67 -11 26 -29 71 -42 98 -12 28 -34 79
-49 115 -15 36 -35 83 -45 105 -10 22 -35 81 -55 130 -21 50 -45 108 -55 130
-24 54 -236 557 -262 620 -11 28 -26 64 -34 80 -65 145 -174 410 -171 418 3 9
156 -155 391 -418 45 -49 115 -126 157 -170 41 -44 181 -197 310 -340 128
-143 252 -280 275 -305 23 -25 112 -124 199 -220 87 -96 181 -201 210 -232 41
-46 51 -64 52 -94 2 -64 67 -96 121 -58 17 12 22 25 22 59 0 49 -24 75 -71 75
-20 0 -45 20 -110 92 -46 51 -111 122 -144 158 -69 76 -55 61 -415 459 -151
167 -299 331 -329 365 -159 180 -274 309 -301 336 -3 3 -23 25 -44 50 -21 25
-62 70 -90 100 -234 252 -265 292 -213 270 12 -5 137 -46 277 -91 401 -128
466 -149 605 -194 72 -23 152 -48 179 -56 36 -10 55 -23 70 -46 54 -83 172
-27 140 66 -14 39 -57 56 -104 41 -31 -10 -47 -10 -96 4 -32 9 -68 21 -79 26
-11 5 -83 29 -160 53 -169 54 -528 169 -758 244 l-168 55 18 21 c10 12 20 24
23 27 3 3 53 59 110 125 58 66 109 125 115 131 5 6 155 175 332 376 301 341
325 366 362 372 93 14 84 149 -10 149 -39 0 -70 -31 -73 -75 -2 -29 -30 -65
-166 -219 -90 -101 -224 -254 -299 -339 -75 -85 -144 -164 -154 -175 -10 -11
-71 -80 -135 -152 -64 -73 -120 -133 -125 -133 -4 0 -6 15 -3 33 3 17 15 106
26 197 12 91 25 197 30 235 5 39 14 104 19 145 6 41 17 129 26 195 9 66 20
151 25 190 6 49 14 74 28 85 48 39 50 94 5 130 -33 26 -64 25 -97 -1 -30 -24
-36 -81 -10 -110 13 -15 14 -29 5 -106 -17 -136 -49 -387 -71 -548 -13 -97
-25 -191 -39 -307 -10 -77 -29 -153 -30 -120 -1 7 -10 32 -21 57 -11 25 -29
66 -41 91 -11 26 -29 70 -40 98 -12 28 -34 79 -50 114 -16 35 -29 65 -29 67 0
4 -260 616 -284 670 -8 17 -26 59 -41 95 -29 71 -51 121 -96 218 -16 35 -29
65 -29 67 0 3 -11 28 -24 57 -76 167 -94 222 -89 271 5 41 2 52 -17 72 -46 49
-130 17 -130 -50 0 -26 36 -75 55 -75 17 0 35 -30 74 -125 18 -44 45 -109 61
-145 15 -36 40 -96 56 -135 15 -38 37 -92 50 -120 12 -27 34 -79 49 -115 15
-36 35 -83 45 -105 10 -22 30 -69 45 -105 15 -36 35 -83 45 -105 10 -22 30
-69 45 -105 15 -36 35 -83 45 -105 10 -22 30 -69 45 -105 15 -36 35 -83 45
-105 10 -22 30 -69 45 -105 15 -36 38 -89 51 -117 13 -29 27 -65 30 -80 9 -33
25 -49 -161 157 -77 85 -142 157 -145 160 -3 3 -50 55 -105 115 -83 93 -242
268 -280 309 -5 7 -48 54 -95 106 -47 52 -103 115 -125 139 -61 69 -163 180
-221 241 -28 30 -143 156 -255 280 -112 124 -209 231 -216 238 -7 7 -13 28
-13 46 0 48 -33 86 -76 86 -21 0 -42 -8 -54 -20z m1787 -2532 c-3 -8 -6 -5 -6
6 -1 11 2 17 5 13 3 -3 4 -12 1 -19z"/>
<path d="M12300 6230 c-23 -54 -120 -115 -230 -143 l-55 -14 -11 -54 c-10 -47
-162 -572 -244 -839 -16 -52 -38 -126 -49 -165 -11 -38 -67 -230 -126 -425
-59 -195 -111 -371 -117 -390 -37 -132 -70 -198 -134 -269 -52 -58 -113 -101
-159 -112 -16 -4 74 -7 200 -7 143 0 219 3 201 8 -68 21 -105 90 -106 196 0
39 4 84 9 100 5 16 17 56 26 89 10 33 27 94 40 135 13 41 37 127 55 190 18 63
38 133 45 155 l13 40 394 3 394 2 44 -137 c24 -76 72 -225 107 -332 49 -153
63 -208 63 -255 -1 -92 -47 -175 -105 -189 -11 -3 147 -5 350 -6 365 -1 370
-1 339 18 -36 22 -91 97 -135 183 -18 35 -191 542 -386 1128 -195 586 -359
1077 -365 1093 -14 36 -42 35 -58 -3z m-232 -345 c17 -49 74 -225 127 -390 54
-165 128 -394 166 -509 38 -115 66 -213 63 -217 -7 -12 -741 -12 -748 0 -3 5
15 78 39 162 25 85 52 179 61 209 9 30 20 69 25 85 14 47 68 234 85 295 9 30
19 66 23 80 15 46 29 94 72 243 23 81 46 144 50 140 4 -4 21 -48 37 -98z"/>
<path d="M15024 5663 c-93 -98 -211 -221 -262 -275 -116 -121 -115 -128 14
-128 l94 0 0 -459 c0 -503 5 -556 59 -690 74 -181 206 -299 371 -332 182 -36
436 134 513 341 23 62 22 90 -3 90 -14 0 -22 -10 -30 -38 -13 -51 -57 -110
-111 -153 -62 -48 -81 -57 -150 -73 -52 -13 -67 -13 -107 -1 -87 26 -168 137
-192 265 -11 58 -14 888 -4 989 l7 61 242 0 c277 0 255 -8 255 95 0 103 22 95
-256 95 l-244 0 -2 192 c-2 128 -7 193 -14 195 -6 2 -87 -76 -180 -174z"/>
<path d="M13820 5473 c-14 -2 -38 -9 -55 -15 -163 -60 -266 -148 -329 -278
-27 -58 -31 -74 -30 -150 1 -62 7 -101 23 -141 68 -176 230 -330 411 -389 142
-47 257 -124 317 -214 45 -67 56 -113 44 -183 -29 -153 -136 -276 -261 -298
-32 -5 -40 -1 -85 42 -71 69 -214 196 -327 292 -69 58 -100 79 -103 69 -3 -8
-4 -59 -3 -114 2 -72 6 -98 15 -97 13 3 100 -48 217 -127 113 -76 213 -104
315 -88 117 17 193 47 287 114 132 93 207 215 213 346 3 74 1 82 -38 160 -81
164 -208 270 -420 353 -180 70 -263 138 -331 272 -103 203 78 470 287 423 46
-10 63 -21 126 -84 60 -59 218 -199 290 -255 16 -13 17 -7 17 85 l0 99 -38 17
c-20 9 -71 35 -112 58 -140 77 -165 89 -218 99 -51 11 -161 13 -212 4z"/>
<path d="M16695 5470 c-266 -30 -538 -230 -654 -482 -46 -100 -71 -185 -88
-303 -19 -133 -7 -244 38 -368 68 -187 246 -383 424 -467 193 -90 338 -98 528
-29 190 69 376 212 443 340 25 49 12 42 -33 -16 -144 -185 -533 -322 -697
-244 -143 67 -277 303 -331 583 -13 67 -16 127 -13 250 2 88 7 167 11 174 6 9
133 12 577 12 354 0 571 4 575 10 3 5 -2 38 -10 72 -78 301 -417 507 -770 468z
m163 -38 c39 -17 94 -81 133 -151 36 -64 87 -223 91 -281 l3 -45 -315 -8
c-173 -4 -342 -6 -375 -5 l-60 3 3 30 c8 72 65 202 127 290 74 103 168 169
264 185 52 8 81 4 129 -18z"/>
<path d="M18400 5473 c-112 -18 -273 -126 -381 -257 -28 -34 -58 -70 -67 -81
-16 -19 -17 -11 -22 145 l-5 165 -79 3 c-79 3 -107 -1 -220 -32 -78 -22 -80
-24 -59 -54 17 -25 18 -74 21 -789 l3 -763 174 0 175 0 0 624 0 624 40 51
c102 129 209 201 299 201 87 0 144 -43 155 -118 8 -54 44 -112 92 -148 49 -38
133 -45 190 -16 62 32 103 87 119 159 15 70 -57 170 -166 231 -66 37 -203 65
-269 55z"/>
</g>
</svg>
