<?xml version="1.0" encoding="UTF-8"?><svg xmlns="http://www.w3.org/2000/svg" xmlns:xlink="http://www.w3.org/1999/xlink" contentScriptType="text/ecmascript" width="375" zoomAndPan="magnify" contentStyleType="text/css" viewBox="0 0 375 374.999991" height="374.999991" preserveAspectRatio="xMidYMid meet" version="1.0"><defs><clipPath id="clip-0"><path d="M 361.710938 193.398438 L 368.589844 193.398438 L 368.589844 200.503906 L 361.710938 200.503906 Z M 361.710938 193.398438 " clip-rule="nonzero"/></clipPath><clipPath id="clip-1"><path d="M 6.34375 142 L 14 142 L 14 149 L 6.34375 149 Z M 6.34375 142 " clip-rule="nonzero"/></clipPath><clipPath id="clip-2"><path d="M 232 303.292969 L 238 303.292969 L 238 349.058594 L 232 349.058594 Z M 232 303.292969 " clip-rule="nonzero"/></clipPath></defs><path fill="rgb(99.609375%, 81.17981%, 0%)" d="M 225.285156 114.089844 C 227.640625 88.949219 224.976562 51.222656 252.4375 50.167969 C 279.902344 49.117188 314.851562 47.269531 328.371094 69.683594 C 341.890625 92.097656 359.449219 116.226562 343.488281 138.839844 C 327.527344 161.445312 223.707031 130.890625 225.285156 114.089844 " fill-opacity="1" fill-rule="nonzero"/><path fill="rgb(12.548828%, 8.628845%, 0%)" d="M 250.96875 163.0625 C 250.21875 164.746094 248.25 165.5 246.566406 164.75 C 244.882812 164.003906 244.125 162.03125 244.875 160.351562 C 245.625 158.667969 247.59375 157.910156 249.28125 158.660156 C 250.964844 159.40625 251.71875 161.378906 250.96875 163.0625 " fill-opacity="1" fill-rule="nonzero"/><path fill="rgb(99.609375%, 81.17981%, 0%)" d="M 94.1875 271.632812 C 64.46875 258.558594 17.34375 246.496094 27.207031 212.59375 C 37.066406 178.691406 48.996094 135.339844 81.835938 127.953125 C 114.675781 120.566406 151.242188 108.957031 172.355469 137.585938 C 193.46875 166.21875 114.050781 280.375 94.1875 271.632812 " fill-opacity="1" fill-rule="nonzero"/><path fill="rgb(12.548828%, 8.628845%, 0%)" d="M 216.070312 27.023438 C 217.453125 28.238281 217.582031 30.347656 216.367188 31.726562 C 215.144531 33.109375 213.039062 33.242188 211.65625 32.023438 C 210.273438 30.804688 210.140625 28.699219 211.363281 27.316406 C 212.578125 25.9375 214.6875 25.804688 216.070312 27.023438 " fill-opacity="1" fill-rule="nonzero"/><path fill="rgb(12.548828%, 8.628845%, 0%)" d="M 258.007812 32.960938 C 257.257812 34.640625 255.285156 35.398438 253.601562 34.652344 C 251.917969 33.902344 251.160156 31.929688 251.910156 30.246094 C 252.660156 28.566406 254.632812 27.808594 256.316406 28.558594 C 257.996094 29.308594 258.757812 31.277344 258.007812 32.960938 " fill-opacity="1" fill-rule="nonzero"/><path fill="rgb(12.548828%, 8.628845%, 0%)" d="M 335.390625 67.390625 C 334.640625 69.074219 332.667969 69.828125 330.984375 69.082031 C 329.300781 68.332031 328.542969 66.359375 329.292969 64.679688 C 330.042969 62.996094 332.015625 62.238281 333.699219 62.988281 C 335.382812 63.738281 336.136719 65.707031 335.390625 67.390625 " fill-opacity="1" fill-rule="nonzero"/><path fill="rgb(12.548828%, 8.628845%, 0%)" d="M 300.175781 61.980469 C 299.425781 63.664062 297.453125 64.417969 295.769531 63.671875 C 294.085938 62.921875 293.328125 60.949219 294.078125 59.269531 C 294.828125 57.585938 296.800781 56.828125 298.484375 57.578125 C 300.167969 58.328125 300.925781 60.300781 300.175781 61.980469 " fill-opacity="1" fill-rule="nonzero"/><path fill="rgb(12.548828%, 8.628845%, 0%)" d="M 349.800781 133.457031 C 349.050781 135.140625 347.078125 135.894531 345.398438 135.148438 C 343.714844 134.398438 342.957031 132.425781 343.707031 130.746094 C 344.453125 129.0625 346.425781 128.304688 348.109375 129.054688 C 349.792969 129.804688 350.550781 131.773438 349.800781 133.457031 " fill-opacity="1" fill-rule="nonzero"/><g clip-path="url(#clip-0)"><path fill="rgb(12.548828%, 8.628845%, 0%)" d="M 368.300781 198.292969 C 367.550781 199.976562 365.578125 200.730469 363.894531 199.984375 C 362.210938 199.234375 361.453125 197.265625 362.203125 195.582031 C 362.953125 193.898438 364.925781 193.140625 366.605469 193.890625 C 368.292969 194.636719 369.050781 196.609375 368.300781 198.292969 " fill-opacity="1" fill-rule="nonzero"/></g><path fill="rgb(12.548828%, 8.628845%, 0%)" d="M 329.695312 200.613281 C 328.945312 202.296875 326.972656 203.054688 325.289062 202.304688 C 323.605469 201.554688 322.847656 199.585938 323.597656 197.902344 C 324.347656 196.21875 326.320312 195.460938 328.003906 196.210938 C 329.6875 196.960938 330.445312 198.929688 329.695312 200.613281 " fill-opacity="1" fill-rule="nonzero"/><path fill="rgb(12.548828%, 8.628845%, 0%)" d="M 286.222656 168.222656 C 285.472656 169.90625 283.5 170.660156 281.816406 169.914062 C 280.132812 169.164062 279.375 167.191406 280.125 165.511719 C 280.875 163.828125 282.847656 163.070312 284.53125 163.820312 C 286.214844 164.570312 286.972656 166.542969 286.222656 168.222656 " fill-opacity="1" fill-rule="nonzero"/><path fill="rgb(12.548828%, 8.628845%, 0%)" d="M 238.792969 94.121094 C 240.175781 95.339844 240.308594 97.449219 239.089844 98.832031 C 237.871094 100.210938 235.761719 100.34375 234.378906 99.125 C 232.996094 97.90625 232.867188 95.800781 234.085938 94.417969 C 235.304688 93.035156 237.410156 92.90625 238.792969 94.121094 " fill-opacity="1" fill-rule="nonzero"/><path fill="rgb(12.548828%, 8.628845%, 0%)" d="M 364.523438 198.089844 L 213.796875 31.402344 L 215.742188 29.644531 L 366.472656 196.332031 L 364.523438 198.089844 " fill-opacity="1" fill-rule="nonzero"/><path fill="rgb(12.548828%, 8.628845%, 0%)" d="M 248.523438 163.003906 L 246.558594 161.269531 L 331.742188 64.730469 L 333.710938 66.464844 L 248.523438 163.003906 " fill-opacity="1" fill-rule="nonzero"/><path fill="rgb(12.548828%, 8.628845%, 0%)" d="M 284.484375 166.964844 L 281.882812 166.621094 L 295.785156 60.773438 L 298.382812 61.113281 L 284.484375 166.964844 " fill-opacity="1" fill-rule="nonzero"/><path fill="rgb(12.548828%, 8.628845%, 0%)" d="M 344.597656 132.785156 L 234.867188 97.449219 L 235.671875 94.953125 L 345.402344 130.289062 L 344.597656 132.785156 " fill-opacity="1" fill-rule="nonzero"/><path fill="rgb(12.548828%, 8.628845%, 0%)" d="M 325.035156 198.828125 L 252.820312 29.941406 L 255.230469 28.90625 L 327.449219 197.796875 L 325.035156 198.828125 " fill-opacity="1" fill-rule="nonzero"/><path fill="rgb(12.548828%, 8.628845%, 0%)" d="M 185.628906 235.289062 L 9.847656 146.746094 L 11.027344 144.402344 L 186.808594 232.949219 L 185.628906 235.289062 " fill-opacity="1" fill-rule="nonzero"/><path fill="rgb(12.548828%, 8.628845%, 0%)" d="M 97.417969 295.4375 L 96.617188 84.265625 L 99.238281 84.253906 L 100.039062 295.425781 L 97.417969 295.4375 " fill-opacity="1" fill-rule="nonzero"/><path fill="rgb(12.548828%, 8.628845%, 0%)" d="M 22.304688 258.703125 L 20.566406 256.738281 L 174.351562 120.988281 L 176.089844 122.953125 L 22.304688 258.703125 " fill-opacity="1" fill-rule="nonzero"/><path fill="rgb(12.548828%, 8.628845%, 0%)" d="M 125.039062 256.933594 L 69.195312 123.773438 L 71.613281 122.757812 L 127.460938 255.917969 L 125.039062 256.933594 " fill-opacity="1" fill-rule="nonzero"/><path fill="rgb(12.548828%, 8.628845%, 0%)" d="M 46.292969 195.917969 L 46.054688 193.308594 L 150.359375 183.773438 L 150.597656 186.382812 L 46.292969 195.917969 " fill-opacity="1" fill-rule="nonzero"/><path fill="rgb(12.548828%, 8.628845%, 0%)" d="M 49.117188 192.046875 C 50.496094 193.265625 50.628906 195.371094 49.410156 196.753906 C 48.191406 198.132812 46.082031 198.265625 44.703125 197.046875 C 43.320312 195.828125 43.1875 193.722656 44.40625 192.34375 C 45.625 190.960938 47.734375 190.828125 49.117188 192.046875 " fill-opacity="1" fill-rule="nonzero"/><path fill="rgb(12.548828%, 8.628845%, 0%)" d="M 25.847656 252.71875 C 27.230469 253.9375 27.363281 256.042969 26.144531 257.425781 C 24.925781 258.804688 22.816406 258.9375 21.433594 257.71875 C 20.054688 256.503906 19.921875 254.394531 21.140625 253.015625 C 22.359375 251.632812 24.46875 251.5 25.847656 252.71875 " fill-opacity="1" fill-rule="nonzero"/><path fill="rgb(12.548828%, 8.628845%, 0%)" d="M 100.933594 292.929688 C 102.316406 294.148438 102.449219 296.257812 101.230469 297.636719 C 100.011719 299.019531 97.902344 299.152344 96.519531 297.933594 C 95.140625 296.714844 95.007812 294.605469 96.226562 293.226562 C 97.445312 291.84375 99.554688 291.710938 100.933594 292.929688 " fill-opacity="1" fill-rule="nonzero"/><g clip-path="url(#clip-1)"><path fill="rgb(12.548828%, 8.628845%, 0%)" d="M 12.277344 142.886719 C 13.660156 144.105469 13.792969 146.214844 12.574219 147.59375 C 11.355469 148.976562 9.246094 149.105469 7.863281 147.890625 C 6.480469 146.671875 6.347656 144.566406 7.570312 143.183594 C 8.785156 141.800781 10.894531 141.667969 12.277344 142.886719 " fill-opacity="1" fill-rule="nonzero"/></g><path fill="rgb(12.548828%, 8.628845%, 0%)" d="M 72.175781 119.722656 C 73.558594 120.941406 73.6875 123.046875 72.46875 124.429688 C 71.253906 125.808594 69.144531 125.941406 67.761719 124.726562 C 66.378906 123.507812 66.246094 121.398438 67.464844 120.019531 C 68.683594 118.636719 70.792969 118.503906 72.175781 119.722656 " fill-opacity="1" fill-rule="nonzero"/><path fill="rgb(12.548828%, 8.628845%, 0%)" d="M 100.132812 81.378906 C 101.515625 82.597656 101.648438 84.703125 100.429688 86.085938 C 99.207031 87.46875 97.101562 87.601562 95.71875 86.382812 C 94.335938 85.164062 94.203125 83.054688 95.421875 81.675781 C 96.640625 80.292969 98.75 80.164062 100.132812 81.378906 " fill-opacity="1" fill-rule="nonzero"/><path fill="rgb(12.548828%, 8.628845%, 0%)" d="M 177.429688 119.46875 C 178.808594 120.6875 178.941406 122.792969 177.722656 124.175781 C 176.503906 125.554688 174.394531 125.6875 173.015625 124.46875 C 171.632812 123.253906 171.5 121.144531 172.71875 119.765625 C 173.9375 118.382812 176.046875 118.25 177.429688 119.46875 " fill-opacity="1" fill-rule="nonzero"/><path fill="rgb(12.548828%, 8.628845%, 0%)" d="M 151.84375 182.652344 C 153.226562 183.871094 153.359375 185.980469 152.140625 187.359375 C 150.921875 188.742188 148.8125 188.871094 147.433594 187.65625 C 146.050781 186.4375 145.917969 184.332031 147.136719 182.949219 C 148.355469 181.566406 150.460938 181.433594 151.84375 182.652344 " fill-opacity="1" fill-rule="nonzero"/><path fill="rgb(12.548828%, 8.628845%, 0%)" d="M 187.492188 231.148438 C 188.871094 232.363281 189.003906 234.472656 187.785156 235.855469 C 186.566406 237.234375 184.457031 237.367188 183.078125 236.148438 C 181.695312 234.929688 181.5625 232.824219 182.78125 231.441406 C 184 230.0625 186.109375 229.929688 187.492188 231.148438 " fill-opacity="1" fill-rule="nonzero"/><path fill="rgb(12.548828%, 8.628845%, 0%)" d="M 128.289062 253.523438 C 129.671875 254.742188 129.800781 256.847656 128.582031 258.230469 C 127.367188 259.609375 125.257812 259.742188 123.875 258.523438 C 122.492188 257.308594 122.359375 255.199219 123.578125 253.820312 C 124.796875 252.4375 126.90625 252.304688 128.289062 253.523438 " fill-opacity="1" fill-rule="nonzero"/><path fill="rgb(12.548828%, 8.628845%, 0%)" d="M 237.851562 305.132812 L 235.324219 304.433594 L 288.34375 113.515625 L 290.871094 114.21875 L 237.851562 305.132812 " fill-opacity="1" fill-rule="nonzero"/><path fill="rgb(12.548828%, 8.628845%, 0%)" d="M 235.746094 305.789062 L 100.042969 192.136719 L 101.726562 190.128906 L 237.429688 303.777344 L 235.746094 305.789062 " fill-opacity="1" fill-rule="nonzero"/><g clip-path="url(#clip-2)"><path fill="rgb(12.548828%, 8.628845%, 0%)" d="M 234.769531 498.316406 L 232.144531 498.277344 L 235.308594 303.636719 L 237.929688 303.679688 L 234.769531 498.316406 " fill-opacity="1" fill-rule="nonzero"/></g></svg>