<svg data-name="Layer 1" xmlns="http://www.w3.org/2000/svg" viewBox="0 0 283.46 283.46">
  <g data-name="&lt;Group&gt;">
    <circle data-name="&lt;Path&gt;" cx="141.73" cy="141.73" r="141.73" fill="#e3051b"/>
    <path data-name="&lt;Path&gt;" d="M221.99 190.76c.12.76 2.65 2 2.55 2.71s-2.71 1.25-3 1.9.16 1.9-.18 2.6-3.78-.13-4.06.56 4.14 2.66 4 3.41c-.1.52-1.49.79-1.6 1.38s-3.43.69-3.58 1.37 1.92 1.95 1.7 2.6-3.64-.27-4 .32 3.55 4.53 3 5a9.72 9.72 0 0 1-5.32 1.54c-.63.13-1.68-4.24-2.44-4.24s-1.79 4.29-2.28 4.13c-.74-.24-.73-2.35-1.09-2.9s.55-1.26.5-2-3.92-1.56-3.83-2.26 6.1-.2 6.29-.93.23-1.11.44-1.77-2.81-2.33-2.58-3-2.25-2.43-2-3.1 6.62 1 6.86.42-3.32-2.74-3.11-3.34 2.15-.91 2.1-1.56-2.59-.81-2.78-1.5 2.94-2.32 2.69-2.95-4.35.49-4.65-.13.41-1.62.08-2.24 0-1.55-.32-2.15-3.25.45-3.62-.13 4.3-4.37 3.92-4.94-5.47 1.91-5.89 1.31 4.34-4.8 3.93-5.38-1.5-.68-1.9-1.24-3.31.58-3.73 0-.33-1.48-.73-2 .1-2-.31-2.53-3.07.45-3.44-.06c-.49-.68-1.05-1.24-1.34-1.7s2.94-3.08 2.61-3.78-.65-1.18-1-1.93-.72-1.19-1-1.91-3 1.59-3.3.81c.08.76 2-1 2.13-.26s-3.41 2.07-3.29 2.76 4.94.47 5.12 1.14.05 1.17.21 1.73-.35 1.39-.17 2 1.38.81 1.57 1.38-1.78 2-1.56 2.61 2.48.5 2.73 1.13.07 1.39.33 2 1.24 1 1.52 1.59.34 1.35.63 2 1 1.05 1.25 1.65-1.13 2.14-.85 2.78 1.6.94 1.86 1.58-1.25 2.14-1.15 2.76 2.53 1.93 2.44 2.6-3.17 1-3.42 1.62.9 2.16.56 2.86-2.68.35-3 1 .37 1.7.22 2.45c-.11.58-3 .38-3.2 1s-1 .81-1.3 1.51 1.58 2.16 1.19 2.76-1.59.27-2.07.79-.07 1.83-.72 2.29a9 9 0 0 1-1.69 1.19c-.67.29-1.61-1.13-2.39-1s-1.05 2-1.84 2-.17-2.84-.63-3c-.74-.27-.33 1.71-.53 1.09s-4.75-1-4.62-1.76c.1-.56 4.27-.22 4.51-.86s1.09-.85 1.39-1.51-4.08-3.52-3.76-4.17 3.47.16 3.79-.47 3 0 3.33-.61-2.55-2.85-2.28-3.47-.53-1.62-.32-2.23.77-.42.73-1.08 1.39-1.4 1.2-2.08a17.78 17.78 0 0 0-.58-1.85c-.23-.59-3 0-3.29-.64s4.33-3.73 4-4.35-3.88.59-4.23 0-2.19-.2-2.56-.79.17-1.67-.2-2.24.44-2.07 0-2.67-3.65.82-4.06.23 4.51-5 4.11-5.51-1.28-.92-1.7-1.49-1.72-.47-2.11-1-.93-1.2-1.34-1.76-.39-1.49-.75-2c-.49-.68-3 .25-3.31-.21s2.49-2.63 2.18-3.26-1.15-.8-1.44-1.49-3.81 0-4.09-.69 3.08-2.72 2.82-3.44-2-.85-2.2-1.56-3.6-.27-3.85-1 2.79-4.41 2.53-5.12c-.43.29-2.4 2.61-2.9 2.9s-2-1.15-2.55-.85-1.58-.5-2.17-.21 1.39 5.93.77 6.21-2.62-2.57-3.24-2.3-2.07-1.56-2.7-1.3-.6 2-1.23 2.24-.43 2.56-1.06 2.8-2.1-1.88-2.72-1.66-1 1.32-1.7 1.55 0 4.28-.68 4.5-2.1-2-2.72-1.77-1.6-.34-2.25-.14-2-1.83-2.7-1.65.13 6.1-.52 6.26-1.94-1.28-2.57-1.14c-.78.17-1.48 1.18-2 1.25s-2.33-4.29-2.88-4.08-.69 2.16-1.2 2.52-.52 1.34-.93 1.83-1.22.76-1.53 1.36 1.14 1.85.91 2.55-3.78.4-3.92 1.08 3.53 2 3.44 2.69 1.11 1.36 1.07 2.1-3.47 1.34-3.46 2.1 2.84 1.23 2.88 1.92-5.59 1.4-5.59 2c0 .78 5.32 1.69 5.26 2.36s.44 1.65.33 2.31-1.39 1.24-1.54 1.92-3.7.65-3.87 1.41 4 2.2 3.84 2.93-2.94.82-3.06 1.58-1.28 1.23-1.38 2-.83 1.31-.91 2-1 1.44-1 2.24 5.18 1.74 5.14 2.48-3.05 1.3-3.08 2.08 3.4 1.44 3.38 2.13-.7 1.48-.78 2.16a20.63 20.63 0 0 1 .08 2.46c-.17.65-2.49.92-2.8 1.54a10.51 10.51 0 0 1-1.51 1.73c-.43.5-1.74 0-2.34.49s-1.45-.26-2.12.08.38 5-.41 5.22-2.44-2.93-3.22-2.75-1.37-.93-1.92-.86c-.79.11-1.26 2.5-1.85 2.47-.82 0-.44-2.7-.92-2.94-.72-.37-2.46 1.11-2.58.46s3.4-.25 3.68-1 .36-.36.8-.93-3.11-5.51-2.56-5.87 2.86 1.65 3.06 1-1.28-1.42-1.24-2.12-.55.91-.57.27c-.4.35 2.06 1 1.55 1.34s-3.42-3.85-4-3.58.73 5.46.12 5.65-2.88-5.94-3.55-5.79-.22 5.9-.78 6c-.79.1-1.66-5-2.25-5-.82 0-2.66 4.68-3.14 4.43-.72-.36 1.63-3.31 1.52-4s-3.6-1.84-3.31-2.56 2.21-.82 2.65-1.39-.42-3.77.13-4.13 3.19 2.28 3.39 1.6-1.43-1.51-1.39-2.29c0-.63-.21-1.2-.24-1.93s4.06-1.7 4-2.41.27-1.5.18-2.19-.59-1.46-.7-2.18-5.37-.78-5.47-1.48-1-1.46-1.07-2.11c-.1-.85 5.62-1.95 5.62-2.49s-.33-1.08-.37-1.69-.13-1.21-.18-1.88.95-1.37.89-2.06-.19-1.31-.25-2-4-1-4.09-1.64-1.85-1.16-1.9-1.81-.51-1.39-.56-2.08 1.92-1.51 1.88-2.16-.24-1.4-.27-2 1-1.53 1-2.18c0-.82 1.1-1.4 1.15-1.93s.89-1.2.93-1.89-1.21-1.36-1.2-2 2.45-1.43 2.43-2.1-5.81-.93-5.88-1.59 4-2 3.87-2.67 1.26-2 1.06-2.69-4.7.19-5-.42 2-3.41 1.49-3.92-1.78.45-2-.12 1.44-1.54 1.26-2.21-1.94-.77-2-1.47-2.06-1.14-2.12-1.86.46-1.46.43-2.16 3.23-1.4 3.23-2.08-1.63-1.43-1.61-2.13-1.9-1.57-1.86-2.27 2.42-1.34 2.46-2c.06-.87-.7-1.66-.67-2.2s-4.11-1-4.13-1.69 6-1.55 5.95-2.31.5-1.37.45-2.06-3.74-1.08-3.79-1.76-.59-1.1-.64-1.76c-.25-.6-2.07-.48-2.31-1.13s2-2.33 1.8-3 2.68-2.37 2.46-3.1-5.86.55-6.08 0c-.34-.82.88-1.8.54-2.22-.61-.72-.64-1.66-1.3-1.5s-.81 1.25-1.5 1.78-2.92-1.41-3.54-.93.11 2.65-.59 3-2.13-1-2.59-.76c-.62.36.48 3.11.05 3.48s.76 1.63.35 2.27c-.29.45-1.61.19-2 .86s-.53 1.16-.88 1.9-2.61.28-3 1c-.27.58-1.19.92-1.51 1.6s.61 1.62.34 2.14-1.9.3-2.22.81a8.74 8.74 0 0 1-1 1.29c-.49.57.82 2.92.27 3.22s-1.7 1.15-2.38 1.07-.17-3-.84-3.42c-.49-.31-1.91.69-2.44.17s-1.62-.4-2.12-1c-.23-.29 1-2.37.31-3-.46-.48-4.3 2.39-4.88 1.85s-.21-1.69-.77-2.14 1.82-5.68 1.22-6c-.86-.5-2.89 3.11-3.4 3.33s-1.3-2.79-1.9-2.84-.28-.5-.91-.84-.91.21-1.39-.25-3.53 1.22-3.86.65 1.25-2 1.11-2.65-3.42-1.55-3.32-2.23 3.05-.93 3.41-1.61-.52-2.31 0-2.89c.33-.36 1.35-.18 1.79-.65s-.28-2 .21-2.52 1.8 0 2.27-.5 1.06-.78 1.53-1.29.19-1.64.67-2.15 3.52 1.41 4 .88.49-1.43 1-2 1.32-.68 1.8-1.21-.15-2 .33-2.56.23-1.68.71-2.2 3.75 1.49 4.22 1-1.38-3.1-.91-3.63.36-1.53.82-2.05 1-.91 1.5-1.44-.28-2 .17-2.56 3.89.78 4.38.22c0-.7 1.81-1.68 1.87-2.44s-1.31-2-1.38-2.78c0-.51.41.09.71-.46s-1.07-2-.55-2.46-.22-3.1.4-3.44a14.68 14.68 0 0 1 2.4-1.09c.7-.19 2 3.78 2.75 3.81s2-2.42 2.62-2.1a3.74 3.74 0 0 1 1.51.89c.63-.23 1.08 1.81 1.72 1.65s1.44 1 2.14.94.78-3.07 1.49-3.06c.38-.51 1.05-.28 1.38-.74s1.67-.52 2-1 .54-1.46.9-2c.47-.67 1.52-.74 1.86-1.2.6-.82 1.19-.55 1.55-.84.62-.5 1-4.58 1.85-4.17.48.24-1.34 6-.5 6.35.48.19 4.48-4.74 4.89-4.31s-1.86 3.39-1.58 4.12c.19.52 3.58.64 3.67 1.36a19.79 19.79 0 0 1 .24 2.3c0 .63-1.53 1.48-1.6 2.24s-4.46.86-4.59 1.66c-.1.64 3.78 1.34 3.63 2.06.52.52 1.39.13 1.73.66.56.68-.06 2.32.48 3.11.24.35-.47 1.52-.09 2s2.92-1 3.37-.52 1.42.31 1.89.82-2.51 4.34-1.99 4.86 1.59.34 2.08.84 1 .91 1.51 1.39-.06 2 .43 2.5 1.37.52 1.85 1 3.25-1.6 3.73-1.17 1.06.9 1.58 1.36-.66 2.83-.16 3.26.74 1.38 1.27 1.82.61 1.46 1.11 1.85 3.76-2.58 4.3-2.2-1.09 4.34-.56 4.66a12 12 0 0 0 2.23.64c.54.13 1.68-2.09 2.38-2s1.36-.85 2.1-.79 1.13 1.42 1.8 1.45 1.45-.74 2.22-.72 1.28 1.07 2 1.08 1.32 2.78 2 2.78 1.33-2.54 2-2.55 1.39 2.84 2.07 2.83 1.42-3.13 2.17-3.15 1.31-1.69 2.05-1.71c-.05 0 1.09 4.89 2.28 4.82.57 0 1.15-1.08 1.87-1.12s1.13-5.59 1.9-5.63 1.74 6.64 2.43 6.6 1.42-.59 2.11-.63 1.5-1.38 2.15-1.41c1.32-.06 1-3.07 2.09-3.09.09 0 .1 3.33.21 3.37.61 0 1-5 1.61-5s1.7 5.69 2.34 5.64 1.06-4.82 1.73-4.87 1.58 2.71 2.24 2.66 1.06-3.68 1.69-3.73 1.74 4.25 2.4 4.2 1.52.9 2.18.84 1-4.92 1.68-5 1.58 1.26 2.18 1.21c.92-.08 2 1.19 2.51 1.15.41-.5-.83-2.61-.46-3.07s3.37.87 3.76.36 1.22-1.06 1.59-1.61 2-1 2.28-1.59-3.41-2.91-3.25-3.58 1.46-1.13 1.46-1.88.6-1.58.46-2.37-1.84-1-2.08-1.7-1.67-.78-2-1.51 2.79-2.75 2.48-3.48-3-.08-3.31-.74-2.35-.83-2.53-1.42 2-2.07 1.92-2.7-2.91-1.5-2.88-2.14 3.89-1.2 4-1.88.83-1.15 1-1.79a19 19 0 0 1 .43-2.05c.29-.65 1.42-.67 1.74-1.21.42-.69-.7-2.3-.29-2.75s1.4-.47 2-.73c.78-.36 2.51-3.94 3.17-3.72s-1.05 4.32-.81 5.23c.16.6.77 1 .62 1.88-.1.6 3.81 1.46 3.77 2 0 .72-5.48 1.37-5.43 2a22.38 22.38 0 0 0-.17 2.57c.18.68 3.11.59 3.38 1.2s1.77.51 2.11 1.08-.27 1.73.11 2.29-1.45 2.67-1.06 3.25.17 1.35.53 2 1.68.34 2 1 1.43.8 1.61 1.51 2.4.79 2.47 1.36-3.93 1.49-3.93 2.13.38 1 .3 1.68.26 1.17.11 1.83.94 1.56.73 2.23 2 2.1 1.81 2.72-.64 1.27-.91 1.9-3.63-.08-3.93.58 2.26 2.63 1.94 3.3-4-.47-4.35.16-.23 1.92-.55 2.56c.19.26.21 1.82.39 2.08.28.41 1.54.26 1.92.82s1.23.71 1.64 1.31-.83 2.21-.41 2.83 3.36-.69 3.73-.12-.46 2.05 0 2.68 2.48.12 2.89.75-2.8 3.56-2.4 4.17.93 1.09 1.32 1.7.17 1.7.58 2.34 3-.1 3.34.52 4.12-.68 4.51 0c.25.41-2.8 2.74-2.58 3.25s2.75.41 2.94 1.07.53 1.35.68 2-3.51 2-3.4 2.76 3.21.95 3.31 1.68-1.12 1.45-1.05 2.11 3 1 3.07 1.71-4.49 1.69-4.44 2.35-1.35 1.39-1.31 2.05 5.63 1.1 5.67 1.83-4.67 1.7-4.63 2.42 5 1.14 5.08 1.84-2.8 1.55-2.76 2.24-1.1 1.57-1.06 2.3-.61 1.51-.56 2.22 4 1.1 4.1 1.78-4.66 1.92-4.59 2.62 5.12.93 5.22 1.64.16 1.42.28 2.11-3.4 2.26-3.23 2.9 3.66.26 3.82.82 1.53.83 1.72 1.43-4.29 2.73-4.1 3.3 4.86-.32 5.08.28-1.48 2.05-1.23 2.68-1.47 2.12-1.21 2.72 4.3-.35 4.58.28-.29 1.65 0 2.26-2.57 2.71-2.29 3.31 2.37.47 2.65 1.1-1.12 2-.86 2.61 3.09.45 3.18 1.07z" fill="#fff"/>
  </g>
</svg>
