<?xml version="1.0" encoding="utf-8"?>
<!-- Generator: Adobe Illustrator 23.0.5, SVG Export Plug-In . SVG Version: 6.00 Build 0)  -->
<svg version="1.1" id="Capa_1" xmlns="http://www.w3.org/2000/svg" xmlns:xlink="http://www.w3.org/1999/xlink" x="0px" y="0px"
	 viewBox="0 0 595.2756 304.1096" style="enable-background:new 0 0 595.2756 304.1096;" xml:space="preserve">
<style type="text/css">
	.st0{fill:#020202;}
	.st1{fill:#FFFFFF;}
	.st2{fill:#131313;}
	.st3{fill:#F58E97;}
	.st4{fill:#8F5159;}
	.st5{fill:none;}
</style>
<g>
	<g>
		<g>
			<path class="st1" d="M421.1565,206.8222c0.2468-0.25,0.574-0.472,0.9809-0.6658c0.4063-0.1933,0.9241-0.2902,1.5536-0.2902
				c0.4809,0,0.9344,0.0804,1.3597,0.2404c0.4254,0.1601,0.8011,0.4158,1.1283,0.7673c0.3265,0.3514,0.5855,0.8081,0.7768,1.3687
				c0.1907,0.5613,0.287,1.2488,0.287,2.0626c0,0.9248-0.1148,1.6927-0.3425,2.3031c-0.2283,0.6104-0.5243,1.0945-0.8878,1.4522
				c-0.3642,0.3578-0.7679,0.611-1.2118,0.7583c-0.4439,0.148-0.8757,0.222-1.2947,0.222c-0.3578,0-0.669-0.037-0.9344-0.111
				c-0.2653-0.074-0.4962-0.1633-0.6933-0.2679c-0.1977-0.1046-0.3585-0.2162-0.4809-0.3336
				c-0.1237-0.1167-0.2162-0.2181-0.2774-0.3049v0.7398h-1.5358v-13.1148h0.111c0.0249,0,0.058-0.0032,0.1021-0.0096
				c0.0427-0.0057,0.0829-0.0096,0.1199-0.0096c0.3451,0,0.6384,0.0874,0.8789,0.2602s0.3604,0.4943,0.3604,0.9643V206.8222z
				 M425.5591,210.4072c0-0.4426-0.0402-0.861-0.1199-1.2545c-0.0804-0.3929-0.2105-0.7309-0.3884-1.0147
				c-0.1792-0.2819-0.4196-0.507-0.722-0.6722c-0.3017-0.1665-0.6748-0.2494-1.1187-0.2494c-0.6046,0-1.0976,0.1288-1.4797,0.3871
				c-0.3827,0.2583-0.574,0.5657-0.574,0.9222v4.1507c0.074,0.0982,0.1729,0.2054,0.2966,0.3221
				c0.1225,0.1167,0.2743,0.2251,0.4528,0.3227c0.1786,0.0989,0.382,0.1843,0.6104,0.2589c0.2283,0.0733,0.472,0.1097,0.7309,0.1097
				c0.7641,0,1.3413-0.2819,1.729-0.8483C425.3652,212.2765,425.5591,211.4646,425.5591,210.4072"/>
			<path class="st1" d="M433.1615,215.9654c-0.1358,0.3948-0.2838,0.7711-0.4439,1.1289c-0.1601,0.3572-0.3578,0.6684-0.5919,0.9337
				c-0.2347,0.2647-0.5211,0.4777-0.8604,0.6384c-0.3393,0.1601-0.7488,0.2404-1.2297,0.2404c-0.4694,0-0.8604-0.067-1.1748-0.2003
				c-0.3144-0.1346-0.472-0.3412-0.472-0.6212c0-0.1697,0.0466-0.347,0.139-0.5306c0.0925-0.1843,0.1875-0.3438,0.287-0.4796
				c0.0982,0.0867,0.2494,0.1881,0.4529,0.3055c0.2035,0.1167,0.4592,0.176,0.7679,0.176c0.4312,0,0.7794-0.162,1.0447-0.4847
				c0.2653-0.3227,0.5026-0.8189,0.7124-1.4892l0.2589-0.8381h-0.6288l-2.997-8.5827c0.2589-0.0982,0.53-0.1486,0.8145-0.1486
				c0.3202,0,0.5791,0.1059,0.7762,0.3151c0.1971,0.2098,0.3457,0.456,0.4445,0.7398l2.0345,6.3077l2.0345-6.1413
				c0.0376-0.1352,0.0861-0.2742,0.1479-0.4165c0.0619-0.1409,0.1448-0.2736,0.25-0.3973c0.1046-0.1231,0.2309-0.222,0.3795-0.2966
				c0.1479-0.0733,0.3259-0.111,0.5364-0.111c0.2462,0,0.4745,0.0555,0.6843,0.1665L433.1615,215.9654z"/>
			<path class="st1" d="M449.7544,211.2119c0,0.6907-0.1173,1.2635-0.3514,1.7201c-0.2347,0.456-0.5676,0.8202-0.9988,1.0913
				c-0.4318,0.2717-0.9561,0.463-1.5728,0.5734c-0.6168,0.111-1.3011,0.1665-2.053,0.1665h-3.2004v-12.3387
				c0.5058-0.0485,0.9867-0.0887,1.4433-0.1199c0.456-0.0306,0.9803-0.0459,1.5721-0.0459c0.8508,0,1.569,0.0676,2.1551,0.2034
				c0.5855,0.1358,1.0574,0.3329,1.4153,0.5919c0.3571,0.2589,0.6161,0.5829,0.7768,0.9707
				c0.1601,0.3891,0.2404,0.8298,0.2404,1.3228c0,0.4318-0.0619,0.8113-0.185,1.1384c-0.1237,0.3259-0.2749,0.6072-0.4535,0.8412
				s-0.3731,0.4254-0.5823,0.5734c-0.2098,0.148-0.4012,0.2589-0.574,0.3329c0.1971,0.0491,0.435,0.1327,0.7124,0.25
				c0.2774,0.1167,0.5364,0.2864,0.7768,0.5083s0.4471,0.5121,0.6199,0.8699C449.6677,210.2189,449.7544,210.6692,449.7544,211.2119
				 M447.5713,205.403c0-0.3814-0.0765-0.6933-0.2309-0.9337c-0.1543-0.2404-0.3674-0.4254-0.6378-0.5555
				c-0.2717-0.1295-0.5957-0.2181-0.9713-0.2672c-0.3763-0.0497-0.7864-0.0746-1.2303-0.0746c-0.296,0-0.5549,0.0064-0.7768,0.0191
				c-0.222,0.0121-0.4012,0.03-0.5364,0.0555v4.0691h1.7571c0.7647,0,1.3936-0.2003,1.8866-0.6014
				C447.3251,206.7136,447.5713,206.1434,447.5713,205.403 M444.353,213.4129c0.5549,0,1.0606-0.0249,1.5167-0.0733
				c0.456-0.0491,0.8508-0.1512,1.1837-0.3042c0.3329-0.1537,0.5925-0.3776,0.7775-0.6722
				c0.1849-0.2946,0.2774-0.6875,0.2774-1.1786c0-0.4299-0.0868-0.7832-0.2596-1.0594c-0.1729-0.2768-0.4063-0.4975-0.7029-0.6633
				c-0.2953-0.1658-0.632-0.2794-1.0077-0.3406c-0.3763-0.0612-0.7679-0.0925-1.1748-0.0925h-1.7756v4.3842H444.353z"/>
			<path class="st1" d="M455.211,209.8242l-2.9045,4.939h-1.7571l3.7553-6.2337l-3.4409-5.9748
				c0.1601-0.0612,0.3265-0.1135,0.4994-0.1575c0.1728-0.0427,0.3265-0.0644,0.4624-0.0644c0.5179,0,0.9254,0.2717,1.2207,0.8138
				l2.2571,4.0876l2.4229-4.0691c0.2098-0.3578,0.4254-0.5823,0.6474-0.6754c0.2226-0.0925,0.4318-0.1384,0.6295-0.1384
				c0.1722,0,0.3266,0.0185,0.4624,0.0555c0.1352,0.037,0.2589,0.0867,0.3699,0.148l-3.6073,5.9563l3.7923,6.2522
				c-0.1479,0.0619-0.2959,0.1078-0.4439,0.139c-0.148,0.0306-0.2902,0.0459-0.4254,0.0459c-0.3329,0-0.5982-0.074-0.7953-0.2213
				c-0.1977-0.1486-0.3891-0.3706-0.574-0.6665L455.211,209.8242z"/>
			<path class="st1" d="M469.6947,206.3649c0.2462,0.1365,0.4127,0.2621,0.4994,0.3795c0.0861,0.1174,0.1295,0.2315,0.1295,0.3425
				c0,0.1359-0.0338,0.2928-0.1021,0.4713c-0.0676,0.1786-0.1512,0.3546-0.2494,0.5275l-0.2589,0.0185
				c-0.2098-0.2596-0.5153-0.4841-0.9159-0.6754c-0.4012-0.1913-0.8297-0.2864-1.2851-0.2864c-0.1607,0-0.3368,0.0153-0.5275,0.0459
				c-0.1913,0.0313-0.3699,0.0867-0.5364,0.1665c-0.1665,0.0804-0.3055,0.1939-0.4165,0.3425
				c-0.111,0.1473-0.1665,0.3323-0.1665,0.5549c0,0.3948,0.1754,0.678,0.5275,0.8508c0.3514,0.1722,0.7857,0.3208,1.3043,0.4439
				c0.3699,0.0867,0.7271,0.1945,1.0728,0.324c0.345,0.1288,0.6499,0.2959,0.9152,0.4987c0.2653,0.2041,0.4745,0.4599,0.6288,0.7679
				c0.1544,0.3087,0.2315,0.6907,0.2315,1.1467c0,0.4566-0.0925,0.8546-0.2775,1.1933c-0.1849,0.34-0.4318,0.6231-0.7398,0.8508
				c-0.3087,0.229-0.6697,0.4012-1.0823,0.5185c-0.4133,0.1167-0.8412,0.1754-1.2858,0.1754c-0.4318,0-0.8202-0.0338-1.1652-0.1021
				c-0.3451-0.0676-0.6353-0.1505-0.8693-0.2494c-0.3081-0.1231-0.5243-0.2494-0.6474-0.3788
				c-0.1237-0.1295-0.185-0.2621-0.185-0.398c0-0.1601,0.0428-0.3265,0.1288-0.5c0.0861-0.1722,0.1964-0.3699,0.3316-0.5912
				c0.0861,0.074,0.2054,0.1658,0.3591,0.2768c0.1537,0.1116,0.338,0.2162,0.553,0.3144c0.2149,0.0995,0.4516,0.183,0.7092,0.25
				c0.2577,0.0683,0.5345,0.1021,0.8291,0.1021c0.2213,0,0.4362-0.0217,0.6448-0.0644c0.2092-0.044,0.3961-0.1142,0.5619-0.213
				c0.1665-0.0989,0.3011-0.2341,0.4056-0.4069c0.1046-0.1728,0.1569-0.3884,0.1569-0.648c0-0.2589-0.0555-0.4713-0.1664-0.6378
				c-0.1097-0.1665-0.2577-0.3049-0.442-0.4165c-0.1843-0.111-0.3897-0.1996-0.6168-0.2679
				c-0.2277-0.0676-0.4579-0.1263-0.6913-0.1754c-0.3559-0.074-0.6971-0.1696-1.0224-0.287
				c-0.3259-0.1174-0.6142-0.2742-0.8661-0.472c-0.2519-0.1971-0.4547-0.4439-0.6078-0.7398
				c-0.1537-0.2959-0.2303-0.6531-0.2303-1.0728c0-0.4069,0.0861-0.7679,0.2589-1.0823c0.1729-0.3144,0.4069-0.5734,0.7029-0.7768
				s0.632-0.3578,1.0083-0.4624c0.3757-0.1046,0.7673-0.1569,1.1748-0.1569c0.4681,0,0.8967,0.0491,1.2851,0.1473
				C469.1488,206.1124,469.46,206.2297,469.6947,206.3649"/>
			<path class="st1" d="M476.9826,205.866c0.4439,0,0.8999,0.0925,1.3687,0.2775c0.4688,0.185,0.8202,0.4751,1.0543,0.8693
				c0.2838-0.3087,0.669-0.5759,1.1563-0.8049c0.4866-0.2277,1.0447-0.3419,1.6742-0.3419c0.8017,0,1.4242,0.185,1.8681,0.5549
				s0.7277,0.8323,0.8508,1.3872c0.0619,0.2468,0.0988,0.5211,0.111,0.8234c0.0121,0.3023,0.0185,0.5951,0.0185,0.8782v5.2535
				h-1.5721v-5.198c0-0.2334-0.0032-0.4592-0.0089-0.6754c-0.007-0.2156-0.0402-0.4158-0.1021-0.6008
				c-0.0861-0.3202-0.2621-0.567-0.5274-0.7398c-0.2653-0.1729-0.6691-0.2596-1.2112-0.2596c-0.4069,0-0.7864,0.0867-1.1378,0.2596
				c-0.3514,0.1728-0.6136,0.3635-0.7864,0.5734c0.0249,0.2098,0.0434,0.4286,0.0555,0.6563
				c0.0121,0.229,0.0185,0.4662,0.0185,0.7131v5.2713h-1.5721v-5.198c0-0.2583-0.0121-0.5019-0.037-0.7309
				c-0.0249-0.2277-0.0676-0.4343-0.1295-0.6193c-0.1977-0.6161-0.7526-0.9254-1.6646-0.9254c-0.2717,0-0.5338,0.0376-0.7864,0.1116
				c-0.2526,0.0733-0.4777,0.1729-0.6748,0.2959c-0.1977,0.1231-0.3578,0.2621-0.4815,0.4158
				c-0.1231,0.155-0.1849,0.3055-0.1849,0.4535v6.1967h-1.5721v-8.7307h0.111c0.037,0,0.0772-0.0032,0.1205-0.0096
				c0.0427-0.0064,0.0829-0.0096,0.1199-0.0096c0.3208,0,0.5829,0.0778,0.7864,0.2315c0.2034,0.1543,0.3297,0.3916,0.3788,0.7124
				c0.2838-0.2959,0.6595-0.5517,1.1289-0.7679C475.8231,205.9738,476.3659,205.866,476.9826,205.866"/>
			<path class="st1" d="M494.3153,212.7472c0,0.2959,0.0115,0.5268,0.0363,0.6933c0.0249,0.1671,0.0708,0.2902,0.139,0.3699
				c0.0676,0.0804,0.1601,0.1327,0.2774,0.1575s0.2679,0.037,0.4528,0.037v0.7398c-0.1103,0.037-0.2468,0.0676-0.4069,0.0925
				c-0.1601,0.0242-0.3266,0.037-0.4987,0.037c-0.3871,0-0.7245-0.0772-1.0115-0.2309c-0.2877-0.1543-0.456-0.4286-0.5058-0.8234
				c-0.3074,0.308-0.6761,0.5702-1.1066,0.7864c-0.4299,0.2156-0.995,0.3233-1.6959,0.3233c-0.3195,0-0.6422-0.037-0.9681-0.111
				c-0.3253-0.074-0.6206-0.2092-0.8846-0.4069c-0.2647-0.1971-0.4828-0.4624-0.6544-0.7953
				c-0.1728-0.3329-0.2583-0.7583-0.2583-1.2769c0-0.641,0.1627-1.1652,0.4886-1.5721c0.3253-0.4063,0.7284-0.7271,1.2073-0.9612
				c0.4796-0.2347,0.9924-0.3954,1.5396-0.4815c0.5466-0.0861,1.0472-0.1352,1.5026-0.148h0.3871
				c0.1473,0,0.2762,0.0064,0.3871,0.0185v-0.2774c0-0.5549-0.1327-0.9771-0.3973-1.2666c-0.2653-0.2896-0.7743-0.435-1.5262-0.435
				c-0.5555,0-1.0237,0.0708-1.4063,0.2124c-0.382,0.1422-0.752,0.3361-1.1098,0.5829h-0.1849
				c-0.0989-0.1601-0.1818-0.3329-0.2494-0.5179c-0.0682-0.185-0.1021-0.3329-0.1021-0.4445c0-0.1601,0.0989-0.3106,0.296-0.4528
				c0.1971-0.1416,0.4535-0.2685,0.7679-0.3788c0.3144-0.111,0.6627-0.1977,1.0453-0.2596c0.382-0.0612,0.7583-0.0918,1.1282-0.0918
				c0.6288,0,1.1537,0.0676,1.5747,0.2028c0.4216,0.1358,0.7628,0.3393,1.0249,0.6104c0.2615,0.2717,0.4465,0.6104,0.5523,1.0179
				c0.1059,0.4069,0.1595,0.8757,0.1595,1.4057V212.7472z M492.761,210.3791h-0.5338c-0.3929,0-0.7921,0.0249-1.1965,0.074
				c-0.4056,0.0491-0.7737,0.1422-1.1053,0.2781c-0.331,0.1358-0.6014,0.3234-0.81,0.5638
				c-0.2086,0.2398-0.3132,0.5581-0.3132,0.9529c0,0.3699,0.1104,0.6965,0.3317,0.9803c0.2207,0.2838,0.632,0.4254,1.2335,0.4254
				c0.3195,0,0.6231-0.0459,0.9114-0.139c0.2883-0.0925,0.5434-0.206,0.7641-0.3419s0.3961-0.2832,0.5249-0.4439
				c0.1288-0.1601,0.1933-0.3151,0.1933-0.4624V210.3791z"/>
			<path class="st1" d="M497.4781,206.0137c0.2832,0,0.5396,0.0708,0.7672,0.213c0.2283,0.1422,0.3674,0.3795,0.4159,0.7118
				c0.1735-0.2589,0.4324-0.5019,0.7775-0.7303c0.345-0.2283,0.7462-0.3419,1.2022-0.3419c0.1359,0,0.28,0.0121,0.435,0.0364
				c0.1544,0.0249,0.2985,0.065,0.4344,0.1205c0.1358,0.0555,0.2468,0.1327,0.3329,0.2309
				c0.0867,0.0988,0.1295,0.2283,0.1295,0.3884c0,0.1977-0.0485,0.4101-0.1473,0.6384c-0.0995,0.2283-0.1977,0.4165-0.2959,0.5638
				c-0.1607-0.1473-0.3329-0.2615-0.5185-0.3419c-0.1843-0.0804-0.4184-0.1205-0.7029-0.1205c-0.2105,0-0.4095,0.0344-0.6014,0.1021
				c-0.1907,0.0676-0.3597,0.1607-0.5083,0.2774c-0.148,0.1174-0.2653,0.25-0.3514,0.3973
				c-0.0867,0.1486-0.1295,0.3029-0.1295,0.463v6.1413h-1.5721v-8.7313h0.1295c0.037,0,0.074-0.0032,0.111-0.0089
				C497.4226,206.0168,497.4532,206.0137,497.4781,206.0137"/>
			<path class="st1" d="M503.7302,213.6534c-0.0861-0.2341-0.1384-0.4905-0.1569-0.7673c-0.0185-0.2781-0.0281-0.5517-0.0281-0.8234
				v-8.6567h0.1116c0.0242,0,0.058-0.0032,0.1014-0.0096c0.0427-0.0064,0.0836-0.0096,0.1199-0.0096
				c0.3336,0,0.6231,0.0861,0.87,0.2577c0.2462,0.1716,0.3699,0.4834,0.3699,0.9363v1.4701h2.7559v1.3502h-2.7559v4.7726
				c0,1.0115,0.4005,1.5167,1.2022,1.5167c0.1971,0,0.382-0.0338,0.5549-0.1021c0.1722-0.0676,0.3265-0.148,0.4624-0.2404
				c0.1352-0.0925,0.25-0.1818,0.3418-0.2679c0.0931-0.0861,0.1512-0.148,0.1761-0.185c0.1479,0.185,0.2742,0.3642,0.3788,0.5364
				c0.1052,0.1728,0.1582,0.3393,0.1582,0.5c0,0.1103-0.0555,0.2309-0.1671,0.3604c-0.111,0.1295-0.2653,0.25-0.4624,0.3604
				c-0.1971,0.111-0.4407,0.2034-0.7303,0.2774c-0.2902,0.074-0.6078,0.111-0.9529,0.111c-0.6416,0-1.1531-0.1237-1.5358-0.3693
				C504.1619,214.4245,503.8902,214.0852,503.7302,213.6534"/>
			<path class="st1" d="M515.4209,213.0243c0,0.185,0.0057,0.3425,0.0178,0.472c0.0128,0.1288,0.0466,0.2373,0.1021,0.3234
				c0.0555,0.0867,0.1416,0.1512,0.259,0.1945c0.1167,0.0434,0.287,0.0644,0.5089,0.0644v0.6658
				c-0.111,0.0376-0.2628,0.0682-0.4534,0.0931c-0.1913,0.0242-0.3788,0.0364-0.5638,0.0364c-0.3584,0-0.632-0.0555-0.8234-0.1658
				c-0.1913-0.111-0.3336-0.2596-0.4254-0.4445c-0.0931-0.185-0.1486-0.391-0.1664-0.6193
				c-0.0185-0.2283-0.0281-0.4528-0.0281-0.6754v-11.3207h0.111c0.0249,0,0.0587-0.0032,0.1021-0.0096
				c0.0434-0.0051,0.0829-0.0089,0.1205-0.0089c0.345,0,0.6378,0.0893,0.8782,0.2685c0.2405,0.1786,0.361,0.5026,0.361,0.9707
				V213.0243z"/>
			<path class="st1" d="M524.8179,212.7472c0,0.2959,0.0121,0.5268,0.037,0.6933c0.0242,0.1671,0.0701,0.2902,0.1384,0.3699
				c0.0676,0.0804,0.1601,0.1327,0.2775,0.1575c0.1173,0.0249,0.2685,0.037,0.4534,0.037v0.7398
				c-0.111,0.037-0.2468,0.0676-0.4069,0.0925c-0.1601,0.0242-0.3272,0.037-0.4994,0.037c-0.3871,0-0.7239-0.0772-1.0109-0.2309
				c-0.2883-0.1543-0.456-0.4286-0.5057-0.8234c-0.308,0.308-0.6767,0.5702-1.1066,0.7864
				c-0.4305,0.2156-0.9956,0.3233-1.6965,0.3233c-0.3195,0-0.6423-0.037-0.9675-0.111c-0.3259-0.074-0.6205-0.2092-0.8853-0.4069
				c-0.264-0.1971-0.4822-0.4624-0.6544-0.7953s-0.2583-0.7583-0.2583-1.2769c0-0.641,0.1633-1.1652,0.4892-1.5721
				c0.3253-0.4063,0.7277-0.7271,1.2067-0.9612c0.4796-0.2347,0.993-0.3954,1.5396-0.4815c0.5472-0.0861,1.0479-0.1352,1.5033-0.148
				h0.3865c0.1479,0,0.2768,0.0064,0.3878,0.0185v-0.2774c0-0.5549-0.1327-0.9771-0.398-1.2666
				c-0.2653-0.2896-0.7736-0.435-1.5262-0.435c-0.5549,0-1.0236,0.0708-1.4056,0.2124c-0.3827,0.1422-0.7526,0.3361-1.1097,0.5829
				h-0.185c-0.0995-0.1601-0.1818-0.3329-0.25-0.5179c-0.0676-0.185-0.1014-0.3329-0.1014-0.4445
				c0-0.1601,0.0983-0.3106,0.296-0.4528c0.1964-0.1416,0.4528-0.2685,0.7673-0.3788c0.3144-0.111,0.6627-0.1977,1.0453-0.2596
				c0.382-0.0612,0.7583-0.0918,1.1282-0.0918c0.6288,0,1.1544,0.0676,1.5753,0.2028c0.421,0.1358,0.7621,0.3393,1.0243,0.6104
				c0.2621,0.2717,0.4465,0.6104,0.553,1.0179c0.1058,0.4069,0.1588,0.8757,0.1588,1.4057V212.7472z M523.2643,210.3791h-0.5345
				c-0.3929,0-0.7915,0.0249-1.1965,0.074c-0.4056,0.0491-0.7737,0.1422-1.1047,0.2781c-0.3317,0.1358-0.6021,0.3234-0.8106,0.5638
				c-0.2086,0.2398-0.3125,0.5581-0.3125,0.9529c0,0.3699,0.1103,0.6965,0.3316,0.9803c0.22,0.2838,0.6321,0.4254,1.2335,0.4254
				c0.3188,0,0.6231-0.0459,0.9114-0.139c0.2883-0.0925,0.5427-0.206,0.7634-0.3419c0.2213-0.1358,0.3961-0.2832,0.5249-0.4439
				c0.1288-0.1601,0.1939-0.3151,0.1939-0.4624V210.3791z"/>
			<path class="st1" d="M529.22,206.8222c0.2462-0.25,0.5734-0.472,0.9803-0.6658c0.4069-0.1933,0.9248-0.2902,1.5536-0.2902
				c0.4809,0,0.9344,0.0804,1.3598,0.2404c0.4254,0.1601,0.8017,0.4158,1.1288,0.7673c0.3259,0.3514,0.5855,0.8081,0.7762,1.3687
				c0.1913,0.5613,0.287,1.2488,0.287,2.0626c0,0.9248-0.1142,1.6927-0.3419,2.3031c-0.229,0.6104-0.5249,1.0945-0.8884,1.4522
				c-0.3636,0.3578-0.7673,0.611-1.2112,0.7583c-0.4445,0.148-0.8763,0.222-1.2953,0.222c-0.3572,0-0.6691-0.037-0.9344-0.111
				c-0.2653-0.074-0.4962-0.1633-0.6932-0.2679s-0.3578-0.2162-0.4809-0.3336c-0.1237-0.1167-0.2156-0.2181-0.2775-0.3049v0.7398
				h-1.5352v-13.1148h0.111c0.0242,0,0.058-0.0032,0.1014-0.0096c0.0427-0.0057,0.0836-0.0096,0.1199-0.0096
				c0.345,0,0.6384,0.0874,0.8788,0.2602s0.361,0.4943,0.361,0.9643V206.8222z M533.6227,210.4072
				c0-0.4426-0.0402-0.861-0.1199-1.2545c-0.0804-0.3929-0.2104-0.7309-0.389-1.0147c-0.1786-0.2819-0.4191-0.507-0.7214-0.6722
				c-0.3023-0.1665-0.6747-0.2494-1.1193-0.2494c-0.6039,0-1.0976,0.1288-1.4797,0.3871c-0.3826,0.2583-0.5734,0.5657-0.5734,0.9222
				v4.1507c0.074,0.0982,0.1722,0.2054,0.296,0.3221c0.1231,0.1167,0.2742,0.2251,0.4528,0.3227
				c0.1792,0.0989,0.3827,0.1843,0.611,0.2589c0.2277,0.0733,0.4713,0.1097,0.7302,0.1097c0.7648,0,1.3413-0.2819,1.7297-0.8483
				C533.4282,212.2765,533.6227,211.4646,533.6227,210.4072"/>
			<path class="st1" d="M542.3537,206.3649c0.2468,0.1365,0.4127,0.2621,0.4994,0.3795c0.0861,0.1174,0.1295,0.2315,0.1295,0.3425
				c0,0.1359-0.0338,0.2928-0.1021,0.4713c-0.0676,0.1786-0.1505,0.3546-0.2493,0.5275l-0.259,0.0185
				c-0.2098-0.2596-0.5147-0.4841-0.9158-0.6754c-0.4006-0.1913-0.8292-0.2864-1.2858-0.2864c-0.16,0-0.3354,0.0153-0.5268,0.0459
				c-0.1913,0.0313-0.3699,0.0867-0.5364,0.1665c-0.1671,0.0804-0.3049,0.1939-0.4165,0.3425
				c-0.111,0.1473-0.1664,0.3323-0.1664,0.5549c0,0.3948,0.1754,0.678,0.5268,0.8508c0.3521,0.1722,0.787,0.3208,1.3043,0.4439
				c0.3699,0.0867,0.7277,0.1945,1.0734,0.324c0.345,0.1288,0.6499,0.2959,0.9152,0.4987c0.2647,0.2041,0.4745,0.4599,0.6295,0.7679
				c0.1537,0.3087,0.2309,0.6907,0.2309,1.1467c0,0.4566-0.0931,0.8546-0.2781,1.1933c-0.185,0.34-0.4312,0.6231-0.7392,0.8508
				c-0.3087,0.229-0.6697,0.4012-1.0823,0.5185c-0.4127,0.1167-0.8412,0.1754-1.2858,0.1754c-0.4312,0-0.8202-0.0338-1.1653-0.1021
				c-0.3456-0.0676-0.6352-0.1505-0.8693-0.2494c-0.308-0.1231-0.5243-0.2494-0.6473-0.3788
				c-0.1238-0.1295-0.185-0.2621-0.185-0.398c0-0.1601,0.0427-0.3265,0.1288-0.5c0.0854-0.1722,0.1964-0.3699,0.3317-0.5912
				c0.0861,0.074,0.2053,0.1658,0.3591,0.2768c0.1544,0.1116,0.338,0.2162,0.553,0.3144c0.2155,0.0995,0.4515,0.183,0.7092,0.25
				c0.2577,0.0683,0.5345,0.1021,0.8298,0.1021c0.2207,0,0.4356-0.0217,0.6442-0.0644c0.2092-0.044,0.3967-0.1142,0.5619-0.213
				c0.1658-0.0989,0.301-0.2341,0.4056-0.4069s0.1569-0.3884,0.1569-0.648c0-0.2589-0.0562-0.4713-0.1665-0.6378
				c-0.1097-0.1665-0.2576-0.3049-0.442-0.4165c-0.1843-0.111-0.3897-0.1996-0.6174-0.2679
				c-0.2264-0.0676-0.4573-0.1263-0.6907-0.1754c-0.3559-0.074-0.6971-0.1696-1.0224-0.287
				c-0.3253-0.1174-0.6142-0.2742-0.8661-0.472c-0.2513-0.1971-0.4548-0.4439-0.6078-0.7398
				c-0.1537-0.2959-0.2303-0.6531-0.2303-1.0728c0-0.4069,0.0861-0.7679,0.259-1.0823c0.1728-0.3144,0.4069-0.5734,0.7028-0.7768
				c0.2966-0.2035,0.6321-0.3578,1.0084-0.4624s0.7673-0.1569,1.1748-0.1569c0.4681,0,0.8967,0.0491,1.2851,0.1473
				C541.8084,206.1124,542.119,206.2297,542.3537,206.3649"/>
		</g>
		<g>
			<path class="st1" d="M293.4794,144.3981c1.2303-0.6152,2.4605-1.2303,3.6908-1.5378c2.1529-0.6152,4.3059-0.9227,6.4589-0.9227
				c2.4605,0,4.9211,0.3075,7.3817,0.9227s4.6135,2.153,6.4589,3.6908c2.1529,2.153,3.6908,4.6134,4.6136,7.3817
				c1.2303,3.6908,1.8454,7.6892,1.8454,11.6876c0,4.6134-0.3076,9.227-1.5378,13.5329c-0.9227,3.0756-2.4605,5.8438-4.3059,8.3043
				c-1.5378,1.8454-3.6908,3.3833-6.1512,4.3059c-2.4605,0.9227-4.9211,1.2303-7.3816,1.2303c-1.8454,0-3.6908-0.3075-5.5362-0.6151
				c-1.2303-0.3075-2.4605-0.9227-3.6908-1.5378c-0.9227-0.6151-1.5378-1.2303-2.1529-1.8454
				c-0.3076-0.3075-0.6152-0.6151-0.9227-1.2303c0,0.9227-0.3076,1.8454-0.6151,2.7681c-0.6152,0.9227-1.5378,1.2303-2.4605,1.2303
				h-15.3783v-70.4328c0.9227,0,1.5378,0,2.4605-0.3075c0.9227,0,1.5378-0.3075,2.4605-0.3075s1.8454,0,2.7681,0
				c1.5378,0,3.0757,0,4.6134,0.6152c1.5378,0.3075,2.7681,0.9227,3.9984,1.5378c1.2303,0.9227,2.1529,1.8454,2.7681,3.0756
				c0.6151,1.5378,1.2303,3.3833,0.9227,5.2286L293.4794,144.3981z M302.7064,165.9277c0-2.4606-0.3076-5.2287-1.2303-7.6892
				c-0.9227-1.8454-3.0756-3.0756-4.9211-2.7681c-0.6151,0-1.2303,0-1.8454,0l-0.9227,0.3075v21.8372
				c0.6151,0.3075,0.9227,0.6152,1.5378,0.6152s1.2303,0,1.8454,0c0.9227,0,2.1529-0.3075,2.7681-0.9227
				c0.9227-0.6152,1.5378-1.5378,1.8454-2.4605c0.6152-1.2303,0.9227-2.4606,0.9227-3.9984
				C302.7064,169.0035,302.7064,167.4656,302.7064,165.9277L302.7064,165.9277z"/>
			<path class="st1" d="M329.7722,121.3306c0.9227,0,1.5378,0,2.4605-0.3075c0.9227,0,1.5378-0.3075,2.4605-0.3075
				c0.9227,0,1.8455,0,2.7681,0c1.5378,0,3.0757,0,4.6135,0.6152c1.5378,0.3075,2.7681,0.9227,3.9984,1.5378
				c1.2303,0.9227,2.1529,1.8454,2.7681,3.0756c0.6152,1.5378,1.2303,3.3833,0.9227,5.2286v60.5906
				c-2.4605,0.9227-4.9211,1.2303-7.3816,1.2303c-2.4604,0-4.9211-0.3075-7.074-1.2303c-1.5378-0.6151-2.7681-1.8454-3.6908-3.0756
				s-1.2303-2.7681-1.5378-4.3059c-0.3076-1.5378-0.3076-3.3833-0.3076-4.9211V121.3306z"/>
			<path class="st1" d="M406.9716,167.158c0,3.3833-0.6152,6.7665-1.5378,9.8421c-0.9227,3.0756-2.4605,5.8437-4.6135,8.3043
				c-2.1529,2.4605-4.9211,4.6134-7.9968,5.8438c-7.6892,2.7681-15.9934,2.7681-23.6826,0
				c-3.0756-1.2303-5.8437-3.3833-7.9967-5.8438c-2.153-2.4606-3.6908-5.2286-4.6134-8.3043
				c-0.9227-3.3833-1.5378-6.4589-1.5378-9.8421c0-3.3833,0.6151-6.7664,1.5378-9.8421c0.9227-3.0756,2.7681-5.8437,4.9211-7.9967
				c2.153-2.4606,4.9211-4.3059,7.9968-5.5362c3.6908-1.5378,7.3816-2.153,11.38-2.153c3.9984,0,7.9967,0.6152,11.6876,2.153
				c5.8437,2.153,10.4573,7.3817,12.3026,13.5329C406.3564,160.6991,406.9716,164.0824,406.9716,167.158z M386.6721,167.4656
				c0-2.4605-0.3076-5.2286-1.2303-7.6892c-0.6151-1.8454-2.4605-3.0756-4.3059-3.0756c-0.9227,0-2.1529,0.3075-2.7681,0.9227
				c-0.9227,0.6152-1.5378,1.5378-1.8455,2.4606c-0.6151,1.2303-0.9227,2.153-0.9227,3.3833
				c-0.3076,1.2303-0.3076,2.7681-0.3076,3.9984c0,1.5378,0,2.7681,0.3076,4.3059c0,1.2303,0.3076,2.4605,0.9227,3.6908
				c0.3076,0.9227,0.9227,1.8454,1.8455,2.4606s1.8455,0.9227,2.7681,0.9227c0.9226,0,2.1529-0.3075,2.7681-0.9227
				c0.6151-0.6151,1.2303-1.5378,1.8454-2.4606c0.3076-1.2303,0.6152-2.4605,0.9227-3.6908
				C386.6721,170.5413,386.6721,169.0035,386.6721,167.4656L386.6721,167.4656z"/>
			<path class="st1" d="M431.5768,128.4046c0,2.4606-0.9227,5.2287-2.7681,6.7665c-3.9984,3.3833-10.1497,3.3833-14.1481,0
				c-1.8455-1.8454-3.0756-4.3059-2.7681-6.7665c0-2.4605,0.9227-5.2286,2.7681-7.074c3.9984-3.3833,10.1497-3.3833,14.1481,0
				C430.6541,123.176,431.8844,125.6366,431.5768,128.4046z M432.4995,191.7634c-2.4605,0.9227-4.9211,1.2303-7.3816,1.2303
				c-2.4604,0-4.9211-0.3075-7.074-1.2303c-1.5378-0.6151-2.7681-1.8454-3.6908-3.0756s-1.2303-2.7681-1.5378-4.3059
				c-0.3076-1.5378-0.3076-3.3833-0.3076-4.9211V143.783l2.4605-0.3075c0.9227,0,1.5378-0.3075,2.4605-0.3075s1.8454,0,2.7681,0
				c1.5378,0,3.0757,0,4.6136,0.6151c1.5378,0.3075,2.7681,0.9227,3.9984,1.5378c1.2303,0.9227,2.1529,1.8454,2.7681,3.0756
				c0.6151,1.5378,1.2303,3.3833,0.9227,5.2286v38.1383H432.4995z"/>
			<path class="st1" d="M467.5621,162.5446c0-1.2303,0-2.4605-0.6151-3.6908c-0.3076-0.9227-1.2303-1.2303-2.7681-1.2303
				c-1.2303,0-2.1529,0.3075-3.0757,0.9227c-0.6152,0.6151-0.9227,1.2303-0.9227,2.153v31.6794h-20.2994v-48.5955l2.1529-0.3075
				c0.9227,0,1.5378-0.3075,2.4605-0.3075s2.1529,0,3.3833,0c2.4605,0,4.9211,0.3075,7.3817,1.2303
				c1.8454,0.6152,3.0757,2.153,3.9984,3.6908c1.2303-1.8454,2.7681-3.0756,4.6135-3.9984c2.7681-1.5378,5.8437-2.153,8.9195-1.8454
				c3.6908-0.3075,7.074,0.9227,9.8421,3.0756c2.4605,2.153,3.9984,4.9211,4.6136,7.6892c0.3076,0.9227,0.3076,1.8454,0.3076,2.4606
				c0,0.9227,0,2.153,0.3076,3.0756c0,0.9227,0,1.8454,0,2.7681s0,1.8454,0,2.4606v27.9886
				c-0.6152,0.3075-1.5378,0.6151-2.153,0.6151l-2.4605,0.3075c-0.9227,0-2.1529,0.3075-3.0756,0.3075
				c-2.4605,0-4.9211-0.3075-7.3816-1.2303c-1.5378-0.6151-2.7681-1.8454-3.9984-3.0756c-0.9227-1.2303-1.2303-2.7681-1.5378-4.3059
				s-0.3076-3.3833-0.3076-4.9211L467.5621,162.5446z"/>
			<path class="st1" d="M517.6955,155.4705l2.153-4.9211c0.9227-2.153,2.4605-3.9984,4.3059-5.2286
				c2.153-1.5378,4.6135-2.153,7.074-2.153c3.9984,0,7.6892,0.6152,11.38,2.153l-13.8406,23.0675l14.4556,22.4524
				c-1.8455,0.9227-3.9984,1.5378-6.1512,1.8454c-1.8455,0.3075-3.9984,0.6151-5.8438,0.6151c-2.4605,0-4.6134-0.3075-6.7664-1.5378
				c-1.8455-1.2303-3.0757-2.7681-3.9984-4.3059l-3.3832-6.1514l-6.1513,11.0724h-19.6843l15.9935-23.6826l-15.0707-23.0674
				c0.9227-0.3075,1.8455-0.6151,2.7681-0.9227c0.9226-0.3075,2.1529-0.6152,3.3833-0.6152
				c1.2303-0.3075,2.1529-0.3075,3.3833-0.6151c1.2303,0,2.153,0,2.7681,0c2.4605-0.3075,4.9211,0.6151,7.074,2.153
				c1.5378,1.5378,2.7681,3.0756,3.6908,4.9211L517.6955,155.4705z"/>
		</g>
	</g>
	<g>
		<rect x="14.9933" y="14.7073" class="st5" width="573.1395" height="278.7902"/>
		<path class="st3" d="M141.7625,263.6544c-5.3564,0-10.2027-1.2753-14.794-4.0811l-69.1237-39.7907
			c-9.1825-5.3564-14.794-15.0491-14.794-25.7619v-79.8366c0-10.4578,5.6115-20.4055,14.794-25.762l69.1237-40.0458
			c9.1825-5.3564,20.4055-5.3564,29.588,0l69.1237,40.0458c9.1825,5.3565,14.794,15.0491,14.794,25.762v79.8366
			c0,10.4578-5.6115,20.4054-14.794,25.7619l-69.1237,39.7907C151.9652,262.1239,147.1189,263.6544,141.7625,263.6544z"/>
		
			<ellipse transform="matrix(0.279 -0.9603 0.9603 0.279 -47.8789 292.7445)" class="st4" cx="171.0115" cy="178.2568" rx="9.6928" ry="7.3971"/>
		
			<ellipse transform="matrix(0.279 -0.9603 0.9603 0.279 14.4843 319.3483)" class="st4" cx="219.9097" cy="150.0284" rx="9.6928" ry="7.3971"/>
		<g>
			<g>
				<g>
					<path class="st4" d="M200.9384,203.2031c2.5507-1.5304,3.826-4.5912,3.0608-7.397c-0.2551-1.7855-2.0405-3.3159-4.0811-3.0608
						c-0.5101,0-1.0203,0.2551-1.5304,0.5102c-2.5507,1.5304-3.826,4.5912-3.0608,7.397c0.2551,1.7855,2.0405,3.316,4.0811,3.0608
						C200.1732,203.7133,200.6834,203.7133,200.9384,203.2031 M214.9673,195.296c2.5507-1.5304,3.826-4.5913,3.0608-7.397
						c-0.2551-1.7855-2.0405-3.3159-4.0811-3.0608c-0.5102,0-1.0203,0.2551-1.5304,0.5102c-2.5507,1.5304-3.826,4.5912-3.0608,7.397
						c0.2551,1.7855,2.0405,3.3159,4.0811,3.0608C213.947,195.8062,214.7122,195.5511,214.9673,195.296"/>
				</g>
			</g>
		</g>
		<path class="st4" d="M219.0484,173.36l-8.9274-3.0608c-2.8058-0.5102-5.8666,0-8.6723,1.5304l-14.5389,8.4173
			c-7.397,4.8463-11.2231,14.0287-9.1825,22.9562c0.5101,4.0811,3.3159,7.142,7.142,8.6723l8.4173,2.8058l0,0
			c-3.316-1.7855-5.8666-4.8463-6.3767-8.6723c-1.7855-8.6723,1.7855-17.8549,9.1825-22.9562l14.5389-8.4173
			C212.9267,173.36,216.2426,172.5949,219.0484,173.36L219.0484,173.36z"/>
		<path class="st4" d="M130.7945,88.6772c0.5102,0,0.7652,0,1.2753,0c1.0203,0,2.0406,0,3.0609,0.5102
			c0.7652,0.2551,1.2753,0.5102,1.7855,0.7652c1.0203,0.5102,2.0405,1.2753,3.0609,1.7855c1.2753,0.7652,2.5507,1.5304,3.826,2.2956
			c0.7652,0.5102,1.7855,1.0202,2.5507,1.5304c1.2753,0.7652,2.2956,1.2753,3.5709,2.0406
			c1.2753,0.7652,2.2956,1.2753,3.5709,2.0405s2.5507,1.5304,4.0811,2.2956c1.2753,0.7652,2.5507,1.5304,3.826,2.2956
			c1.5304,0.7652,2.8058,1.7855,4.3362,2.5507c1.2753,0.7652,1.5304,2.2956,0.5101,3.5709
			c-0.5101,0.5102-1.2753,1.0203-2.0405,1.2753c-1.0203,0.2551-2.0405,0.5102-3.0608,0.5102c-1.2753,0-2.2956,0-3.3159-0.5102
			c-0.7652-0.2551-1.5304-0.7652-2.2956-1.0203c-1.0203-0.5102-2.0405-1.2753-3.0608-1.7855
			c-1.2753-0.7652-2.5507-1.5304-4.0811-2.2956c-1.2753-0.7652-2.2956-1.2753-3.5709-2.0406
			c-1.2753-0.7652-2.2956-1.2753-3.5709-2.0405c-1.0203-0.7652-2.2956-1.2753-3.3158-2.0406
			c-1.2753-0.7652-2.2956-1.2753-3.5709-2.0405c-1.2753-0.7652-2.2956-1.2753-3.5709-2.0406
			c-1.2753-0.7652-2.2956-1.2753-3.5709-2.0406c-0.5102-0.2551-0.7652-0.5102-1.2753-1.0202c-0.7652-0.7652-0.5102-2.0406,0-2.8058
			c0.7652-1.0202,1.7855-1.2753,2.8058-1.5304C129.7742,88.9323,130.2844,88.6772,130.7945,88.6772L130.7945,88.6772z"/>
		<path class="st1" d="M141.7625,51.4371c4.3362,0,8.6723,1.2753,12.7534,3.3158l69.1237,40.0458
			c7.652,4.5913,12.7534,13.0085,12.7534,21.936v79.8366c0,8.9274-4.8463,17.3447-12.7534,21.9359l-69.1237,40.0458
			c-7.652,4.5912-17.3447,4.5912-25.2518,0l-69.1237-40.0458c-7.652-4.5912-12.7534-13.0085-12.7534-21.9359v-79.8366
			c0-8.9274,4.8463-17.3447,12.7534-21.9359l69.1237-40.0458C133.0902,52.7126,137.4263,51.4371,141.7625,51.4371 M141.7625,42.7648
			c-5.8665,0-11.7331,1.5304-17.0896,4.5913L55.8043,87.4019c-10.4578,6.1216-17.0896,17.3447-17.0896,29.3329v79.8366
			c0,11.9882,6.3767,23.4663,17.0896,29.3329l68.8686,40.0457c10.4578,6.1216,23.4663,6.1216,33.9241,0l69.1237-40.0458
			c10.4578-6.1216,17.0896-17.3447,17.0896-29.3329v-79.8366c0-11.9882-6.3767-23.4663-17.0896-29.3329l-68.8686-40.0458
			C153.4956,44.2953,147.6291,42.7648,141.7625,42.7648L141.7625,42.7648z"/>
	</g>
</g>
</svg>
