<?xml version="1.0" encoding="utf-8"?>
<!-- Generator: Adobe Illustrator 23.0.5, SVG Export Plug-In . SVG Version: 6.00 Build 0)  -->
<svg version="1.1" id="Capa_1" xmlns="http://www.w3.org/2000/svg" xmlns:xlink="http://www.w3.org/1999/xlink" x="0px" y="0px"
	 viewBox="0 0 595.2756 304.1096" style="enable-background:new 0 0 595.2756 304.1096;" xml:space="preserve">
<style type="text/css">
	.st0{fill:#020202;}
	.st1{fill:#FFFFFF;}
	.st2{fill:#131313;}
	.st3{fill:#F58E97;}
	.st4{fill:#8F5159;}
	.st5{fill:none;}
</style>
<g>
	<path class="st3" d="M413.3029,203.0288c0.2468-0.25,0.574-0.472,0.9809-0.6658c0.4063-0.1933,0.9242-0.2902,1.5536-0.2902
		c0.4809,0,0.9344,0.0804,1.3598,0.2404s0.8011,0.4158,1.1282,0.7673c0.3266,0.3514,0.5855,0.8081,0.7768,1.3687
		c0.1907,0.5612,0.287,1.2488,0.287,2.0626c0,0.9248-0.1148,1.6927-0.3425,2.303c-0.2283,0.6104-0.5243,1.0945-0.8878,1.4523
		c-0.3642,0.3578-0.7679,0.611-1.2118,0.7583c-0.4439,0.148-0.8757,0.2219-1.2947,0.2219c-0.3578,0-0.669-0.037-0.9344-0.111
		c-0.2653-0.074-0.4962-0.1633-0.6933-0.2679c-0.1977-0.1046-0.3584-0.2162-0.4809-0.3336
		c-0.1237-0.1167-0.2162-0.2181-0.2774-0.3049v0.7398h-1.5358v-13.1148h0.111c0.0249,0,0.058-0.0032,0.1021-0.0096
		c0.0427-0.0057,0.0829-0.0096,0.1199-0.0096c0.345,0,0.6384,0.0874,0.8788,0.2602c0.2404,0.1728,0.3604,0.4943,0.3604,0.9643
		V203.0288z M417.7055,206.6138c0-0.4426-0.0402-0.861-0.1199-1.2545c-0.0804-0.3929-0.2104-0.7309-0.3884-1.0147
		c-0.1792-0.2819-0.4197-0.507-0.722-0.6722c-0.3017-0.1665-0.6748-0.2494-1.1187-0.2494c-0.6046,0-1.0976,0.1288-1.4796,0.3871
		c-0.3827,0.2583-0.574,0.5657-0.574,0.9222v4.1507c0.074,0.0982,0.1729,0.2054,0.2966,0.3221
		c0.1225,0.1167,0.2743,0.2251,0.4529,0.3227c0.1786,0.0988,0.382,0.1843,0.6104,0.2589c0.2283,0.0733,0.472,0.1097,0.7309,0.1097
		c0.7641,0,1.3413-0.2819,1.7291-0.8483C417.5117,208.4832,417.7055,207.6713,417.7055,206.6138"/>
	<path class="st3" d="M425.3079,212.172c-0.1359,0.3948-0.2838,0.7711-0.4439,1.1289c-0.1601,0.3572-0.3578,0.6684-0.5919,0.9337
		c-0.2347,0.2647-0.5211,0.4777-0.8604,0.6384c-0.3393,0.1601-0.7487,0.2404-1.2296,0.2404c-0.4694,0-0.8604-0.067-1.1748-0.2003
		c-0.3145-0.1346-0.472-0.3412-0.472-0.6212c0-0.1696,0.0466-0.347,0.139-0.5306c0.0925-0.1843,0.1875-0.3438,0.287-0.4796
		c0.0982,0.0867,0.2494,0.1881,0.4528,0.3055c0.2035,0.1167,0.4592,0.176,0.7679,0.176c0.4311,0,0.7794-0.162,1.0447-0.4847
		s0.5026-0.8189,0.7124-1.4892l0.2589-0.838h-0.6288l-2.997-8.5827c0.2589-0.0982,0.53-0.1486,0.8145-0.1486
		c0.3202,0,0.5791,0.1059,0.7762,0.3151c0.1971,0.2098,0.3457,0.456,0.4445,0.7398l2.0345,6.3077l2.0345-6.1413
		c0.0376-0.1352,0.0861-0.2742,0.148-0.4165c0.0619-0.1409,0.1448-0.2736,0.25-0.3973c0.1046-0.1231,0.2309-0.222,0.3795-0.2966
		c0.148-0.0733,0.3259-0.111,0.5364-0.111c0.2462,0,0.4745,0.0555,0.6844,0.1665L425.3079,212.172z"/>
	<path class="st3" d="M441.9008,207.4186c0,0.6907-0.1173,1.2635-0.3514,1.7201c-0.2347,0.456-0.5676,0.8202-0.9988,1.0912
		c-0.4318,0.2717-0.9561,0.463-1.5728,0.5734c-0.6167,0.111-1.3011,0.1665-2.053,0.1665h-3.2004v-12.3387
		c0.5058-0.0485,0.9867-0.0887,1.4433-0.1199c0.456-0.0306,0.9803-0.0459,1.5721-0.0459c0.8508,0,1.569,0.0676,2.1551,0.2034
		c0.5855,0.1358,1.0575,0.3329,1.4153,0.5919c0.3572,0.2589,0.6161,0.5829,0.7768,0.9707c0.1601,0.3891,0.2404,0.8298,0.2404,1.3228
		c0,0.4318-0.0619,0.8113-0.185,1.1384c-0.1237,0.3259-0.2749,0.6072-0.4535,0.8412c-0.1786,0.2341-0.3731,0.4254-0.5823,0.5734
		c-0.2098,0.148-0.4012,0.2589-0.574,0.3329c0.1971,0.0491,0.435,0.1327,0.7124,0.25c0.2774,0.1167,0.5364,0.2864,0.7768,0.5083
		c0.2404,0.222,0.4471,0.5121,0.6199,0.8699C441.8141,206.4255,441.9008,206.8758,441.9008,207.4186 M439.7177,201.6096
		c0-0.3814-0.0765-0.6933-0.2309-0.9337c-0.1544-0.2404-0.3674-0.4254-0.6378-0.5555c-0.2717-0.1295-0.5957-0.2181-0.9714-0.2672
		c-0.3763-0.0497-0.7864-0.0746-1.2303-0.0746c-0.2959,0-0.5549,0.0064-0.7768,0.0191c-0.222,0.0121-0.4012,0.03-0.5364,0.0555
		v4.0691h1.7571c0.7647,0,1.3936-0.2003,1.8866-0.6014C439.4715,202.9202,439.7177,202.3501,439.7177,201.6096 M436.4995,209.6196
		c0.5549,0,1.0606-0.0249,1.5166-0.0733c0.456-0.0491,0.8508-0.1512,1.1837-0.3042c0.3329-0.1537,0.5925-0.3776,0.7775-0.6722
		c0.185-0.2947,0.2774-0.6875,0.2774-1.1786c0-0.4299-0.0867-0.7832-0.2596-1.0594c-0.1729-0.2768-0.4063-0.4975-0.7029-0.6633
		c-0.2953-0.1658-0.632-0.2793-1.0077-0.3406c-0.3763-0.0612-0.7679-0.0925-1.1748-0.0925h-1.7756v4.3842H436.4995z"/>
	<path class="st3" d="M447.3574,206.0308l-2.9045,4.939h-1.7571l3.7553-6.2337l-3.4409-5.9748
		c0.1601-0.0612,0.3266-0.1135,0.4994-0.1575c0.1729-0.0427,0.3266-0.0644,0.4624-0.0644c0.5179,0,0.9254,0.2717,1.2207,0.8138
		l2.2571,4.0876l2.423-4.0691c0.2098-0.3578,0.4254-0.5823,0.6473-0.6754c0.2226-0.0925,0.4318-0.1384,0.6295-0.1384
		c0.1722,0,0.3265,0.0185,0.4624,0.0555c0.1352,0.037,0.259,0.0867,0.3699,0.148l-3.6073,5.9563l3.7923,6.2522
		c-0.148,0.0619-0.2959,0.1078-0.4439,0.139c-0.148,0.0306-0.2902,0.0459-0.4254,0.0459c-0.3329,0-0.5982-0.074-0.7953-0.2213
		c-0.1977-0.1486-0.389-0.3705-0.574-0.6665L447.3574,206.0308z"/>
	<path class="st3" d="M461.8412,202.5716c0.2462,0.1365,0.4126,0.2621,0.4994,0.3795c0.0861,0.1174,0.1295,0.2315,0.1295,0.3425
		c0,0.1358-0.0338,0.2927-0.1021,0.4713c-0.0676,0.1786-0.1512,0.3546-0.2494,0.5275l-0.2589,0.0185
		c-0.2098-0.2596-0.5154-0.4841-0.9159-0.6754c-0.4012-0.1913-0.8298-0.2864-1.2852-0.2864c-0.1607,0-0.3368,0.0153-0.5274,0.0459
		c-0.1913,0.0313-0.3699,0.0867-0.5364,0.1665c-0.1664,0.0804-0.3055,0.1939-0.4165,0.3425
		c-0.111,0.1473-0.1664,0.3323-0.1664,0.5549c0,0.3948,0.1754,0.678,0.5274,0.8508c0.3514,0.1722,0.7858,0.3208,1.3043,0.4439
		c0.3699,0.0867,0.7271,0.1945,1.0728,0.324c0.345,0.1288,0.6499,0.2959,0.9152,0.4987c0.2653,0.2041,0.4745,0.4599,0.6288,0.7679
		c0.1544,0.3087,0.2315,0.6907,0.2315,1.1467c0,0.4567-0.0925,0.8546-0.2774,1.1933c-0.185,0.34-0.4318,0.6231-0.7398,0.8508
		c-0.3087,0.229-0.6697,0.4012-1.0823,0.5185c-0.4133,0.1167-0.8412,0.1754-1.2858,0.1754c-0.4318,0-0.8202-0.0338-1.1653-0.102
		c-0.345-0.0676-0.6352-0.1505-0.8693-0.2494c-0.308-0.1231-0.5243-0.2494-0.6474-0.3788c-0.1237-0.1295-0.1849-0.2621-0.1849-0.398
		c0-0.1601,0.0427-0.3266,0.1288-0.5c0.0861-0.1722,0.1964-0.3699,0.3317-0.5912c0.0861,0.074,0.2054,0.1658,0.3591,0.2768
		c0.1537,0.1116,0.338,0.2162,0.5529,0.3144c0.2149,0.0995,0.4516,0.183,0.7092,0.25c0.2577,0.0682,0.5345,0.102,0.8291,0.102
		c0.2213,0,0.4362-0.0217,0.6448-0.0644c0.2092-0.044,0.3961-0.1142,0.5619-0.213c0.1664-0.0988,0.301-0.2341,0.4056-0.4069
		c0.1046-0.1728,0.1569-0.3884,0.1569-0.648c0-0.2589-0.0555-0.4713-0.1665-0.6378c-0.1097-0.1665-0.2577-0.3049-0.442-0.4165
		c-0.1843-0.111-0.3897-0.1996-0.6167-0.2679c-0.2277-0.0676-0.4579-0.1263-0.6914-0.1754c-0.3559-0.074-0.6971-0.1696-1.0224-0.287
		c-0.3259-0.1174-0.6142-0.2742-0.8661-0.472c-0.2519-0.1971-0.4547-0.4439-0.6078-0.7398
		c-0.1537-0.2959-0.2302-0.6531-0.2302-1.0728c0-0.4069,0.0861-0.7679,0.2589-1.0823c0.1728-0.3144,0.4069-0.5734,0.7029-0.7768
		c0.2959-0.2034,0.632-0.3578,1.0083-0.4624c0.3756-0.1046,0.7672-0.1569,1.1748-0.1569c0.4681,0,0.8967,0.0491,1.2851,0.1473
		C461.2952,202.319,461.6065,202.4364,461.8412,202.5716"/>
	<path class="st3" d="M469.1291,202.0726c0.4439,0,0.8999,0.0925,1.3687,0.2774c0.4688,0.185,0.8202,0.4751,1.0543,0.8693
		c0.2838-0.3087,0.669-0.5759,1.1563-0.8049c0.4866-0.2277,1.0447-0.3419,1.6742-0.3419c0.8017,0,1.4242,0.185,1.8681,0.5549
		s0.7277,0.8323,0.8508,1.3872c0.0619,0.2468,0.0988,0.5211,0.111,0.8234c0.0121,0.3023,0.0185,0.5951,0.0185,0.8782v5.2535h-1.5721
		v-5.198c0-0.2334-0.0032-0.4592-0.0089-0.6754c-0.007-0.2156-0.0402-0.4158-0.1021-0.6008
		c-0.0861-0.3202-0.2621-0.567-0.5274-0.7398s-0.669-0.2596-1.2112-0.2596c-0.4069,0-0.7864,0.0867-1.1378,0.2596
		c-0.3514,0.1728-0.6136,0.3635-0.7864,0.5734c0.0249,0.2098,0.0434,0.4286,0.0555,0.6563c0.0121,0.229,0.0185,0.4662,0.0185,0.713
		v5.2713h-1.5722v-5.198c0-0.2583-0.0121-0.502-0.037-0.7309c-0.0249-0.2277-0.0676-0.4343-0.1295-0.6193
		c-0.1977-0.6161-0.7526-0.9254-1.6646-0.9254c-0.2717,0-0.5338,0.0376-0.7864,0.1116c-0.2526,0.0733-0.4777,0.1728-0.6748,0.2959
		c-0.1977,0.1231-0.3578,0.2621-0.4815,0.4158c-0.1231,0.155-0.185,0.3055-0.185,0.4535v6.1967h-1.5721v-8.7307h0.111
		c0.037,0,0.0771-0.0032,0.1205-0.0096c0.0428-0.0064,0.0829-0.0096,0.1199-0.0096c0.3208,0,0.5829,0.0778,0.7864,0.2315
		c0.2035,0.1543,0.3297,0.3916,0.3788,0.7124c0.2838-0.2959,0.6595-0.5517,1.1289-0.7679
		C467.9695,202.1804,468.5123,202.0726,469.1291,202.0726"/>
	<path class="st3" d="M486.4618,208.9538c0,0.2959,0.0115,0.5268,0.0363,0.6933c0.0249,0.1671,0.0708,0.2902,0.139,0.3699
		c0.0676,0.0804,0.1601,0.1327,0.2774,0.1575c0.1174,0.0249,0.2679,0.037,0.4529,0.037v0.7398
		c-0.1104,0.037-0.2468,0.0676-0.4069,0.0925c-0.1601,0.0242-0.3265,0.037-0.4987,0.037c-0.3871,0-0.7245-0.0772-1.0115-0.2309
		c-0.2876-0.1543-0.456-0.4286-0.5058-0.8234c-0.3074,0.308-0.6761,0.5702-1.1066,0.7864
		c-0.4299,0.2156-0.9949,0.3233-1.6959,0.3233c-0.3195,0-0.6422-0.037-0.9682-0.111c-0.3253-0.074-0.6206-0.2092-0.8846-0.4069
		c-0.2647-0.1971-0.4828-0.4624-0.6544-0.7953c-0.1729-0.3329-0.2583-0.7583-0.2583-1.2769c0-0.641,0.1626-1.1652,0.4885-1.5721
		c0.3253-0.4063,0.7284-0.7271,1.2073-0.9611c0.4796-0.2347,0.9924-0.3954,1.5396-0.4815c0.5466-0.0861,1.0473-0.1352,1.5027-0.148
		h0.3871c0.1473,0,0.2762,0.0064,0.3871,0.0185v-0.2774c0-0.5549-0.1327-0.9771-0.3973-1.2666
		c-0.2653-0.2896-0.7743-0.435-1.5262-0.435c-0.5555,0-1.0237,0.0708-1.4063,0.2124c-0.382,0.1422-0.752,0.3361-1.1097,0.5829
		h-0.185c-0.0988-0.1601-0.1818-0.3329-0.2494-0.5179c-0.0682-0.185-0.1021-0.3329-0.1021-0.4445
		c0-0.1601,0.0988-0.3106,0.2959-0.4528c0.1971-0.1416,0.4535-0.2685,0.7679-0.3788c0.3145-0.111,0.6627-0.1977,1.0453-0.2596
		c0.382-0.0612,0.7583-0.0918,1.1282-0.0918c0.6289,0,1.1538,0.0676,1.5747,0.2028c0.4216,0.1358,0.7628,0.3393,1.0249,0.6104
		c0.2615,0.2717,0.4464,0.6104,0.5523,1.0179c0.1059,0.4069,0.1595,0.8757,0.1595,1.4057V208.9538z M484.9075,206.5857h-0.5338
		c-0.3929,0-0.7921,0.0249-1.1965,0.074c-0.4056,0.0491-0.7736,0.1422-1.1053,0.2781c-0.331,0.1358-0.6014,0.3233-0.81,0.5638
		c-0.2086,0.2398-0.3131,0.5581-0.3131,0.9529c0,0.3699,0.1103,0.6965,0.3316,0.9803c0.2207,0.2838,0.632,0.4254,1.2335,0.4254
		c0.3195,0,0.6231-0.0459,0.9114-0.139c0.2883-0.0925,0.5434-0.206,0.7641-0.3418s0.3961-0.2832,0.5249-0.4439
		c0.1288-0.1601,0.1932-0.3151,0.1932-0.4624V206.5857z"/>
	<path class="st3" d="M489.6246,202.2203c0.2831,0,0.5396,0.0708,0.7672,0.213c0.2283,0.1422,0.3674,0.3795,0.4158,0.7118
		c0.1735-0.2589,0.4324-0.5019,0.7775-0.7303c0.345-0.2283,0.7462-0.3418,1.2022-0.3418c0.1358,0,0.28,0.0121,0.435,0.0363
		c0.1543,0.0249,0.2985,0.0651,0.4343,0.1205c0.1359,0.0555,0.2468,0.1327,0.3329,0.2309c0.0868,0.0989,0.1295,0.2283,0.1295,0.3884
		c0,0.1977-0.0485,0.4101-0.1473,0.6384c-0.0995,0.2283-0.1977,0.4165-0.2959,0.5638c-0.1607-0.1473-0.3329-0.2615-0.5185-0.3419
		c-0.1843-0.0804-0.4184-0.1205-0.7029-0.1205c-0.2104,0-0.4095,0.0344-0.6014,0.102c-0.1907,0.0676-0.3597,0.1607-0.5083,0.2774
		c-0.1479,0.1174-0.2653,0.25-0.3514,0.3974c-0.0868,0.1486-0.1295,0.3029-0.1295,0.463v6.1413h-1.5721v-8.7313h0.1295
		c0.037,0,0.074-0.0032,0.111-0.0089C489.5691,202.2235,489.5997,202.2203,489.6246,202.2203"/>
	<path class="st3" d="M495.8766,209.86c-0.0861-0.2341-0.1384-0.4905-0.1569-0.7673c-0.0185-0.2781-0.0281-0.5517-0.0281-0.8234
		v-8.6567h0.1116c0.0242,0,0.058-0.0032,0.1014-0.0096c0.0427-0.0064,0.0835-0.0096,0.1199-0.0096
		c0.3336,0,0.6231,0.0861,0.8699,0.2577c0.2462,0.1716,0.3699,0.4834,0.3699,0.9363v1.4701h2.7559v1.3502h-2.7559v4.7726
		c0,1.0115,0.4005,1.5166,1.2022,1.5166c0.1971,0,0.382-0.0338,0.5549-0.102c0.1722-0.0676,0.3266-0.148,0.4624-0.2404
		c0.1352-0.0925,0.25-0.1818,0.3419-0.2679c0.0931-0.0861,0.1512-0.148,0.176-0.185c0.148,0.185,0.2743,0.3642,0.3788,0.5364
		c0.1052,0.1729,0.1582,0.3393,0.1582,0.5c0,0.1103-0.0555,0.2309-0.1671,0.3604c-0.111,0.1295-0.2653,0.25-0.4624,0.3604
		c-0.1971,0.111-0.4407,0.2034-0.7303,0.2774c-0.2902,0.074-0.6078,0.111-0.9529,0.111c-0.6416,0-1.1531-0.1237-1.5358-0.3693
		C496.3084,210.6311,496.0367,210.2918,495.8766,209.86"/>
	<path class="st3" d="M507.5673,209.231c0,0.185,0.0057,0.3425,0.0179,0.472c0.0128,0.1288,0.0466,0.2373,0.1021,0.3234
		c0.0555,0.0867,0.1416,0.1512,0.2589,0.1945c0.1167,0.0434,0.287,0.0644,0.5089,0.0644v0.6658
		c-0.111,0.0376-0.2628,0.0682-0.4535,0.0931c-0.1913,0.0242-0.3788,0.0363-0.5638,0.0363c-0.3584,0-0.632-0.0555-0.8234-0.1658
		c-0.1913-0.111-0.3336-0.2596-0.4254-0.4445c-0.0931-0.185-0.1486-0.391-0.1665-0.6193c-0.0185-0.2283-0.028-0.4528-0.028-0.6754
		v-11.3207h0.111c0.0249,0,0.0587-0.0032,0.1021-0.0096c0.0434-0.0051,0.0829-0.0089,0.1205-0.0089
		c0.345,0,0.6378,0.0893,0.8782,0.2685c0.2404,0.1786,0.361,0.5026,0.361,0.9707V209.231z"/>
	<path class="st3" d="M516.9644,208.9538c0,0.2959,0.0121,0.5268,0.037,0.6933c0.0242,0.1671,0.0701,0.2902,0.1384,0.3699
		c0.0676,0.0804,0.16,0.1327,0.2774,0.1575s0.2685,0.037,0.4535,0.037v0.7398c-0.111,0.037-0.2468,0.0676-0.4069,0.0925
		c-0.1601,0.0242-0.3272,0.037-0.4994,0.037c-0.3871,0-0.7239-0.0772-1.0109-0.2309c-0.2883-0.1543-0.456-0.4286-0.5057-0.8234
		c-0.308,0.308-0.6767,0.5702-1.1066,0.7864c-0.4305,0.2156-0.9956,0.3233-1.6965,0.3233c-0.3195,0-0.6422-0.037-0.9675-0.111
		c-0.3259-0.074-0.6206-0.2092-0.8853-0.4069c-0.264-0.1971-0.4822-0.4624-0.6544-0.7953
		c-0.1722-0.3329-0.2583-0.7583-0.2583-1.2769c0-0.641,0.1633-1.1652,0.4892-1.5721c0.3253-0.4063,0.7277-0.7271,1.2067-0.9611
		c0.4796-0.2347,0.993-0.3954,1.5396-0.4815c0.5472-0.0861,1.0479-0.1352,1.5032-0.148h0.3865c0.148,0,0.2769,0.0064,0.3878,0.0185
		v-0.2774c0-0.5549-0.1327-0.9771-0.398-1.2666s-0.7736-0.435-1.5262-0.435c-0.5549,0-1.0237,0.0708-1.4057,0.2124
		c-0.3827,0.1422-0.7526,0.3361-1.1098,0.5829h-0.1849c-0.0995-0.1601-0.1818-0.3329-0.25-0.5179
		c-0.0676-0.185-0.1014-0.3329-0.1014-0.4445c0-0.1601,0.0982-0.3106,0.296-0.4528c0.1964-0.1416,0.4528-0.2685,0.7672-0.3788
		c0.3144-0.111,0.6627-0.1977,1.0453-0.2596c0.382-0.0612,0.7583-0.0918,1.1282-0.0918c0.6288,0,1.1544,0.0676,1.5753,0.2028
		c0.421,0.1358,0.7621,0.3393,1.0243,0.6104c0.2621,0.2717,0.4465,0.6104,0.553,1.0179c0.1059,0.4069,0.1588,0.8757,0.1588,1.4057
		V208.9538z M515.4107,206.5857h-0.5345c-0.3929,0-0.7915,0.0249-1.1965,0.074c-0.4056,0.0491-0.7736,0.1422-1.1047,0.2781
		c-0.3316,0.1358-0.6021,0.3233-0.8106,0.5638c-0.2086,0.2398-0.3125,0.5581-0.3125,0.9529c0,0.3699,0.1104,0.6965,0.3317,0.9803
		c0.22,0.2838,0.632,0.4254,1.2335,0.4254c0.3189,0,0.6231-0.0459,0.9114-0.139c0.2883-0.0925,0.5428-0.206,0.7634-0.3418
		c0.2213-0.1358,0.3961-0.2832,0.5249-0.4439c0.1288-0.1601,0.1939-0.3151,0.1939-0.4624V206.5857z"/>
	<path class="st3" d="M521.3665,203.0288c0.2462-0.25,0.5734-0.472,0.9802-0.6658c0.4069-0.1933,0.9248-0.2902,1.5537-0.2902
		c0.4808,0,0.9343,0.0804,1.3597,0.2404s0.8017,0.4158,1.1288,0.7673c0.3259,0.3514,0.5855,0.8081,0.7762,1.3687
		c0.1913,0.5612,0.287,1.2488,0.287,2.0626c0,0.9248-0.1142,1.6927-0.3419,2.303c-0.2289,0.6104-0.5249,1.0945-0.8884,1.4523
		c-0.3635,0.3578-0.7673,0.611-1.2112,0.7583c-0.4445,0.148-0.8763,0.2219-1.2953,0.2219c-0.3572,0-0.669-0.037-0.9343-0.111
		c-0.2653-0.074-0.4962-0.1633-0.6933-0.2679s-0.3578-0.2162-0.4809-0.3336c-0.1237-0.1167-0.2156-0.2181-0.2775-0.3049v0.7398
		h-1.5351v-13.1148h0.111c0.0242,0,0.058-0.0032,0.1014-0.0096c0.0427-0.0057,0.0836-0.0096,0.1199-0.0096
		c0.345,0,0.6384,0.0874,0.8788,0.2602c0.2405,0.1728,0.361,0.4943,0.361,0.9643V203.0288z M525.7692,206.6138
		c0-0.4426-0.0402-0.861-0.1199-1.2545c-0.0804-0.3929-0.2104-0.7309-0.389-1.0147c-0.1786-0.2819-0.419-0.507-0.7213-0.6722
		c-0.3024-0.1665-0.6748-0.2494-1.1193-0.2494c-0.604,0-1.0977,0.1288-1.4797,0.3871c-0.3827,0.2583-0.5734,0.5657-0.5734,0.9222
		v4.1507c0.074,0.0982,0.1722,0.2054,0.2959,0.3221c0.1231,0.1167,0.2743,0.2251,0.4528,0.3227
		c0.1793,0.0988,0.3827,0.1843,0.611,0.2589c0.2277,0.0733,0.4713,0.1097,0.7303,0.1097c0.7647,0,1.3412-0.2819,1.7297-0.8483
		C525.5746,208.4832,525.7692,207.6713,525.7692,206.6138"/>
	<path class="st3" d="M534.5001,202.5716c0.2468,0.1365,0.4127,0.2621,0.4994,0.3795c0.0861,0.1174,0.1295,0.2315,0.1295,0.3425
		c0,0.1358-0.0338,0.2927-0.1021,0.4713c-0.0676,0.1786-0.1505,0.3546-0.2494,0.5275l-0.259,0.0185
		c-0.2098-0.2596-0.5147-0.4841-0.9158-0.6754c-0.4005-0.1913-0.8291-0.2864-1.2858-0.2864c-0.1601,0-0.3355,0.0153-0.5269,0.0459
		c-0.1913,0.0313-0.3699,0.0867-0.5364,0.1665c-0.1671,0.0804-0.3049,0.1939-0.4164,0.3425
		c-0.111,0.1473-0.1665,0.3323-0.1665,0.5549c0,0.3948,0.1754,0.678,0.5269,0.8508c0.3521,0.1722,0.787,0.3208,1.3043,0.4439
		c0.3699,0.0867,0.7277,0.1945,1.0734,0.324c0.3451,0.1288,0.6499,0.2959,0.9152,0.4987c0.2647,0.2041,0.4745,0.4599,0.6295,0.7679
		c0.1537,0.3087,0.2309,0.6907,0.2309,1.1467c0,0.4567-0.0931,0.8546-0.2781,1.1933c-0.1849,0.34-0.4312,0.6231-0.7392,0.8508
		c-0.3087,0.229-0.6697,0.4012-1.0823,0.5185c-0.4127,0.1167-0.8412,0.1754-1.2858,0.1754c-0.4312,0-0.8202-0.0338-1.1652-0.102
		c-0.3457-0.0676-0.6353-0.1505-0.8693-0.2494c-0.308-0.1231-0.5243-0.2494-0.6473-0.3788c-0.1237-0.1295-0.185-0.2621-0.185-0.398
		c0-0.1601,0.0427-0.3266,0.1288-0.5c0.0854-0.1722,0.1965-0.3699,0.3317-0.5912c0.0861,0.074,0.2054,0.1658,0.3591,0.2768
		c0.1544,0.1116,0.338,0.2162,0.553,0.3144c0.2156,0.0995,0.4515,0.183,0.7092,0.25c0.2576,0.0682,0.5344,0.102,0.8297,0.102
		c0.2207,0,0.4356-0.0217,0.6442-0.0644c0.2092-0.044,0.3967-0.1142,0.5619-0.213c0.1658-0.0988,0.3011-0.2341,0.4056-0.4069
		c0.1046-0.1728,0.1569-0.3884,0.1569-0.648c0-0.2589-0.0562-0.4713-0.1664-0.6378c-0.1097-0.1665-0.2577-0.3049-0.442-0.4165
		c-0.1843-0.111-0.3897-0.1996-0.6174-0.2679c-0.2264-0.0676-0.4573-0.1263-0.6907-0.1754c-0.3559-0.074-0.6971-0.1696-1.0224-0.287
		c-0.3253-0.1174-0.6141-0.2742-0.8661-0.472c-0.2513-0.1971-0.4547-0.4439-0.6078-0.7398
		c-0.1537-0.2959-0.2303-0.6531-0.2303-1.0728c0-0.4069,0.0861-0.7679,0.259-1.0823c0.1729-0.3144,0.4069-0.5734,0.7028-0.7768
		c0.2966-0.2034,0.6321-0.3578,1.0084-0.4624c0.3763-0.1046,0.7673-0.1569,1.1748-0.1569c0.4681,0,0.8967,0.0491,1.2852,0.1473
		C533.9548,202.319,534.2654,202.4364,534.5001,202.5716"/>
</g>
<path class="st3" d="M217.2323,94.691l-68.4689-39.6076c-7.6758-4.6055-17.194-4.6055-25.1769,0L54.8106,94.691
	c-7.6758,4.6055-12.5885,12.8954-12.5885,21.7995v79.2151c0,8.9041,4.9125,17.194,12.5885,21.7995l68.4689,39.6076
	c7.6758,4.6056,17.194,4.6056,25.1769,0l68.4689-39.6076c7.6758-4.6055,12.5885-12.8954,12.5885-21.7995v-79.2151
	C229.8208,107.5865,224.9082,99.2965,217.2323,94.691z"/>
<ellipse transform="matrix(0.279 -0.9603 0.9603 0.279 -57.6469 283.3596)" class="st4" cx="159.8776" cy="180.0693" rx="9.5182" ry="7.3689"/>
<ellipse transform="matrix(0.279 -0.9603 0.9603 0.279 4.3924 309.6502)" class="st4" cx="208.4053" cy="151.9" rx="9.5182" ry="7.3689"/>
<g>
	<g>
		<g>
			<path class="st4" d="M189.9061,204.9167c2.4563-1.5352,3.6844-4.6055,3.0703-7.3689c-0.307-1.8422-2.1493-3.3774-3.9915-3.0703
				c-0.6141,0-0.9211,0.3071-1.5352,0.6141c-2.4563,1.5352-3.6844,4.6055-3.0703,7.3689c0.307,1.8422,2.1493,3.3774,3.9915,3.0703
				C188.9851,205.5307,189.2921,205.2237,189.9061,204.9167 M203.7227,196.9337c2.4563-1.5352,3.6844-4.6055,3.0703-7.3689
				c-0.307-1.8422-2.1493-3.3774-3.9915-3.0703c-0.6141,0-0.9211,0.3071-1.5352,0.6141c-2.4563,1.5352-3.6844,4.6055-3.0703,7.3689
				c0.307,1.8422,2.1493,3.3774,3.9915,3.0703C202.8017,197.5478,203.4157,197.2407,203.7227,196.9337"/>
		</g>
	</g>
</g>
<path class="st4" d="M207.7142,175.1342l-8.9041-3.0703c-2.7633-0.6141-5.8336,0-8.597,1.5352l-14.4306,8.2899
	c-7.3689,4.9126-11.0533,13.8166-9.211,22.7207c0.6141,3.9915,3.3774,7.0618,7.0618,8.597l8.2899,2.7633l0,0
	c-3.3774-1.8422-5.8337-4.9126-6.4477-8.597c-1.8422-8.597,1.8422-17.8081,9.211-22.7206l14.4307-8.29
	C201.5735,175.1342,204.6439,174.5202,207.7142,175.1342L207.7142,175.1342z"/>
<path class="st3" d="M285.3941,141.6674c1.2281-0.6141,2.4562-1.2281,3.6844-1.5352c2.1493-0.6141,4.2985-0.9211,6.4477-0.9211
	c2.4562,0,4.9126,0.307,7.3688,0.9211c2.4562,0.6141,4.6055,2.1493,6.4477,3.6844c2.1493,2.1493,3.6844,4.6055,4.6055,7.3689
	c1.2281,3.6844,1.8422,7.6758,1.8422,11.6673c0,4.6055-0.3071,9.2111-1.5352,13.5095c-0.9211,3.0703-2.4562,5.8337-4.2985,8.2899
	c-1.5352,1.8422-3.6844,3.3774-6.1407,4.2984c-2.4562,0.9211-4.9125,1.2281-7.3688,1.2281c-1.8422,0-3.6844-0.3071-5.5266-0.6141
	c-1.2281-0.3071-2.4562-0.9211-3.6844-1.5352c-0.9211-0.6141-1.5352-1.2281-2.1493-1.8422
	c-0.3071-0.307-0.6141-0.6141-0.9211-1.2281c0,0.9211-0.3071,1.8422-0.6141,2.7633c-0.6141,0.9211-1.5352,1.2281-2.4563,1.2281
	h-15.3518v-70.3112c0.9211,0,1.5352,0,2.4563-0.307c0.9211,0,1.5352-0.307,2.4562-0.307s1.8422,0,2.7633,0
	c1.5352,0,3.0703,0,4.6055,0.6141c1.5352,0.307,2.7633,0.9211,3.9915,1.5352c1.2281,0.9211,2.1493,1.8422,2.7633,3.0703
	c0.6141,1.5352,1.2281,3.3774,0.9211,5.2196L285.3941,141.6674z M294.6052,163.1598c0-2.4563-0.3071-5.2196-1.2281-7.6758
	c-0.9211-1.8422-3.0703-3.0703-4.9125-2.7633c-0.6141,0-1.2281,0-1.8422,0l-0.9211,0.3071v21.7995
	c0.6141,0.3071,0.9211,0.6141,1.5352,0.6141s1.2281,0,1.8422,0c0.9211,0,2.1493-0.307,2.7633-0.9211
	c0.9211-0.6141,1.5352-1.5352,1.8422-2.4563c0.6141-1.2281,0.9212-2.4563,0.9212-3.9915
	C294.6052,166.2301,294.6052,164.6951,294.6052,163.1598L294.6052,163.1598z"/>
<path class="st3" d="M321.6243,118.6398c0.9211,0,1.5352,0,2.4562-0.307c0.9211,0,1.5352-0.307,2.4562-0.307s1.8422,0,2.7633,0
	c1.5352,0,3.0703,0,4.6056,0.6141c1.5352,0.307,2.7632,0.9211,3.9915,1.5352c1.2281,0.9211,2.1493,1.8422,2.7632,3.0703
	c0.6141,1.5352,1.2281,3.3774,0.9211,5.2196v60.4859c-2.4562,0.9211-4.9126,1.2281-7.3688,1.2281
	c-2.4563,0-4.9126-0.3071-7.0618-1.2281c-1.5352-0.6141-2.7633-1.8422-3.6844-3.0703c-0.9211-1.2281-1.2281-2.7634-1.5352-4.2986
	s-0.3071-3.3774-0.3071-4.9125L321.6243,118.6398L321.6243,118.6398z"/>
<path class="st3" d="M398.6901,164.388c0,3.3774-0.6141,6.7548-1.5352,9.8251s-2.4562,5.8337-4.6055,8.2899
	c-2.1493,2.4563-4.9126,4.6055-7.9829,5.8337c-7.6758,2.7634-15.9659,2.7634-23.6417,0c-3.0703-1.2281-5.8337-3.3774-7.9829-5.8337
	c-2.1493-2.4563-3.6844-5.2196-4.6055-8.2899c-0.9211-3.3774-1.5352-6.4477-1.5352-9.8251c0-3.3774,0.6141-6.7548,1.5352-9.8251
	c0.9211-3.0703,2.7633-5.8337,4.9126-7.9829c2.1493-2.4563,4.9126-4.2986,7.9829-5.5267c3.6844-1.5352,7.3688-2.1493,11.3603-2.1493
	c3.9915,0,7.9829,0.6141,11.6673,2.1493c5.8337,2.1493,10.4392,7.3689,12.2814,13.5095
	C398.076,157.9402,398.6901,161.3176,398.6901,164.388z M378.4258,164.6951c0-2.4563-0.3071-5.2196-1.2281-7.6759
	c-0.6141-1.8422-2.4562-3.0703-4.2985-3.0703c-0.9211,0-2.1493,0.307-2.7632,0.9211c-0.9211,0.6141-1.5352,1.5352-1.8422,2.4563
	c-0.6141,1.2281-0.9211,2.1493-0.9211,3.3774c-0.3071,1.2281-0.3071,2.7633-0.3071,3.9915c0,1.5352,0,2.7633,0.3071,4.2984
	c0,1.2281,0.3071,2.4563,0.9211,3.6844c0.3071,0.9211,0.9211,1.8422,1.8422,2.4563s1.8422,0.9211,2.7632,0.9211
	c0.9211,0,2.1493-0.307,2.7634-0.9211c0.6141-0.6141,1.2281-1.5352,1.8422-2.4563c0.3071-1.2281,0.6141-2.4563,0.9211-3.6844
	C378.4258,167.7654,378.4258,166.2301,378.4258,164.6951L378.4258,164.6951z"/>
<path class="st3" d="M423.253,125.7015c0,2.4563-0.9211,5.2196-2.7633,6.7548c-3.9915,3.3774-10.1322,3.3774-14.1237,0
	c-1.8422-1.8422-3.0703-4.2986-2.7633-6.7548c0-2.4563,0.9211-5.2196,2.7633-7.0618c3.9915-3.3774,10.1322-3.3774,14.1237,0
	C422.3319,120.4819,423.56,122.9382,423.253,125.7015z M424.174,188.9508c-2.4562,0.9211-4.9126,1.2281-7.3688,1.2281
	s-4.9126-0.3071-7.0618-1.2281c-1.5352-0.6141-2.7633-1.8422-3.6844-3.0703c-0.9211-1.2281-1.2281-2.7634-1.5352-4.2986
	c-0.3071-1.5352-0.3071-3.3774-0.3071-4.9125v-35.6161l2.4562-0.3071c0.9211,0,1.5352-0.307,2.4562-0.307s1.8422,0,2.7633,0
	c1.5352,0,3.0703,0,4.6056,0.6141c1.5352,0.307,2.7632,0.9211,3.9915,1.5352c1.2281,0.9211,2.1493,1.8422,2.7632,3.0703
	c0.6141,1.5352,1.2281,3.3774,0.9211,5.2196L424.174,188.9508L424.174,188.9508z"/>
<path class="st3" d="M459.1762,159.7824c0-1.2281,0-2.4563-0.6141-3.6844c-0.3071-0.9211-1.2281-1.2281-2.7632-1.2281
	c-1.2281,0-2.1493,0.3071-3.0703,0.9211c-0.6141,0.6141-0.9212,1.2281-0.9212,2.1493v31.6246h-20.2645v-48.5115l2.1493-0.3071
	c0.9211,0,1.5352-0.307,2.4562-0.307s2.1493,0,3.3774,0c2.4562,0,4.9126,0.307,7.3688,1.2281
	c1.8423,0.6141,3.0704,2.1493,3.9915,3.6844c1.2281-1.8422,2.7633-3.0703,4.6056-3.9915c2.7633-1.5352,5.8336-2.1493,8.904-1.8422
	c3.6844-0.307,7.0618,0.9211,9.8251,3.0703c2.4562,2.1493,3.9915,4.9125,4.6056,7.6758c0.3071,0.9212,0.3071,1.8422,0.3071,2.4563
	c0,0.9211,0,2.1493,0.3071,3.0703c0,0.9211,0,1.8422,0,2.7634s0,1.8422,0,2.4563v27.9402
	c-0.6141,0.3071-1.5352,0.6141-2.1493,0.6141l-2.4562,0.3071c-0.9211,0-2.1493,0.307-3.0703,0.307
	c-2.4562,0-4.9126-0.307-7.3689-1.2281c-1.5352-0.6141-2.7632-1.8422-3.9915-3.0703c-0.9211-1.2281-1.2281-2.7634-1.5352-4.2986
	c-0.3071-1.5352-0.3071-3.3774-0.3071-4.9126L459.1762,159.7824z"/>
<path class="st3" d="M509.2229,152.7207l2.1491-4.9126c0.9212-2.1493,2.4563-3.9915,4.2985-5.2196
	c2.1492-1.5352,4.6055-2.1493,7.0617-2.1493c3.9915,0,7.6758,0.6141,11.3604,2.1493l-13.8165,23.0276l14.4307,22.4136
	c-1.8422,0.9211-3.9915,1.5352-6.1407,1.8422c-1.8422,0.3071-3.9915,0.6141-5.8337,0.6141c-2.4562,0-4.6055-0.307-6.7548-1.5352
	c-1.8422-1.2281-3.0703-2.7633-3.9915-4.2984l-3.3774-6.1407l-6.1407,11.0532h-19.6502l15.9658-23.6417l-15.0447-23.0276
	c0.9211-0.3071,1.8422-0.6141,2.7632-0.9211s2.1493-0.6141,3.3774-0.6141c1.2281-0.3071,2.1493-0.3071,3.3774-0.6141
	c1.2281,0,2.1493,0,2.7633,0c2.4562-0.3071,4.9126,0.6141,7.0618,2.1493c1.5352,1.5352,2.7634,3.0703,3.6844,4.9126
	L509.2229,152.7207z"/>
<path class="st4" d="M120.2091,91.3136c0.307,0,0.9211,0,1.2281,0c0.9212,0,2.1493,0,3.0703,0.307
	c0.6141,0.307,1.2281,0.6141,1.8422,0.9211c0.9211,0.6141,2.1493,1.2281,3.0703,1.8422c1.2281,0.6141,2.4563,1.5352,3.6844,2.1493
	c0.9211,0.6141,1.8422,0.9212,2.4563,1.5352c1.2281,0.6141,2.4563,1.2281,3.3774,1.8422c1.2281,0.6141,2.4563,1.2281,3.3774,2.1493
	c1.2281,0.6141,2.7633,1.5352,3.9915,2.1493c1.2281,0.6141,2.4563,1.5352,3.9915,2.1493c1.5352,0.9212,2.7634,1.5352,4.2986,2.4563
	c1.2281,0.9211,1.5352,2.4563,0.6141,3.6844c-0.6141,0.6141-1.2281,0.9212-1.8422,1.2281c-0.9212,0.307-1.8422,0.6141-3.0703,0.6141
	s-2.1493,0-3.3774-0.307c-0.9212-0.307-1.5352-0.6141-2.1493-0.9212c-0.9211-0.6141-1.8422-1.2281-3.0703-1.8422
	s-2.7634-1.5352-3.9915-2.1493s-2.1493-1.2281-3.3774-1.8422s-2.1493-1.2281-3.3774-2.1493
	c-1.2281-0.6141-2.1493-1.2281-3.3774-1.8422c-1.2281-0.6141-2.4563-1.2281-3.3774-2.1493
	c-1.2281-0.6141-2.4563-1.2281-3.3774-1.8422c-1.2281-0.6141-2.4563-1.2281-3.3774-2.1493c-0.307-0.307-0.9211-0.6141-1.2281-0.9212
	c-0.6141-0.9211-0.6141-2.1493,0-2.7633c0.6141-0.9212,1.8422-1.2281,2.7633-1.5352
	C119.288,91.3136,119.5951,91.3136,120.2091,91.3136L120.2091,91.3136z"/>
</svg>
