<?xml version="1.0" encoding="utf-8"?>
<!-- Generator: Adobe Illustrator 23.0.5, SVG Export Plug-In . SVG Version: 6.00 Build 0)  -->
<svg version="1.1" id="Layer_1" xmlns="http://www.w3.org/2000/svg" xmlns:xlink="http://www.w3.org/1999/xlink" x="0px" y="0px"
	 viewBox="0 0 110.3 111.5" style="enable-background:new 0 0 110.3 111.5;" xml:space="preserve">
<style type="text/css">
	.st0{fill:#50C9F5;}
	.st1{fill:#FFFFFF;}
</style>
<title>bloinx_01</title>
<path class="st0" d="M24.8,18.4h60.4c3.9,0,7.1,3.2,7.1,7.1V86c0,3.9-3.2,7.1-7.1,7.1H24.8c-3.9,0-7.1-3.2-7.1-7.1V25.5
	C17.7,21.6,20.9,18.4,24.8,18.4z"/>
<path class="st1" d="M40.6,42.8c0.6-0.3,1.2-0.6,1.9-0.8c1-0.3,2.1-0.4,3.2-0.4c1.2,0,2.5,0.2,3.6,0.5c1.2,0.4,2.3,1,3.3,1.9
	c1,1,1.9,2.3,2.3,3.7c0.7,1.9,1,3.9,0.9,5.9c0.1,2.3-0.2,4.6-0.8,6.8c-0.4,1.5-1.2,3-2.2,4.2c-0.8,1-1.9,1.7-3.1,2.2
	c-1.2,0.4-2.4,0.6-3.7,0.6c-0.9,0-1.9-0.1-2.8-0.3c-0.6-0.2-1.3-0.5-1.8-0.8c-0.4-0.2-0.8-0.5-1.1-0.9c-0.2-0.2-0.3-0.4-0.4-0.6
	c0,0.5-0.1,1-0.3,1.4c-0.3,0.4-0.8,0.6-1.3,0.6h-7.7V31.2c0.4,0,0.8,0,1.3-0.1c0.4-0.1,0.8-0.1,1.2-0.2c0.5,0,0.9,0,1.3,0
	c0.8,0,1.6,0.1,2.3,0.2c0.7,0.1,1.4,0.4,2,0.8c0.6,0.4,1.1,1,1.4,1.6c0.4,0.8,0.6,1.7,0.5,2.7L40.6,42.8z M45.3,53.5
	c0.1-1.3-0.2-2.6-0.7-3.8c-0.5-0.9-1.5-1.5-2.5-1.4c-0.3,0-0.7,0-1,0.1l-0.5,0.1v10.8c0.2,0.1,0.5,0.2,0.8,0.3
	c0.3,0,0.6,0.1,0.9,0.1c0.5,0,1-0.2,1.4-0.5c0.4-0.4,0.7-0.8,0.9-1.3c0.2-0.6,0.4-1.3,0.5-2C45.2,55.1,45.2,54.3,45.3,53.5z"/>
<path class="st1" d="M68.8,48.3l1.1-2.5c0.5-1.1,1.2-2,2.2-2.7c1.1-0.7,2.3-1.1,3.6-1c2,0,3.9,0.3,5.8,1l-6.9,11.4l7.1,11.4
	c-1,0.4-2,0.7-3,0.9c-1,0.2-2,0.3-3,0.3c-1.2,0.1-2.4-0.2-3.4-0.8c-0.9-0.5-1.6-1.3-2-2.2l-1.6-3.1l-3,5.6h-9.9l7.9-11.9L56,43.2
	c0.4-0.1,0.9-0.3,1.4-0.4c0.6-0.1,1.1-0.3,1.7-0.3c0.6-0.1,1.1-0.2,1.7-0.2c0.5-0.1,1-0.1,1.4-0.1c1.3-0.1,2.5,0.3,3.5,1.1
	c0.8,0.7,1.4,1.6,1.9,2.5L68.8,48.3z"/>
<path class="st1" d="M33.2,72.6c0.1,0.1,0.2,0.1,0.3,0.2c0,0.1,0.1,0.1,0.1,0.2c0,0.1,0,0.2-0.1,0.3c0,0.1-0.1,0.2-0.2,0.3h-0.2
	c-0.2-0.2-0.4-0.3-0.6-0.4c-0.3-0.1-0.5-0.2-0.8-0.2h-0.3c-0.1,0-0.2,0.1-0.3,0.1c-0.1,0.1-0.2,0.1-0.3,0.2
	c-0.1,0.1-0.1,0.2-0.1,0.4c0,0.2,0.1,0.4,0.3,0.5c0.3,0.1,0.6,0.2,0.8,0.3c0.2,0.1,0.5,0.1,0.7,0.2c0.2,0.1,0.4,0.2,0.6,0.3
	c0.2,0.1,0.3,0.3,0.4,0.5c0.1,0.2,0.2,0.5,0.2,0.7c0,0.3-0.1,0.5-0.2,0.8c-0.1,0.2-0.3,0.4-0.5,0.6c-0.2,0.2-0.4,0.3-0.7,0.3
	c-0.3,0.1-0.5,0.1-0.8,0.1c-0.3,0-0.5,0-0.8-0.1c-0.2,0-0.4-0.1-0.6-0.2c-0.2-0.1-0.3-0.1-0.4-0.2c-0.1-0.1-0.1-0.2-0.1-0.3
	c0-0.1,0-0.2,0.1-0.3c0.1-0.1,0.1-0.2,0.2-0.4l0.2,0.2c0.1,0.1,0.2,0.1,0.4,0.2c0.1,0.1,0.3,0.1,0.5,0.2c0.2,0,0.4,0.1,0.5,0.1
	c0.1,0,0.3,0,0.4,0c0.1,0,0.2-0.1,0.4-0.1c0.1-0.1,0.2-0.2,0.3-0.3c0.1-0.1,0.1-0.3,0.1-0.4c0-0.1,0-0.3-0.1-0.4
	c-0.1-0.1-0.2-0.2-0.3-0.3c-0.1-0.1-0.3-0.1-0.4-0.2l-0.4-0.1c-0.2,0-0.4-0.1-0.7-0.2c-0.2-0.1-0.4-0.2-0.6-0.3
	c-0.2-0.1-0.3-0.3-0.4-0.5c-0.1-0.2-0.2-0.5-0.1-0.7c0-0.2,0.1-0.5,0.2-0.7c0.1-0.2,0.3-0.4,0.5-0.5c0.2-0.1,0.4-0.2,0.6-0.3
	c0.2-0.1,0.5-0.1,0.8-0.1c0.3,0,0.6,0,0.8,0.1C32.8,72.5,33,72.5,33.2,72.6z"/>
<path class="st1" d="M37.9,72.3c0.3,0,0.6,0.1,0.9,0.2c0.3,0.1,0.5,0.3,0.7,0.6c0.2-0.2,0.5-0.4,0.7-0.5c0.3-0.2,0.7-0.2,1.1-0.2
	c0.4,0,0.9,0.1,1.2,0.4c0.3,0.2,0.5,0.5,0.5,0.9c0,0.2,0.1,0.4,0.1,0.5c0,0.2,0,0.4,0,0.6V78h-1v-3.3c0-0.2,0-0.3,0-0.4
	c0-0.1,0-0.3-0.1-0.4c0-0.2-0.2-0.4-0.3-0.5c-0.2-0.1-0.5-0.2-0.8-0.2c-0.3,0-0.5,0.1-0.7,0.2c-0.2,0.1-0.4,0.2-0.5,0.4
	c0,0.1,0,0.3,0,0.4s0,0.3,0,0.5V78h-1v-3.3c0-0.2,0-0.3,0-0.5c0-0.1,0-0.3-0.1-0.4c-0.1-0.4-0.5-0.6-1.1-0.6c-0.2,0-0.3,0-0.5,0.1
	c-0.2,0-0.3,0.1-0.4,0.2c-0.1,0.1-0.2,0.2-0.3,0.3c-0.1,0.1-0.1,0.2-0.1,0.3v4h-1v-5.6h0.2c0.2,0,0.4,0,0.5,0.2
	c0.1,0.1,0.2,0.3,0.2,0.5c0.2-0.2,0.5-0.4,0.7-0.5C37.2,72.4,37.5,72.3,37.9,72.3z"/>
<path class="st1" d="M49,76.7c0,0.1,0,0.3,0,0.4c0,0.1,0,0.2,0.1,0.2c0,0.1,0.1,0.1,0.2,0.1h0.3V78l-0.3,0.1H49
	c-0.2,0-0.4,0-0.7-0.2c-0.2-0.1-0.3-0.3-0.3-0.5c-0.2,0.2-0.4,0.4-0.7,0.5c-0.3,0.2-0.7,0.2-1.1,0.2c-0.2,0-0.4,0-0.6-0.1
	c-0.2,0-0.4-0.1-0.6-0.3c-0.2-0.1-0.3-0.3-0.4-0.5c-0.1-0.3-0.2-0.5-0.2-0.8c0-0.4,0.1-0.7,0.3-1c0.2-0.3,0.5-0.5,0.8-0.6
	c0.3-0.2,0.7-0.3,1-0.3c0.3-0.1,0.7-0.1,1-0.1H48v-0.2c0-0.3-0.1-0.6-0.3-0.8c-0.3-0.2-0.6-0.3-1-0.3c-0.3,0-0.6,0-0.9,0.1
	c-0.3,0.1-0.5,0.2-0.7,0.4H45c-0.1-0.1-0.1-0.2-0.2-0.3c0-0.1-0.1-0.2-0.1-0.3c0-0.1,0.1-0.2,0.2-0.3c0.2-0.1,0.3-0.2,0.5-0.2
	c0.2-0.1,0.4-0.1,0.7-0.2c0.2,0,0.5-0.1,0.7-0.1c0.3,0,0.7,0,1,0.1c0.2,0.1,0.5,0.2,0.7,0.4c0.2,0.2,0.3,0.4,0.3,0.7
	c0.1,0.3,0.1,0.6,0.1,0.9L49,76.7z M48,75.2h-0.3c-0.3,0-0.5,0-0.8,0c-0.2,0-0.5,0.1-0.7,0.2c-0.2,0.1-0.4,0.2-0.5,0.4
	c-0.1,0.2-0.2,0.4-0.2,0.6c0,0.2,0.1,0.5,0.2,0.6c0.2,0.2,0.5,0.3,0.8,0.3c0.2,0,0.4,0,0.6-0.1c0.2-0.1,0.3-0.1,0.5-0.2
	c0.1-0.1,0.2-0.2,0.3-0.3c0.1-0.1,0.1-0.2,0.1-0.3L48,75.2z"/>
<path class="st1" d="M51,72.4c0.2,0,0.3,0,0.5,0.1c0.2,0.1,0.3,0.3,0.3,0.5c0.1-0.2,0.3-0.3,0.5-0.5c0.2-0.1,0.5-0.2,0.8-0.2h0.3
	c0.1,0,0.2,0,0.3,0.1c0.1,0,0.2,0.1,0.2,0.2c0.1,0.1,0.1,0.2,0.1,0.3c0,0.1,0,0.3-0.1,0.4c-0.1,0.1-0.1,0.2-0.2,0.4
	c-0.1-0.1-0.2-0.2-0.3-0.2c-0.3-0.1-0.6-0.1-0.8,0c-0.1,0-0.2,0.1-0.3,0.2c-0.1,0.1-0.2,0.2-0.2,0.3c-0.1,0.1-0.1,0.2-0.1,0.3V78h-1
	v-5.6L51,72.4L51,72.4z"/>
<path class="st1" d="M55,77.3c-0.1-0.2-0.1-0.3-0.1-0.5c0-0.2,0-0.3,0-0.5v-5.6h0.2c0.2,0,0.4,0.1,0.6,0.2c0.2,0.1,0.3,0.4,0.2,0.6
	v0.9h1.8v0.9h-1.8v3.1c0,0.7,0.3,1,0.8,1c0.1,0,0.2,0,0.4-0.1c0.1,0,0.2-0.1,0.3-0.2l0.2-0.2l0.1-0.1c0.1,0.1,0.2,0.2,0.2,0.3
	c0.1,0.1,0.1,0.2,0.1,0.3c0,0.1,0,0.2-0.1,0.2c-0.1,0.1-0.2,0.2-0.3,0.2c-0.1,0.1-0.3,0.1-0.5,0.2c-0.2,0-0.4,0.1-0.6,0.1
	c-0.3,0-0.7-0.1-1-0.2C55.3,77.8,55.1,77.6,55,77.3z"/>
<path class="st1" d="M62.5,76.9c0,0.1,0,0.2,0,0.3c0,0.1,0,0.1,0.1,0.2c0,0.1,0.1,0.1,0.2,0.1c0.1,0,0.2,0,0.3,0V78l-0.3,0.1h-0.4
	c-0.2,0-0.4,0-0.5-0.1c-0.1-0.1-0.2-0.2-0.3-0.3c-0.1-0.1-0.1-0.3-0.1-0.4c0-0.2,0-0.3,0-0.4v-7.2h0.2c0.2,0,0.4,0.1,0.6,0.2
	c0.2,0.2,0.3,0.4,0.2,0.6L62.5,76.9z"/>
<path class="st1" d="M68.6,76.7c0,0.1,0,0.3,0,0.4c0,0.1,0,0.2,0.1,0.2c0,0.1,0.1,0.1,0.2,0.1h0.3V78l-0.3,0.1h-0.3
	c-0.2,0-0.4,0-0.7-0.2c-0.2-0.1-0.3-0.3-0.3-0.5c-0.2,0.2-0.4,0.4-0.7,0.5c-0.3,0.2-0.7,0.2-1.1,0.2c-0.2,0-0.4,0-0.6-0.1
	c-0.2,0-0.4-0.1-0.6-0.3c-0.2-0.1-0.3-0.3-0.4-0.5C64,77,64,76.7,64,76.4c0-0.4,0.1-0.7,0.3-1c0.2-0.3,0.5-0.5,0.8-0.6
	c0.3-0.2,0.7-0.3,1-0.3c0.3-0.1,0.7-0.1,1-0.1h0.5v-0.2c0-0.3-0.1-0.6-0.3-0.8c-0.3-0.2-0.6-0.3-1-0.3c-0.3,0-0.6,0-0.9,0.1
	c-0.3,0.1-0.5,0.2-0.7,0.4h-0.1c-0.1-0.1-0.1-0.2-0.2-0.3c0-0.1-0.1-0.2-0.1-0.3c0-0.1,0.1-0.2,0.2-0.3c0.2-0.1,0.3-0.2,0.5-0.2
	c0.2-0.1,0.4-0.1,0.7-0.2c0.2,0,0.5-0.1,0.7-0.1c0.3,0,0.7,0,1,0.1c0.2,0.1,0.5,0.2,0.7,0.4c0.2,0.2,0.3,0.4,0.3,0.7
	c0.1,0.3,0.1,0.6,0.1,0.9L68.6,76.7z M67.6,75.2h-0.3c-0.3,0-0.5,0-0.8,0c-0.2,0-0.5,0.1-0.7,0.2c-0.2,0.1-0.4,0.2-0.5,0.4
	c-0.1,0.2-0.2,0.4-0.2,0.6c0,0.2,0.1,0.5,0.2,0.6c0.2,0.2,0.5,0.3,0.8,0.3c0.2,0,0.4,0,0.6-0.1c0.2-0.1,0.3-0.1,0.5-0.2
	c0.1-0.1,0.2-0.2,0.3-0.3c0.1-0.1,0.1-0.2,0.1-0.3L67.6,75.2z"/>
<path class="st1" d="M71.4,72.9c0.2-0.2,0.4-0.3,0.6-0.4c0.3-0.1,0.7-0.2,1-0.2c0.3,0,0.6,0,0.9,0.2c0.3,0.1,0.5,0.3,0.7,0.5
	c0.2,0.3,0.4,0.6,0.5,0.9c0.1,0.4,0.2,0.9,0.2,1.3c0,0.5-0.1,1-0.2,1.5c-0.1,0.3-0.3,0.7-0.6,0.9c-0.2,0.2-0.5,0.4-0.8,0.5
	c-0.3,0.1-0.5,0.1-0.8,0.1c-0.2,0-0.4,0-0.6-0.1c-0.2,0-0.3-0.1-0.4-0.2c-0.1-0.1-0.2-0.1-0.3-0.2c-0.1-0.1-0.1-0.1-0.2-0.2V78h-1
	v-8.4h0.2c0.2,0,0.4,0.1,0.6,0.2c0.2,0.2,0.3,0.4,0.2,0.6L71.4,72.9z M74.2,75.2c0-0.3,0-0.5-0.1-0.8c0-0.2-0.1-0.4-0.3-0.7
	c-0.1-0.2-0.3-0.3-0.5-0.4c-0.2-0.1-0.5-0.2-0.7-0.2c-0.3,0-0.7,0.1-0.9,0.3c-0.2,0.1-0.4,0.3-0.4,0.6v2.7c0.1,0.1,0.1,0.1,0.2,0.2
	c0.1,0.1,0.2,0.2,0.3,0.2c0.1,0.1,0.3,0.1,0.4,0.2c0.2,0,0.3,0.1,0.5,0.1c0.4,0,0.9-0.2,1.1-0.5C74.1,76.3,74.2,75.8,74.2,75.2z"/>
<path class="st1" d="M79.8,72.6c0.1,0.1,0.2,0.1,0.3,0.2c0,0.1,0.1,0.1,0.1,0.2c0,0.1,0,0.2-0.1,0.3c0,0.1-0.1,0.2-0.2,0.3h-0.2
	c-0.2-0.2-0.4-0.3-0.6-0.4c-0.3-0.1-0.5-0.2-0.8-0.2h-0.3c-0.1,0-0.2,0.1-0.3,0.1c-0.1,0.1-0.2,0.1-0.3,0.2
	c-0.1,0.1-0.1,0.2-0.1,0.4c0,0.2,0.1,0.4,0.3,0.5c0.3,0.1,0.6,0.2,0.8,0.3c0.2,0.1,0.5,0.1,0.7,0.2c0.2,0.1,0.4,0.2,0.6,0.3
	c0.2,0.1,0.3,0.3,0.4,0.5c0.1,0.2,0.2,0.5,0.2,0.7c0,0.3-0.1,0.5-0.2,0.8c-0.1,0.2-0.3,0.4-0.5,0.6c-0.2,0.2-0.4,0.3-0.7,0.3
	c-0.3,0.1-0.5,0.1-0.8,0.1c-0.3,0-0.5,0-0.8-0.1c-0.2,0-0.4-0.1-0.6-0.2c-0.2-0.1-0.3-0.1-0.4-0.2c-0.1-0.1-0.1-0.2-0.1-0.3
	c0-0.1,0-0.2,0.1-0.3c0.1-0.1,0.1-0.2,0.2-0.4l0.2,0.2c0.1,0.1,0.2,0.1,0.3,0.2c0.1,0.1,0.3,0.1,0.4,0.2c0.2,0,0.4,0.1,0.5,0.1
	c0.1,0,0.3,0,0.4,0c0.1,0,0.2-0.1,0.4-0.1c0.1-0.1,0.2-0.2,0.3-0.3c0.1-0.1,0.1-0.3,0.1-0.4c0-0.1,0-0.3-0.1-0.4
	c-0.1-0.1-0.2-0.2-0.3-0.3c-0.1-0.1-0.3-0.1-0.4-0.2l-0.4-0.1c-0.2,0-0.4-0.1-0.7-0.2c-0.2-0.1-0.4-0.2-0.6-0.3
	c-0.2-0.1-0.3-0.3-0.4-0.5c-0.1-0.2-0.2-0.5-0.2-0.7c0-0.2,0.1-0.5,0.2-0.7c0.1-0.2,0.3-0.4,0.4-0.5c0.2-0.1,0.4-0.2,0.7-0.3
	c0.2-0.1,0.5-0.1,0.8-0.1c0.3,0,0.6,0,0.8,0.1C79.4,72.5,79.6,72.5,79.8,72.6z"/>
</svg>
