<svg width="38.6px" height="38.6px" viewBox="-6.7 0 38.6 38.6" xmlns="http://www.w3.org/2000/svg">
  <path id="Balloon_2" d="M676.7,194.8c-.1-7.3-5.7-13.1-12.5-13.1-6.9,0-12.5,6-12.5,13.4.2,2.5,1.3,7.5,5.8,13.4a24.667,24.667,0,0,1,2.1,3.1l1.1,2.8c-.1.1-.2.1-.3.2a.778.778,0,0,0-.2.8l.5,4a1.063,1.063,0,0,0,1,.9h5.2a1.063,1.063,0,0,0,1-.9l.5-4a1.883,1.883,0,0,0-.2-.8c-.1-.1-.2-.2-.3-.2l1-2.7a22.2,22.2,0,0,1,2.1-3.2c4.4-5.7,5.5-10.6,5.8-13.1,0-.1.1-.2.1-.4C676.7,194.9,676.7,194.9,676.7,194.8Zm-11.1,19.5h-2.8l-.7-1.9c.1,0,.2-.1.3-.1a2.735,2.735,0,0,0,1.8,0,2.877,2.877,0,0,0,1.6,0,.9.9,0,0,0,.5.1Zm3.9-6.3c-.4.8-.8,1.7-1.2,2.4a.908.908,0,0,0-1,0,1.028,1.028,0,0,1-1,0c-.1,0-.1-.1-.2-.1.4-.9,1.2-2.6,1.5-3.2,3.2-7.4,3.9-13.6,1.9-18.1a9.589,9.589,0,0,0-4.5-5.1v26.6c-.2.1-.5-.1-.5-.1a.908.908,0,0,0-1,0,.749.749,0,0,1-.5.1V183.9a10.383,10.383,0,0,0-4.5,5.2c-1.9,4.6-1.2,10.7,2,18.1,0,0,.9,1.8,1.4,3.1h-.1a1.993,1.993,0,0,1-.8.2.91.91,0,0,0-1.2-.1h0c-.5-1.1-1.1-2.4-1.1-2.4-3.5-8.1-4.1-14.7-2-19.8a11.749,11.749,0,0,1,5.9-6.4.972.972,0,0,1,.9.1.764.764,0,0,1,.5-.2c.2,0,.3.1.5.2a1.412,1.412,0,0,1,.9-.1,11.841,11.841,0,0,1,5.9,6.4C673.6,193.3,672.9,200,669.5,208Z" transform="translate(-651.7 -181.7)"/>
</svg>
