<svg xmlns="http://www.w3.org/2000/svg" width="49.985" height="42.094" viewBox="0 0 49.985 42.094">
  <path id="icons8-receive_cash" d="M32,5a6.022,6.022,0,0,0-5.906,5,8.047,8.047,0,0,1,5.219,2V10.313H30.094l1.5-1.5h1.219v4.5H32.5A10.3,10.3,0,0,1,34,16.688,5.929,5.929,0,0,0,38.094,11,6.165,6.165,0,0,0,32,5Zm-6,6a7,7,0,1,0,7,7A6.959,6.959,0,0,0,26,11Zm-.5,4.313h1.406v5.375H25.094V17.094H23.688ZM13.406,25C10.906,25,8.7,25.895.5,29.594A1.007,1.007,0,0,0,0,30.906L5.313,42.688a1.225,1.225,0,0,0,.594.625,1,1,0,0,0,.781-.125l2.719-1.781c1.2-.8,1.68-.895,3.281-.094l2.125,1.094c2.5,1.3,5.875,3.094,6.875,3.594a8.932,8.932,0,0,0,4,1.094,7.582,7.582,0,0,0,4.5-1.594c1.2-.8,15.824-10.289,17.125-11.187,1.6-1.1,2.594-2.406,2.594-3.406.1-2.8-2.6-3.5-5-2L34.188,36.094A7.359,7.359,0,0,1,30,37H24a27.385,27.385,0,0,1-6.094-1,.446.446,0,0,1-.312-.594.418.418,0,0,1,.594-.312h.125a26.033,26.033,0,0,0,6,1H30a3,3,0,0,0,1.813-.5,2.785,2.785,0,0,0,.875-1c0-.1.125-.086.125-.187v-.094a2.229,2.229,0,0,0,.094-.812c0-1.2-1-2.4-3-2.5a30.166,30.166,0,0,1-5.594-1,13.845,13.845,0,0,1-2.125-.812,6.8,6.8,0,0,1-1-.875C19.988,27.012,18.207,25,13.406,25Zm21.688,0a5.86,5.86,0,0,0-3.281,1.094c-.7.4-3.7,2.3-5.5,3.406A17.881,17.881,0,0,0,30,30a5.383,5.383,0,0,1,1.906.406L38.406,26A6.726,6.726,0,0,0,35.094,25Zm6.594,1.094a7.317,7.317,0,0,0-3.875,1.5l-5,3.406A3.3,3.3,0,0,1,34,33.5a3.558,3.558,0,0,1-.594,1.906l.094-.094.094-.125,11-7.281C44.293,26.605,42.688,26.094,41.688,26.094Z" transform="translate(0.076 -5)" fill="#f7f8fd"/>
</svg>
