<svg width="24" height="24" viewBox="0 0 24 24" fill="none" xmlns="http://www.w3.org/2000/svg">
<path fill-rule="evenodd" clip-rule="evenodd" d="M20.0272 18.8172C18.8201 16.8956 16.9729 15.4946 14.8546 14.821C15.9611 13.9623 16.6857 12.6356 16.6857 11.1311C16.6857 8.54769 14.5849 6.44539 12 6.44539C9.4166 6.44539 7.3143 8.54769 7.3143 11.1311C7.3143 12.6356 8.03888 13.9638 9.14543 14.821C7.02709 15.4946 5.17993 16.8956 3.97279 18.8172C2.40846 16.9773 1.4579 14.5994 1.4579 12.0015C1.4579 6.18734 6.18734 1.4579 12 1.4579C17.8127 1.4579 22.5421 6.18734 22.5421 12.0015C22.5421 14.5994 21.5915 16.9773 20.0272 18.8172ZM8.7722 11.1311C8.7722 9.35099 10.2199 7.90329 12 7.90329C13.7801 7.90329 15.2278 9.35099 15.2278 11.1311C15.2278 12.9112 13.7801 14.3589 12 14.3589C10.2199 14.3589 8.7722 12.9112 8.7722 11.1311ZM12 22.5421C9.31163 22.5421 6.86381 21.523 5.00061 19.861C5.0181 19.8377 5.04726 19.826 5.0633 19.7983C6.50079 17.3432 9.15709 15.8168 12 15.8168C14.8415 15.8168 17.4992 17.3432 18.9352 19.7969C18.9513 19.8246 18.9761 19.8406 18.995 19.8654C17.1318 21.5245 14.6855 22.5421 12 22.5421ZM12 0C5.38404 0 0 5.38404 0 12.0015C0 18.6174 5.38404 24 12 24C18.616 24 24 18.6174 24 12.0015C24 5.38404 18.616 0 12 0Z" />
</svg>
