<svg width="350" height="200" viewBox="0 0 350 200" fill="none" xmlns="http://www.w3.org/2000/svg">
<path d="M119.884 159.864C121.492 155.015 121.725 150.611 120.404 150.03C119.083 149.448 116.709 152.907 115.1 157.757C113.492 162.607 113.259 167.01 114.58 167.592C115.901 168.174 118.276 164.714 119.884 159.864Z" fill="#2F2E41"/>
<path d="M118.516 176.021C119.959 165.771 113.92 156.113 105.026 154.45C96.1329 152.787 87.7536 159.748 86.3104 169.997C84.8672 180.247 90.9067 189.904 99.8 191.568C108.693 193.231 117.073 186.27 118.516 176.021Z" fill="#2F2E41"/>
<path d="M99.9352 187.764H94.9792V197.998H99.9352V187.764Z" fill="#2F2E41"/>
<path d="M109.847 187.764H104.891V197.998H109.847V187.764Z" fill="#2F2E41"/>
<path d="M99.1092 199.902C101.39 199.902 103.239 199.103 103.239 198.117C103.239 197.131 101.39 196.332 99.1092 196.332C96.8283 196.332 94.9792 197.131 94.9792 198.117C94.9792 199.103 96.8283 199.902 99.1092 199.902Z" fill="#2F2E41"/>
<path d="M109.021 199.664C111.302 199.664 113.151 198.865 113.151 197.879C113.151 196.893 111.302 196.094 109.021 196.094C106.74 196.094 104.891 196.893 104.891 197.879C104.891 198.865 106.74 199.664 109.021 199.664Z" fill="#2F2E41"/>
<path d="M102.99 174.672C106.068 174.568 108.49 171.607 108.399 168.06C108.309 164.513 105.74 161.722 102.662 161.826C99.5845 161.93 97.1627 164.89 97.2531 168.438C97.3436 171.985 99.912 174.776 102.99 174.672Z" fill="white"/>
<path d="M102.827 170.391C103.853 170.391 104.685 169.432 104.685 168.249C104.685 167.066 103.853 166.107 102.827 166.107C101.8 166.107 100.968 167.066 100.968 168.249C100.968 169.432 101.8 170.391 102.827 170.391Z" fill="#3F3D56"/>
<path d="M86.5888 155.524C85.2716 148.725 89.4823 141.855 95.9936 140.179C102.505 138.504 108.851 142.657 110.168 149.456C111.486 156.255 107.17 158.762 100.659 160.438C94.1477 162.114 87.906 162.323 86.5888 155.524Z" fill="#888888"/>
<path d="M91.4087 168.313C92.0147 166.84 89.2064 163.843 85.1362 161.618C81.066 159.393 77.2751 158.783 76.6691 160.256C76.0631 161.729 78.8714 164.726 82.9416 166.951C87.0118 169.176 90.8027 169.786 91.4087 168.313Z" fill="#2F2E41"/>
<path d="M94.4004 179.791C94.4004 181.631 98.5115 185.265 103.073 185.265C107.635 185.265 111.912 180.084 111.912 178.244C111.912 176.404 107.635 178.601 103.073 178.601C98.5115 178.601 94.4004 177.951 94.4004 179.791Z" fill="white"/>
<path d="M217.144 121.915L199.424 142.071L159.379 187.613L158.568 188.534L154.053 193.668L144.587 182.889L143.754 181.942L126.447 162.24H126.443L120.898 155.923L117.621 152.19L107.864 141.084L106.546 139.583L90.9926 121.876C87.9027 118.316 85.2837 114.252 83.2198 109.814C83.0304 109.416 82.8523 109.015 82.6781 108.613C78.9897 100.138 77.4116 90.6503 78.1189 81.2039C78.8262 71.7575 81.7913 62.7218 86.6849 55.1001C91.5785 47.4784 98.2092 41.5689 105.841 38.0277C113.472 34.4866 121.806 33.4524 129.917 35.0399H129.921C130.064 35.0661 130.205 35.0923 130.349 35.1272C131.87 35.4366 133.376 35.8403 134.86 36.3365C138.743 37.63 142.454 39.5292 145.89 41.9812C146.25 42.2387 146.606 42.5007 146.958 42.767C149.477 44.6853 151.821 46.8924 153.955 49.3546L154.087 49.2018L154.22 49.3546C155.512 47.8656 156.882 46.469 158.322 45.1724C158.636 44.8886 158.955 44.6092 159.273 44.3386C164.144 40.1989 169.697 37.2483 175.592 35.6675C181.487 34.0866 187.6 33.9087 193.557 35.1446C195.08 35.454 196.587 35.8591 198.072 36.3583C198.568 36.5198 199.061 36.6945 199.549 36.8822C199.943 37.0306 200.337 37.1834 200.727 37.3493C203.976 38.6876 207.076 40.4605 209.966 42.6316C210.599 43.1075 211.222 43.6051 211.837 44.1247C217.042 48.4854 221.365 54.0946 224.509 60.5659C227.652 67.0372 229.541 74.2169 230.045 81.6104C230.549 89.0039 229.657 96.4356 227.43 103.394C225.203 110.352 221.694 116.67 217.144 121.915V121.915Z" fill="#CECECE"/>
<path opacity="0.15" d="M199.424 142.071L159.379 187.613L158.568 188.534L154.053 193.668L144.587 182.89L143.754 181.942L126.447 162.24C129.227 161.494 133.5 162.52 135.064 163.41C138.773 165.519 141.822 168.981 145.587 170.954C148.95 172.704 152.706 173.182 156.318 172.321C163.068 170.688 168.292 164.672 172.898 158.752C177.504 152.828 182.212 146.472 188.686 143.726C192.099 142.277 195.765 141.949 199.424 142.071Z" fill="black"/>
<path d="M228.538 50.1972C223.028 43.8283 216.168 39.2306 208.64 36.8603C208.14 36.6988 207.644 36.5547 207.14 36.4194C204.974 35.8229 202.772 35.4158 200.553 35.2014C200.167 35.1577 199.78 35.1272 199.39 35.1054C197.444 34.9635 195.491 34.9722 193.545 35.1315C182.889 35.9534 172.836 41.1316 165.197 49.7344L165.061 49.5773L164.924 49.7344C159.933 44.1215 153.877 39.9246 147.235 37.4759C146.86 37.3362 146.481 37.2008 146.102 37.0742C140.987 35.3643 135.65 34.7067 130.337 35.1315C130.189 35.1403 130.042 35.1534 129.898 35.1708C120.155 36.0317 110.924 40.5388 103.61 48.0057C102.92 48.7042 102.242 49.4376 101.583 50.1972C95.3914 57.3468 91.1398 66.4197 89.3478 76.308C87.5558 86.1963 88.301 96.4721 91.4924 105.88C91.625 106.291 91.7689 106.697 91.9204 107.103C94.1746 113.298 97.4571 118.926 101.583 123.67L116.326 140.443L117.485 141.766L149.386 178.057L150.208 178.995L158.587 188.53L165.06 195.895L228.538 123.666C236.979 113.916 241.72 100.705 241.72 86.9315C241.72 73.1581 236.979 59.9471 228.538 50.1972ZM227.739 122.736L165.061 194.052L159.398 187.609L151.197 178.279L150.375 177.345L119.095 141.752L117.955 140.456L102.386 122.74C98.3898 118.146 95.2047 112.702 93.0076 106.71C92.8561 106.304 92.712 105.898 92.5796 105.492C89.4482 96.3123 88.708 86.2793 90.4499 76.6222C92.1918 66.9652 96.34 58.1034 102.386 51.1227C103.091 50.3107 103.812 49.5336 104.549 48.7915H104.553C111.59 41.6945 120.416 37.3856 129.735 36.498C130.973 36.3757 132.213 36.3146 133.454 36.3146C133.92 36.3146 134.383 36.3233 134.848 36.3408C138.655 36.4759 142.43 37.1803 146.08 38.4363C146.455 38.5629 146.83 38.6982 147.201 38.8423C151.148 40.3252 154.89 42.4557 158.311 45.168C160.537 46.9278 162.618 48.9212 164.527 51.1227L164.928 51.5855L165.061 51.4327L165.193 51.5855L165.595 51.1227C169.839 46.2263 174.91 42.3875 180.495 39.8447C186.08 37.3018 192.059 36.1092 198.061 36.3408C198.542 36.3583 199.023 36.3845 199.504 36.4238C199.89 36.4499 200.277 36.4805 200.659 36.5242C203.101 36.7765 205.52 37.2658 207.89 37.9866C208.398 38.1351 208.902 38.2966 209.401 38.4756C216.669 41.0085 223.243 45.6693 228.481 52.0033C233.72 58.3373 237.444 66.1282 239.291 74.6158C241.139 83.1034 241.045 91.9979 239.02 100.432C236.996 108.865 233.109 116.55 227.739 122.736V122.736Z" fill="#3F3D56"/>
<path opacity="0.15" d="M139.727 38.3184C137.295 40.5317 134.685 42.5748 133.106 45.6002C131.943 47.8354 131.439 50.4329 131.064 52.9999C130.337 57.9941 130.026 63.1106 128.602 67.8996C127.181 72.6886 124.409 77.2638 120.299 79.0493C117.75 80.1538 114.939 80.0927 112.223 79.8788C105.522 79.3549 98.7763 77.971 92.746 74.5702C89.3748 72.6668 86.1057 70.0998 82.3596 69.8161C81.5973 69.7596 80.8318 69.8079 80.0793 69.9601C83.348 58.2005 90.1878 48.1946 99.3429 41.7798C108.498 35.365 119.354 32.9718 129.916 35.0398H129.92C130.064 35.066 130.204 35.0922 130.348 35.1271C131.87 35.4366 133.376 35.8403 134.86 36.3364C136.514 36.888 138.139 37.5497 139.727 38.3184Z" fill="black"/>
<path d="M32.865 176.734C34.6293 177.449 36.5235 177.628 38.3653 177.254C40.2071 176.88 41.9342 175.966 43.3804 174.599C47.0635 171.037 48.2183 165.167 49.1579 159.732L51.937 143.656L46.1186 148.273C41.9344 151.594 37.6559 155.021 34.7588 159.83C31.8616 164.64 30.597 171.206 32.9248 176.41L32.865 176.734Z" fill="#E6E6E6"/>
<path d="M33.3626 196.197C32.7737 191.253 32.1682 186.246 32.5813 181.249C32.9481 176.811 34.1228 172.477 36.5144 168.923C37.7838 167.04 39.3285 165.427 41.0789 164.156C41.5353 163.824 41.9554 164.658 41.501 164.988C38.4722 167.194 36.1296 170.452 34.8109 174.292C33.3543 178.561 33.1204 183.216 33.3714 187.751C33.5232 190.494 33.8449 193.219 34.1691 195.94C34.1946 196.064 34.1787 196.193 34.1245 196.303C34.0703 196.413 33.9818 196.495 33.877 196.533C33.7701 196.566 33.6561 196.55 33.5598 196.487C33.4635 196.424 33.3927 196.32 33.3626 196.197H33.3626Z" fill="#F2F2F2"/>
<path d="M39.0347 187.449C39.7913 188.774 40.8314 189.852 42.0548 190.58C43.2781 191.308 44.6434 191.66 46.0191 191.603C49.5548 191.41 52.5024 188.566 55.1558 185.866L63.0041 177.879L57.8098 177.593C54.0745 177.387 50.2427 177.195 46.6849 178.522C43.127 179.85 39.8458 183.045 39.1952 187.289L39.0347 187.449Z" fill="#E6E6E6"/>
<path d="M31.6984 199.039C34.5328 193.259 37.8205 186.835 43.6951 184.781C45.3285 184.212 47.0413 184.008 48.7411 184.181C49.2768 184.234 49.1431 185.186 48.6083 185.133C45.759 184.86 42.9152 185.727 40.5556 187.588C38.2851 189.369 36.5172 191.846 35.0209 194.472C34.1044 196.08 33.2834 197.757 32.4623 199.431C32.1999 199.967 31.4329 199.58 31.6984 199.039H31.6984Z" fill="#F2F2F2"/>
<path d="M113.671 52.002C122.68 52.002 129.984 43.5843 129.984 33.2005C129.984 22.8168 122.68 14.3991 113.671 14.3991C104.661 14.3991 97.3574 22.8168 97.3574 33.2005C97.3574 43.5843 104.661 52.002 113.671 52.002Z" fill="#2F2E41"/>
<path d="M111.193 47.9562H106.237V58.19H111.193V47.9562Z" fill="#2F2E41"/>
<path d="M121.105 47.9562H116.149V58.19H121.105V47.9562Z" fill="#2F2E41"/>
<path d="M110.367 60.0938C112.648 60.0938 114.497 59.2947 114.497 58.3089C114.497 57.3231 112.648 56.5239 110.367 56.5239C108.086 56.5239 106.237 57.3231 106.237 58.3089C106.237 59.2947 108.086 60.0938 110.367 60.0938Z" fill="#2F2E41"/>
<path d="M120.279 59.8559C122.56 59.8559 124.409 59.0567 124.409 58.0709C124.409 57.0851 122.56 56.2859 120.279 56.2859C117.998 56.2859 116.149 57.0851 116.149 58.0709C116.149 59.0567 117.998 59.8559 120.279 59.8559Z" fill="#2F2E41"/>
<path d="M114.084 34.8666C117.163 34.8666 119.659 31.9896 119.659 28.4408C119.659 24.8919 117.163 22.0149 114.084 22.0149C111.004 22.0149 108.508 24.8919 108.508 28.4408C108.508 31.9896 111.004 34.8666 114.084 34.8666Z" fill="white"/>
<path d="M117.295 31.2697C118.018 30.4369 118.014 29.0816 117.286 28.2425C116.559 27.4034 115.383 27.3983 114.66 28.2311C113.937 29.0639 113.941 30.4193 114.668 31.2584C115.396 32.0974 116.572 32.1025 117.295 31.2697Z" fill="#3F3D56"/>
<path d="M97.8462 15.7159C96.5289 8.91702 100.74 2.04703 107.251 0.37135C113.762 -1.30433 120.109 2.84888 121.426 9.64777C122.743 16.4467 118.428 18.9542 111.916 20.6299C105.405 22.3055 99.1634 22.5148 97.8462 15.7159Z" fill="#888888"/>
<path d="M244.852 161.304C245.943 160.267 244.504 156.18 241.638 152.174C238.772 148.169 235.564 145.762 234.473 146.799C233.382 147.836 234.821 151.924 237.687 155.929C240.553 159.935 243.761 162.341 244.852 161.304Z" fill="#2F2E41"/>
<path d="M256.477 191.376C265.371 189.712 271.41 180.055 269.967 169.805C268.524 159.556 260.144 152.595 251.251 154.258C242.358 155.922 236.318 165.579 237.762 175.829C239.205 186.078 247.584 193.039 256.477 191.376Z" fill="#2F2E41"/>
<path d="M261.298 187.572H256.342V197.806H261.298V187.572Z" fill="#2F2E41"/>
<path d="M251.386 187.572H246.43V197.806H251.386V187.572Z" fill="#2F2E41"/>
<path d="M257.168 199.71C259.449 199.71 261.298 198.911 261.298 197.925C261.298 196.939 259.449 196.14 257.168 196.14C254.887 196.14 253.038 196.939 253.038 197.925C253.038 198.911 254.887 199.71 257.168 199.71Z" fill="#2F2E41"/>
<path d="M247.256 199.472C249.537 199.472 251.386 198.673 251.386 197.687C251.386 196.701 249.537 195.902 247.256 195.902C244.975 195.902 243.126 196.701 243.126 197.687C243.126 198.673 244.975 199.472 247.256 199.472Z" fill="#2F2E41"/>
<path d="M259.576 162.786C254.433 157.888 251.574 153.397 255.424 148.026C259.275 142.656 266.565 142.274 271.708 147.171C276.851 152.069 277.899 160.393 274.049 165.763C270.199 171.134 264.719 167.684 259.576 162.786Z" fill="#888888"/>
<path d="M248.388 169.484C251.466 169.38 253.887 166.419 253.797 162.872C253.706 159.325 251.138 156.534 248.06 156.638C244.982 156.742 242.56 159.702 242.651 163.25C242.741 166.797 245.31 169.588 248.388 169.484Z" fill="white"/>
<path d="M246.264 163.611C247.291 163.611 248.123 162.652 248.123 161.469C248.123 160.286 247.291 159.327 246.264 159.327C245.238 159.327 244.406 160.286 244.406 161.469C244.406 162.652 245.238 163.611 246.264 163.611Z" fill="#3F3D56"/>
<path d="M239.797 168.353C238.668 169.654 237.869 173.873 239.458 175.704C241.046 177.534 245.713 175.587 246.842 174.285C247.971 172.984 245.134 172.822 243.546 170.992C241.958 169.161 240.926 167.052 239.797 168.353Z" fill="white"/>
<path d="M269.349 197.959C270.67 197.377 270.437 192.974 268.829 188.125C267.221 183.275 264.846 179.815 263.525 180.397C262.204 180.979 262.437 185.382 264.045 190.232C265.654 195.082 268.028 198.541 269.349 197.959Z" fill="#2F2E41"/>
<path d="M349.621 200H0.378788C0.278327 200 0.181981 199.954 0.110944 199.872C0.0399076 199.79 0 199.679 0 199.563C0 199.448 0.0399076 199.337 0.110944 199.255C0.181981 199.173 0.278327 199.127 0.378788 199.127H349.621C349.722 199.127 349.818 199.173 349.889 199.255C349.96 199.337 350 199.448 350 199.563C350 199.679 349.96 199.79 349.889 199.872C349.818 199.954 349.722 200 349.621 200Z" fill="#CCCCCC"/>
</svg>
