<svg width="280" height="260" viewBox="0 0 280 260" fill="none" xmlns="http://www.w3.org/2000/svg">
<path opacity="0.1" d="M106.326 10.9389C114.851 1.35096 128.231 -0.614558 140.413 0.148786C178.67 2.55314 213.203 25.8886 243.075 52.2885C253.891 61.8432 264.537 72.1428 271.556 85.3041C285.856 112.095 281.607 149.207 261.738 171.278C254.977 178.786 246.782 184.554 238.368 189.646C223.408 198.718 207.267 206.001 190.288 208.085C178.182 209.56 165.925 208.361 153.887 206.3C120.258 200.525 87.2544 187.78 59.5794 165.979C47.4448 156.417 36.0076 144.528 31.0055 129.065C26.0034 113.603 29.2049 93.9848 41.5963 84.8136C46.721 81.0264 52.8496 79.3153 58.8469 77.7075C67.6779 75.3437 76.649 73.0131 84.6162 68.2081C92.8489 63.2445 102.593 53.6456 100.959 42.6564C99.2197 30.8817 97.8131 20.5268 106.326 10.9389Z" fill="#333333"/>
<path d="M198.005 255.538C198.005 255.538 206.898 239.167 220.288 234.45C225.917 232.508 230.789 228.722 234.171 223.659C235.759 221.242 237.13 218.679 238.266 216.002" stroke="#CECECE" stroke-width="2" stroke-miterlimit="10"/>
<path d="M246.691 212.975C245.165 214.516 238.057 216.106 238.057 216.106C238.057 216.106 239.799 208.77 241.325 207.232C242.058 206.493 243.043 206.086 244.065 206.102C245.086 206.117 246.059 206.554 246.771 207.315C247.482 208.077 247.874 209.101 247.859 210.162C247.844 211.223 247.424 212.235 246.691 212.975V212.975Z" fill="#333333"/>
<path d="M242.67 226.248C240.584 226.679 233.798 224.002 233.798 224.002C233.798 224.002 239.1 218.839 241.183 218.396C242.185 218.189 243.225 218.404 244.074 218.994C244.924 219.584 245.513 220.501 245.712 221.542C245.911 222.583 245.704 223.664 245.136 224.546C244.568 225.429 243.686 226.041 242.685 226.248H242.67Z" fill="#333333"/>
<path d="M228.032 240.609C226.019 239.871 221.452 234.007 221.452 234.007C221.452 234.007 228.55 232.325 230.551 233.048C231.039 233.212 231.491 233.474 231.88 233.822C232.269 234.169 232.588 234.593 232.817 235.07C233.046 235.547 233.181 236.066 233.214 236.598C233.247 237.13 233.178 237.663 233.01 238.167C232.842 238.671 232.579 239.134 232.237 239.531C231.894 239.927 231.479 240.249 231.015 240.476C230.551 240.704 230.048 240.832 229.536 240.855C229.024 240.878 228.512 240.794 228.032 240.609V240.609Z" fill="#333333"/>
<path d="M214.599 248.884C212.502 248.516 207.044 243.533 207.044 243.533C207.044 243.533 213.755 240.627 215.852 240.989C216.355 241.07 216.837 241.253 217.271 241.529C217.705 241.805 218.082 242.168 218.38 242.596C218.678 243.024 218.892 243.509 219.009 244.024C219.125 244.538 219.143 245.072 219.06 245.593C218.977 246.115 218.796 246.614 218.527 247.063C218.257 247.511 217.905 247.899 217.49 248.205C217.075 248.511 216.606 248.729 216.11 248.846C215.614 248.962 215.1 248.975 214.599 248.884V248.884Z" fill="#333333"/>
<path d="M227.858 218.271C227.858 220.483 231.705 226.889 231.705 226.889C231.705 226.889 235.559 220.483 235.559 218.274C235.559 217.213 235.153 216.195 234.431 215.445C233.709 214.694 232.729 214.273 231.708 214.273C230.687 214.273 229.708 214.694 228.985 215.445C228.263 216.195 227.858 217.213 227.858 218.274V218.271Z" fill="#333333"/>
<path d="M212.268 228.154C212.907 230.264 218.421 235.184 218.421 235.184C218.421 235.184 220.253 227.87 219.617 225.761C219.312 224.748 218.632 223.903 217.727 223.411C216.822 222.919 215.766 222.821 214.791 223.139C213.816 223.456 213.003 224.163 212.53 225.103C212.057 226.044 211.962 227.142 212.268 228.154V228.154Z" fill="#333333"/>
<path d="M198.385 239.919C198.669 242.11 203.307 247.929 203.307 247.929C203.307 247.929 206.302 241.044 206.018 238.853C205.882 237.801 205.35 236.848 204.538 236.205C203.726 235.561 202.701 235.278 201.689 235.42C200.677 235.561 199.76 236.114 199.14 236.958C198.521 237.802 198.249 238.867 198.385 239.919Z" fill="#333333"/>
<path opacity="0.25" d="M246.691 212.975C245.165 214.516 238.057 216.106 238.057 216.106C238.057 216.106 239.799 208.77 241.325 207.232C242.058 206.493 243.043 206.086 244.065 206.102C245.086 206.117 246.059 206.554 246.771 207.315C247.482 208.077 247.874 209.101 247.859 210.162C247.844 211.223 247.424 212.235 246.691 212.975V212.975Z" fill="#444444"/>
<path opacity="0.25" d="M242.67 226.248C240.584 226.679 233.798 224.002 233.798 224.002C233.798 224.002 239.1 218.839 241.183 218.396C242.185 218.189 243.225 218.404 244.074 218.994C244.924 219.584 245.513 220.501 245.712 221.542C245.911 222.583 245.704 223.664 245.136 224.546C244.568 225.429 243.686 226.041 242.685 226.248H242.67Z" fill="#222222"/>
<path opacity="0.25" d="M228.032 240.609C226.019 239.871 221.452 234.007 221.452 234.007C221.452 234.007 228.55 232.325 230.551 233.048C231.039 233.212 231.491 233.474 231.88 233.822C232.269 234.169 232.588 234.593 232.817 235.07C233.046 235.547 233.181 236.066 233.214 236.598C233.247 237.13 233.178 237.663 233.01 238.167C232.842 238.671 232.579 239.134 232.237 239.531C231.894 239.927 231.479 240.249 231.015 240.476C230.551 240.704 230.048 240.832 229.536 240.855C229.024 240.878 228.512 240.794 228.032 240.609V240.609Z" fill="#222222"/>
<path opacity="0.25" d="M214.599 248.884C212.502 248.516 207.044 243.533 207.044 243.533C207.044 243.533 213.755 240.627 215.852 240.989C216.355 241.07 216.837 241.253 217.271 241.529C217.705 241.805 218.082 242.168 218.38 242.596C218.678 243.024 218.892 243.509 219.009 244.024C219.125 244.538 219.143 245.072 219.06 245.593C218.977 246.115 218.796 246.614 218.527 247.063C218.257 247.511 217.905 247.899 217.49 248.205C217.075 248.511 216.606 248.729 216.11 248.846C215.614 248.962 215.1 248.975 214.599 248.884V248.884Z" fill="black"/>
<path opacity="0.25" d="M227.858 218.271C227.858 220.483 231.705 226.889 231.705 226.889C231.705 226.889 235.559 220.483 235.559 218.274C235.559 217.213 235.153 216.195 234.431 215.445C233.709 214.694 232.729 214.273 231.708 214.273C230.687 214.273 229.708 214.694 228.985 215.445C228.263 216.195 227.858 217.213 227.858 218.274V218.271Z" fill="#444444"/>
<path opacity="0.25" d="M212.268 228.154C212.907 230.264 218.421 235.184 218.421 235.184C218.421 235.184 220.253 227.87 219.617 225.761C219.312 224.748 218.632 223.903 217.727 223.411C216.822 222.919 215.766 222.821 214.791 223.139C213.816 223.456 213.003 224.163 212.53 225.103C212.057 226.044 211.962 227.142 212.268 228.154V228.154Z" fill="#444444"/>
<path opacity="0.25" d="M198.385 239.919C198.669 242.11 203.307 247.929 203.307 247.929C203.307 247.929 206.302 241.044 206.018 238.853C205.882 237.801 205.35 236.848 204.538 236.205C203.726 235.561 202.701 235.278 201.689 235.42C200.677 235.561 199.76 236.114 199.14 236.958C198.521 237.802 198.249 238.867 198.385 239.919Z" fill="black"/>
<path d="M198.516 255.206C198.516 255.206 200.262 236.493 210.667 226.543C215.056 222.396 218.032 216.882 219.149 210.828C219.66 207.949 219.914 205.027 219.908 202.099" stroke="#CECECE" stroke-width="2" stroke-miterlimit="10"/>
<path d="M226.427 195.8C225.633 197.85 219.756 202.298 219.756 202.298C219.756 202.298 218.492 194.856 219.287 192.809C219.467 192.309 219.742 191.851 220.095 191.463C220.447 191.074 220.871 190.763 221.342 190.548C221.812 190.333 222.319 190.218 222.833 190.209C223.347 190.201 223.857 190.299 224.333 190.499C224.81 190.698 225.243 190.995 225.608 191.372C225.972 191.748 226.261 192.196 226.456 192.69C226.651 193.184 226.749 193.714 226.744 194.248C226.739 194.782 226.632 195.31 226.427 195.8V195.8Z" fill="#444444"/>
<path d="M227.929 209.626C226.19 210.898 218.929 211.311 218.929 211.311C218.929 211.311 221.768 204.352 223.496 203.08C223.91 202.777 224.377 202.563 224.87 202.448C225.364 202.333 225.874 202.32 226.372 202.41C226.871 202.5 227.347 202.691 227.774 202.972C228.201 203.254 228.571 203.62 228.862 204.05C229.153 204.48 229.36 204.965 229.47 205.478C229.581 205.99 229.593 206.521 229.507 207.039C229.42 207.557 229.236 208.051 228.965 208.495C228.694 208.939 228.342 209.323 227.929 209.626Z" fill="#333333"/>
<path d="M220.146 228.921C218.017 229.106 211.558 225.654 211.558 225.654C211.558 225.654 217.381 221.132 219.486 220.944C220.504 220.855 221.514 221.19 222.294 221.875C223.075 222.56 223.561 223.539 223.647 224.597C223.732 225.655 223.41 226.705 222.751 227.516C222.092 228.327 221.15 228.832 220.132 228.921H220.146Z" fill="#333333"/>
<path d="M211.093 242.143C209.035 242.696 202.1 240.432 202.1 240.432C202.1 240.432 207.101 234.948 209.159 234.394C209.652 234.25 210.168 234.21 210.676 234.276C211.184 234.342 211.675 234.512 212.119 234.777C212.563 235.042 212.951 235.397 213.262 235.82C213.573 236.243 213.799 236.726 213.927 237.242C214.056 237.757 214.085 238.293 214.011 238.82C213.938 239.347 213.764 239.853 213.5 240.309C213.236 240.765 212.887 241.162 212.474 241.476C212.061 241.79 211.591 242.016 211.093 242.139V242.143Z" fill="#333333"/>
<path d="M211.278 208.567C212.137 210.588 218.155 214.837 218.155 214.837C218.155 214.837 219.181 207.358 218.319 205.337C217.893 204.387 217.125 203.649 216.181 203.28C215.237 202.912 214.192 202.943 213.27 203.367C212.348 203.791 211.623 204.574 211.25 205.548C210.878 206.522 210.888 207.609 211.278 208.575V208.567Z" fill="#333333"/>
<path d="M200.88 224.171C202.281 225.831 209.244 228.007 209.244 228.007C209.244 228.007 208.069 220.55 206.664 218.89C206.333 218.485 205.928 218.153 205.473 217.912C205.017 217.671 204.52 217.527 204.01 217.489C203.5 217.45 202.988 217.517 202.503 217.686C202.018 217.855 201.571 218.123 201.187 218.473C200.803 218.824 200.49 219.25 200.266 219.728C200.043 220.206 199.913 220.725 199.884 221.255C199.855 221.786 199.929 222.317 200.1 222.817C200.271 223.318 200.536 223.778 200.88 224.171V224.171Z" fill="#222222"/>
<path d="M192.774 240.775C193.889 242.659 200.397 246.023 200.397 246.023C200.397 246.023 200.45 238.47 199.332 236.585C199.068 236.137 198.721 235.748 198.311 235.44C197.902 235.131 197.438 234.91 196.946 234.788C196.454 234.666 195.944 234.645 195.445 234.728C194.945 234.811 194.467 234.995 194.036 235.27C193.605 235.545 193.23 235.906 192.934 236.331C192.637 236.757 192.424 237.239 192.306 237.75C192.189 238.261 192.169 238.791 192.249 239.31C192.329 239.829 192.506 240.327 192.771 240.775H192.774Z" fill="#333333"/>
<path opacity="0.1" d="M170.754 260C194.054 260 212.942 256.709 212.942 252.65C212.942 248.59 194.054 245.3 170.754 245.3C147.454 245.3 128.566 248.59 128.566 252.65C128.566 256.709 147.454 260 170.754 260Z" fill="#333333"/>
<path d="M173.554 155.645L173.515 157.08L171.116 245.045H167.084L169.061 157.08L169.1 155.424L173.554 155.645Z" fill="#B77B7F"/>
<path d="M196.894 230.164L193.874 230.157L149.003 230.057L146.611 230.054L147.885 225.975H196.575L196.894 230.164Z" fill="#DDA2A6"/>
<path opacity="0.1" d="M173.554 155.645L173.515 157.08H169.061L169.1 155.424L173.554 155.645Z" fill="black"/>
<path d="M175.254 153.495H167.776V156.419H175.254V153.495Z" fill="#B77B7F"/>
<path opacity="0.1" d="M149.401 225.975L149.003 230.057L146.611 230.054L147.885 225.975H149.401Z" fill="black"/>
<path d="M155.842 153.44L155.718 154.708L145.763 256.732L141.203 256.508L151.693 154.708L151.81 153.55L155.842 153.44Z" fill="#DDA2A6"/>
<path opacity="0.1" d="M196.894 230.164L193.874 230.157L193.466 225.975H196.575L196.894 230.164Z" fill="black"/>
<path d="M201.667 256.508L197.104 256.732L187.153 154.708L187.029 153.44L191.056 153.55L191.174 154.708L201.667 256.508Z" fill="#DDA2A6"/>
<path d="M221.076 52.85H120.517V153.052H221.076V52.85Z" fill="white"/>
<path d="M172.759 19.3374V43.5342H168.837V19.3374C168.826 19.0625 168.869 18.7881 168.962 18.5307C169.055 18.2733 169.198 18.0382 169.381 17.8395C169.564 17.6409 169.784 17.4828 170.028 17.3748C170.271 17.2669 170.533 17.2112 170.798 17.2112C171.063 17.2112 171.325 17.2669 171.568 17.3748C171.812 17.4828 172.032 17.6409 172.215 17.8395C172.398 18.0382 172.541 18.2733 172.634 18.5307C172.728 18.7881 172.77 19.0625 172.759 19.3374V19.3374Z" fill="#DDA2A6"/>
<path opacity="0.1" d="M172.759 41.3325H168.834V43.5342H172.759V41.3325Z" fill="black"/>
<path d="M174.299 42.9847V50.9728H167.319V42.9847C167.318 42.8542 167.343 42.725 167.39 42.6044C167.438 42.4839 167.508 42.3743 167.597 42.2821C167.686 42.1899 167.791 42.1168 167.907 42.0671C168.023 42.0174 168.148 41.9921 168.273 41.9926H173.352C173.604 41.9945 173.845 42.0999 174.022 42.2858C174.2 42.4716 174.299 42.7228 174.299 42.9847Z" fill="#DDA2A6"/>
<path opacity="0.1" d="M170.797 48.6051C171.616 48.6051 172.28 47.9149 172.28 47.0636C172.28 46.2122 171.616 45.522 170.797 45.522C169.977 45.522 169.313 46.2122 169.313 47.0636C169.313 47.9149 169.977 48.6051 170.797 48.6051Z" fill="black"/>
<path d="M170.797 48.2732C171.616 48.2732 172.28 47.583 172.28 46.7317C172.28 45.8803 171.616 45.1901 170.797 45.1901C169.977 45.1901 169.313 45.8803 169.313 46.7317C169.313 47.583 169.977 48.2732 170.797 48.2732Z" fill="#B77B7F"/>
<path opacity="0.1" d="M174.299 49.9845H167.297V50.9765H174.299V49.9845Z" fill="black"/>
<path opacity="0.1" d="M177.163 51.3084H164.434V53.5138H177.163V51.3084Z" fill="black"/>
<path d="M177.163 50.6446H164.434V52.85H177.163V50.6446Z" fill="#DDA2A6"/>
<path opacity="0.1" d="M145.046 150.471H198.509C199.121 150.471 199.708 150.723 200.14 151.173C200.573 151.622 200.816 152.232 200.816 152.868V153.392H142.74V152.868C142.74 152.232 142.983 151.622 143.415 151.173C143.848 150.723 144.435 150.471 145.046 150.471V150.471Z" fill="black"/>
<path opacity="0.1" d="M151.81 153.55L155.842 153.44L155.718 154.708H151.693L151.81 153.55Z" fill="black"/>
<path opacity="0.1" d="M175.254 153.495H167.776V154.708H175.254V153.495Z" fill="black"/>
<path opacity="0.1" d="M191.174 154.708H187.153L187.029 153.44L191.056 153.55L191.174 154.708Z" fill="black"/>
<path d="M145.046 151.124H198.509C199.121 151.124 199.708 151.376 200.14 151.826C200.573 152.275 200.816 152.885 200.816 153.521V154.044H142.74V153.521C142.74 152.885 142.983 152.275 143.415 151.826C143.848 151.376 144.435 151.124 145.046 151.124V151.124Z" fill="#DDA2A6"/>
<path d="M63.5314 211.25C63.5314 211.25 66.1007 214.743 62.3461 220.009C58.5915 225.275 55.5005 229.723 56.7567 233.009C56.7567 233.009 62.4171 223.225 67.0269 223.088C71.6368 222.952 68.6026 217.136 63.5314 211.25Z" fill="#732266"/>
<path opacity="0.1" d="M63.5313 211.25C63.7561 211.591 63.933 211.964 64.0566 212.356C68.5529 217.848 70.9483 222.97 66.6259 223.099C62.6016 223.218 57.7717 230.7 56.6147 232.589C56.6518 232.735 56.698 232.88 56.7531 233.02C56.7531 233.02 62.4135 223.236 67.0234 223.099C71.6332 222.963 68.6026 217.136 63.5313 211.25Z" fill="black"/>
<path d="M68.3046 215.698C68.3046 216.926 68.1733 217.91 68.01 217.91C67.8468 217.91 67.7119 216.915 67.7119 215.698C67.7119 214.481 67.8787 215.049 68.042 215.049C68.2052 215.049 68.3046 214.455 68.3046 215.698Z" fill="#FF2266"/>
<path d="M69.944 217.166C68.9078 217.752 68.0028 218.11 67.9248 217.958C67.8467 217.807 68.6345 217.221 69.6601 216.623C70.6857 216.026 70.2883 216.465 70.3699 216.623C70.4515 216.782 70.9803 216.575 69.944 217.166Z" fill="#FF2266"/>
<path d="M49.9714 211.25C49.9714 211.25 47.4021 214.743 51.1567 220.009C54.9113 225.275 58.0023 229.723 56.7567 233.009C56.7567 233.009 51.0786 223.225 46.4652 223.088C41.8518 222.952 44.9002 217.136 49.9714 211.25Z" fill="#732266"/>
<path opacity="0.1" d="M49.9713 211.25C49.7465 211.591 49.5696 211.964 49.4461 212.356C44.9497 217.848 42.5543 222.97 46.8767 223.099C50.9011 223.218 55.7487 230.7 56.8879 232.589C56.8504 232.735 56.8054 232.879 56.753 233.02C56.753 233.02 51.075 223.236 46.4615 223.099C41.8481 222.963 44.9001 217.136 49.9713 211.25Z" fill="black"/>
<path d="M45.1981 215.698C45.1981 216.926 45.3294 217.91 45.4927 217.91C45.6559 217.91 45.7908 216.915 45.7908 215.698C45.7908 214.481 45.624 215.049 45.4607 215.049C45.2975 215.049 45.1981 214.455 45.1981 215.698Z" fill="#FF2266"/>
<path d="M43.5587 217.166C44.5985 217.752 45.4998 218.11 45.5815 217.958C45.6631 217.807 44.8717 217.221 43.8426 216.623C42.8134 216.026 43.2144 216.465 43.1328 216.623C43.0512 216.782 42.5224 216.575 43.5587 217.166Z" fill="#FF2266"/>
<path opacity="0.1" d="M56.7496 259.703C71.5766 259.703 83.5962 257.786 83.5962 255.421C83.5962 253.056 71.5766 251.139 56.7496 251.139C41.9226 251.139 29.903 253.056 29.903 255.421C29.903 257.786 41.9226 259.703 56.7496 259.703Z" fill="#333333"/>
<path d="M70.5686 228.307L70.4409 229.413L70.2599 230.951L70.1854 231.593L70.0044 233.134L69.9263 233.776L69.7453 235.314L67.6941 252.81C67.5096 254.374 65.0538 255.591 62.087 255.591H51.4335C48.4667 255.591 46.0145 254.374 45.83 252.81L43.7752 235.31L43.5942 233.772L43.5197 233.131L43.3352 231.589L43.2606 230.947L43.0797 229.41L42.9519 228.303C42.849 227.418 44.1762 226.673 45.8548 226.673H67.687C69.3443 226.677 70.6751 227.422 70.5686 228.307Z" fill="#65617D"/>
<path d="M70.4372 229.395L70.2597 230.936H43.2392L43.0618 229.395H70.4372Z" fill="#9D9CB5"/>
<path d="M70.1818 231.578L70.0043 233.116H43.4984L43.3174 231.578H70.1818Z" fill="#9D9CB5"/>
<path d="M69.9261 233.758L69.7451 235.296H43.7537L43.5728 233.758H69.9261Z" fill="#9D9CB5"/>
<path opacity="0.1" d="M63.8748 58.6388C70.0486 58.6388 75.0535 53.4377 75.0535 47.0217C75.0535 40.6057 70.0486 35.4046 63.8748 35.4046C57.7009 35.4046 52.696 40.6057 52.696 47.0217C52.696 53.4377 57.7009 58.6388 63.8748 58.6388Z" fill="#333333"/>
<path opacity="0.1" d="M40.4526 26.5534C44.2745 26.5534 47.3728 23.3337 47.3728 19.3619C47.3728 15.3901 44.2745 12.1703 40.4526 12.1703C36.6307 12.1703 33.5325 15.3901 33.5325 19.3619C33.5325 23.3337 36.6307 26.5534 40.4526 26.5534Z" fill="#333333"/>
<path opacity="0.1" d="M4.25856 39.8302C6.61049 39.8302 8.51711 37.8488 8.51711 35.4046C8.51711 32.9604 6.61049 30.979 4.25856 30.979C1.90662 30.979 0 32.9604 0 35.4046C0 37.8488 1.90662 39.8302 4.25856 39.8302Z" fill="#333333"/>
</svg>
