<svg width="18" height="28" viewBox="0 0 18 28" fill="none" xmlns="http://www.w3.org/2000/svg">
<path d="M0.00808845 14.1456C0.00953143 14.2022 0.0219415 14.2559 0.0453177 14.3077C0.0528212 14.3251 0.0585928 14.3419 0.0689822 14.3578C0.105057 14.4164 0.150944 14.4698 0.215589 14.5079C0.216455 14.5085 0.218186 14.5085 0.219052 14.509C0.220206 14.5096 0.220495 14.511 0.221649 14.5116L8.80909 19.3934C8.81573 19.3973 8.82352 19.3953 8.83073 19.3992C8.89249 19.43 8.9606 19.453 9.03593 19.453C9.11125 19.453 9.17936 19.43 9.2417 19.3981C9.24949 19.395 9.25843 19.3962 9.26594 19.3922L17.7007 14.5096C17.7668 14.4715 17.813 14.4169 17.8505 14.3573C17.8606 14.3408 17.8669 14.3254 17.8742 14.3077C17.8978 14.2556 17.9102 14.2022 17.9123 14.1456C17.9123 14.1336 17.9203 14.1238 17.9195 14.1123C17.9195 14.107 17.9151 14.1033 17.914 14.098C17.9088 14.0339 17.8923 13.9712 17.8563 13.9124L9.4212 0.21224C9.41803 0.20664 9.41254 0.2044 9.40879 0.19908C9.39869 0.1834 9.38628 0.17108 9.37387 0.15708C9.35829 0.13944 9.34241 0.12376 9.32423 0.10808C9.31038 0.09716 9.29797 0.08512 9.28325 0.07616C9.27748 0.07224 9.27459 0.06664 9.26882 0.06328C9.25901 0.0574 9.24833 0.0574 9.23852 0.05264C9.2189 0.04256 9.19927 0.03528 9.17763 0.028C9.15973 0.02184 9.14184 0.01568 9.12251 0.01204C9.10346 0.00784 9.08499 0.007 9.06594 0.00616C9.05555 0.00504 9.04632 0 9.03593 0C9.02554 0 9.01746 0.00504 9.00707 0.0056C8.9886 0.00728 8.97128 0.00756 8.95339 0.0112C8.9329 0.01484 8.91414 0.02128 8.89394 0.02772C8.87287 0.03472 8.85325 0.04228 8.83362 0.05236C8.82467 0.05712 8.81457 0.05712 8.80563 0.06188C8.80043 0.06496 8.79726 0.07028 8.79235 0.07336C8.77648 0.08344 8.76292 0.09576 8.74791 0.10836C8.73002 0.12348 8.71385 0.13832 8.69827 0.15596C8.68701 0.1694 8.67461 0.18144 8.66537 0.19572C8.66104 0.20132 8.65556 0.20412 8.65181 0.20972L0.0646534 13.9101C0.0274246 13.9689 0.0109749 14.033 0.00520298 14.0983C0.00462579 14.1039 0.00058501 14.1075 7.81965e-06 14.1134C-0.000280776 14.124 0.00751126 14.1341 0.00808845 14.1456ZM9.48498 2.01348L16.344 13.155L9.48498 10.1024V2.01348ZM8.58716 10.0999L1.58555 13.1606L8.58716 1.98996V10.0999ZM8.58716 11.0558V18.2568L1.42567 14.1862L8.58716 11.0558ZM9.48498 18.2498V11.0603L16.5071 14.1862L9.48498 18.2498Z" fill="#FDFDFD"/>
<path d="M17.8811 15.6341C17.7388 15.4829 17.5044 15.4529 17.3226 15.554L9.0359 20.3008L0.752343 15.554C0.571394 15.4518 0.337055 15.4829 0.193046 15.6341C0.0496138 15.7864 0.0346067 16.0132 0.15726 16.1815L8.66938 27.8169C8.67602 27.8258 8.68698 27.8286 8.69362 27.8367C8.71123 27.8575 8.72883 27.8757 8.74932 27.8927C8.75913 27.9006 8.7649 27.9126 8.77558 27.9196C8.78395 27.9255 8.79463 27.923 8.80358 27.9286C8.81801 27.9367 8.83041 27.9485 8.84629 27.956C8.90343 27.9829 8.96663 28 9.03416 28C9.03445 28 9.03445 28 9.03503 28C9.03503 28 9.03503 28 9.03561 28C9.03618 28 9.03618 28 9.03618 28C9.03647 28 9.03647 28 9.03705 28C9.10458 28 9.16749 27.9826 9.22493 27.956C9.2408 27.9487 9.25321 27.937 9.26764 27.9286C9.27629 27.9227 9.28697 27.9255 9.29563 27.9196C9.30631 27.9129 9.31208 27.9009 9.32189 27.8927C9.34238 27.8754 9.36028 27.8575 9.3773 27.8367C9.38394 27.8286 9.3952 27.8258 9.40155 27.8169L17.9168 16.1815C18.0401 16.0132 18.0248 15.7864 17.8811 15.6341ZM8.58713 21.0565V26.1979L2.10932 17.3437L8.58713 21.0565ZM9.48495 26.1979V21.0565L15.9654 17.3437L9.48495 26.1979Z" fill="#FDFDFD"/>
</svg>
