<svg width="24" height="24" viewBox="0 0 24 24" fill="none" xmlns="http://www.w3.org/2000/svg">
<path d="M0.119543 8.57917C0.0709769 8.51196 0.0361358 8.43584 0.017011 8.35515C-0.00211371 8.27446 -0.005147 8.19079 0.00808512 8.10893C0.0213172 8.02707 0.0505552 7.94862 0.0941267 7.87807C0.137698 7.80752 0.194749 7.74625 0.262016 7.69776L10.0794 0.612478C10.6406 0.214043 11.3118 0 12.0001 0C12.6883 0 13.3595 0.214043 13.9207 0.612478L23.7381 7.69776C23.8054 7.74628 23.8624 7.80757 23.9059 7.87813C23.9495 7.94869 23.9787 8.02713 23.9919 8.10898C24.0051 8.19083 24.0021 8.27448 23.983 8.35516C23.9639 8.43584 23.9291 8.51197 23.8806 8.5792C23.8321 8.64643 23.7708 8.70344 23.7002 8.74699C23.6297 8.79053 23.5512 8.81975 23.4694 8.83298C23.3875 8.84621 23.3039 8.84318 23.2232 8.82408C23.1425 8.80498 23.0664 8.77017 22.9992 8.72165L13.1818 1.63638C12.8364 1.39141 12.4234 1.25982 12 1.25982C11.5766 1.25982 11.1636 1.39141 10.8183 1.63638L1.00085 8.72165C0.933737 8.77047 0.857628 8.80552 0.776909 8.82479C0.696189 8.84405 0.612455 8.84715 0.530532 8.83391C0.448609 8.82066 0.370117 8.79134 0.29958 8.74762C0.229042 8.7039 0.167854 8.64665 0.119543 8.57917ZM3.78941 9.0461V20.8419C3.78996 21.3443 3.98976 21.826 4.34498 22.1812C4.7002 22.5364 5.18182 22.7362 5.68417 22.7368H8.84212V18.4506C8.82992 17.6861 9.08684 16.9417 9.56794 16.3475C10.049 15.7533 10.7237 15.3471 11.4739 15.2C11.9268 15.1239 12.3909 15.1474 12.8337 15.2688C13.2766 15.3903 13.6877 15.6069 14.0384 15.9034C14.389 16.2 14.6709 16.5694 14.8642 16.986C15.0576 17.4025 15.1578 17.8562 15.158 18.3155V22.7368H18.3159C18.8183 22.7362 19.2999 22.5364 19.6551 22.1812C20.0103 21.826 20.2102 21.3443 20.2107 20.8419V9.04602L21.4739 9.95767V20.8419C21.4729 21.6792 21.1399 22.4819 20.5479 23.0739C19.9558 23.666 19.1532 23.999 18.3159 24H5.68417C4.84694 23.999 4.04427 23.666 3.45226 23.0739C2.86024 22.4819 2.52722 21.6792 2.52623 20.8419V9.95767L3.78941 9.0461ZM10.1053 22.7368H13.8948V18.3155C13.8947 18.0393 13.8342 17.7665 13.7177 17.5161C13.6011 17.2657 13.4313 17.0437 13.2201 16.8658C13.0088 16.6879 12.7613 16.5582 12.4947 16.4859C12.2282 16.4136 11.9491 16.4004 11.6769 16.4472C11.2217 16.5442 10.8151 16.7978 10.5279 17.164C10.2407 17.5301 10.0911 17.9854 10.1053 18.4506V22.7368Z" fill="#888888"/>
</svg>
