<svg width="20" height="18" viewBox="0 0 20 18" fill="none" xmlns="http://www.w3.org/2000/svg">
<path d="M19.7459 16.7333L15.0639 13.2C16.1496 11.8 16.7603 10.1333 16.7603 8.26667C16.7603 3.73333 13.0282 0 8.34622 0C3.66419 0 0 3.73333 0 8.26667C0 12.8 3.73205 16.5333 8.41407 16.5333C10.6533 16.5333 12.689 15.6667 14.1818 14.2667L18.9317 17.8667C19.0674 17.9333 19.2031 18 19.3388 18C19.5424 18 19.7459 17.9333 19.8816 17.7333C20.0852 17.4 20.0174 17 19.7459 16.7333ZM8.34622 15.2C4.47846 15.2 1.28925 12.1333 1.28925 8.26667C1.28925 4.4 4.4106 1.33333 8.34622 1.33333C12.214 1.33333 15.4032 4.4 15.4032 8.26667C15.4032 12.1333 12.214 15.2 8.34622 15.2Z" fill="#666666"/>
</svg>
