<svg width="18" height="18" viewBox="0 0 18 18" fill="none" xmlns="http://www.w3.org/2000/svg">
<path d="M0.884141 13.1675L0.00767206 17.5518C-0.017798 17.6747 0.0211563 17.8021 0.109552 17.8906C0.179969 17.961 0.275857 18 0.37474 18H14.5331V17.2505H4.15779L4.8305 17.1156C4.90541 17.1007 4.96684 17.0617 5.01928 17.0107L5.02227 17.0137L17.6929 4.33746C17.8906 4.13961 18 3.8758 18 3.5955C18 3.31371 17.8921 3.0514 17.6929 2.85205L15.1399 0.297908C14.7443 -0.0993026 14.0506 -0.0993026 13.6566 0.297908L0.986021 12.9742L0.989017 12.9772C0.938077 13.0311 0.899123 13.0941 0.884141 13.1675ZM1.48044 14.0009L3.99748 16.5191L0.852678 17.1471L1.48044 14.0009ZM4.75708 16.2178L1.78009 13.241L11.7673 3.24776L14.7443 6.22609L4.75708 16.2178ZM14.1855 0.83002C14.2994 0.717602 14.4956 0.717602 14.6095 0.83002L17.1625 3.38416C17.2194 3.44112 17.2509 3.51606 17.2509 3.597C17.2509 3.67794 17.2194 3.75289 17.1625 3.80835L15.2747 5.69697L12.2977 2.71864L14.1855 0.83002Z" fill="#666666"/>
</svg>
