<svg width="24" height="24" viewBox="0 0 24 24" fill="none" xmlns="http://www.w3.org/2000/svg">
<circle cx="12" cy="12" r="11.5" fill="#CECECE" stroke="#3C3B3F"/>
<path d="M11.9999 6.46155C11.6692 6.46155 11.4011 6.72962 11.4011 7.0603V11.4013H7.06018C6.7295 11.4013 6.46143 11.6693 6.46143 12C6.46143 12.3307 6.7295 12.5988 7.06018 12.5988H11.4011V16.9397C11.4011 17.2704 11.6692 17.5385 11.9999 17.5385C12.3306 17.5385 12.5986 17.2704 12.5986 16.9397V12.5988H16.9396C17.2703 12.5988 17.5383 12.3307 17.5383 12C17.5383 11.6693 17.2703 11.4013 16.9396 11.4013H12.5986V7.0603C12.5986 6.72962 12.3306 6.46155 11.9999 6.46155V6.46155Z" fill="#3C3B3F"/>
</svg>
