<svg width="20" height="20" viewBox="0 0 20 20" fill="none" xmlns="http://www.w3.org/2000/svg">
<path d="M3.09702 5.78342C3.09702 7.275 4.32836 8.46826 5.78358 8.46826C7.23881 8.46826 8.47015 7.23771 8.47015 5.78342C8.47015 4.32913 7.23881 3.09858 5.78358 3.09858C4.32836 3.09858 3.09702 4.29184 3.09702 5.78342ZM7.38806 5.78342C7.38806 6.64108 6.6791 7.34958 5.8209 7.34958C4.96269 7.34958 4.25373 6.64108 4.25373 5.78342C4.25373 4.92576 4.96269 4.21726 5.8209 4.21726C6.6791 4.21726 7.38806 4.92576 7.38806 5.78342Z" fill="#222222"/>
<path d="M0 2.5392L0.186567 8.31907C0.261194 9.25131 0.671642 10.1463 1.30597 10.7802L9.66418 19.133C10.8209 20.289 12.6866 20.289 13.8433 19.133L19.1418 13.8379C19.7015 13.2786 20 12.4955 20 11.7497C20 11.0039 19.7015 10.2581 19.1418 9.66149L10.8209 1.34593C10.1493 0.674725 9.29105 0.26454 8.3209 0.227249L2.53731 0.00351334C1.86567 -0.0337753 1.19403 0.227249 0.708955 0.712013C0.261194 1.19678 0 1.86799 0 2.5392ZM8.24627 1.30865C8.91791 1.34594 9.55224 1.64425 10 2.12901L18.3209 10.4446C19.0299 11.1531 19.0299 12.309 18.3209 13.0175L13.0224 18.3127C12.3134 19.0212 11.1567 19.0212 10.4478 18.3127L2.12687 9.9971C1.64179 9.51233 1.3806 8.9157 1.30597 8.24449L1.1194 2.50191C1.1194 2.12901 1.23134 1.75612 1.52985 1.49509C1.79104 1.23407 2.16418 1.08491 2.53731 1.08491L8.24627 1.30865Z" fill="#222222"/>
</svg>
