<svg width="16" height="15" viewBox="0 0 16 15" fill="none" xmlns="http://www.w3.org/2000/svg">
<path d="M8.4951 14.2624V2.49369L13.5416 6.49896C13.7163 6.63785 13.9538 6.71627 14.2018 6.71696C14.4498 6.71765 14.688 6.64056 14.864 6.50264C15.0399 6.36473 15.1393 6.17728 15.1402 5.98154C15.1411 5.7858 15.0434 5.59781 14.8686 5.45891L8.2381 0.184945C8.19491 0.151006 8.148 0.120152 8.09792 0.0927429H8.06988C8.02724 0.0706812 7.98183 0.0521432 7.93438 0.0374217H7.90167C7.85494 0.0374217 7.80821 0.011605 7.76149 0.00422881C7.69939 -0.0014096 7.63668 -0.0014096 7.57458 0.00422881H7.52785C7.48272 0.00222356 7.43748 0.00222356 7.39234 0.00422881L7.2802 0.030046H7.21478L7.09329 0.0706145L7.04657 0.0927429L6.91106 0.177569L0.243131 5.43679C0.0817313 5.57687 -0.00523269 5.76058 0.000243805 5.94988C0.0057203 6.13918 0.103218 6.31957 0.272551 6.45369C0.441884 6.58782 0.670082 6.66541 0.909896 6.67041C1.14971 6.6754 1.38277 6.60741 1.56083 6.48051L6.62602 2.48262V14.2624C6.62602 14.458 6.72448 14.6456 6.89974 14.784C7.075 14.9223 7.31271 15 7.56056 15C7.80842 15 8.04612 14.9223 8.22138 14.784C8.39664 14.6456 8.4951 14.458 8.4951 14.2624Z" fill="#666666"/>
</svg>
