<svg width="26" height="24" viewBox="0 0 26 24" fill="none" xmlns="http://www.w3.org/2000/svg">
<rect x="21.8398" y="9.54547" width="4.16" height="5.30303" fill="#CECECE"/>
<rect width="23.8333" height="24" rx="5" fill="#CECECE"/>
<path d="M25.6384 15.2727H20.2123C19.5408 15.2727 18.8967 14.9279 18.4218 14.3142C17.947 13.7004 17.6802 12.868 17.6802 12C17.6802 11.132 17.947 10.2996 18.4218 9.68585C18.8967 9.0721 19.5408 8.72729 20.2123 8.72729H25.6384C25.7344 8.72729 25.8264 8.77655 25.8942 8.86423C25.9621 8.95191 26.0002 9.07083 26.0002 9.19483V14.8052C26.0002 14.9292 25.9621 15.0481 25.8942 15.1358C25.8264 15.2235 25.7344 15.2727 25.6384 15.2727ZM20.2123 9.66236C19.7327 9.66236 19.2726 9.90865 18.9334 10.347C18.5942 10.7854 18.4037 11.38 18.4037 12C18.4037 12.62 18.5942 13.2146 18.9334 13.653C19.2726 14.0914 19.7327 14.3377 20.2123 14.3377H25.2767V9.66236H20.2123Z" fill="#3C3B3F"/>
<path d="M19.7445 24H4.09791C3.01108 24 1.96876 23.4205 1.20025 22.3891C0.431743 21.3576 0 19.9587 0 18.5V5.5C0 4.04131 0.431743 2.64236 1.20025 1.61091C1.96876 0.579462 3.01108 0 4.09791 0H19.7445C20.8313 0 21.8736 0.579462 22.6421 1.61091C23.4106 2.64236 23.8424 4.04131 23.8424 5.5V9C23.8424 9.13261 23.8031 9.25979 23.7333 9.35355C23.6634 9.44732 23.5687 9.5 23.4698 9.5C23.371 9.5 23.2763 9.44732 23.2064 9.35355C23.1366 9.25979 23.0973 9.13261 23.0973 9V5.5C23.0973 4.90905 23.0106 4.32389 22.8421 3.77793C22.6736 3.23196 22.4266 2.73588 22.1153 2.31802C21.8039 1.90016 21.4343 1.56869 21.0276 1.34254C20.6208 1.1164 20.1848 1 19.7445 1H4.09791C3.20868 1 2.35588 1.47411 1.7271 2.31802C1.09832 3.16193 0.745075 4.30653 0.745075 5.5V18.5C0.745075 19.6935 1.09832 20.8381 1.7271 21.682C2.35588 22.5259 3.20868 23 4.09791 23H19.7445C20.1848 23 20.6208 22.8836 21.0276 22.6575C21.4343 22.4313 21.8039 22.0998 22.1153 21.682C22.4266 21.2641 22.6736 20.768 22.8421 20.2221C23.0106 19.6761 23.0973 19.0909 23.0973 18.5V15C23.0973 14.8674 23.1366 14.7402 23.2064 14.6464C23.2763 14.5527 23.371 14.5 23.4698 14.5C23.5687 14.5 23.6634 14.5527 23.7333 14.6464C23.8031 14.7402 23.8424 14.8674 23.8424 15V18.5C23.8424 19.9587 23.4106 21.3576 22.6421 22.3891C21.8736 23.4205 20.8313 24 19.7445 24Z" fill="#3C3B3F"/>
<path d="M3.35276 17.8789C3.25396 17.8789 3.1592 17.831 3.08934 17.7457C3.01947 17.6605 2.98022 17.5449 2.98022 17.4243V6.06069C2.98022 5.94013 3.01947 5.82452 3.08934 5.73927C3.1592 5.65403 3.25396 5.60614 3.35276 5.60614C3.45156 5.60614 3.54632 5.65403 3.61619 5.73927C3.68605 5.82452 3.7253 5.94013 3.7253 6.06069V17.4243C3.7253 17.5449 3.68605 17.6605 3.61619 17.7457C3.54632 17.831 3.45156 17.8789 3.35276 17.8789Z" fill="#3C3B3F"/>
<path d="M22.5 13.5652C22.2033 13.5652 21.9133 13.4734 21.6666 13.3014C21.42 13.1294 21.2277 12.885 21.1142 12.599C21.0006 12.3129 20.9709 11.9982 21.0288 11.6946C21.0867 11.391 21.2296 11.1121 21.4393 10.8932C21.6491 10.6743 21.9164 10.5252 22.2074 10.4648C22.4983 10.4044 22.7999 10.4354 23.074 10.5539C23.3481 10.6724 23.5824 10.873 23.7472 11.1304C23.912 11.3878 24 11.6904 24 12C24 12.4151 23.842 12.8132 23.5607 13.1067C23.2794 13.4003 22.8978 13.5652 22.5 13.5652ZM22.5 11.2174C22.3517 11.2174 22.2067 11.2633 22.0833 11.3493C21.96 11.4352 21.8639 11.5575 21.8071 11.7005C21.7503 11.8435 21.7355 12.0008 21.7644 12.1527C21.7934 12.3045 21.8648 12.4439 21.9697 12.5534C22.0746 12.6628 22.2082 12.7373 22.3537 12.7675C22.4992 12.7977 22.65 12.7822 22.787 12.723C22.9241 12.6638 23.0412 12.5635 23.1236 12.4348C23.206 12.3061 23.25 12.1548 23.25 12C23.25 11.7924 23.171 11.5934 23.0303 11.4466C22.8897 11.2998 22.6989 11.2174 22.5 11.2174Z" fill="#3C3B3F"/>
</svg>
