<svg xmlns="http://www.w3.org/2000/svg" xmlns:xlink="http://www.w3.org/1999/xlink" viewBox="0 0 498.88 314.38"><defs><style>.cls-1{fill:none;}.cls-2{fill:#d6d8e5;}.cls-3{clip-path:url(#clip-path);}.cls-4{fill:#653ab8;}.cls-5{fill:#4b2b89;}.cls-6{fill:#6c3ec5;}.cls-7{fill:#7945dc;}.cls-8{fill:#512e94;}.cls-9{fill:#492a85;}.cls-10{fill:#ffcea9;}.cls-11{fill:#2b2a30;}.cls-12{fill:#bf4b4b;}.cls-13{fill:#e26d6d;}.cls-14{fill:#f4f4f4;}.cls-15{fill:#3a2c6d;}.cls-16{fill:#bfbfbf;}.cls-17{fill:#e5e5e5;}.cls-18{fill:#ededed;}</style><clipPath id="clip-path" transform="translate(-1.12 -99.36)"><rect class="cls-1" width="500" height="500"/></clipPath></defs><title>Error_404_SVG</title><g id="Слой_2" data-name="Слой 2"><g id="Слой_1-2" data-name="Слой 1"><polygon class="cls-2" points="201.49 26.54 191.02 19.12 157.91 0 24.63 11.33 0.11 25.58 0 63.26 3.49 65.28 3.49 65.32 6.98 67.31 6.98 67.35 10.47 69.33 10.47 69.37 14.02 71.35 27.3 79.02 27.2 114.82 59.24 133.32 69.71 137.35 99.36 120.63 108.04 125.64 118.51 129.89 142.15 116.56 142.2 96.47 201.39 63.1 201.49 26.54"/><polygon class="cls-2" points="322.01 183.02 297.49 197.27 297.38 234.95 300.87 236.97 300.87 237.01 304.36 239 304.36 239.05 307.85 241.02 307.85 241.06 311.4 243.05 324.68 250.71 324.58 286.51 356.63 305.01 367.1 309.04 396.75 292.32 405.42 297.33 415.89 301.58 439.53 288.25 439.59 268.16 498.77 234.79 498.88 198.23 488.41 190.81 455.29 171.69 322.01 183.02"/><g class="cls-3"><path class="cls-2" d="M304.29,288.78l0,0,.51-.3,3.1-1.86,1.19-.75c.76-.47,1.51-.94,2.24-1.41l1.29-.84c.67-.43,1.32-.87,2-1.3l1.27-.87c.62-.42,1.23-.85,1.83-1.27l1.19-.85,1.75-1.29,1.08-.81,1.78-1.4.85-.68c.85-.69,1.67-1.37,2.45-2.06l1-.83c.37-.33.71-.66,1.06-1l.49-.46c.68-.64,1.32-1.28,1.93-1.92.14-.14.27-.29.4-.43.47-.51.93-1,1.36-1.52.17-.19.34-.39.5-.59l.42-.49c.35-.43.68-.85,1-1.28l.14-.19c.49-.66.95-1.32,1.37-2h0c.24-.38.48-.76.7-1.14.1-.17.18-.35.28-.52s.31-.57.45-.86.38-.77.56-1.15.25-.56.36-.84.12-.27.17-.4c.18-.45.33-.89.48-1.34q.29-.93.48-1.86c0-.07.05-.15.07-.23s0-.23.05-.35c.06-.29.1-.58.14-.86s.06-.43.08-.65.05-.58.07-.87,0-.27,0-.41,0-.31,0-.47l.1-36.56c0,.29,0,.58,0,.88l0,.3a18.73,18.73,0,0,0-3.26-11.74q-5.1-7.86-19.38-15.87c-1.48-.82-3-1.59-4.45-2.34-1.16-.64-2.32-1.26-3.49-1.85s-2.32-1.27-3.49-1.87A97.85,97.85,0,0,0,279.77,171a91,91,0,0,0-29-1.66,121.51,121.51,0,0,0-30.26,7.15A215.11,215.11,0,0,0,188,192.21q-16.94,9.84-26.85,18.79t-12.5,17.44a19.2,19.2,0,0,0-.84,6c0-.13,0-.27,0-.41l-.11,37.69a20.13,20.13,0,0,0,3.56,11.16Q156.56,291,170.5,299c1.18.68,2.36,1.34,3.54,2l1.16.59c.79.41,1.59.82,2.39,1.21.46.23.93.43,1.4.65.71.34,1.43.68,2.14,1,.51.23,1,.43,1.52.64.68.28,1.35.58,2,.84l.14.06c.24.1.48.17.72.27,1,.39,2,.77,3.06,1.12l1.36.45,2.59.81.72.22,1.19.32.95.25c1.05.27,2.11.53,3.16.76l.88.18c.75.16,1.49.3,2.24.43l.47.09q1.43.25,2.85.45l.17,0,.47.08q1.42.26,2.85.45l.17,0,.47.09,2.85.45a1,1,0,0,1,.17,0l.47.08c1,.17,1.92.32,2.89.45l.34,0,.79.1c.82.1,1.64.19,2.47.27l.94.09.67.06c.76.07,1.53.11,2.29.16h.23c.88.05,1.76.08,2.64.1h3.91l1,0h.55c.66,0,1.32-.06,2-.1l.88,0c1.08-.07,2.16-.15,3.24-.26l.25,0q1.91-.19,3.84-.45l1.29-.2c.86-.13,1.72-.25,2.58-.4l.32-.05,1.42-.27,2-.39,1.78-.4c.67-.15,1.35-.29,2-.46l1.8-.45,2-.53,1.83-.52,2-.61.56-.16,1.8-.59,1.16-.37c1.2-.41,2.41-.82,3.61-1.27A219.82,219.82,0,0,0,300.37,291q2-1.14,3.92-2.26m36.09-73.17h0c0,.21-.05.43-.08.64s-.09.58-.14.87c0,0,0,.06,0,.09a15.27,15.27,0,0,0,.24-1.61m-.34,2.1h0a18.23,18.23,0,0,1-.49,1.86,18.23,18.23,0,0,0,.49-1.86M149.8,242.43c-.11-.22-.19-.44-.28-.66.16.38.33.76.53,1.13-.09-.16-.18-.31-.25-.47" transform="translate(-1.12 -99.36)"/><polygon class="cls-4" points="126.61 19.43 126.5 57.11 48.31 63.77 48.42 26.09 126.61 19.43"/><polygon class="cls-5" points="58.26 59.15 58.15 96.83 0 63.26 0.11 25.58 58.26 59.15"/><polygon class="cls-6" points="191.02 19.12 190.92 56.8 113.83 101.6 113.94 63.91 191.02 19.12"/><polygon class="cls-5" points="108.14 87.95 108.04 125.64 90.19 115.33 90.3 77.65 108.14 87.95"/><polygon class="cls-6" points="131.78 74.22 131.68 111.9 108.04 125.64 108.14 87.95 131.78 74.22"/><polygon class="cls-5" points="59.35 95.64 59.24 133.32 27.2 114.82 27.3 77.14 59.35 95.64"/><polygon class="cls-6" points="90.3 77.65 90.19 115.33 59.24 133.32 59.35 95.64 90.3 77.65"/><path class="cls-7" d="M115.06,163.28l17.84,10.3-23.63,13.74L91.42,177,60.47,195l-32-18.5,31-18L1.23,124.94l24.52-14.25L159,99.36l33.12,19.12Zm-32-18.5,44.71-26-78.19,6.66L83,144.78" transform="translate(-1.12 -99.36)"/><path class="cls-8" d="M283.05,196c-.47-.27-.95-.52-1.43-.76l-.44-.2c-.36-.17-.72-.33-1.09-.48l-.27-.12-.16-.05c-.65-.25-1.32-.48-2-.68l-.15-.05-.28-.07c-.43-.12-.87-.23-1.32-.32l-.28-.07-.14,0q-.76-.15-1.56-.27h0c-.52-.08-1-.13-1.59-.18h-.11l-.39,0-1.17-.07H268.2q-1.05,0-2.13.15h-.14l-.58.07-.88.1-.79.12-.9.14-.25.05-.28,0c-.86.16-1.72.34-2.61.56-.63.15-1.29.32-2,.51l-.65.2-1.42.42-.3.1-.33.11c-1,.32-2,.66-3.05,1.05l-.2.08c-1,.38-2.09.8-3.18,1.24l-.5.2c-1.1.46-2.24,1-3.4,1.46l-.69.31c-1.18.53-2.38,1.09-3.62,1.68l-.51.25q-1.83.88-3.75,1.86l-.39.19c-1.32.68-2.69,1.4-4.08,2.14l-.8.43q-2.06,1.09-4.21,2.3l-.76.43c-1.52.85-3.05,1.72-4.63,2.64l-2.8,1.65-.87.52-1.53.92-.22.13c-1.05.64-2.08,1.27-3.07,1.89l-.57.36-2.33,1.48-.9.59L207,220.27l-.83.56c-.74.49-1.44,1-2.13,1.47l-.33.23c-.78.55-1.52,1.09-2.24,1.62l-.6.46-1.48,1.13-.65.52-1.33,1.09-.5.42c-.56.48-1.1,1-1.61,1.42l0,0c-.38.36-.74.7-1.09,1.05l-.27.27-.75.78-.33.37-.58.66-.3.37-.2.24q-.26.32-.48.63c-.19.26-.36.51-.53.77l-.17.28-.28.47h0c-.14.26-.28.52-.4.78l-.1.22c-.08.19-.16.37-.23.55l0,0,0,.08a9.27,9.27,0,0,0-.36,1.26h0a6.89,6.89,0,0,0-.13,1.09s0,.07,0,.1a1.09,1.09,0,0,0,0,.18l-.1,37.68c0-.09,0-.19,0-.28a8.3,8.3,0,0,1,.13-1.09h0a7.89,7.89,0,0,1,.37-1.27.93.93,0,0,1,0-.13l.23-.54c0-.07.06-.15.1-.23.12-.26.26-.52.41-.78s.2-.35.31-.52.09-.16.15-.24c.16-.25.34-.51.52-.77s.44-.58.68-.87c.1-.13.2-.25.31-.37s.37-.44.57-.66l.33-.37.76-.78.26-.27q.54-.54,1.14-1.08c.5-.47,1-.94,1.61-1.43l.5-.42c.42-.36.86-.72,1.33-1.09l.64-.51c.48-.38,1-.76,1.48-1.14l.6-.45c.72-.54,1.46-1.08,2.24-1.63L204,260c.68-.48,1.38-1,2.11-1.46l.83-.56,1.88-1.25.9-.58,2.34-1.49.56-.36c1-.62,2-1.25,3.08-1.89l1.71-1,.91-.55,2.8-1.64q2.35-1.36,4.62-2.63l.76-.44c1.44-.8,2.84-1.57,4.22-2.3l.8-.43c1.39-.74,2.75-1.46,4.08-2.14L236,241q1.92-1,3.75-1.86l.51-.25q1.86-.88,3.63-1.68l.68-.31c1.17-.51,2.3-1,3.4-1.46l.5-.2c1.09-.44,2.16-.86,3.18-1.24l.21-.08c1.05-.38,2.06-.73,3.05-1l.62-.2c.48-.16.95-.3,1.42-.43l.66-.2c.67-.18,1.33-.36,2-.51.88-.22,1.75-.39,2.6-.55l.54-.1.89-.15.79-.12.88-.1.72-.08c.73-.07,1.44-.12,2.14-.15H270l.58,0q.6,0,1.17.06l.5,0c.54,0,1.07.1,1.6.18h0c.52.08,1,.17,1.55.27l.43.1c.44.1.88.2,1.31.32l.44.12c.68.2,1.34.43,2,.68l.43.17q.54.22,1.08.48c.15.07.3.13.44.21q.74.34,1.44.75,6,3.47,6,7.9l.1-37.68q0-4.44-6-7.9" transform="translate(-1.12 -99.36)"/><path class="cls-9" d="M330,210.05q0,.45-.06.9c0,.22-.05.44-.08.66s-.09.6-.14.9l-.12.59a19.31,19.31,0,0,1-.49,1.92c-.18.59-.41,1.19-.64,1.79-.12.29-.24.57-.37.86s-.36.8-.55,1.19l-.46.89a35.31,35.31,0,0,1-2.34,3.75l-.14.2c-.44.6-.92,1.21-1.41,1.82l-.5.61c-.44.52-.89,1-1.36,1.56l-.4.45c-.62.66-1.26,1.32-1.93,2l-.49.47c-.65.63-1.31,1.25-2,1.88s-1.61,1.41-2.45,2.12l-.85.69c-.59.48-1.18,1-1.79,1.45l-1.07.83-1.75,1.33-1.2.88-1.83,1.32-1.26.89-2,1.34-1.28.86-2.25,1.46c-.39.26-.78.51-1.19.76-1,.64-2.05,1.29-3.1,1.93l-.5.31q-1.94,1.17-4,2.36a218.84,218.84,0,0,1-32.56,15.73c-1.21.45-2.41.88-3.61,1.3l-1.16.39-2.36.77-2.05.62-1.82.54-2,.55c-.61.15-1.21.32-1.81.46s-1.35.33-2,.48-1.19.28-1.78.4-1.35.27-2,.41L235,273l-2.6.42-1.28.19c-1.28.18-2.56.34-3.84.47s-2.32.21-3.48.29l-.89,0c-.84.05-1.68.09-2.52.11l-1,0c-.8,0-1.6,0-2.4,0h-1c-1.06,0-2.12,0-3.18-.11h-.23c-1-.06-2-.14-3-.22l-.95-.1c-.82-.08-1.64-.17-2.46-.28l-.79-.1c-1.08-.15-2.16-.31-3.24-.5l-.45-.09c-1.05-.19-2.09-.39-3.13-.61s-2.11-.49-3.17-.76l-.94-.25-1.91-.55c-.86-.25-1.73-.52-2.59-.8l-1.36-.45c-1-.36-2.05-.73-3.07-1.13-.28-.11-.57-.2-.86-.32-.67-.26-1.34-.56-2-.84l-1.52-.64c-.71-.31-1.42-.65-2.13-1l-1.42-.66c-.79-.39-1.58-.8-2.38-1.21l-1.16-.6c-1.18-.62-2.36-1.28-3.55-2q-13.93-8.06-19.24-16.17a23.14,23.14,0,0,1-1.56-2.75,19,19,0,0,1-2-8.42l-.11,37.69a20.13,20.13,0,0,0,3.56,11.16Q156.56,291,170.5,299c1.18.68,2.36,1.34,3.54,2l1.16.59c.79.41,1.59.82,2.39,1.21.46.23.93.43,1.4.65.71.34,1.43.68,2.14,1l1.52.64c.68.28,1.35.58,2,.84l.14.06c.24.1.48.17.72.26,1,.4,2,.78,3.06,1.13l1.36.45c.87.28,1.73.55,2.59.8l.72.23,1.19.32.95.25c1.05.27,2.11.53,3.16.76l.88.18c.75.16,1.49.3,2.24.43l.47.09c1,.17,1.92.32,2.89.46l.34,0,.79.1c.82.11,1.64.2,2.47.29l.94.09.67.06c.76.07,1.53.11,2.29.16h.23c.88.05,1.76.09,2.64.11h1.52c.79,0,1.59,0,2.39,0l1,0h.55c.66,0,1.32-.06,2-.1l.88,0c1.08-.07,2.16-.16,3.24-.26l.25,0c1.27-.13,2.55-.29,3.83-.46l1.3-.21c.86-.13,1.71-.26,2.58-.41l.32-.05,1.42-.28c.68-.14,1.35-.26,2-.41s1.18-.26,1.78-.4l2-.47,1.8-.47,2-.55c.61-.17,1.22-.36,1.82-.54s1.37-.4,2-.62l.56-.17,1.8-.6,1.16-.39c1.2-.42,2.4-.85,3.61-1.3a218.92,218.92,0,0,0,32.57-15.73q2-1.17,3.92-2.33l.05,0,.51-.31,3.1-1.92,1.19-.77,2.24-1.45,1.29-.87c.67-.45,1.32-.89,2-1.34l1.28-.89c.62-.44,1.23-.88,1.82-1.32.41-.29.81-.58,1.2-.88.6-.44,1.17-.88,1.75-1.33l1.08-.83c.61-.48,1.19-1,1.78-1.44l.85-.7c.85-.71,1.67-1.42,2.45-2.12l.95-.86c.37-.34.71-.68,1.06-1l.49-.47c.68-.66,1.32-1.32,1.93-2l.4-.45c.47-.52.93-1,1.36-1.56l.5-.61c.14-.17.29-.34.42-.51.35-.44.67-.87,1-1.31l.14-.2c.49-.68.95-1.36,1.37-2h0c.24-.39.48-.78.7-1.17.1-.19.18-.36.28-.54s.31-.59.45-.88.38-.8.55-1.2.26-.57.37-.86.12-.27.17-.41c.18-.46.33-.92.47-1.38.2-.64.36-1.28.49-1.91a2.1,2.1,0,0,0,.06-.24c0-.12,0-.24.06-.36.06-.3.1-.6.14-.9s.06-.44.08-.66.05-.6.07-.9c0-.14,0-.28,0-.42s0-.32,0-.49l.1-37.68c0,.3,0,.61,0,.91" transform="translate(-1.12 -99.36)"/><path class="cls-7" d="M316.48,232.47q-10,8.94-26.48,18.53a218.84,218.84,0,0,1-32.56,15.73,120.11,120.11,0,0,1-30.14,7.33,90.78,90.78,0,0,1-28.62-1.56,97.53,97.53,0,0,1-28.08-11.15q-13.93-8.06-19.24-16.17t-2.7-16.74q2.59-8.5,12.5-17.44T188,192.21a215.11,215.11,0,0,1,32.51-15.76,121.51,121.51,0,0,1,30.26-7.15,91,91,0,0,1,29,1.66,98,98,0,0,1,27.53,10.95q14.29,8.25,19.39,16.35A19.37,19.37,0,0,1,329.08,215q-2.61,8.5-12.6,17.45m-98,16.81q14.08-3.47,38.25-17.51,24.35-14.15,30.14-22.19T283.05,196q-9.48-5.48-23.41-2.12t-38.43,17.6q-24,13.94-29.92,22.12t3.57,13.65q9.51,5.49,23.6,2" transform="translate(-1.12 -99.36)"/><polygon class="cls-4" points="423.99 191.12 423.88 228.8 345.7 235.47 345.81 197.79 423.99 191.12"/><polygon class="cls-5" points="355.64 230.84 355.53 268.53 297.39 234.96 297.5 197.28 355.64 230.84"/><polygon class="cls-6" points="488.41 190.81 488.3 228.5 411.21 273.29 411.32 235.61 488.41 190.81"/><polygon class="cls-5" points="405.53 259.65 405.42 297.33 387.58 287.03 387.68 249.35 405.53 259.65"/><polygon class="cls-6" points="429.17 245.91 429.06 283.59 405.42 297.33 405.53 259.65 429.17 245.91"/><polygon class="cls-5" points="356.73 267.33 356.63 305.01 324.58 286.51 324.69 248.83 356.73 267.33"/><polygon class="cls-6" points="387.68 249.35 387.58 287.03 356.62 305.01 356.73 267.33 387.68 249.35"/><path class="cls-7" d="M412.45,335l17.84,10.31L406.65,359l-17.84-10.3-30.95,18-32.05-18.5,30.95-18-58.14-33.57,24.52-14.25,133.28-11.33,33.11,19.12Zm-32.05-18.5,44.72-26-78.18,6.66,33.46,19.32" transform="translate(-1.12 -99.36)"/><path class="cls-10" d="M368.28,326.87a53.44,53.44,0,0,0,7.66,10.43c.83,1,7.2-1.47,5.86-2.16s-5.5-6.5-7.59-10.37a131.81,131.81,0,0,1-4.46-14.17c-1.31-4.74-2.44-11.71-3.4-15s-2.92-4.51-4.88-5c-2.29-.53-3.77.1-3.36,2.87.74,4.88,4.54,23.79,10.17,33.36" transform="translate(-1.12 -99.36)"/><path class="cls-11" d="M364.63,401c2,1.61,4.88.14,5,.29a90.17,90.17,0,0,0,7.29,6.07c1.23,1,3.15,2.26,2.81,4.13-.63,3.32-6,2.3-8,1.28s-3.65-2.7-5.55-3.89c-1.36-.84-2.69-1.27-2.91-3-.12-1,.94-4.93,1.3-4.89" transform="translate(-1.12 -99.36)"/><path class="cls-12" d="M363.36,405.18c.26,1.64,1.58,2.09,2.93,2.93,1.93,1.2,3.63,2.93,5.64,3.95s6.49,1.88,7.8-.5c-.71,3.21-6,2.2-7.94,1.19s-3.65-2.7-5.55-3.89c-1.36-.84-2.69-1.28-2.9-3a2.77,2.77,0,0,1,0-.69" transform="translate(-1.12 -99.36)"/><path class="cls-11" d="M384.66,389.44c2,1.61,5.44-.15,5.58,0a75.42,75.42,0,0,0,6.51,5.88c1.24,1,3.16,2.27,2.81,4.13-.62,3.33-5.95,2.3-8,1.28s-3.66-2.7-5.56-3.88c-1.36-.85-2.69-1.28-2.9-3-.13-1,1.17-4.45,1.52-4.41" transform="translate(-1.12 -99.36)"/><path class="cls-12" d="M383.2,393.4c.26,1.64,1.58,2.09,2.92,2.93,1.94,1.2,3.64,2.93,5.65,3.95s6.49,1.87,7.8-.5c-.71,3.21-5.95,2.2-7.94,1.19s-3.65-2.71-5.55-3.89c-1.36-.84-2.7-1.28-2.91-3a2.85,2.85,0,0,1,0-.69" transform="translate(-1.12 -99.36)"/><path class="cls-13" d="M338.21,337.66C336,351.34,342.1,356.44,350,359.35c5.66,2.09,13.79,5.31,13.79,5.31s-.11,3-.17,9.74c-.06,5.93.72,27.59.72,27.59s3.28,1.7,6.05-.07c0,0,3.19-16.59,3.86-24.07.92-10.15,2.48-16.79,2-19-.46-1.92-11.55-7.38-15.07-10.3l23.24,7.79a41.34,41.34,0,0,0-.68,7.64c.22,8.06.66,25.49.66,25.49s3.19,2.3,5.91,0c0,0,5.85-34.51,5.14-39.08-.68-4.33-21.16-13.19-24.76-16.24A5.75,5.75,0,0,0,366.1,333Z" transform="translate(-1.12 -99.36)"/><path class="cls-14" d="M393.94,343.36l-15.62-9a.9.9,0,0,0-.9,0L350,350.16l16.06,9.27Z" transform="translate(-1.12 -99.36)"/><path class="cls-15" d="M365.37,356.12l-1.19.68c-.1.06-.09.16,0,.22l1.14.66a.42.42,0,0,0,.38,0l1.19-.68c.1-.06.08-.16,0-.22l-1.13-.66a.42.42,0,0,0-.38,0" transform="translate(-1.12 -99.36)"/><path class="cls-15" d="M367.05,355.14l-1.19.69c-.1.06-.08.16,0,.22l1.14.66a.4.4,0,0,0,.37,0l1.19-.69c.1,0,.09-.15,0-.21l-1.14-.66a.43.43,0,0,0-.38,0" transform="translate(-1.12 -99.36)"/><path class="cls-15" d="M368.76,354.16l-1.19.69c-.1,0-.09.15,0,.22l1.14.65a.43.43,0,0,0,.38,0l1.19-.69c.1-.06.08-.15,0-.22l-1.13-.65a.4.4,0,0,0-.38,0" transform="translate(-1.12 -99.36)"/><path class="cls-15" d="M370.42,353.2l-1.19.69c-.1.05-.08.15,0,.21l1.14.66a.44.44,0,0,0,.37,0l1.19-.69c.1-.06.09-.16,0-.22l-1.14-.66a.42.42,0,0,0-.38,0" transform="translate(-1.12 -99.36)"/><path class="cls-15" d="M372.11,352.23l-1.19.68c-.1.06-.09.16,0,.22l1.14.66a.42.42,0,0,0,.38,0l1.19-.68c.1-.06.08-.16,0-.22l-1.13-.66a.42.42,0,0,0-.38,0" transform="translate(-1.12 -99.36)"/><path class="cls-15" d="M373.79,351.25l-1.19.69c-.1.06-.08.15,0,.22l1.14.65a.38.38,0,0,0,.37,0l1.19-.69c.1-.05.09-.15,0-.22l-1.14-.65a.43.43,0,0,0-.38,0" transform="translate(-1.12 -99.36)"/><path class="cls-15" d="M375.48,350.28l-1.19.69c-.1,0-.09.15,0,.22l1.14.65a.43.43,0,0,0,.38,0l1.19-.69c.1-.06.08-.15,0-.22l-1.13-.65a.4.4,0,0,0-.38,0" transform="translate(-1.12 -99.36)"/><path class="cls-15" d="M377.16,349.31,376,350c-.09.06-.08.16,0,.22l1.14.66a.42.42,0,0,0,.38,0l1.19-.68c.09-.06.08-.16,0-.22l-1.14-.66a.42.42,0,0,0-.38,0" transform="translate(-1.12 -99.36)"/><path class="cls-15" d="M378.85,348.33l-1.19.69c-.1.06-.09.16,0,.22l1.14.66a.42.42,0,0,0,.38,0l1.19-.69c.1-.05.08-.15,0-.21l-1.13-.66a.43.43,0,0,0-.38,0" transform="translate(-1.12 -99.36)"/><path class="cls-15" d="M380.53,347.36l-1.19.69c-.09.05-.08.15,0,.22l1.14.65a.43.43,0,0,0,.38,0l1.19-.69c.09-.05.08-.15,0-.22l-1.14-.65a.4.4,0,0,0-.38,0" transform="translate(-1.12 -99.36)"/><path class="cls-15" d="M382.22,346.39l-1.19.68c-.1.06-.09.16,0,.22l1.14.66a.46.46,0,0,0,.38,0l1.19-.69c.1-.06.08-.16,0-.22l-1.13-.66a.42.42,0,0,0-.38,0" transform="translate(-1.12 -99.36)"/><path class="cls-15" d="M383.9,345.41l-1.19.69c-.09.06-.08.16,0,.22l1.14.66a.42.42,0,0,0,.38,0l1.19-.68c.09-.06.08-.16,0-.22l-1.14-.66a.46.46,0,0,0-.38,0" transform="translate(-1.12 -99.36)"/><path class="cls-15" d="M385.59,344.44l-1.19.69c-.1.06-.09.15,0,.22l1.14.65a.4.4,0,0,0,.38,0l1.19-.69c.1-.05.08-.15,0-.22l-1.13-.65a.43.43,0,0,0-.38,0" transform="translate(-1.12 -99.36)"/><path class="cls-15" d="M388.08,343l-2,1.16c-.1,0-.08.15,0,.22l1.14.65a.41.41,0,0,0,.37,0l2-1.16c.09-.05.08-.15,0-.22l-1.14-.65a.4.4,0,0,0-.38,0" transform="translate(-1.12 -99.36)"/><path class="cls-15" d="M366.23,353.73l-1.19.69c-.09.05-.08.15,0,.22l1.14.65a.43.43,0,0,0,.38,0l1.19-.69c.09-.06.08-.15,0-.22l-1.14-.65a.4.4,0,0,0-.38,0" transform="translate(-1.12 -99.36)"/><path class="cls-15" d="M367.92,352.76l-1.19.68c-.1.06-.08.16,0,.22l1.13.66a.42.42,0,0,0,.38,0l1.19-.68c.1-.06.09-.16,0-.22l-1.14-.66a.42.42,0,0,0-.38,0" transform="translate(-1.12 -99.36)"/><path class="cls-15" d="M369.61,351.78l-1.19.69c-.1,0-.09.15,0,.22l1.13.65a.4.4,0,0,0,.38,0l1.19-.69c.1-.05.09-.15,0-.22L370,351.8a.43.43,0,0,0-.38,0" transform="translate(-1.12 -99.36)"/><path class="cls-15" d="M371.3,350.81l-1.19.68c-.1.06-.09.16,0,.22l1.14.66a.42.42,0,0,0,.38,0l1.19-.68c.1-.06.08-.16,0-.22l-1.13-.66a.42.42,0,0,0-.38,0" transform="translate(-1.12 -99.36)"/><path class="cls-15" d="M373,349.84l-1.19.69c-.1.05-.08.15,0,.22l1.13.65a.43.43,0,0,0,.38,0l1.19-.69c.1-.06.09-.15,0-.22l-1.14-.65a.4.4,0,0,0-.38,0" transform="translate(-1.12 -99.36)"/><path class="cls-15" d="M374.66,348.87l-1.19.68c-.1.06-.08.16,0,.22l1.13.66a.42.42,0,0,0,.38,0l1.19-.68c.1-.06.09-.16,0-.22l-1.14-.66a.42.42,0,0,0-.38,0" transform="translate(-1.12 -99.36)"/><path class="cls-15" d="M376.35,347.89l-1.19.69c-.1.05-.09.15,0,.22l1.14.65a.43.43,0,0,0,.38,0l1.19-.69c.1,0,.08-.15,0-.22l-1.13-.65a.4.4,0,0,0-.38,0" transform="translate(-1.12 -99.36)"/><path class="cls-15" d="M378,346.92l-1.19.68c-.1.06-.09.16,0,.22l1.14.66a.42.42,0,0,0,.38,0l1.19-.68c.1-.06.08-.16,0-.22l-1.13-.66a.42.42,0,0,0-.38,0" transform="translate(-1.12 -99.36)"/><path class="cls-15" d="M379.72,345.94l-1.19.69c-.09.06-.08.15,0,.22l1.14.65a.4.4,0,0,0,.38,0l1.19-.69c.09-.05.08-.15,0-.22L380.1,346a.43.43,0,0,0-.38,0" transform="translate(-1.12 -99.36)"/><path class="cls-15" d="M381.41,345l-1.19.68c-.1.06-.08.16,0,.22l1.14.66a.4.4,0,0,0,.37,0l1.19-.68c.1-.06.09-.16,0-.22l-1.14-.66a.42.42,0,0,0-.38,0" transform="translate(-1.12 -99.36)"/><path class="cls-15" d="M383.1,344l-1.19.69c-.1.06-.09.15,0,.22l1.13.66a.42.42,0,0,0,.38,0l1.19-.69c.1-.05.09-.15,0-.22l-1.13-.65a.43.43,0,0,0-.38,0" transform="translate(-1.12 -99.36)"/><path class="cls-15" d="M384.79,343l-1.19.69c-.1.05-.09.15,0,.21l1.13.66a.46.46,0,0,0,.38,0l1.19-.69c.1-.06.09-.16,0-.22l-1.13-.66a.42.42,0,0,0-.38,0" transform="translate(-1.12 -99.36)"/><path class="cls-15" d="M364.55,354.71l-2,1.15c-.09.06-.08.16,0,.22l1.14.66a.42.42,0,0,0,.38,0l2-1.15c.09-.06.08-.16,0-.22l-1.14-.66a.4.4,0,0,0-.37,0" transform="translate(-1.12 -99.36)"/><path class="cls-15" d="M388,342.94l-1.19.69a.43.43,0,0,1-.35,0l-1.2-.7a.1.1,0,0,1,0-.2l.09-.06c.09-.05.09-.13,0-.19l-1.27-.73a.1.1,0,0,1,0-.2l.76-.44a.39.39,0,0,1,.35,0l1.19.69.24.14.18.1.18.1,1,.59c.1.06.1.15,0,.21" transform="translate(-1.12 -99.36)"/><path class="cls-15" d="M358.84,352.34l-1.19.69c-.1.05-.08.15,0,.22l1.13.65a.43.43,0,0,0,.38,0l1.19-.69c.1-.06.09-.15,0-.22l-1.14-.65a.4.4,0,0,0-.38,0" transform="translate(-1.12 -99.36)"/><path class="cls-15" d="M360.52,351.37l-1.19.69c-.1.05-.08.15,0,.22l1.13.65a.43.43,0,0,0,.38,0l1.19-.69c.1-.05.09-.15,0-.22l-1.14-.65a.4.4,0,0,0-.38,0" transform="translate(-1.12 -99.36)"/><path class="cls-15" d="M362.2,350.4l-1.19.69c-.1.05-.08.15,0,.22l1.14.65a.41.41,0,0,0,.37,0l1.19-.69c.1-.05.09-.15,0-.22l-1.14-.65a.4.4,0,0,0-.38,0" transform="translate(-1.12 -99.36)"/><path class="cls-15" d="M376.51,342.14l-1.19.69c-.1.05-.08.15,0,.21l1.13.66a.43.43,0,0,0,.38,0l1.19-.69c.1-.06.09-.15,0-.22l-1.14-.65a.4.4,0,0,0-.38,0" transform="translate(-1.12 -99.36)"/><path class="cls-15" d="M378.19,341.17l-1.19.69c-.1.05-.08.15,0,.21l1.13.66a.43.43,0,0,0,.38,0l1.19-.69c.1-.06.09-.16,0-.22l-1.14-.66a.42.42,0,0,0-.38,0" transform="translate(-1.12 -99.36)"/><path class="cls-15" d="M379.87,340.2l-1.19.69c-.1.05-.08.15,0,.22l1.13.65a.43.43,0,0,0,.38,0l1.19-.69c.1-.06.09-.15,0-.22l-1.14-.65a.4.4,0,0,0-.38,0" transform="translate(-1.12 -99.36)"/><path class="cls-15" d="M381.55,339.23l-1.19.69c-.1.05-.08.15,0,.21l1.13.66a.43.43,0,0,0,.38,0l1.19-.69c.1-.06.09-.16,0-.22l-1.14-.65a.4.4,0,0,0-.38,0" transform="translate(-1.12 -99.36)"/><path class="cls-15" d="M364.31,349.18l-1.62.94c-.1.05-.08.15,0,.22l1.13.65a.43.43,0,0,0,.38,0l1.63-.94c.09-.06.08-.15,0-.22l-1.14-.65a.4.4,0,0,0-.38,0" transform="translate(-1.12 -99.36)"/><path class="cls-15" d="M374.83,343.11l-1.62.94c-.1.05-.09.15,0,.22l1.14.65a.43.43,0,0,0,.38,0l1.62-.94c.1-.06.09-.15,0-.22l-1.14-.65a.4.4,0,0,0-.38,0" transform="translate(-1.12 -99.36)"/><path class="cls-15" d="M372.72,344.33l-7.92,4.57c-.09.05-.08.15,0,.22l1.14.65a.43.43,0,0,0,.38,0l7.91-4.57c.1-.06.08-.15,0-.22l-1.13-.65a.4.4,0,0,0-.38,0" transform="translate(-1.12 -99.36)"/><path class="cls-15" d="M365.06,352.52l-1.19.69c-.1.06-.09.15,0,.22l1.13.65a.4.4,0,0,0,.38,0l1.19-.69c.1-.05.09-.15,0-.22l-1.13-.65a.43.43,0,0,0-.38,0" transform="translate(-1.12 -99.36)"/><path class="cls-15" d="M366.74,351.55l-1.19.69c-.09.05-.08.15,0,.22l1.14.65a.41.41,0,0,0,.37,0l1.19-.69c.1-.05.09-.15,0-.22l-1.14-.65a.4.4,0,0,0-.38,0" transform="translate(-1.12 -99.36)"/><path class="cls-15" d="M368.42,350.58l-1.18.69c-.1.05-.09.15,0,.22l1.14.65a.43.43,0,0,0,.38,0l1.19-.69c.09-.06.08-.15,0-.22l-1.14-.65a.4.4,0,0,0-.38,0" transform="translate(-1.12 -99.36)"/><path class="cls-15" d="M370.11,349.61l-1.19.68c-.1.06-.09.16,0,.22l1.13.66a.42.42,0,0,0,.38,0l1.19-.68c.1-.06.09-.16,0-.22l-1.13-.66a.42.42,0,0,0-.38,0" transform="translate(-1.12 -99.36)"/><path class="cls-15" d="M371.79,348.64l-1.19.68c-.1.06-.08.16,0,.22l1.13.66a.42.42,0,0,0,.38,0l1.19-.68c.1-.06.09-.16,0-.22l-1.14-.66a.42.42,0,0,0-.38,0" transform="translate(-1.12 -99.36)"/><path class="cls-15" d="M373.47,347.66l-1.19.69c-.09.06-.08.16,0,.22l1.14.66a.42.42,0,0,0,.38,0l1.19-.68c.09-.06.08-.16,0-.22l-1.14-.66a.46.46,0,0,0-.38,0" transform="translate(-1.12 -99.36)"/><path class="cls-15" d="M375.16,346.69l-1.19.69c-.1.06-.09.15,0,.22l1.13.65a.4.4,0,0,0,.38,0l1.19-.69c.1-.05.09-.15,0-.22l-1.13-.65a.43.43,0,0,0-.38,0" transform="translate(-1.12 -99.36)"/><path class="cls-15" d="M376.84,345.72l-1.19.69c-.1,0-.08.15,0,.22l1.13.65a.43.43,0,0,0,.38,0l1.19-.69c.1-.06.09-.15,0-.22l-1.14-.65a.4.4,0,0,0-.38,0" transform="translate(-1.12 -99.36)"/><path class="cls-15" d="M378.52,344.75l-1.19.69c-.09.05-.08.15,0,.21l1.14.66a.43.43,0,0,0,.38,0l1.19-.69c.09-.06.08-.15,0-.22l-1.14-.66a.42.42,0,0,0-.38,0" transform="translate(-1.12 -99.36)"/><path class="cls-15" d="M380.21,343.78l-1.19.68c-.1.06-.09.16,0,.22l1.14.66a.42.42,0,0,0,.38,0l1.19-.68c.1-.06.08-.16,0-.22l-1.13-.66a.42.42,0,0,0-.38,0" transform="translate(-1.12 -99.36)"/><path class="cls-15" d="M381.89,342.8l-1.19.69c-.1.06-.08.16,0,.22l1.13.66a.42.42,0,0,0,.38,0l1.19-.68c.1-.06.09-.16,0-.22l-1.14-.66a.46.46,0,0,0-.38,0" transform="translate(-1.12 -99.36)"/><path class="cls-15" d="M383.57,341.83l-1.19.69c-.09.06-.08.16,0,.22l1.14.66a.42.42,0,0,0,.38,0l1.19-.69c.09-.05.08-.15,0-.21l-1.14-.66a.43.43,0,0,0-.38,0" transform="translate(-1.12 -99.36)"/><path class="cls-15" d="M363.38,353.5l-2.47,1.42c-.09.05-.08.15,0,.22l1.14.65a.43.43,0,0,0,.38,0l2.46-1.42c.09-.06.08-.16,0-.22l-1.13-.66a.42.42,0,0,0-.38,0" transform="translate(-1.12 -99.36)"/><path class="cls-15" d="M362.59,352.06l-1.19.69c-.1.06-.09.15,0,.22l1.13.65a.4.4,0,0,0,.38,0l1.19-.69c.1-.05.09-.15,0-.22l-1.13-.65a.43.43,0,0,0-.38,0" transform="translate(-1.12 -99.36)"/><path class="cls-15" d="M364.27,351.09l-1.19.69c-.09.05-.08.15,0,.22l1.14.65a.43.43,0,0,0,.38,0l1.18-.69c.1-.06.09-.15,0-.22l-1.14-.65a.4.4,0,0,0-.38,0" transform="translate(-1.12 -99.36)"/><path class="cls-15" d="M366,350.12l-1.19.69c-.1.05-.09.15,0,.22l1.14.65a.43.43,0,0,0,.38,0l1.19-.69c.1-.06.08-.15,0-.22l-1.13-.65a.4.4,0,0,0-.38,0" transform="translate(-1.12 -99.36)"/><path class="cls-15" d="M367.64,349.15l-1.19.68c-.1.06-.09.16,0,.22l1.13.66a.42.42,0,0,0,.38,0l1.19-.68c.1-.06.09-.16,0-.22l-1.13-.66a.42.42,0,0,0-.38,0" transform="translate(-1.12 -99.36)"/><path class="cls-15" d="M369.32,348.18l-1.19.68c-.1.06-.08.16,0,.22l1.13.66a.42.42,0,0,0,.38,0l1.19-.68c.1-.06.09-.16,0-.22l-1.14-.66a.42.42,0,0,0-.38,0" transform="translate(-1.12 -99.36)"/><path class="cls-15" d="M371,347.2l-1.19.69c-.09.06-.08.16,0,.22l1.14.66a.42.42,0,0,0,.38,0l1.19-.68c.09-.06.08-.16,0-.22l-1.14-.66a.46.46,0,0,0-.38,0" transform="translate(-1.12 -99.36)"/><path class="cls-15" d="M372.69,346.23l-1.19.69c-.1.06-.09.15,0,.22l1.14.65a.4.4,0,0,0,.38,0l1.19-.69c.1-.05.08-.15,0-.22l-1.13-.65a.43.43,0,0,0-.38,0" transform="translate(-1.12 -99.36)"/><path class="cls-15" d="M374.37,345.26l-1.19.69c-.1.05-.08.15,0,.22l1.13.65a.43.43,0,0,0,.38,0l1.19-.69c.1-.06.09-.15,0-.22l-1.14-.65a.4.4,0,0,0-.38,0" transform="translate(-1.12 -99.36)"/><path class="cls-15" d="M376.05,344.29l-1.19.69c-.09,0-.08.15,0,.22l1.14.65a.43.43,0,0,0,.38,0l1.18-.69c.1-.06.09-.15,0-.22l-1.14-.65a.4.4,0,0,0-.38,0" transform="translate(-1.12 -99.36)"/><path class="cls-15" d="M377.74,343.32l-1.19.68c-.1.06-.09.16,0,.22l1.14.66a.46.46,0,0,0,.38,0l1.19-.69c.1-.06.08-.16,0-.22l-1.13-.66a.42.42,0,0,0-.38,0" transform="translate(-1.12 -99.36)"/><path class="cls-15" d="M379.42,342.35l-1.19.68c-.1.06-.09.16,0,.22l1.13.66a.42.42,0,0,0,.38,0l1.19-.68c.1-.06.09-.16,0-.22l-1.13-.66a.42.42,0,0,0-.38,0" transform="translate(-1.12 -99.36)"/><path class="cls-15" d="M383.18,340.17l-3.27,1.89c-.1.06-.08.16,0,.22l1.13.66a.42.42,0,0,0,.38,0l3.28-1.89c.09-.05.08-.15,0-.22l-1.14-.65a.43.43,0,0,0-.38,0" transform="translate(-1.12 -99.36)"/><path class="cls-15" d="M360.91,353l-1.63.94c-.09.06-.08.16,0,.22l1.14.66a.42.42,0,0,0,.38,0l1.62-.94c.1-.05.08-.15,0-.21l-1.13-.66a.46.46,0,0,0-.38,0" transform="translate(-1.12 -99.36)"/><path class="cls-15" d="M389.78,344l-23.9,13.8c-.1.05-.09.15,0,.22l.57.32a.43.43,0,0,0,.38,0l23.9-13.8c.1-.06.08-.16,0-.22l-.57-.33a.4.4,0,0,0-.37,0" transform="translate(-1.12 -99.36)"/><polygon class="cls-16" points="360.69 245.23 360.84 245.32 364.97 247.7 372.31 243.46 372.46 243.38 368.18 240.9 360.69 245.23"/><polygon class="cls-17" points="360.84 245.32 364.97 247.7 372.31 243.46 368.18 241.08 360.84 245.32"/><path class="cls-17" d="M350,350.16v.36a1.52,1.52,0,0,0,.75,1.31l14.56,8.4a1.43,1.43,0,0,0,.75.2,1.49,1.49,0,0,0,.76-.2L393.18,345a1.51,1.51,0,0,0,.76-1.31v-.36l-27.85,16.07Z" transform="translate(-1.12 -99.36)"/><path class="cls-14" d="M366.52,359.66a1.81,1.81,0,0,0,1.54-.12l26.22-15.14a1.82,1.82,0,0,0,.87-1.25L398,326c0-.1,0-.2,0-.29a1.77,1.77,0,0,0-.53-1.27L370.26,340.2a1.35,1.35,0,0,0-.64.93Z" transform="translate(-1.12 -99.36)"/><path class="cls-17" d="M366.09,359.43l.18.11.25.12,3.1-18.53a1.35,1.35,0,0,1,.64-.93l27.25-15.73a1.65,1.65,0,0,0-.36-.28L369.84,340a1.31,1.31,0,0,0-.64.92Z" transform="translate(-1.12 -99.36)"/><path class="cls-10" d="M346.3,286.17s.33,6.51.19,7.09-3,2.48-3.82,3.17,4.5,5.94,7.1,7.13,10.8-1.94,11-6-1.41-7.42-2.67-7.6-11.75-3.81-11.75-3.81" transform="translate(-1.12 -99.36)"/><path class="cls-14" d="M345.57,294.38s4.73,7.05,11.32,7.71c2.08-2,2.27-9.35-.61-11.68,0,0,2.65-2.13,4.46-1.72a9.36,9.36,0,0,1,4.07,5.2A42.53,42.53,0,0,1,367.14,309c-.11,6.91,0,24.38,0,24.38s-1,6.68-6.95,10a21.49,21.49,0,0,1-15.65,2.16c-3.34-.78-4.58-2.65-5.73-5.08.3-4.84,2.21-14.81,1.41-20.91s-2.1-10.63-2.43-15.56.65-4.83,3.12-6.58a39.58,39.58,0,0,1,4.66-3" transform="translate(-1.12 -99.36)"/><path class="cls-10" d="M353.15,350.52a34.77,34.77,0,0,0-3.7-2.12,7.71,7.71,0,0,1-3.17-1.92c-1.16-1.13-3.06-5.43-4.41-9.61a43.17,43.17,0,0,1-1.6-14.55c.58-5.87,2.69-14.09,3.23-17.47s-.56-4.72-2.13-6c-1.84-1.46-4.39-.81-5.75,3.92a91.79,91.79,0,0,0-3,20.06,45.81,45.81,0,0,0,2.3,14.82,53.35,53.35,0,0,0,5.65,11.65c.65,1.09.86,2.06,1.85,4.29a15.1,15.1,0,0,0,4.33,5.76c1.65,1.19,2.44,1.35,2.83,1.12s.38-.81-.31-1.44a12.29,12.29,0,0,1-3-3.31s1.44,1.45,2.39,2.25a12.54,12.54,0,0,0,2.77,1.76c1,.42,2.31-.4,1.63-1.05s-1.39-1-2.78-2.17a12.19,12.19,0,0,1-2-2.13,23.21,23.21,0,0,0,3.07,2,5.2,5.2,0,0,0,2.8.76c.52,0,1.14-.74.18-1.43a18.6,18.6,0,0,1-3.67-2.5c-1.06-1.06-1.66-2-1.36-2s.88.65,2.12,1,2.57,0,2.73-.65.11-.55-1.05-1.13" transform="translate(-1.12 -99.36)"/><path class="cls-10" d="M361,276.46h0c-.78-5.06-4.42-8.89-9.63-8.6a10.05,10.05,0,0,0-9.49,10.6,10,10,0,0,0,4.38,7.7,10.78,10.78,0,0,0,.8,2.22c1.85,2.15,7.43,3.49,9,3.26,2.06-.3,3.17-1.16,4.15-3.41,1.73-4,1.19-9.27.76-11.77" transform="translate(-1.12 -99.36)"/><path class="cls-11" d="M346.3,286.16h0l.48-4.41s-3.61-9.33,4.91-7.54c5.62,1.19,7,1.7,8.74-2.07s-4.32-7.17-11.49-6.23a9.91,9.91,0,0,0-8.86,10c.19,2.78.93,8.39,6.22,10.2" transform="translate(-1.12 -99.36)"/><path class="cls-18" d="M331.72,311.49s4.65,4.62,10.15,3.29c.78-.53,2.67-11.34,2.67-11.34s0-6-4.59-5.83-8.23,13.88-8.23,13.88" transform="translate(-1.12 -99.36)"/><path class="cls-18" d="M366.82,302.52s2.43-.12,3.43-1.53c-.18-2.42-3.28-11.61-9.51-12.3a11.56,11.56,0,0,1,3.89,4.7,60.09,60.09,0,0,1,2.19,9.13" transform="translate(-1.12 -99.36)"/><path class="cls-11" d="M63.88,103.33c1.23-2,10.6-3.27,13.69,4.67,1.17,3,1,10.72,2,15.56s3.28,7.58,4.11,11.51-.52,10.5-10,11.67-16.74-2.16-19-5.18-2.28-9.42,0-12.87,4.09-6.24,4-10.73Z" transform="translate(-1.12 -99.36)"/><path class="cls-11" d="M70.07,102s-7.06-2-11.34,1.79a10.47,10.47,0,0,0-3,10.46c.57,2.23,1.71,5.27,3.48,5.44S70.07,102,70.07,102" transform="translate(-1.12 -99.36)"/><path class="cls-10" d="M72.77,121.22s-.46,7.87-.32,8.44,3.09,1.14,3.92,1.83-4.28,8.67-6.88,9.85-10.64-1.83-11.2-5.83c-.51-3.69,2.31-6.55,3.39-7.55a16,16,0,0,1,2.22,0l.23-3.82c3.52-1.12,8.64-2.87,8.64-2.87" transform="translate(-1.12 -99.36)"/><path class="cls-10" d="M49.62,163.22a41.56,41.56,0,0,1-7.85,8.16,40.79,40.79,0,0,0-2.68,3.09,11.87,11.87,0,0,1-5.26,3.5c-1.78.46-2.53.34-2.83,0s-.16-.85.62-1.15A9.86,9.86,0,0,0,35.07,175s-1.66.76-2.7,1.13a10.62,10.62,0,0,1-2.91.57c-1,0-2-1.14-1.23-1.47s1.48-.36,3-.93a9.65,9.65,0,0,0,2.28-1.17,19.47,19.47,0,0,1-3.24.67,5,5,0,0,1-2.71-.31c-.46-.2-.86-1,.17-1.31a15.34,15.34,0,0,0,3.91-.9c1.2-.55,2-1.12,1.69-1.24s-1,.26-2.16.17-2.33-.85-2.32-1.5.26-.29,1.44-.39,2.12-.64,3.81-.64a11.92,11.92,0,0,0,3.75-.45c1.28-.38,4.16-3.83,6.37-7a46,46,0,0,0,5.64-11.42c1.33-4.36,2.91-12.52,4-15.35s3.07-4.13,4.92-4.19c2.17-.07,3.1,2.79,2.52,5.26-1,4.33-5.84,21-11.72,28.72" transform="translate(-1.12 -99.36)"/><path class="cls-14" d="M73.85,130.43c2.21.34,4.74,1.52,5.09,2.73.4,1.42,1.28,8.07-.64,13.14s-4.08,14.2-5.18,16.39c0,0-8.76,1.56-16.48-3.22,0,0-.46-8.81-.49-11.71-7.12-6.22-1-13.87,5-19.83a13.12,13.12,0,0,1,2.17,0s-5.38,6.36-1.64,10c8-2.43,9.61-6,12.17-7.46" transform="translate(-1.12 -99.36)"/><path class="cls-10" d="M58.07,111.46h0c.79-5,4.44-8.87,9.66-8.57a10,10,0,0,1,5,18.33,10.16,10.16,0,0,1-.8,2.21c-1.86,2.15-6.76,3.51-8.38,3.53-1.4,0-2.61-1.29-3.92-3.46-2.73-4.53-2-9.54-1.6-12" transform="translate(-1.12 -99.36)"/><path class="cls-11" d="M69.34,103c3.66.72,6.67,1.75,7.66,5.34.68,2.48,1.57,7.19.72,9.18l-.52,1.43-4.43,2.29s-2.07-1.73-1.42-6.78a3.67,3.67,0,0,0-.63-1.91,5.75,5.75,0,0,1-.61-1.52,5.7,5.7,0,0,0-2.87-3.11c-3.3-1.85-8.13-.25-8.8.41A9.63,9.63,0,0,1,69.34,103" transform="translate(-1.12 -99.36)"/><path class="cls-11" d="M49.2,224c-1.85,1.51-4.73.47-4.87.61-1.88,1.88-4.69,3.53-6.78,5.17-1.15.91-2.95,2.13-2.62,3.87.58,3.12,5.57,2.16,7.46,1.21s3.42-2.54,5.2-3.65c1.27-.79,2.52-1.19,2.72-2.8.12-1-.78-4.44-1.11-4.41" transform="translate(-1.12 -99.36)"/><path class="cls-12" d="M50.29,227.78c-.25,1.54-1.48,2-2.74,2.75-1.82,1.12-3.41,2.75-5.29,3.7S36.17,236,35,233.76c.66,3,5.57,2.06,7.44,1.12s3.42-2.54,5.2-3.65c1.27-.79,2.52-1.19,2.72-2.8a3,3,0,0,0,0-.65" transform="translate(-1.12 -99.36)"/><path class="cls-11" d="M40.18,219c-1.69,1.38-4.25.61-4.38.74-1.72,1.73-4.28,3.21-6.2,4.72-1.05.83-2.7,1.94-2.4,3.54.53,2.86,5.1,2,6.83,1.11s3.13-2.33,4.77-3.34c1.16-.72,2.31-1.1,2.49-2.57.11-.89-.81-4.23-1.11-4.2" transform="translate(-1.12 -99.36)"/><path class="cls-12" d="M41.27,222.57c-.23,1.4-1.36,1.79-2.51,2.51-1.66,1-3.12,2.52-4.85,3.39s-5.57,1.61-6.69-.43c.61,2.75,5.1,1.89,6.81,1s3.13-2.32,4.77-3.33c1.16-.73,2.31-1.1,2.49-2.57a2.46,2.46,0,0,0,0-.59" transform="translate(-1.12 -99.36)"/><path class="cls-10" d="M65.82,164.63a27.49,27.49,0,0,1-14.75-2.13c.08,1.56.16,3,.16,3-6,4.24-18,11.38-18.83,16.31.78,15.57,3.15,37.81,3.82,38.13,1.89.9,3.21.75,4.09-.14,0,0,3.79-13.19,2.69-32.55,0,0,21-9.3,22.37-14.38.79-2.93.63-3.3.57-6.33,0-.63-.06-1.25-.12-1.87" transform="translate(-1.12 -99.36)"/><path class="cls-10" d="M72.79,162.61c-4.16,1.94-8,2.18-12.68,1.7.06,2.08.3,6,.3,6-6,4.24-18,11.38-18.84,16.31.79,15.57,2.24,38.12,2.93,38.4a5,5,0,0,0,5-.58s3.79-13,2.69-32.38c0-.36,18-9.22,20.28-11.57,2.45-2.51,2.73-5.82,2.67-9.14-.06-3.12-1-5.69-2.33-8.74" transform="translate(-1.12 -99.36)"/><path class="cls-13" d="M77.2,165.91s6.66,11.79-4.44,17.85c-11.7,6.39-18.84,7.89-18.84,7.89l-1.75.41s.83,4.28,0,12.25c0,0-8.35,2.92-19-6.46l-3.53-11.36-.42-3A6.31,6.31,0,0,1,31,177.75c2.55-2.31,10.65-8.24,15.69-11.64s9.06-6.64,9.06-6.64l.88-.82s6,4.75,16.89,3.16a17.55,17.55,0,0,1,3.71,4.1" transform="translate(-1.12 -99.36)"/><path class="cls-10" d="M70.6,183.4c1-.69,1.68-1.68,3.22-2.54a12.72,12.72,0,0,0,3.24-2.31c1-1,2.53-5.3,3.32-9.48A41.35,41.35,0,0,0,80.14,155a97.93,97.93,0,0,0-5.57-16.18c-1.48-3.13-.65-5,.7-6.42,1.59-1.63,3.25-1.59,5.13,2.78s4.89,12.63,5.85,19a42,42,0,0,1-.19,14.34,52.73,52.73,0,0,1-3.82,12c-.49,1.13-.57,2.08-1.24,4.34a14.58,14.58,0,0,1-3.45,6c-1.44,1.34-2.17,1.6-2.57,1.42s-.47-.73.12-1.42a11.84,11.84,0,0,0,2.42-3.53s-1.21,1.57-2,2.45a11.51,11.51,0,0,1-2.43,2c-.88.53-2.27-.09-1.69-.8s1.21-1.1,2.39-2.42a11.71,11.71,0,0,0,1.62-2.28,21.86,21.86,0,0,1-2.7,2.28,5,5,0,0,1-2.59,1.07c-.49,0-1.17-.57-.34-1.35A18.41,18.41,0,0,0,73,185.59c.88-1.14,1.35-2.06,1.06-2.05s-.76.72-1.9,1.25-2.46.35-2.69-.28.12-.41,1.16-1.11" transform="translate(-1.12 -99.36)"/><path class="cls-18" d="M83.31,141.06s-4,3.58-8.53,2.85L73,136.41s-1.19-4,2.2-5.46,6.61,2.44,8.07,10.11" transform="translate(-1.12 -99.36)"/><path class="cls-18" d="M61.15,127.93s-4.37-1.33-9,8.35l1.73,1.05s4.57-6.91,7.28-9.4" transform="translate(-1.12 -99.36)"/><path class="cls-14" d="M31,169.68l15.57-9a.89.89,0,0,1,.89,0l27.3,15.76-16,9.25Z" transform="translate(-1.12 -99.36)"/><path class="cls-15" d="M59.14,182.15l1.19.69c.1,0,.08.15,0,.22l-1.14.65a.41.41,0,0,1-.37,0L57.6,183c-.1-.06-.09-.15,0-.22l1.14-.65a.4.4,0,0,1,.38,0" transform="translate(-1.12 -99.36)"/><path class="cls-15" d="M57.45,181.18l1.19.69c.1,0,.09.15,0,.21l-1.14.66a.46.46,0,0,1-.38,0l-1.19-.69c-.1-.06-.08-.16,0-.22l1.13-.66a.42.42,0,0,1,.38,0" transform="translate(-1.12 -99.36)"/><path class="cls-15" d="M55.75,180.19l1.19.69c.09.06.08.15,0,.22l-1.14.66a.4.4,0,0,1-.37,0l-1.19-.69c-.1-.05-.09-.15,0-.21l1.14-.66a.43.43,0,0,1,.38,0" transform="translate(-1.12 -99.36)"/><path class="cls-15" d="M54.08,179.23l1.19.69c.1.06.09.15,0,.22l-1.13.65a.4.4,0,0,1-.38,0l-1.19-.69c-.1-.05-.09-.15,0-.22l1.13-.65a.43.43,0,0,1,.38,0" transform="translate(-1.12 -99.36)"/><path class="cls-15" d="M52.4,178.26l1.19.69c.09.05.08.15,0,.22l-1.14.65a.43.43,0,0,1-.38,0l-1.19-.69c-.09-.06-.08-.15,0-.22l1.14-.65a.4.4,0,0,1,.38,0" transform="translate(-1.12 -99.36)"/><path class="cls-15" d="M50.71,177.29l1.19.68c.1.06.09.16,0,.22l-1.13.66a.42.42,0,0,1-.38,0l-1.19-.68c-.1-.06-.09-.16,0-.22l1.13-.66a.42.42,0,0,1,.38,0" transform="translate(-1.12 -99.36)"/><path class="cls-15" d="M49,176.31l1.19.69c.09.06.08.15,0,.22l-1.14.66a.42.42,0,0,1-.38,0l-1.19-.69c-.09,0-.08-.15,0-.21l1.14-.66a.43.43,0,0,1,.38,0" transform="translate(-1.12 -99.36)"/><path class="cls-15" d="M47.34,175.34l1.19.69c.1.05.09.15,0,.22l-1.13.65a.43.43,0,0,1-.38,0l-1.19-.69c-.1-.06-.09-.15,0-.22l1.13-.65a.4.4,0,0,1,.38,0" transform="translate(-1.12 -99.36)"/><path class="cls-15" d="M45.66,174.37l1.19.68c.09.06.08.16,0,.22l-1.14.66a.46.46,0,0,1-.38,0l-1.19-.69c-.09-.06-.08-.16,0-.22l1.14-.66a.42.42,0,0,1,.38,0" transform="translate(-1.12 -99.36)"/><path class="cls-15" d="M44,173.39l1.19.69c.1.06.09.16,0,.22L44,175a.42.42,0,0,1-.38,0l-1.19-.68c-.1-.06-.09-.16,0-.22l1.13-.66a.46.46,0,0,1,.38,0" transform="translate(-1.12 -99.36)"/><path class="cls-15" d="M42.29,172.42l1.19.69c.09.06.08.15,0,.22l-1.14.65a.4.4,0,0,1-.38,0l-1.19-.69c-.09-.05-.08-.15,0-.22l1.14-.65a.43.43,0,0,1,.38,0" transform="translate(-1.12 -99.36)"/><path class="cls-15" d="M40.6,171.45l1.19.69c.1.05.09.15,0,.22l-1.13.65a.43.43,0,0,1-.38,0l-1.19-.69c-.1-.06-.09-.15,0-.22l1.13-.65a.4.4,0,0,1,.38,0" transform="translate(-1.12 -99.36)"/><path class="cls-15" d="M38.92,170.48l1.19.68c.09.06.08.16,0,.22l-1.14.66a.42.42,0,0,1-.38,0l-1.19-.68c-.09-.06-.08-.16,0-.22l1.14-.66a.42.42,0,0,1,.38,0" transform="translate(-1.12 -99.36)"/><path class="cls-15" d="M36.42,169l2,1.15c.1.06.09.16,0,.22l-1.13.66a.42.42,0,0,1-.38,0l-2-1.15c-.1-.06-.09-.16,0-.22l1.14-.66a.42.42,0,0,1,.38,0" transform="translate(-1.12 -99.36)"/><path class="cls-15" d="M58.27,179.76l1.19.69c.1.06.09.16,0,.22l-1.13.66a.42.42,0,0,1-.38,0l-1.19-.68c-.1-.06-.09-.16,0-.22l1.13-.66a.46.46,0,0,1,.38,0" transform="translate(-1.12 -99.36)"/><path class="cls-15" d="M56.58,178.79l1.19.69c.1.05.09.15,0,.22l-1.14.65a.43.43,0,0,1-.38,0L55,179.68c-.1-.06-.08-.15,0-.22l1.13-.65a.4.4,0,0,1,.38,0" transform="translate(-1.12 -99.36)"/><path class="cls-15" d="M54.9,177.82l1.18.68c.1.06.09.16,0,.22l-1.14.66a.42.42,0,0,1-.38,0l-1.19-.68c-.09-.06-.08-.16,0-.22l1.14-.66a.42.42,0,0,1,.38,0" transform="translate(-1.12 -99.36)"/><path class="cls-15" d="M53.21,176.84l1.19.69c.09.05.08.15,0,.22l-1.14.65a.43.43,0,0,1-.38,0l-1.19-.69c-.09,0-.08-.15,0-.22l1.14-.65a.43.43,0,0,1,.38,0" transform="translate(-1.12 -99.36)"/><path class="cls-15" d="M51.53,175.87l1.19.69c.1.06.09.16,0,.22l-1.14.66a.42.42,0,0,1-.38,0L50,176.76c-.1,0-.08-.15,0-.21l1.13-.66a.46.46,0,0,1,.38,0" transform="translate(-1.12 -99.36)"/><path class="cls-15" d="M49.84,174.9l1.19.69c.1,0,.09.15,0,.22l-1.14.65a.43.43,0,0,1-.38,0l-1.19-.69c-.09-.06-.08-.15,0-.22l1.14-.65a.38.38,0,0,1,.37,0" transform="translate(-1.12 -99.36)"/><path class="cls-15" d="M48.16,173.93l1.19.68c.09.06.08.16,0,.22l-1.14.66a.42.42,0,0,1-.38,0l-1.19-.68c-.09-.06-.08-.16,0-.22l1.14-.66a.42.42,0,0,1,.38,0" transform="translate(-1.12 -99.36)"/><path class="cls-15" d="M46.47,173l1.19.69c.1.05.08.15,0,.22l-1.13.65a.43.43,0,0,1-.38,0l-1.19-.69c-.1-.06-.09-.15,0-.22l1.14-.65a.4.4,0,0,1,.38,0" transform="translate(-1.12 -99.36)"/><path class="cls-15" d="M44.78,172l1.19.68c.1.06.09.16,0,.22l-1.13.66a.42.42,0,0,1-.38,0l-1.19-.68c-.1-.06-.09-.16,0-.22L44.4,172a.42.42,0,0,1,.38,0" transform="translate(-1.12 -99.36)"/><path class="cls-15" d="M43.09,171l1.19.69c.1.06.09.15,0,.22l-1.14.65a.4.4,0,0,1-.38,0l-1.19-.69c-.1,0-.08-.15,0-.22l1.13-.65a.43.43,0,0,1,.38,0" transform="translate(-1.12 -99.36)"/><path class="cls-15" d="M41.4,170l1.19.68c.1.06.09.16,0,.22l-1.14.66a.42.42,0,0,1-.38,0l-1.19-.68c-.09-.06-.08-.16,0-.22L41,170a.4.4,0,0,1,.37,0" transform="translate(-1.12 -99.36)"/><path class="cls-15" d="M39.72,169.05l1.19.69c.09.06.08.15,0,.22l-1.14.65a.4.4,0,0,1-.38,0l-1.19-.69c-.09-.05-.08-.15,0-.22l1.14-.65a.43.43,0,0,1,.38,0" transform="translate(-1.12 -99.36)"/><path class="cls-15" d="M60,180.74l2,1.16c.1,0,.09.15,0,.21l-1.13.66a.46.46,0,0,1-.38,0l-2-1.16c-.1-.06-.09-.15,0-.22l1.14-.65a.4.4,0,0,1,.38,0" transform="translate(-1.12 -99.36)"/><path class="cls-15" d="M36.5,169l1.19.69a.36.36,0,0,0,.35,0l1.2-.69c.1-.06.1-.15,0-.21l-.1,0a.1.1,0,0,1,0-.19l1.27-.73c.1-.06.1-.15,0-.21l-.75-.44a.41.41,0,0,0-.36,0l-1.18.68-.25.14-.18.11-.17.1-1,.59c-.1.06-.1.15,0,.2" transform="translate(-1.12 -99.36)"/><path class="cls-15" d="M65.66,178.38l1.19.68c.1.06.09.16,0,.22l-1.14.66a.42.42,0,0,1-.38,0l-1.19-.68c-.1-.06-.08-.16,0-.22l1.13-.66a.42.42,0,0,1,.38,0" transform="translate(-1.12 -99.36)"/><path class="cls-15" d="M64,177.41l1.19.68c.1.06.09.16,0,.22L64,179a.42.42,0,0,1-.38,0l-1.19-.68c-.1-.06-.08-.16,0-.22l1.13-.66a.42.42,0,0,1,.38,0" transform="translate(-1.12 -99.36)"/><path class="cls-15" d="M62.3,176.44l1.19.68c.1.06.09.16,0,.22l-1.14.66a.42.42,0,0,1-.38,0l-1.19-.68c-.1-.06-.08-.16,0-.22l1.13-.66a.42.42,0,0,1,.38,0" transform="translate(-1.12 -99.36)"/><path class="cls-15" d="M48,168.17l1.19.69c.1.06.09.15,0,.22l-1.14.66a.42.42,0,0,1-.38,0l-1.19-.69c-.1-.05-.08-.15,0-.22l1.13-.65a.43.43,0,0,1,.38,0" transform="translate(-1.12 -99.36)"/><path class="cls-15" d="M46.31,167.2l1.19.69c.1.06.09.15,0,.22l-1.14.66a.42.42,0,0,1-.38,0l-1.19-.69c-.1-.05-.08-.15,0-.21l1.13-.66a.43.43,0,0,1,.38,0" transform="translate(-1.12 -99.36)"/><path class="cls-15" d="M44.63,166.23l1.19.69c.1.06.09.15,0,.22l-1.14.66a.42.42,0,0,1-.38,0l-1.19-.69c-.1-.05-.08-.15,0-.22l1.13-.65a.43.43,0,0,1,.38,0" transform="translate(-1.12 -99.36)"/><path class="cls-15" d="M43,165.26l1.19.69c.1.06.09.15,0,.22l-1.14.66a.42.42,0,0,1-.38,0l-1.19-.69c-.1-.05-.08-.15,0-.22l1.13-.65a.43.43,0,0,1,.38,0" transform="translate(-1.12 -99.36)"/><path class="cls-15" d="M60.19,175.21l1.62.94c.1.06.09.16,0,.22l-1.14.66a.42.42,0,0,1-.38,0l-1.62-.94c-.1,0-.09-.15,0-.21l1.14-.66a.46.46,0,0,1,.38,0" transform="translate(-1.12 -99.36)"/><path class="cls-15" d="M49.67,169.14l1.63.94c.09.06.08.15,0,.22l-1.14.66a.42.42,0,0,1-.38,0L48.13,170c-.1-.05-.08-.15,0-.22l1.13-.65a.43.43,0,0,1,.38,0" transform="translate(-1.12 -99.36)"/><path class="cls-15" d="M51.79,170.36l7.91,4.57c.1.06.09.16,0,.22l-1.13.66a.42.42,0,0,1-.38,0l-7.91-4.57c-.1-.05-.09-.15,0-.22l1.14-.65a.43.43,0,0,1,.38,0" transform="translate(-1.12 -99.36)"/><path class="cls-15" d="M59.45,178.56l1.19.68c.09.06.08.16,0,.22l-1.14.66a.46.46,0,0,1-.38,0l-1.19-.69c-.09-.06-.08-.16,0-.22l1.14-.66a.42.42,0,0,1,.38,0" transform="translate(-1.12 -99.36)"/><path class="cls-15" d="M57.76,177.59l1.19.68c.1.06.09.16,0,.22l-1.14.66a.42.42,0,0,1-.38,0l-1.19-.68c-.1-.06-.08-.16,0-.22l1.13-.66a.42.42,0,0,1,.38,0" transform="translate(-1.12 -99.36)"/><path class="cls-15" d="M56.08,176.61l1.19.69c.1.06.08.15,0,.22l-1.13.66a.42.42,0,0,1-.38,0l-1.19-.69c-.1-.05-.09-.15,0-.22l1.14-.65a.43.43,0,0,1,.38,0" transform="translate(-1.12 -99.36)"/><path class="cls-15" d="M54.4,175.64l1.19.69c.09.06.08.15,0,.22l-1.14.65a.4.4,0,0,1-.38,0l-1.19-.69c-.09-.05-.08-.15,0-.22l1.14-.65a.43.43,0,0,1,.38,0" transform="translate(-1.12 -99.36)"/><path class="cls-15" d="M52.71,174.67l1.19.69c.1,0,.09.15,0,.22l-1.14.65a.43.43,0,0,1-.38,0l-1.19-.69c-.1-.06-.08-.15,0-.22l1.13-.65a.4.4,0,0,1,.38,0" transform="translate(-1.12 -99.36)"/><path class="cls-15" d="M51,173.7l1.19.69c.1.05.08.15,0,.21l-1.13.66a.46.46,0,0,1-.38,0l-1.19-.69c-.1-.06-.09-.16,0-.22l1.14-.66a.42.42,0,0,1,.38,0" transform="translate(-1.12 -99.36)"/><path class="cls-15" d="M49.35,172.73l1.19.68c.09.06.08.16,0,.22l-1.14.66a.42.42,0,0,1-.38,0l-1.19-.68c-.09-.06-.08-.16,0-.22l1.14-.66a.42.42,0,0,1,.38,0" transform="translate(-1.12 -99.36)"/><path class="cls-15" d="M47.66,171.75l1.19.69c.1.06.09.16,0,.22l-1.14.66a.42.42,0,0,1-.38,0l-1.19-.69c-.1,0-.08-.15,0-.21l1.13-.66a.46.46,0,0,1,.38,0" transform="translate(-1.12 -99.36)"/><path class="cls-15" d="M46,170.78l1.19.69c.1.06.09.15,0,.22l-1.13.65a.4.4,0,0,1-.38,0l-1.19-.69c-.1,0-.09-.15,0-.22l1.13-.65a.43.43,0,0,1,.38,0" transform="translate(-1.12 -99.36)"/><path class="cls-15" d="M44.3,169.81l1.19.69c.09.05.08.15,0,.22l-1.14.65a.4.4,0,0,1-.38,0l-1.19-.69c-.09,0-.08-.15,0-.22l1.14-.65a.43.43,0,0,1,.38,0" transform="translate(-1.12 -99.36)"/><path class="cls-15" d="M42.61,168.84l1.19.69c.1.05.09.15,0,.22l-1.14.65a.43.43,0,0,1-.38,0l-1.19-.69c-.1-.06-.08-.15,0-.22l1.13-.65a.4.4,0,0,1,.38,0" transform="translate(-1.12 -99.36)"/><path class="cls-15" d="M40.93,167.87l1.19.68c.1.06.09.16,0,.22l-1.13.66a.42.42,0,0,1-.38,0l-1.19-.68c-.1-.06-.09-.16,0-.22l1.13-.66a.42.42,0,0,1,.38,0" transform="translate(-1.12 -99.36)"/><path class="cls-15" d="M61.13,179.53,63.59,181c.1.06.09.15,0,.22l-1.13.65a.4.4,0,0,1-.38,0l-2.46-1.42c-.1-.06-.09-.16,0-.22l1.14-.66a.42.42,0,0,1,.38,0" transform="translate(-1.12 -99.36)"/><path class="cls-15" d="M61.91,178.1l1.19.68c.1.06.09.16,0,.22l-1.14.66a.42.42,0,0,1-.38,0L60.37,179c-.09-.06-.08-.16,0-.22l1.14-.66a.4.4,0,0,1,.37,0" transform="translate(-1.12 -99.36)"/><path class="cls-15" d="M60.23,177.13l1.19.68c.1.06.09.16,0,.22l-1.13.66a.42.42,0,0,1-.38,0L58.69,178c-.1-.06-.09-.16,0-.22l1.13-.66a.42.42,0,0,1,.38,0" transform="translate(-1.12 -99.36)"/><path class="cls-15" d="M58.55,176.15l1.19.69c.1.06.08.15,0,.22l-1.13.66a.42.42,0,0,1-.38,0L57,177c-.1,0-.09-.15,0-.22l1.14-.65a.43.43,0,0,1,.38,0" transform="translate(-1.12 -99.36)"/><path class="cls-15" d="M56.87,175.18l1.19.69c.09,0,.08.15,0,.22l-1.14.65a.4.4,0,0,1-.38,0l-1.19-.69c-.09,0-.08-.15,0-.22l1.14-.65a.43.43,0,0,1,.38,0" transform="translate(-1.12 -99.36)"/><path class="cls-15" d="M55.18,174.21l1.19.69c.1,0,.09.15,0,.22l-1.14.65a.43.43,0,0,1-.38,0l-1.19-.69c-.1-.06-.08-.15,0-.22l1.13-.65a.4.4,0,0,1,.38,0" transform="translate(-1.12 -99.36)"/><path class="cls-15" d="M53.5,173.24l1.19.69c.1,0,.08.15,0,.21l-1.13.66a.46.46,0,0,1-.38,0L52,174.13c-.1-.06-.09-.16,0-.22l1.14-.66a.42.42,0,0,1,.38,0" transform="translate(-1.12 -99.36)"/><path class="cls-15" d="M51.82,172.27,53,173c.09.06.08.16,0,.22l-1.14.66a.42.42,0,0,1-.38,0l-1.19-.68c-.09-.06-.08-.16,0-.22l1.14-.66a.42.42,0,0,1,.38,0" transform="translate(-1.12 -99.36)"/><path class="cls-15" d="M50.13,171.3l1.19.68c.1.06.09.16,0,.22l-1.14.66a.42.42,0,0,1-.38,0l-1.19-.68c-.09-.06-.08-.16,0-.22l1.14-.66a.4.4,0,0,1,.37,0" transform="translate(-1.12 -99.36)"/><path class="cls-15" d="M48.45,170.32l1.19.69c.1.06.09.15,0,.22l-1.13.66a.42.42,0,0,1-.38,0l-1.19-.69c-.1-.05-.09-.15,0-.22l1.13-.65a.43.43,0,0,1,.38,0" transform="translate(-1.12 -99.36)"/><path class="cls-15" d="M46.77,169.35,48,170c.1.06.08.15,0,.22l-1.13.65a.4.4,0,0,1-.38,0l-1.19-.69c-.1-.05-.09-.15,0-.22l1.14-.65a.43.43,0,0,1,.38,0" transform="translate(-1.12 -99.36)"/><path class="cls-15" d="M45.09,168.38l1.19.69c.09.05.08.15,0,.22l-1.14.65a.43.43,0,0,1-.38,0l-1.19-.69c-.09-.06-.08-.15,0-.22l1.14-.65a.4.4,0,0,1,.38,0" transform="translate(-1.12 -99.36)"/><path class="cls-15" d="M41.32,166.21l3.27,1.89c.1.05.09.15,0,.22l-1.14.65a.43.43,0,0,1-.38,0l-3.27-1.89c-.1-.06-.09-.16,0-.22l1.14-.66a.42.42,0,0,1,.38,0" transform="translate(-1.12 -99.36)"/><path class="cls-15" d="M63.6,179.07l1.62.94c.1.05.09.15,0,.21l-1.13.66a.46.46,0,0,1-.38,0L62.06,180c-.1-.06-.09-.16,0-.22l1.14-.66a.42.42,0,0,1,.38,0" transform="translate(-1.12 -99.36)"/><path class="cls-15" d="M34.73,170l23.9,13.8c.1.06.09.15,0,.22l-.57.33a.4.4,0,0,1-.37,0l-23.91-13.8c-.09,0-.08-.15,0-.22l.57-.32a.43.43,0,0,1,.38,0" transform="translate(-1.12 -99.36)"/><polygon class="cls-16" points="61.88 71.55 61.73 71.64 57.61 74.02 50.29 69.79 50.14 69.71 54.41 67.24 61.88 71.55"/><polygon class="cls-17" points="61.72 71.64 57.61 74.02 50.29 69.79 54.41 67.42 61.72 71.64"/><path class="cls-17" d="M74.74,176.46v.37a1.5,1.5,0,0,1-.75,1.3l-14.5,8.37a1.53,1.53,0,0,1-1.51,0L31.74,171.35a1.49,1.49,0,0,1-.75-1.3v-.37l27.74,16Z" transform="translate(-1.12 -99.36)"/><path class="cls-17" d="M58.73,185.71v1a1.58,1.58,0,0,1-.75-.19L31.74,171.35a1.5,1.5,0,0,1-.76-1.3v-.37Z" transform="translate(-1.12 -99.36)"/><path class="cls-14" d="M58.31,185.93a1.79,1.79,0,0,1-1.53-.12L30.65,170.72a1.8,1.8,0,0,1-.87-1.24l-2.86-17.06a1.46,1.46,0,0,1,0-.29,1.8,1.8,0,0,1,.52-1.27l27.16,15.68a1.35,1.35,0,0,1,.64.92Z" transform="translate(-1.12 -99.36)"/><path class="cls-17" d="M58.73,185.71l-.18.1-.24.12-3.09-18.47a1.35,1.35,0,0,0-.64-.92L27.42,150.86a1.88,1.88,0,0,1,.36-.27L55,166.3a1.31,1.31,0,0,1,.64.92Z" transform="translate(-1.12 -99.36)"/></g></g></g></svg>