<svg xmlns="http://www.w3.org/2000/svg" viewBox="0 0 500 463.99"><defs><style>.cls-1{fill:#d6d8e5;opacity:0.3;}.cls-2{fill:#dd990e;}.cls-3{fill:#f9cb07;}.cls-4{fill:#cc8b09;}.cls-5{fill:#e8a30a;}.cls-6{fill:#f9ca06;}.cls-7{fill:#b9cc00;}.cls-8{fill:#839100;}.cls-9{fill:#a2c900;}.cls-10{opacity:0.3;}.cls-11{opacity:0.15;}.cls-12{fill:#ebedca;}.cls-13{opacity:0.4;}.cls-14{opacity:0.25;}.cls-15{opacity:0.35;}</style></defs><title>Money_SVG</title><g id="Слой_2" data-name="Слой 2"><g id="Слой_1-2" data-name="Слой 1"><g id="Coin"><ellipse class="cls-1" cx="59.37" cy="282.36" rx="29.32" ry="16.93"/><ellipse class="cls-2" cx="68.07" cy="279.46" rx="29.32" ry="16.93"/><polygon class="cls-2" points="38.77 279.72 38.77 272.01 44.56 277.17 38.77 279.72"/><polygon class="cls-2" points="97.39 272.21 97.39 279.46 94.43 282.61 92.97 274.3 97.39 272.21"/><ellipse class="cls-3" cx="68.07" cy="272.21" rx="29.32" ry="16.93"/><path class="cls-4" d="M89,272.73c-.3,2.85-2.33,5.66-6.11,7.84-8.19,4.73-21.48,4.73-29.68,0-3.78-2.18-5.81-5-6.1-7.84-.35-3.33,1.68-6.74,6.1-9.29,8.2-4.74,21.49-4.74,29.68,0C87.33,266,89.37,269.4,89,272.73Z"/><path class="cls-5" d="M89,272.73c-.3,2.85-2.33,5.66-6.11,7.84-8.19,4.73-21.48,4.73-29.68,0-3.78-2.18-5.81-5-6.1-7.84.29-2.85,2.32-5.65,6.1-7.84,8.2-4.73,21.49-4.73,29.68,0C86.69,267.08,88.72,269.88,89,272.73Z"/><path class="cls-4" d="M67.76,268.77a4.11,4.11,0,0,0-.76.06c-.35.05-.74.12-1.16.21s-.88.2-1.34.34a10.16,10.16,0,0,0-1.31.5l3.37,1.95.6-.22q1.29-.42,2.43-.72a11,11,0,0,1,2.18-.36,7.88,7.88,0,0,1,2,.13,6.65,6.65,0,0,1,1.92.75,3.9,3.9,0,0,1,1.45,1.28,1.74,1.74,0,0,1,.21,1.32,2.86,2.86,0,0,1-.79,1.29A7.89,7.89,0,0,1,75,276.52l2.15,1.24-1.17.67-2.17-1.25a17.12,17.12,0,0,1-3.21,1.22,21.54,21.54,0,0,1-3.55.66L66,277a9.15,9.15,0,0,0,1-.08,13,13,0,0,0,1.41-.24q.78-.17,1.65-.42a11.81,11.81,0,0,0,1.64-.61l-3.35-1.94-.44.15-.45.14c-.85.28-1.62.5-2.32.66a11.23,11.23,0,0,1-2,.26,6.52,6.52,0,0,1-1.74-.16,6.18,6.18,0,0,1-1.62-.65,4.09,4.09,0,0,1-1.4-1.21,2,2,0,0,1-.38-1.3,2.4,2.4,0,0,1,.55-1.31,6.13,6.13,0,0,1,1.36-1.24l-2-1.14,1.17-.68,2,1.14a14.18,14.18,0,0,1,2.9-1.06,20.14,20.14,0,0,1,2.89-.53ZM62,272.3a2.43,2.43,0,0,0,1.46.32,10.21,10.21,0,0,0,2-.45l-3.15-1.83C61.19,271.1,61.09,271.75,62,272.3Zm11.06.92a2.52,2.52,0,0,0-1.57-.28,12.71,12.71,0,0,0-2.21.49l3.14,1.81C73.8,274.42,74,273.75,73.1,273.22Z"/><path class="cls-4" d="M66,277a10.8,10.8,0,0,0,0-1.14l1.29.83-.56.86Z"/><polygon class="cls-4" points="77.18 277.76 77.18 276.62 74.39 276.83 75.99 277.93 77.18 277.76"/><polygon class="cls-4" points="77.41 273.58 77.41 272.44 75.33 273.19 77.41 273.58"/><path class="cls-4" d="M68.77,273.52l.69-.66,2.45,1.69-.15.5s-1.83-.77-1.89-.82Z"/><path class="cls-4" d="M62.36,269.94l3.25,1.84.66-.48-.44-.51a4.29,4.29,0,0,0-1-.85c-.24,0-1.78-.73-1.78-.73Z"/><polygon class="cls-4" points="67.77 268.77 67.77 267.63 66.27 267.15 65.95 268.04 66.03 268.45 67.77 268.77"/><polygon class="cls-4" points="57.85 267.95 57.85 266.81 59.58 267 59.02 268.1 57.85 267.95"/><path class="cls-4" d="M57.91,271.81v-1.19h2l-.49,1.06-.86.95Z"/><path class="cls-6" d="M67.76,267.63a4.11,4.11,0,0,0-.76.06c-.35.05-.74.12-1.16.21s-.88.21-1.34.34a8.91,8.91,0,0,0-1.31.51l3.37,1.94.6-.21c.86-.29,1.67-.53,2.43-.73a11,11,0,0,1,2.18-.36,7.88,7.88,0,0,1,2,.14,6.37,6.37,0,0,1,1.92.75,3.88,3.88,0,0,1,1.45,1.27,1.74,1.74,0,0,1,.21,1.32,2.89,2.89,0,0,1-.79,1.3A8.26,8.26,0,0,1,75,275.38l2.15,1.24-1.17.67-2.17-1.24a17.84,17.84,0,0,1-3.21,1.21,21.56,21.56,0,0,1-3.55.67l-1.13-2a8.54,8.54,0,0,0,1-.07,13.25,13.25,0,0,0,1.41-.25q.78-.16,1.65-.42a11.81,11.81,0,0,0,1.64-.61l-3.35-1.93-.44.15-.45.14c-.85.28-1.62.49-2.32.65a9.62,9.62,0,0,1-2,.26,6.52,6.52,0,0,1-1.74-.16A5.85,5.85,0,0,1,59.7,273a4.19,4.19,0,0,1-1.4-1.2,2,2,0,0,1-.38-1.3,2.37,2.37,0,0,1,.55-1.31A5.9,5.9,0,0,1,59.83,268l-2-1.15,1.17-.67,2,1.13a14.18,14.18,0,0,1,2.9-1.06,20.07,20.07,0,0,1,2.89-.52ZM62,271.16a2.43,2.43,0,0,0,1.46.32,10.21,10.21,0,0,0,2-.45l-3.15-1.82C61.19,270,61.09,270.62,62,271.16Zm11.06.93a2.52,2.52,0,0,0-1.57-.29,12.71,12.71,0,0,0-2.21.49l3.14,1.81C73.8,273.28,74,272.61,73.1,272.09Z"/></g><g id="Coin-2" data-name="Coin"><ellipse class="cls-2" cx="70.47" cy="270.44" rx="29.32" ry="16.93"/><polygon class="cls-2" points="41.16 270.69 41.16 262.98 46.95 268.14 41.16 270.69"/><polygon class="cls-2" points="99.78 263.18 99.78 270.44 96.82 273.58 95.37 265.28 99.78 263.18"/><ellipse class="cls-3" cx="70.47" cy="263.18" rx="29.32" ry="16.93"/><path class="cls-4" d="M91.42,263.71c-.3,2.85-2.33,5.66-6.11,7.84-8.2,4.73-21.49,4.73-29.68,0-3.78-2.18-5.81-5-6.1-7.84-.36-3.34,1.68-6.75,6.1-9.29,8.19-4.74,21.48-4.74,29.68,0C89.73,257,91.77,260.37,91.42,263.71Z"/><path class="cls-5" d="M91.42,263.71c-.3,2.85-2.33,5.66-6.11,7.84-8.2,4.73-21.49,4.73-29.68,0-3.78-2.18-5.81-5-6.1-7.84.29-2.85,2.32-5.66,6.1-7.84,8.19-4.74,21.48-4.74,29.68,0C89.09,258.05,91.12,260.86,91.42,263.71Z"/><path class="cls-4" d="M70.16,259.74a7.25,7.25,0,0,0-.77.06c-.34.05-.73.12-1.16.21s-.87.21-1.33.35a8.35,8.35,0,0,0-1.32.5L69,262.8l.61-.21c.85-.29,1.66-.53,2.42-.73a11.13,11.13,0,0,1,2.18-.36,7.82,7.82,0,0,1,2,.14,6.37,6.37,0,0,1,1.92.75,3.73,3.73,0,0,1,1.45,1.27,1.7,1.7,0,0,1,.22,1.32,3,3,0,0,1-.79,1.3,8.17,8.17,0,0,1-1.54,1.21l2.14,1.24-1.17.68-2.16-1.25A18.24,18.24,0,0,1,73,269.37a20.46,20.46,0,0,1-3.54.67l-1.13-2a8.4,8.4,0,0,0,.94-.07c.43-.05.9-.13,1.42-.24s1.06-.26,1.64-.43a10.78,10.78,0,0,0,1.65-.61l-3.35-1.93-.44.15-.46.14c-.84.28-1.62.49-2.32.65a10.42,10.42,0,0,1-2,.27,7,7,0,0,1-1.74-.17,5.67,5.67,0,0,1-1.62-.65,4.17,4.17,0,0,1-1.4-1.2,2,2,0,0,1-.38-1.3,2.39,2.39,0,0,1,.56-1.31,5.7,5.7,0,0,1,1.36-1.24l-2-1.15,1.17-.67,2,1.13a14.71,14.71,0,0,1,2.89-1.06,20.19,20.19,0,0,1,2.9-.52Zm-5.73,3.54a2.44,2.44,0,0,0,1.46.31,9.6,9.6,0,0,0,2-.45l-3.16-1.82C63.59,262.08,63.48,262.73,64.43,263.28Zm11.07.92a2.48,2.48,0,0,0-1.58-.28,12.68,12.68,0,0,0-2.2.48l3.14,1.81C76.19,265.39,76.41,264.72,75.5,264.2Z"/><path class="cls-4" d="M68.35,268c0-.08,0-1.14,0-1.14l1.28.83-.55.86Z"/><polygon class="cls-4" points="79.57 268.73 79.57 267.59 76.78 267.81 78.39 268.9 79.57 268.73"/><polygon class="cls-4" points="79.81 264.56 79.81 263.41 77.72 264.17 79.81 264.56"/><path class="cls-4" d="M71.16,264.5l.7-.67,2.44,1.7-.15.49s-1.83-.77-1.89-.81S71.16,264.5,71.16,264.5Z"/><path class="cls-4" d="M64.75,260.92,68,262.76l.67-.48s-.41-.47-.44-.52-.77-.8-1-.84-1.79-.74-1.79-.74Z"/><polygon class="cls-4" points="70.16 259.74 70.16 258.61 68.67 258.12 68.35 259.01 68.43 259.42 70.16 259.74"/><polygon class="cls-4" points="60.24 258.92 60.24 257.79 61.97 257.97 61.41 259.07 60.24 258.92"/><path class="cls-4" d="M60.31,262.78V261.6h2l-.48,1-.86,1Z"/><path class="cls-6" d="M70.16,258.61a4.15,4.15,0,0,0-.77.06c-.34.05-.73.12-1.16.21s-.87.2-1.33.34a9.46,9.46,0,0,0-1.32.5L69,261.67l.61-.22c.85-.28,1.66-.52,2.42-.72a11.13,11.13,0,0,1,2.18-.36,7.82,7.82,0,0,1,2,.13,6.37,6.37,0,0,1,1.92.75,3.74,3.74,0,0,1,1.45,1.28,1.68,1.68,0,0,1,.22,1.31,3,3,0,0,1-.79,1.3,8.62,8.62,0,0,1-1.54,1.22l2.14,1.23-1.17.68L76.24,267A18.25,18.25,0,0,1,73,268.24a21.42,21.42,0,0,1-3.54.66l-1.13-2a8.4,8.4,0,0,0,.94-.07c.43-.05.9-.13,1.42-.24s1.06-.25,1.64-.42a12,12,0,0,0,1.65-.62l-3.35-1.93-.44.15-.46.14a22.09,22.09,0,0,1-2.32.65,10.42,10.42,0,0,1-2,.27,7,7,0,0,1-1.74-.16,6,6,0,0,1-1.62-.66,4.07,4.07,0,0,1-1.4-1.2,2,2,0,0,1-.38-1.3,2.39,2.39,0,0,1,.56-1.31,5.7,5.7,0,0,1,1.36-1.24l-2-1.15,1.17-.67,2,1.14a14.13,14.13,0,0,1,2.89-1.07,21.68,21.68,0,0,1,2.9-.52Zm-5.73,3.53a2.44,2.44,0,0,0,1.46.31,9,9,0,0,0,2-.45l-3.16-1.82C63.59,260.94,63.48,261.59,64.43,262.14Zm11.07.92a2.55,2.55,0,0,0-1.58-.28,13.69,13.69,0,0,0-2.2.48l3.14,1.81C76.19,264.26,76.41,263.59,75.5,263.06Z"/></g><g id="Coin-3" data-name="Coin"><ellipse class="cls-2" cx="70.28" cy="262.4" rx="29.32" ry="16.93"/><polygon class="cls-2" points="40.98 262.66 40.98 254.94 46.77 260.1 40.98 262.66"/><polygon class="cls-2" points="99.6 255.15 99.6 262.4 96.64 265.54 95.19 257.24 99.6 255.15"/><ellipse class="cls-3" cx="70.28" cy="255.15" rx="29.32" ry="16.93"/><path class="cls-4" d="M91.24,255.67c-.3,2.85-2.33,5.66-6.11,7.84-8.2,4.73-21.49,4.73-29.68,0-3.78-2.18-5.81-5-6.1-7.84-.36-3.34,1.68-6.74,6.1-9.29,8.19-4.74,21.48-4.74,29.68,0C89.55,248.93,91.58,252.33,91.24,255.67Z"/><path class="cls-5" d="M91.24,255.67c-.3,2.85-2.33,5.66-6.11,7.84-8.2,4.73-21.49,4.73-29.68,0-3.78-2.18-5.81-5-6.1-7.84.29-2.85,2.32-5.66,6.1-7.84,8.19-4.74,21.48-4.74,29.68,0C88.91,250,90.94,252.82,91.24,255.67Z"/><path class="cls-4" d="M70,251.71a4.15,4.15,0,0,0-.77.06c-.34,0-.73.12-1.16.21s-.87.2-1.33.34a9,9,0,0,0-1.32.5l3.37,2,.6-.22q1.29-.42,2.43-.72a11.13,11.13,0,0,1,2.18-.36,7.4,7.4,0,0,1,2,.13,6.37,6.37,0,0,1,1.92.75,3.82,3.82,0,0,1,1.45,1.28,1.71,1.71,0,0,1,.22,1.31,3,3,0,0,1-.79,1.3,8.62,8.62,0,0,1-1.54,1.22l2.14,1.23-1.17.68-2.16-1.25a18.25,18.25,0,0,1-3.22,1.22,21.62,21.62,0,0,1-3.54.66l-1.13-2a8.56,8.56,0,0,0,.94-.07q.63-.07,1.41-.24t1.65-.42a12,12,0,0,0,1.65-.62l-3.35-1.93-.44.15-.46.14a22.09,22.09,0,0,1-2.32.65,10.42,10.42,0,0,1-2,.27,7,7,0,0,1-1.74-.16,5.88,5.88,0,0,1-1.62-.66,4,4,0,0,1-1.4-1.2,2,2,0,0,1-.38-1.3,2.44,2.44,0,0,1,.55-1.31A6,6,0,0,1,62.05,252l-2-1.15,1.17-.67,2,1.14a14.13,14.13,0,0,1,2.89-1.07,21.68,21.68,0,0,1,2.9-.52Zm-5.73,3.53a2.44,2.44,0,0,0,1.46.31,9.12,9.12,0,0,0,2-.45l-3.16-1.82C63.41,254,63.3,254.69,64.25,255.24Zm11.07.92a2.55,2.55,0,0,0-1.58-.28,13.69,13.69,0,0,0-2.2.48l3.13,1.81C76,257.36,76.23,256.69,75.32,256.16Z"/><path class="cls-4" d="M68.17,260c0-.08,0-1.13,0-1.13l1.28.82-.56.87Z"/><polygon class="cls-4" points="79.39 260.69 79.39 259.56 76.6 259.77 78.2 260.86 79.39 260.69"/><polygon class="cls-4" points="79.63 256.52 79.63 255.37 77.54 256.13 79.63 256.52"/><path class="cls-4" d="M71,256.46l.7-.66,2.44,1.69L74,258s-1.83-.77-1.89-.82Z"/><path class="cls-4" d="M64.57,252.88l3.25,1.84.67-.48-.44-.51a4.06,4.06,0,0,0-1-.85c-.25,0-1.79-.74-1.79-.74Z"/><polygon class="cls-4" points="69.98 251.71 69.98 250.57 68.49 250.08 68.17 250.97 68.25 251.38 69.98 251.71"/><polygon class="cls-4" points="60.06 250.88 60.06 249.75 61.79 249.93 61.23 251.04 60.06 250.88"/><path class="cls-4" d="M60.12,254.74s0-1.18,0-1.18h2l-.48,1.06-.87.94Z"/><path class="cls-6" d="M70,250.57a4.15,4.15,0,0,0-.77.06c-.34.05-.73.12-1.16.21s-.87.2-1.33.34a10.31,10.31,0,0,0-1.32.5l3.37,1.95.6-.21c.86-.29,1.67-.53,2.43-.73a11.13,11.13,0,0,1,2.18-.36,7.82,7.82,0,0,1,2,.13,6.94,6.94,0,0,1,1.92.75,3.9,3.9,0,0,1,1.45,1.28,1.75,1.75,0,0,1,.22,1.32,3,3,0,0,1-.79,1.29,8.2,8.2,0,0,1-1.54,1.22l2.14,1.24-1.17.67L76.06,259a17.5,17.5,0,0,1-3.22,1.22,21.62,21.62,0,0,1-3.54.66l-1.13-2a9.23,9.23,0,0,0,.94-.08,11,11,0,0,0,1.41-.24q.78-.16,1.65-.42a11.94,11.94,0,0,0,1.65-.61l-3.35-1.94a3.81,3.81,0,0,1-.44.15l-.46.15c-.84.27-1.62.49-2.32.65a10.36,10.36,0,0,1-2,.26,6.6,6.6,0,0,1-1.74-.16,6.18,6.18,0,0,1-1.62-.65,4.09,4.09,0,0,1-1.4-1.21,2,2,0,0,1-.38-1.3,2.48,2.48,0,0,1,.55-1.31,6.17,6.17,0,0,1,1.37-1.23l-2-1.15,1.17-.68,2,1.14a14.1,14.1,0,0,1,2.89-1.06,20.27,20.27,0,0,1,2.9-.53Zm-5.73,3.53a2.44,2.44,0,0,0,1.46.32,10.44,10.44,0,0,0,2-.45l-3.16-1.83C63.41,252.9,63.3,253.55,64.25,254.1Zm11.07.92a2.62,2.62,0,0,0-1.58-.28,12.82,12.82,0,0,0-2.2.49L74.67,257C76,256.22,76.23,255.55,75.32,255Z"/></g><g id="Coin-4" data-name="Coin"><ellipse class="cls-2" cx="71.16" cy="253.37" rx="29.32" ry="16.93"/><polygon class="cls-2" points="41.85 253.62 41.85 245.91 47.65 251.07 41.85 253.62"/><polygon class="cls-2" points="100.48 246.11 100.48 253.37 97.52 256.51 96.07 248.21 100.48 246.11"/><ellipse class="cls-3" cx="71.16" cy="246.11" rx="29.32" ry="16.93"/><path class="cls-4" d="M92.11,246.64c-.29,2.85-2.33,5.66-6.11,7.84-8.19,4.73-21.48,4.73-29.68,0-3.78-2.18-5.81-5-6.1-7.84-.35-3.34,1.69-6.75,6.1-9.29,8.2-4.74,21.49-4.74,29.68,0C90.42,239.89,92.46,243.3,92.11,246.64Z"/><path class="cls-5" d="M92.11,246.64c-.29,2.85-2.33,5.66-6.11,7.84-8.19,4.73-21.48,4.73-29.68,0-3.78-2.18-5.81-5-6.1-7.84.29-2.85,2.32-5.66,6.1-7.84,8.2-4.74,21.49-4.74,29.68,0C89.78,241,91.82,243.79,92.11,246.64Z"/><path class="cls-4" d="M70.86,242.67a4.15,4.15,0,0,0-.77.06c-.35.05-.74.12-1.16.21s-.88.21-1.34.34a8.91,8.91,0,0,0-1.31.51l3.37,1.94.6-.21c.86-.29,1.67-.53,2.43-.73a11,11,0,0,1,2.18-.36,7.88,7.88,0,0,1,2,.14,6.37,6.37,0,0,1,1.92.75,3.88,3.88,0,0,1,1.45,1.27,1.74,1.74,0,0,1,.21,1.32,2.89,2.89,0,0,1-.79,1.3,7.86,7.86,0,0,1-1.54,1.21l2.15,1.24-1.17.68-2.17-1.25a17.84,17.84,0,0,1-3.21,1.21,21.56,21.56,0,0,1-3.55.67l-1.13-2a8.54,8.54,0,0,0,.95-.07q.63-.08,1.41-.24c.52-.12,1.07-.26,1.65-.43a11.81,11.81,0,0,0,1.64-.61l-3.35-1.93-.44.15-.45.14c-.85.28-1.62.49-2.32.65a10.42,10.42,0,0,1-2,.27,7,7,0,0,1-1.74-.17,5.85,5.85,0,0,1-1.62-.65,4.19,4.19,0,0,1-1.4-1.2,2,2,0,0,1-.38-1.3,2.37,2.37,0,0,1,.55-1.31A5.9,5.9,0,0,1,62.92,243l-2-1.15,1.17-.67,2,1.13a14.18,14.18,0,0,1,2.9-1.06,20.07,20.07,0,0,1,2.89-.52Zm-5.73,3.53a2.44,2.44,0,0,0,1.46.32,10.21,10.21,0,0,0,2-.45l-3.15-1.82C64.28,245,64.18,245.66,65.13,246.2Zm11.06.93a2.45,2.45,0,0,0-1.57-.28,11.89,11.89,0,0,0-2.21.48l3.14,1.81C76.89,248.32,77.1,247.65,76.19,247.13Z"/><path class="cls-4" d="M69,250.94a10.81,10.81,0,0,0,0-1.14l1.29.83-.56.86Z"/><polygon class="cls-4" points="80.27 251.66 80.27 250.52 77.48 250.74 79.08 251.83 80.27 251.66"/><polygon class="cls-4" points="80.5 247.49 80.5 246.34 78.42 247.09 80.5 247.49"/><path class="cls-4" d="M71.86,247.43l.69-.67L75,248.45l-.15.5s-1.83-.77-1.89-.81S71.86,247.43,71.86,247.43Z"/><path class="cls-4" d="M65.45,243.85l3.25,1.84.66-.48s-.41-.47-.44-.52-.77-.8-1-.84-1.78-.74-1.78-.74Z"/><polygon class="cls-4" points="70.86 242.67 70.86 241.53 69.36 241.05 69.04 241.94 69.12 242.35 70.86 242.67"/><polygon class="cls-4" points="60.94 241.85 60.94 240.71 62.67 240.9 62.11 242 60.94 241.85"/><path class="cls-4" d="M61,245.71v-1.18h2l-.49,1.05-.86.95Z"/><path class="cls-6" d="M70.86,241.54a4.15,4.15,0,0,0-.77.06c-.35.05-.74.12-1.16.2s-.88.21-1.34.35a8.88,8.88,0,0,0-1.31.5l3.37,1.94.6-.21c.86-.28,1.67-.53,2.43-.72a11,11,0,0,1,2.18-.36,7.46,7.46,0,0,1,2,.13,6.37,6.37,0,0,1,1.92.75,3.9,3.9,0,0,1,1.45,1.28,1.71,1.71,0,0,1,.21,1.31,2.89,2.89,0,0,1-.79,1.3,8.28,8.28,0,0,1-1.54,1.22l2.15,1.23-1.17.68L76.93,250a17.11,17.11,0,0,1-3.21,1.21,20.57,20.57,0,0,1-3.55.67l-1.13-2a8.54,8.54,0,0,0,.95-.07q.63-.07,1.41-.24t1.65-.42a11.83,11.83,0,0,0,1.64-.62l-3.35-1.93-.44.15-.45.14a22.79,22.79,0,0,1-2.32.65,10.42,10.42,0,0,1-2,.27,7,7,0,0,1-1.74-.16,5.88,5.88,0,0,1-1.62-.66,4,4,0,0,1-1.4-1.2,2,2,0,0,1-.38-1.3,2.37,2.37,0,0,1,.55-1.31,5.9,5.9,0,0,1,1.36-1.24l-2-1.15,1.17-.67,2,1.13a14.8,14.8,0,0,1,2.9-1.06,21.54,21.54,0,0,1,2.89-.52Zm-5.73,3.53a2.44,2.44,0,0,0,1.46.31,8.93,8.93,0,0,0,2-.45l-3.15-1.82C64.28,243.87,64.18,244.52,65.13,245.07Zm11.06.92a2.45,2.45,0,0,0-1.57-.28,13.78,13.78,0,0,0-2.21.48L75.55,248C76.89,247.19,77.1,246.51,76.19,246Z"/></g><g id="Coin-5" data-name="Coin"><ellipse class="cls-2" cx="69.36" cy="244.68" rx="29.32" ry="16.93"/><polygon class="cls-2" points="40.06 244.93 40.06 237.22 45.85 242.38 40.06 244.93"/><polygon class="cls-2" points="98.68 237.42 98.68 244.68 95.72 247.82 94.27 239.52 98.68 237.42"/><ellipse class="cls-3" cx="69.36" cy="237.42" rx="29.32" ry="16.93"/><path class="cls-4" d="M90.31,238c-.29,2.85-2.32,5.66-6.1,7.84-8.2,4.73-21.49,4.73-29.69,0-3.77-2.18-5.81-5-6.1-7.84-.35-3.34,1.69-6.75,6.1-9.29,8.2-4.74,21.49-4.74,29.69,0C88.62,231.2,90.66,234.61,90.31,238Z"/><path class="cls-5" d="M90.31,238c-.29,2.85-2.32,5.66-6.1,7.84-8.2,4.73-21.49,4.73-29.69,0-3.77-2.18-5.81-5-6.1-7.84.29-2.85,2.33-5.66,6.1-7.84,8.2-4.74,21.49-4.74,29.69,0C88,232.29,90,235.1,90.31,238Z"/><path class="cls-4" d="M69.06,234a5.28,5.28,0,0,0-.77.06c-.35.05-.73.12-1.16.21s-.88.21-1.34.35a7.89,7.89,0,0,0-1.31.5L67.85,237l.6-.21c.86-.29,1.67-.53,2.43-.73a11.13,11.13,0,0,1,2.18-.36,7.82,7.82,0,0,1,2,.14,6.37,6.37,0,0,1,1.92.75,3.8,3.8,0,0,1,1.45,1.27,1.74,1.74,0,0,1,.21,1.32,2.89,2.89,0,0,1-.79,1.3,7.57,7.57,0,0,1-1.54,1.21L78.47,243l-1.17.68-2.16-1.25a18.24,18.24,0,0,1-3.22,1.21,21.56,21.56,0,0,1-3.55.67l-1.13-2a8.54,8.54,0,0,0,1-.07q.63-.08,1.41-.24c.52-.12,1.07-.26,1.65-.43a10.78,10.78,0,0,0,1.65-.61L69.54,239l-.43.15-.46.14c-.85.28-1.62.49-2.32.65a10.42,10.42,0,0,1-2,.27,7,7,0,0,1-1.74-.17,5.85,5.85,0,0,1-1.62-.65,4.19,4.19,0,0,1-1.4-1.2,2,2,0,0,1-.38-1.3,2.37,2.37,0,0,1,.55-1.31,6,6,0,0,1,1.37-1.24l-2-1.15,1.17-.67,2,1.13a13.89,13.89,0,0,1,2.89-1.06,20.32,20.32,0,0,1,2.89-.52Zm-5.73,3.54a2.51,2.51,0,0,0,1.46.31,10.44,10.44,0,0,0,2-.45l-3.16-1.82C62.48,236.32,62.38,237,63.33,237.52Zm11.07.92a2.49,2.49,0,0,0-1.58-.28,11.64,11.64,0,0,0-2.2.48l3.13,1.81C75.09,239.63,75.31,239,74.4,238.44Z"/><path class="cls-4" d="M67.24,242.25a10.81,10.81,0,0,0,0-1.14l1.29.83-.56.86Z"/><polygon class="cls-4" points="78.47 242.97 78.47 241.83 75.68 242.05 77.28 243.14 78.47 242.97"/><polygon class="cls-4" points="78.7 238.8 78.7 237.65 76.62 238.41 78.7 238.8"/><path class="cls-4" d="M70.06,238.74l.69-.67,2.45,1.7-.15.49s-1.83-.77-1.89-.81S70.06,238.74,70.06,238.74Z"/><path class="cls-4" d="M63.65,235.16,66.9,237l.66-.48s-.4-.47-.43-.52-.77-.8-1-.84-1.78-.74-1.78-.74Z"/><polygon class="cls-4" points="69.06 233.98 69.06 232.85 67.56 232.36 67.25 233.25 67.32 233.66 69.06 233.98"/><polygon class="cls-4" points="59.14 233.16 59.14 232.02 60.87 232.21 60.31 233.31 59.14 233.16"/><path class="cls-4" d="M59.2,237v-1.18h2l-.49,1-.86,1Z"/><path class="cls-6" d="M69.06,232.85a4.15,4.15,0,0,0-.77.06c-.35.05-.73.12-1.16.21s-.88.2-1.34.34a8.88,8.88,0,0,0-1.31.5l3.37,1.95.6-.22q1.29-.42,2.43-.72a11.13,11.13,0,0,1,2.18-.36,7.4,7.4,0,0,1,2,.13,6.37,6.37,0,0,1,1.92.75,3.82,3.82,0,0,1,1.45,1.28,1.71,1.71,0,0,1,.21,1.31,2.89,2.89,0,0,1-.79,1.3,8,8,0,0,1-1.54,1.22l2.15,1.23-1.17.68-2.16-1.25a18.25,18.25,0,0,1-3.22,1.22,21.54,21.54,0,0,1-3.55.66l-1.13-2a8.54,8.54,0,0,0,1-.07q.63-.07,1.41-.24t1.65-.42a12,12,0,0,0,1.65-.62l-3.36-1.93-.43.15-.46.14a22.79,22.79,0,0,1-2.32.65,10.42,10.42,0,0,1-2,.27,7,7,0,0,1-1.74-.16,5.88,5.88,0,0,1-1.62-.66,4,4,0,0,1-1.4-1.2,2,2,0,0,1-.38-1.3,2.37,2.37,0,0,1,.55-1.31,6,6,0,0,1,1.37-1.24l-2-1.15,1.17-.67,2,1.14a13.92,13.92,0,0,1,2.89-1.07,21.83,21.83,0,0,1,2.89-.52Zm-5.73,3.53a2.44,2.44,0,0,0,1.46.31,9.12,9.12,0,0,0,2-.45l-3.16-1.82C62.48,235.18,62.38,235.83,63.33,236.38Zm11.07.92a2.56,2.56,0,0,0-1.58-.28,13.47,13.47,0,0,0-2.2.48l3.13,1.81C75.09,238.5,75.31,237.83,74.4,237.3Z"/></g><g id="Coin-6" data-name="Coin"><ellipse class="cls-2" cx="71.82" cy="236.77" rx="29.32" ry="16.93"/><polygon class="cls-2" points="42.52 237.03 42.52 229.31 48.31 234.47 42.52 237.03"/><polygon class="cls-2" points="101.14 229.52 101.14 236.77 98.18 239.91 96.73 231.61 101.14 229.52"/><ellipse class="cls-3" cx="71.82" cy="229.52" rx="29.32" ry="16.93"/><path class="cls-4" d="M92.77,230c-.29,2.85-2.33,5.66-6.1,7.84-8.2,4.73-21.49,4.73-29.69,0-3.78-2.18-5.81-5-6.1-7.84-.35-3.34,1.69-6.75,6.1-9.29,8.2-4.74,21.49-4.74,29.69,0C91.08,223.29,93.12,226.7,92.77,230Z"/><path class="cls-5" d="M92.77,230c-.29,2.85-2.33,5.66-6.1,7.84-8.2,4.73-21.49,4.73-29.69,0-3.78-2.18-5.81-5-6.1-7.84.29-2.85,2.32-5.66,6.1-7.84,8.2-4.74,21.49-4.74,29.69,0C90.44,224.38,92.48,227.19,92.77,230Z"/><path class="cls-4" d="M71.52,226.08a4.15,4.15,0,0,0-.77.06c-.35.05-.73.11-1.16.2s-.88.21-1.34.35a8.88,8.88,0,0,0-1.31.5l3.37,1.94.6-.21c.86-.28,1.67-.53,2.43-.72a11.13,11.13,0,0,1,2.18-.36,7.46,7.46,0,0,1,2,.13,6.37,6.37,0,0,1,1.92.75A3.82,3.82,0,0,1,80.9,230a1.71,1.71,0,0,1,.21,1.31,2.89,2.89,0,0,1-.79,1.3,8.28,8.28,0,0,1-1.54,1.22l2.15,1.23-1.17.68-2.16-1.25a17.49,17.49,0,0,1-3.22,1.21,20.57,20.57,0,0,1-3.55.67l-1.13-2a8.54,8.54,0,0,0,1-.07q.63-.08,1.41-.24t1.65-.42a11.37,11.37,0,0,0,1.64-.62L72,231.06l-.44.15-.45.14a22.79,22.79,0,0,1-2.32.65,10.42,10.42,0,0,1-2,.27,7,7,0,0,1-1.74-.16,5.88,5.88,0,0,1-1.62-.66,4,4,0,0,1-1.4-1.2,2,2,0,0,1-.38-1.3,2.37,2.37,0,0,1,.55-1.31,5.76,5.76,0,0,1,1.37-1.24l-2-1.15,1.17-.67,2,1.13a14.48,14.48,0,0,1,2.89-1.06,21.83,21.83,0,0,1,2.89-.52Zm-5.73,3.53a2.44,2.44,0,0,0,1.46.31,9.12,9.12,0,0,0,2-.45l-3.16-1.82C64.94,228.41,64.84,229.06,65.79,229.61Zm11.07.92a2.49,2.49,0,0,0-1.58-.28,13.47,13.47,0,0,0-2.2.48l3.13,1.81C77.55,231.73,77.76,231.05,76.86,230.53Z"/><path class="cls-4" d="M69.7,234.34a10.62,10.62,0,0,0,0-1.13L71,234l-.56.87Z"/><polygon class="cls-4" points="80.93 235.06 80.93 233.93 78.14 234.14 79.74 235.23 80.93 235.06"/><polygon class="cls-4" points="81.16 230.89 81.16 229.74 79.08 230.5 81.16 230.89"/><path class="cls-4" d="M72.52,230.83l.69-.66,2.45,1.69-.15.5s-1.83-.77-1.89-.82Z"/><path class="cls-4" d="M66.11,227.25l3.25,1.84.66-.48-.43-.51a4.13,4.13,0,0,0-1-.85c-.24-.05-1.78-.74-1.78-.74Z"/><polygon class="cls-4" points="71.52 226.07 71.52 224.94 70.02 224.45 69.7 225.34 69.78 225.75 71.52 226.07"/><polygon class="cls-4" points="61.6 225.25 61.6 224.12 63.33 224.3 62.77 225.41 61.6 225.25"/><path class="cls-4" d="M61.66,229.11v-1.18h2L63.16,229l-.86.94Z"/><path class="cls-6" d="M71.52,224.94a4.15,4.15,0,0,0-.77.06c-.35.05-.73.12-1.16.21s-.88.2-1.34.34a10.16,10.16,0,0,0-1.31.5L70.31,228l.6-.22q1.29-.42,2.43-.72a11.13,11.13,0,0,1,2.18-.36,7.88,7.88,0,0,1,2,.13,6.65,6.65,0,0,1,1.92.75,3.82,3.82,0,0,1,1.45,1.28,1.74,1.74,0,0,1,.21,1.32,2.86,2.86,0,0,1-.79,1.29,7.89,7.89,0,0,1-1.54,1.22l2.15,1.24-1.17.67-2.16-1.25a17.5,17.5,0,0,1-3.22,1.22,21.54,21.54,0,0,1-3.55.66l-1.13-2a9.15,9.15,0,0,0,1-.08,13,13,0,0,0,1.41-.24q.78-.16,1.65-.42a11.35,11.35,0,0,0,1.64-.61L72,229.92c-.14.05-.29.11-.44.15l-.45.14c-.85.28-1.62.5-2.32.66a11.23,11.23,0,0,1-2,.26,6.52,6.52,0,0,1-1.74-.16,6.18,6.18,0,0,1-1.62-.65,4.09,4.09,0,0,1-1.4-1.21,2,2,0,0,1-.38-1.3,2.4,2.4,0,0,1,.55-1.31,6,6,0,0,1,1.37-1.24l-2-1.14,1.17-.68,2,1.14a13.89,13.89,0,0,1,2.89-1.06,20.4,20.4,0,0,1,2.89-.53Zm-5.73,3.53a2.44,2.44,0,0,0,1.46.32,10.44,10.44,0,0,0,2-.45l-3.16-1.83C64.94,227.27,64.84,227.92,65.79,228.47Zm11.07.92a2.56,2.56,0,0,0-1.58-.28,12.62,12.62,0,0,0-2.2.49l3.13,1.81C77.55,230.59,77.76,229.92,76.86,229.39Z"/></g><g id="Coin-7" data-name="Coin"><ellipse class="cls-2" cx="70.28" cy="228.69" rx="29.32" ry="16.93"/><polygon class="cls-2" points="40.97 228.95 40.97 221.24 46.76 226.39 40.97 228.95"/><polygon class="cls-2" points="99.59 221.44 99.59 228.69 96.63 231.83 95.18 223.53 99.59 221.44"/><ellipse class="cls-3" cx="70.28" cy="221.44" rx="29.32" ry="16.93"/><path class="cls-4" d="M91.23,222c-.3,2.85-2.33,5.66-6.11,7.84-8.2,4.73-21.48,4.73-29.68,0-3.78-2.18-5.81-5-6.1-7.84-.36-3.33,1.68-6.74,6.1-9.29,8.2-4.74,21.48-4.74,29.68,0C89.54,215.22,91.58,218.63,91.23,222Z"/><path class="cls-5" d="M91.23,222c-.3,2.85-2.33,5.66-6.11,7.84-8.2,4.73-21.48,4.73-29.68,0-3.78-2.18-5.81-5-6.1-7.84.29-2.85,2.32-5.66,6.1-7.84,8.2-4.74,21.48-4.74,29.68,0C88.9,216.3,90.93,219.11,91.23,222Z"/><path class="cls-4" d="M70,218a4.21,4.21,0,0,0-.77.06c-.34.05-.73.12-1.16.21s-.87.2-1.33.34a10.91,10.91,0,0,0-1.32.5l3.37,1.95.61-.22c.86-.28,1.66-.52,2.42-.72a11.1,11.1,0,0,1,2.19-.36,7.78,7.78,0,0,1,2,.13,6.18,6.18,0,0,1,1.92.75,3.74,3.74,0,0,1,1.45,1.28,1.68,1.68,0,0,1,.22,1.31,3,3,0,0,1-.79,1.3,8.2,8.2,0,0,1-1.54,1.22L79.38,227l-1.17.68-2.16-1.25a18.14,18.14,0,0,1-3.21,1.22,21.74,21.74,0,0,1-3.55.66l-1.13-2a6.51,6.51,0,0,0,.94-.07c.43-.05.9-.13,1.42-.24s1.07-.25,1.64-.42a10.81,10.81,0,0,0,1.65-.62L70.46,223l-.44.15-.46.14c-.84.28-1.61.5-2.32.66a11.24,11.24,0,0,1-2,.26,7.08,7.08,0,0,1-1.75-.16,6.15,6.15,0,0,1-1.62-.66,4.07,4.07,0,0,1-1.4-1.2,2.09,2.09,0,0,1-.38-1.3,2.42,2.42,0,0,1,.56-1.31A6.13,6.13,0,0,1,62,218.32l-2-1.14,1.17-.68,2,1.14a14.13,14.13,0,0,1,2.89-1.07,22,22,0,0,1,2.9-.52Zm-5.73,3.53a2.44,2.44,0,0,0,1.46.31,8.88,8.88,0,0,0,2-.45l-3.16-1.82C63.4,220.33,63.29,221,64.24,221.53Zm11.07.92a2.55,2.55,0,0,0-1.58-.28,13.69,13.69,0,0,0-2.2.48l3.14,1.81C76,223.65,76.22,223,75.31,222.45Z"/><path class="cls-4" d="M68.16,226.26c0-.08,0-1.13,0-1.13l1.29.83-.56.86Z"/><polygon class="cls-4" points="79.38 226.99 79.38 225.85 76.59 226.06 78.2 227.15 79.38 226.99"/><polygon class="cls-4" points="79.62 222.81 79.62 221.66 77.53 222.42 79.62 222.81"/><path class="cls-4" d="M71,222.75l.7-.66,2.45,1.69-.16.5s-1.82-.77-1.88-.82Z"/><path class="cls-4" d="M64.56,219.17,67.81,221l.67-.48L68,220a4.29,4.29,0,0,0-1-.85c-.24,0-1.78-.74-1.78-.74Z"/><polygon class="cls-4" points="69.97 218 69.97 216.86 68.48 216.38 68.16 217.27 68.24 217.67 69.97 218"/><polygon class="cls-4" points="60.05 217.18 60.05 216.04 61.78 216.22 61.23 217.33 60.05 217.18"/><path class="cls-4" d="M60.12,221v-1.18h2l-.48,1.06-.86.94Z"/><path class="cls-6" d="M70,216.86a4.21,4.21,0,0,0-.77.06c-.34.05-.73.12-1.16.21s-.87.2-1.33.34a10.91,10.91,0,0,0-1.32.5l3.37,1.95.61-.21c.86-.29,1.66-.53,2.42-.73a11.1,11.1,0,0,1,2.19-.36,7.35,7.35,0,0,1,2,.14,6.4,6.4,0,0,1,1.92.74,3.82,3.82,0,0,1,1.45,1.28,1.7,1.7,0,0,1,.22,1.32,3,3,0,0,1-.79,1.3,8.6,8.6,0,0,1-1.54,1.21l2.14,1.24-1.17.67-2.16-1.25a17.39,17.39,0,0,1-3.21,1.22,21.74,21.74,0,0,1-3.55.66l-1.13-2c.21,0,.52,0,.94-.07a13,13,0,0,0,1.42-.25c.52-.11,1.07-.25,1.64-.42a11.94,11.94,0,0,0,1.65-.61l-3.35-1.94L70,222l-.46.14c-.84.27-1.61.49-2.32.65a10.37,10.37,0,0,1-2,.26,6.63,6.63,0,0,1-1.75-.16,6.46,6.46,0,0,1-1.62-.65A4.19,4.19,0,0,1,60.5,221a2.07,2.07,0,0,1-.38-1.3,2.45,2.45,0,0,1,.56-1.31A6.11,6.11,0,0,1,62,217.19l-2-1.15,1.17-.68,2,1.14a14.1,14.1,0,0,1,2.89-1.06,22.06,22.06,0,0,1,2.9-.53Zm-5.73,3.53a2.44,2.44,0,0,0,1.46.32,10.13,10.13,0,0,0,2-.45l-3.16-1.83C63.4,219.19,63.29,219.84,64.24,220.39Zm11.07.92a2.62,2.62,0,0,0-1.58-.28,12.82,12.82,0,0,0-2.2.49l3.14,1.81C76,222.51,76.22,221.84,75.31,221.31Z"/></g><g id="Coin-8" data-name="Coin"><ellipse class="cls-1" cx="145.42" cy="338.1" rx="29.32" ry="16.93"/><ellipse class="cls-2" cx="152.68" cy="333.74" rx="29.32" ry="16.93"/><polygon class="cls-2" points="123.37 334 123.37 326.29 129.16 331.45 123.37 334"/><polygon class="cls-2" points="181.99 326.49 181.99 333.74 179.03 336.89 177.58 328.58 181.99 326.49"/><ellipse class="cls-3" cx="152.68" cy="326.49" rx="29.32" ry="16.93"/><path class="cls-4" d="M173.63,327c-.3,2.85-2.33,5.65-6.11,7.84-8.2,4.73-21.49,4.73-29.68,0-3.78-2.19-5.81-5-6.1-7.84-.36-3.34,1.68-6.75,6.1-9.3,8.19-4.73,21.48-4.73,29.68,0C171.94,320.27,174,323.68,173.63,327Z"/><path class="cls-5" d="M173.63,327c-.3,2.85-2.33,5.65-6.11,7.84-8.2,4.73-21.49,4.73-29.68,0-3.78-2.19-5.81-5-6.1-7.84.29-2.86,2.32-5.66,6.1-7.85,8.19-4.73,21.48-4.73,29.68,0C171.3,321.36,173.33,324.16,173.63,327Z"/><path class="cls-4" d="M152.37,323.05a4.21,4.21,0,0,0-.77.06c-.34.05-.73.12-1.16.21s-.87.2-1.33.34a10.91,10.91,0,0,0-1.32.5l3.37,1.95.61-.21c.85-.29,1.66-.53,2.42-.73a11.1,11.1,0,0,1,2.19-.36,7.35,7.35,0,0,1,2,.14,6.5,6.5,0,0,1,1.92.74,3.82,3.82,0,0,1,1.45,1.28,1.7,1.7,0,0,1,.22,1.32,3,3,0,0,1-.79,1.3,8.6,8.6,0,0,1-1.54,1.21l2.14,1.24-1.17.67-2.16-1.25a17.23,17.23,0,0,1-3.22,1.22,21.42,21.42,0,0,1-3.54.66l-1.13-2c.21,0,.52,0,.94-.07a13,13,0,0,0,1.42-.25c.52-.11,1.07-.25,1.64-.42a11.94,11.94,0,0,0,1.65-.61L152.86,328l-.44.16-.46.14c-.84.27-1.62.49-2.32.65a10.37,10.37,0,0,1-2,.26,6.63,6.63,0,0,1-1.75-.16,6.46,6.46,0,0,1-1.62-.65,4.19,4.19,0,0,1-1.4-1.21,2,2,0,0,1-.38-1.3,2.45,2.45,0,0,1,.56-1.31,5.89,5.89,0,0,1,1.36-1.23l-2-1.15,1.17-.68,2,1.14a14.1,14.1,0,0,1,2.89-1.06,22.06,22.06,0,0,1,2.9-.53Zm-5.73,3.53a2.44,2.44,0,0,0,1.46.32,10.13,10.13,0,0,0,2-.45L147,324.62C145.8,325.38,145.69,326,146.64,326.58Zm11.07.92a2.62,2.62,0,0,0-1.58-.28,12.82,12.82,0,0,0-2.2.49l3.14,1.81C158.4,328.7,158.62,328,157.71,327.5Z"/><path class="cls-4" d="M150.56,331.32c0-.08,0-1.14,0-1.14l1.29.83-.56.86Z"/><polygon class="cls-4" points="161.78 332.04 161.78 330.9 158.99 331.12 160.6 332.21 161.78 332.04"/><polygon class="cls-4" points="162.02 327.87 162.02 326.72 159.93 327.47 162.02 327.87"/><path class="cls-4" d="M153.37,327.81l.7-.67,2.45,1.69-.16.5s-1.82-.77-1.88-.81Z"/><path class="cls-4" d="M147,324.22l3.25,1.85.67-.49s-.41-.46-.44-.51a4.29,4.29,0,0,0-1-.85c-.24,0-1.79-.73-1.79-.73Z"/><polygon class="cls-4" points="152.37 323.05 152.37 321.91 150.88 321.43 150.56 322.32 150.64 322.73 152.37 323.05"/><polygon class="cls-4" points="142.45 322.23 142.45 321.09 144.18 321.28 143.63 322.38 142.45 322.23"/><path class="cls-4" d="M142.52,326.09V324.9h2L144,326l-.86,1Z"/><path class="cls-6" d="M152.37,321.91a7.44,7.44,0,0,0-.77.06c-.34,0-.73.12-1.16.21s-.87.21-1.33.35a9.46,9.46,0,0,0-1.32.5l3.37,1.94.61-.21c.85-.29,1.66-.53,2.42-.73a11.89,11.89,0,0,1,2.19-.36,7.77,7.77,0,0,1,2,.14,6.27,6.27,0,0,1,1.92.75,3.73,3.73,0,0,1,1.45,1.27,1.7,1.7,0,0,1,.22,1.32,3,3,0,0,1-.79,1.3,8.17,8.17,0,0,1-1.54,1.21l2.14,1.24-1.17.68-2.16-1.25a17.22,17.22,0,0,1-3.22,1.21,20.46,20.46,0,0,1-3.54.67l-1.13-2a8.4,8.4,0,0,0,.94-.07c.43-.05.9-.13,1.42-.24s1.07-.26,1.64-.42a12,12,0,0,0,1.65-.62l-3.35-1.93-.44.15-.46.14c-.84.28-1.62.49-2.32.65a10.43,10.43,0,0,1-2,.27,7.08,7.08,0,0,1-1.75-.17,5.79,5.79,0,0,1-1.62-.65,4.17,4.17,0,0,1-1.4-1.2,2,2,0,0,1-.38-1.3,2.39,2.39,0,0,1,.56-1.31,5.7,5.7,0,0,1,1.36-1.24l-2-1.15,1.17-.67,2,1.13a14.71,14.71,0,0,1,2.89-1.06,20.44,20.44,0,0,1,2.9-.52Zm-5.73,3.54a2.44,2.44,0,0,0,1.46.31,8.88,8.88,0,0,0,2-.45L147,323.49C145.8,324.25,145.69,324.9,146.64,325.45Zm11.07.92a2.48,2.48,0,0,0-1.58-.28,12.68,12.68,0,0,0-2.2.48l3.14,1.81C158.4,327.56,158.62,326.89,157.71,326.37Z"/></g><g id="Coin-9" data-name="Coin"><ellipse class="cls-2" cx="155.07" cy="324.72" rx="29.32" ry="16.93"/><polygon class="cls-2" points="125.77 324.98 125.77 317.26 131.56 322.42 125.77 324.98"/><polygon class="cls-2" points="184.39 317.46 184.39 324.72 181.43 327.86 179.98 319.56 184.39 317.46"/><ellipse class="cls-3" cx="155.07" cy="317.47" rx="29.32" ry="16.93"/><path class="cls-4" d="M176,318c-.29,2.85-2.33,5.66-6.1,7.84-8.2,4.73-21.49,4.73-29.69,0-3.78-2.18-5.81-5-6.1-7.84-.35-3.34,1.69-6.75,6.1-9.29,8.2-4.74,21.49-4.74,29.69,0C174.33,311.24,176.37,314.65,176,318Z"/><path class="cls-5" d="M176,318c-.29,2.85-2.33,5.66-6.1,7.84-8.2,4.73-21.49,4.73-29.69,0-3.78-2.18-5.81-5-6.1-7.84.29-2.85,2.32-5.66,6.1-7.84,8.2-4.74,21.49-4.74,29.69,0C173.69,312.33,175.73,315.14,176,318Z"/><path class="cls-4" d="M154.77,314a5.63,5.63,0,0,0-.77.07c-.35.05-.73.11-1.16.2s-.88.21-1.34.35a8.88,8.88,0,0,0-1.31.5l3.37,1.94.6-.21c.86-.28,1.67-.53,2.43-.73a12.85,12.85,0,0,1,2.18-.36,7.85,7.85,0,0,1,2,.14,6.37,6.37,0,0,1,1.92.75,3.89,3.89,0,0,1,1.45,1.27,1.74,1.74,0,0,1,.21,1.32,2.89,2.89,0,0,1-.79,1.3,8.28,8.28,0,0,1-1.54,1.22l2.15,1.23-1.17.68-2.16-1.25a17.49,17.49,0,0,1-3.22,1.21,20.57,20.57,0,0,1-3.55.67l-1.13-2a8.54,8.54,0,0,0,1-.07q.63-.08,1.41-.24c.52-.11,1.07-.26,1.65-.42a11.37,11.37,0,0,0,1.64-.62L155.25,319l-.44.15-.45.14A22.79,22.79,0,0,1,152,320a10.42,10.42,0,0,1-2,.27,6.51,6.51,0,0,1-1.74-.17,5.56,5.56,0,0,1-1.62-.65,4,4,0,0,1-1.4-1.2,2,2,0,0,1-.38-1.3,2.37,2.37,0,0,1,.55-1.31,5.76,5.76,0,0,1,1.37-1.24l-2-1.15,1.17-.67,2,1.13a14.48,14.48,0,0,1,2.89-1.06,21.83,21.83,0,0,1,2.89-.52ZM149,317.56a2.44,2.44,0,0,0,1.46.31,9.12,9.12,0,0,0,2-.45l-3.16-1.82C148.19,316.36,148.09,317,149,317.56Zm11.07.92a2.49,2.49,0,0,0-1.58-.28,13.47,13.47,0,0,0-2.2.48l3.13,1.81C160.8,319.68,161,319,160.11,318.48Z"/><path class="cls-4" d="M153,322.29a10.62,10.62,0,0,0,0-1.13l1.29.82-.56.86Z"/><polygon class="cls-4" points="164.18 323.01 164.18 321.88 161.39 322.09 162.99 323.18 164.18 323.01"/><polygon class="cls-4" points="164.41 318.84 164.41 317.69 162.33 318.45 164.41 318.84"/><path class="cls-4" d="M155.77,318.78l.69-.67,2.45,1.7-.15.5s-1.83-.77-1.89-.82S155.77,318.78,155.77,318.78Z"/><path class="cls-4" d="M149.36,315.2l3.25,1.84.66-.48s-.4-.47-.43-.52a4.35,4.35,0,0,0-1-.84c-.24-.05-1.78-.74-1.78-.74Z"/><polygon class="cls-4" points="154.77 314.02 154.77 312.89 153.27 312.4 152.95 313.29 153.03 313.7 154.77 314.02"/><polygon class="cls-4" points="144.85 313.2 144.85 312.07 146.58 312.25 146.02 313.36 144.85 313.2"/><path class="cls-4" d="M144.91,317.06v-1.18h2l-.49,1.06-.86.94Z"/><path class="cls-6" d="M154.77,312.89a4.15,4.15,0,0,0-.77.06c-.35.05-.73.12-1.16.21s-.88.2-1.34.34a10.16,10.16,0,0,0-1.31.5l3.37,1.95.6-.22q1.29-.42,2.43-.72a11.13,11.13,0,0,1,2.18-.36,7.85,7.85,0,0,1,2,.13,6.37,6.37,0,0,1,1.92.75,3.82,3.82,0,0,1,1.45,1.28,1.72,1.72,0,0,1,.21,1.31,2.84,2.84,0,0,1-.79,1.3,7.89,7.89,0,0,1-1.54,1.22l2.15,1.24-1.17.67-2.16-1.25a17.5,17.5,0,0,1-3.22,1.22,21.54,21.54,0,0,1-3.55.66l-1.13-2a9.15,9.15,0,0,0,1-.08q.63-.07,1.41-.24t1.65-.42a11.35,11.35,0,0,0,1.64-.61l-3.35-1.94-.44.15-.45.14c-.85.28-1.62.5-2.32.66a11.23,11.23,0,0,1-2,.26,6.52,6.52,0,0,1-1.74-.16,6.18,6.18,0,0,1-1.62-.65,4.09,4.09,0,0,1-1.4-1.21,2,2,0,0,1-.38-1.3,2.4,2.4,0,0,1,.55-1.31,6,6,0,0,1,1.37-1.24l-2-1.14,1.17-.68,2,1.14a14.51,14.51,0,0,1,2.89-1.07,21.83,21.83,0,0,1,2.89-.52ZM149,316.42a2.44,2.44,0,0,0,1.46.32,9.86,9.86,0,0,0,2-.46l-3.16-1.82C148.19,315.22,148.09,315.87,149,316.42Zm11.07.92a2.56,2.56,0,0,0-1.58-.28,12.62,12.62,0,0,0-2.2.49l3.13,1.81C160.8,318.54,161,317.87,160.11,317.34Z"/></g><g id="Coin-10" data-name="Coin"><ellipse class="cls-2" cx="153.27" cy="316.03" rx="29.32" ry="16.93"/><polygon class="cls-2" points="123.97 316.29 123.97 308.57 129.76 313.73 123.97 316.29"/><polygon class="cls-2" points="182.59 308.78 182.59 316.03 179.63 319.17 178.18 310.87 182.59 308.78"/><ellipse class="cls-3" cx="153.27" cy="308.78" rx="29.32" ry="16.93"/><path class="cls-4" d="M174.23,309.3c-.3,2.85-2.33,5.66-6.11,7.84-8.2,4.73-21.49,4.73-29.68,0-3.78-2.18-5.82-5-6.11-7.84C132,306,134,302.55,138.44,300c8.19-4.74,21.48-4.74,29.68,0C172.53,302.55,174.57,306,174.23,309.3Z"/><path class="cls-5" d="M174.23,309.3c-.3,2.85-2.33,5.66-6.11,7.84-8.2,4.73-21.49,4.73-29.68,0-3.78-2.18-5.82-5-6.11-7.84.29-2.85,2.33-5.66,6.11-7.84,8.19-4.74,21.48-4.74,29.68,0C171.9,303.64,173.93,306.45,174.23,309.3Z"/><path class="cls-4" d="M153,305.33a5.63,5.63,0,0,0-.77.07c-.35.05-.73.11-1.16.2s-.87.21-1.34.35a8.88,8.88,0,0,0-1.31.5l3.37,1.94.6-.21c.86-.28,1.67-.53,2.43-.72a11.13,11.13,0,0,1,2.18-.36,7.4,7.4,0,0,1,2,.13,6.37,6.37,0,0,1,1.92.75,3.82,3.82,0,0,1,1.45,1.28,1.71,1.71,0,0,1,.21,1.31,3,3,0,0,1-.78,1.3,8.62,8.62,0,0,1-1.54,1.22l2.14,1.23-1.17.68-2.16-1.25a17.49,17.49,0,0,1-3.22,1.21,20.64,20.64,0,0,1-3.54.67l-1.13-2a8.56,8.56,0,0,0,.94-.07q.63-.07,1.41-.24t1.65-.42a12,12,0,0,0,1.65-.62l-3.35-1.93-.44.15-.46.14a22.79,22.79,0,0,1-2.32.65,10.42,10.42,0,0,1-2,.27,6.55,6.55,0,0,1-1.74-.17,5.56,5.56,0,0,1-1.62-.65,4,4,0,0,1-1.4-1.2,2,2,0,0,1-.38-1.3,2.44,2.44,0,0,1,.55-1.31,6,6,0,0,1,1.37-1.24l-2-1.15,1.17-.67,2,1.13a14.48,14.48,0,0,1,2.89-1.06,21.83,21.83,0,0,1,2.89-.52Zm-5.73,3.54a2.44,2.44,0,0,0,1.46.31,9.12,9.12,0,0,0,2-.45l-3.16-1.82C146.39,307.67,146.29,308.32,147.24,308.87Zm11.07.92a2.48,2.48,0,0,0-1.58-.28,13.47,13.47,0,0,0-2.2.48l3.13,1.81C159,311,159.22,310.31,158.31,309.79Z"/><path class="cls-4" d="M151.16,313.6c0-.08,0-1.13,0-1.13l1.28.82-.56.87Z"/><polygon class="cls-4" points="162.38 314.32 162.38 313.19 159.59 313.4 161.19 314.49 162.38 314.32"/><polygon class="cls-4" points="162.62 310.15 162.62 309 160.53 309.76 162.62 310.15"/><path class="cls-4" d="M154,310.09l.69-.66,2.45,1.69-.15.5s-1.83-.77-1.89-.82Z"/><path class="cls-4" d="M147.56,306.51l3.25,1.84.67-.48-.44-.51c0-.05-.77-.81-1-.85s-1.78-.74-1.78-.74Z"/><polygon class="cls-4" points="152.97 305.33 152.97 304.2 151.48 303.71 151.16 304.61 151.23 305.01 152.97 305.33"/><polygon class="cls-4" points="143.05 304.51 143.05 303.38 144.78 303.56 144.22 304.67 143.05 304.51"/><path class="cls-4" d="M143.11,308.37v-1.18h2l-.49,1.06-.86.94Z"/><path class="cls-6" d="M153,304.2a4.15,4.15,0,0,0-.77.06c-.35.05-.73.12-1.16.21s-.87.2-1.34.34a10.16,10.16,0,0,0-1.31.5l3.37,1.95.6-.22q1.29-.42,2.43-.72A11.13,11.13,0,0,1,157,306a7.82,7.82,0,0,1,2,.13,6.65,6.65,0,0,1,1.92.75,3.82,3.82,0,0,1,1.45,1.28,1.74,1.74,0,0,1,.21,1.32,2.93,2.93,0,0,1-.78,1.29,8.2,8.2,0,0,1-1.54,1.22l2.14,1.24-1.17.67-2.16-1.25a17.5,17.5,0,0,1-3.22,1.22,21.62,21.62,0,0,1-3.54.66l-1.13-2a9.23,9.23,0,0,0,.94-.08,13,13,0,0,0,1.41-.24q.78-.16,1.65-.42a11.94,11.94,0,0,0,1.65-.61l-3.35-1.94-.44.15-.46.14c-.85.28-1.62.5-2.32.66a11.23,11.23,0,0,1-2,.26,6.56,6.56,0,0,1-1.74-.16,6.18,6.18,0,0,1-1.62-.65,4.09,4.09,0,0,1-1.4-1.21,2,2,0,0,1-.38-1.3,2.48,2.48,0,0,1,.55-1.31,6.2,6.2,0,0,1,1.37-1.24l-2-1.14,1.17-.68,2,1.14a13.89,13.89,0,0,1,2.89-1.06,20.4,20.4,0,0,1,2.89-.53Zm-5.73,3.53a2.44,2.44,0,0,0,1.46.32,10.44,10.44,0,0,0,2-.45l-3.16-1.83C146.39,306.53,146.29,307.18,147.24,307.73Zm11.07.92a2.55,2.55,0,0,0-1.58-.28,12.62,12.62,0,0,0-2.2.49l3.13,1.81C159,309.85,159.22,309.18,158.31,308.65Z"/></g><g id="Coin-11" data-name="Coin"><ellipse class="cls-2" cx="155.77" cy="307.65" rx="29.32" ry="16.93"/><polygon class="cls-2" points="126.46 307.9 126.46 300.19 132.25 305.35 126.46 307.9"/><polygon class="cls-2" points="185.08 300.39 185.08 307.65 182.12 310.79 180.67 302.49 185.08 300.39"/><ellipse class="cls-3" cx="155.77" cy="300.39" rx="29.32" ry="16.93"/><path class="cls-4" d="M176.72,300.92c-.3,2.85-2.33,5.66-6.11,7.84-8.2,4.73-21.48,4.73-29.68,0-3.78-2.18-5.81-5-6.1-7.84-.36-3.34,1.68-6.75,6.1-9.29,8.2-4.74,21.48-4.74,29.68,0C175,294.17,177.07,297.58,176.72,300.92Z"/><path class="cls-5" d="M176.72,300.92c-.3,2.85-2.33,5.66-6.11,7.84-8.2,4.73-21.48,4.73-29.68,0-3.78-2.18-5.81-5-6.1-7.84.29-2.85,2.32-5.66,6.1-7.84,8.2-4.74,21.48-4.74,29.68,0C174.39,295.26,176.42,298.07,176.72,300.92Z"/><path class="cls-4" d="M155.46,297a5.77,5.77,0,0,0-.77.07c-.34,0-.73.11-1.16.2s-.87.21-1.33.35a9.46,9.46,0,0,0-1.32.5l3.37,1.94.61-.21c.86-.29,1.66-.53,2.42-.73a12.8,12.8,0,0,1,2.19-.36,7.77,7.77,0,0,1,2,.14,6.18,6.18,0,0,1,1.92.75,3.73,3.73,0,0,1,1.45,1.27,1.7,1.7,0,0,1,.22,1.32,3,3,0,0,1-.79,1.3,8.17,8.17,0,0,1-1.54,1.21l2.14,1.24-1.17.68-2.16-1.25a17.38,17.38,0,0,1-3.21,1.21,20.75,20.75,0,0,1-3.55.67l-1.13-2a8.4,8.4,0,0,0,.94-.07c.43,0,.9-.13,1.42-.24s1.07-.26,1.64-.42a12,12,0,0,0,1.65-.62L156,301.94l-.44.15-.46.14a24,24,0,0,1-2.32.65,10.43,10.43,0,0,1-2,.27A6.63,6.63,0,0,1,149,303a5.79,5.79,0,0,1-1.62-.65,4.17,4.17,0,0,1-1.4-1.2,2.09,2.09,0,0,1-.38-1.3,2.39,2.39,0,0,1,.56-1.31,5.9,5.9,0,0,1,1.36-1.24l-2-1.15,1.17-.67,2,1.13a14.71,14.71,0,0,1,2.89-1.06,20.44,20.44,0,0,1,2.9-.52Zm-5.73,3.54a2.44,2.44,0,0,0,1.46.31,8.88,8.88,0,0,0,2-.45L150,298.53C148.89,299.29,148.78,299.94,149.73,300.49Zm11.07.92a2.48,2.48,0,0,0-1.58-.28,12.68,12.68,0,0,0-2.2.48l3.14,1.81C161.49,302.6,161.71,301.93,160.8,301.41Z"/><path class="cls-4" d="M153.65,305.22c0-.08,0-1.13,0-1.13l1.29.82-.56.86Z"/><polygon class="cls-4" points="164.87 305.94 164.87 304.81 162.08 305.02 163.69 306.11 164.87 305.94"/><polygon class="cls-4" points="165.11 301.77 165.11 300.62 163.02 301.38 165.11 301.77"/><path class="cls-4" d="M156.46,301.71l.7-.67,2.45,1.7-.16.5s-1.82-.78-1.88-.82S156.46,301.71,156.46,301.71Z"/><path class="cls-4" d="M150.06,298.13,153.3,300l.67-.48s-.41-.47-.44-.52-.77-.8-1-.84-1.78-.74-1.78-.74Z"/><polygon class="cls-4" points="155.46 296.95 155.46 295.82 153.97 295.33 153.65 296.22 153.73 296.63 155.46 296.95"/><polygon class="cls-4" points="145.54 296.13 145.54 295 147.27 295.18 146.72 296.28 145.54 296.13"/><path class="cls-4" d="M145.61,300v-1.18h2l-.48,1.06-.86.94Z"/><path class="cls-6" d="M155.46,295.82a4.21,4.21,0,0,0-.77.06c-.34.05-.73.12-1.16.21s-.87.2-1.33.34a10.91,10.91,0,0,0-1.32.5l3.37,1.95.61-.22c.86-.28,1.66-.52,2.42-.72a11.1,11.1,0,0,1,2.19-.36,7.78,7.78,0,0,1,2,.13,6.18,6.18,0,0,1,1.92.75,3.74,3.74,0,0,1,1.45,1.28,1.68,1.68,0,0,1,.22,1.31,2.93,2.93,0,0,1-.79,1.3,8.2,8.2,0,0,1-1.54,1.22l2.14,1.24-1.17.67-2.16-1.25a18.14,18.14,0,0,1-3.21,1.22,21.74,21.74,0,0,1-3.55.66l-1.13-2a9,9,0,0,0,.94-.08c.43-.05.9-.13,1.42-.24s1.07-.25,1.64-.42a11.94,11.94,0,0,0,1.65-.61L156,300.8l-.44.15-.46.14c-.84.28-1.61.5-2.32.66a11.24,11.24,0,0,1-2,.26,7.08,7.08,0,0,1-1.75-.16,6.15,6.15,0,0,1-1.62-.66A4.07,4.07,0,0,1,146,300a2.09,2.09,0,0,1-.38-1.3,2.42,2.42,0,0,1,.56-1.31,6.13,6.13,0,0,1,1.36-1.24l-2-1.14,1.17-.68,2,1.14a14.13,14.13,0,0,1,2.89-1.07,22,22,0,0,1,2.9-.52Zm-5.73,3.53a2.44,2.44,0,0,0,1.46.31,8.88,8.88,0,0,0,2-.45L150,297.39C148.89,298.15,148.78,298.8,149.73,299.35Zm11.07.92a2.55,2.55,0,0,0-1.58-.28,13.69,13.69,0,0,0-2.2.48l3.14,1.82C161.49,301.47,161.71,300.8,160.8,300.27Z"/></g><g id="Coin-12" data-name="Coin"><ellipse class="cls-2" cx="153.97" cy="298.96" rx="29.32" ry="16.93"/><polygon class="cls-2" points="124.66 299.21 124.66 291.5 130.46 296.66 124.66 299.21"/><polygon class="cls-2" points="183.29 291.7 183.29 298.96 180.32 302.1 178.87 293.8 183.29 291.7"/><ellipse class="cls-3" cx="153.97" cy="291.7" rx="29.32" ry="16.93"/><path class="cls-4" d="M174.92,292.23c-.3,2.85-2.33,5.66-6.11,7.84-8.19,4.73-21.48,4.73-29.68,0-3.78-2.18-5.81-5-6.1-7.84-.36-3.34,1.68-6.75,6.1-9.29,8.2-4.74,21.49-4.74,29.68,0C173.23,285.48,175.27,288.89,174.92,292.23Z"/><path class="cls-5" d="M174.92,292.23c-.3,2.85-2.33,5.66-6.11,7.84-8.19,4.73-21.48,4.73-29.68,0-3.78-2.18-5.81-5-6.1-7.84.29-2.85,2.32-5.66,6.1-7.84,8.2-4.74,21.49-4.74,29.68,0C172.59,286.57,174.62,289.38,174.92,292.23Z"/><path class="cls-4" d="M153.66,288.26a5.77,5.77,0,0,0-.77.07c-.34,0-.73.11-1.16.2s-.87.21-1.33.35a9.46,9.46,0,0,0-1.32.5l3.37,1.94.61-.21c.86-.28,1.66-.53,2.43-.73a12.54,12.54,0,0,1,2.18-.36,7.77,7.77,0,0,1,2,.14,6.18,6.18,0,0,1,1.92.75,3.93,3.93,0,0,1,1.46,1.27,1.74,1.74,0,0,1,.21,1.32,2.89,2.89,0,0,1-.79,1.3,8.17,8.17,0,0,1-1.54,1.21l2.14,1.24-1.17.68-2.16-1.25a17.11,17.11,0,0,1-3.21,1.21,20.57,20.57,0,0,1-3.55.67l-1.13-2a8.71,8.71,0,0,0,1-.07q.63-.07,1.41-.24c.52-.11,1.07-.26,1.65-.42a12.34,12.34,0,0,0,1.64-.62l-3.35-1.93-.44.15-.46.14a21.44,21.44,0,0,1-2.32.65,10.43,10.43,0,0,1-2,.27,6.63,6.63,0,0,1-1.75-.17,5.61,5.61,0,0,1-1.61-.65,4.11,4.11,0,0,1-1.41-1.2,2.09,2.09,0,0,1-.38-1.3,2.46,2.46,0,0,1,.56-1.31,5.9,5.9,0,0,1,1.36-1.24l-2-1.15,1.17-.67,2,1.13a14.57,14.57,0,0,1,2.9-1.06,21.54,21.54,0,0,1,2.89-.52Zm-5.73,3.54a2.47,2.47,0,0,0,1.47.31,8.93,8.93,0,0,0,2-.45l-3.15-1.82C147.09,290.6,147,291.25,147.93,291.8Zm11.07.92a2.48,2.48,0,0,0-1.58-.28,13.69,13.69,0,0,0-2.2.48l3.14,1.81C159.7,293.92,159.91,293.24,159,292.72Z"/><path class="cls-4" d="M151.85,296.53c0-.08,0-1.13,0-1.13l1.29.82-.56.86Z"/><polygon class="cls-4" points="163.07 297.25 163.07 296.12 160.29 296.33 161.89 297.42 163.07 297.25"/><polygon class="cls-4" points="163.31 293.08 163.31 291.93 161.22 292.69 163.31 293.08"/><path class="cls-4" d="M154.66,293l.7-.67,2.45,1.7-.15.5s-1.83-.77-1.89-.82S154.66,293,154.66,293Z"/><path class="cls-4" d="M148.26,289.44l3.25,1.84.66-.48s-.41-.47-.44-.52-.77-.8-1-.84-1.78-.74-1.78-.74Z"/><polygon class="cls-4" points="153.66 288.26 153.66 287.13 152.17 286.64 151.85 287.53 151.93 287.94 153.66 288.26"/><polygon class="cls-4" points="143.75 287.44 143.75 286.31 145.48 286.49 144.92 287.59 143.75 287.44"/><path class="cls-4" d="M143.81,291.3v-1.18h2l-.48,1.06-.86.94Z"/><path class="cls-6" d="M153.66,287.13a4.21,4.21,0,0,0-.77.06c-.34.05-.73.12-1.16.21s-.87.2-1.33.34a10.91,10.91,0,0,0-1.32.5l3.37,1.95.61-.22c.86-.28,1.66-.52,2.43-.72a10.89,10.89,0,0,1,2.18-.36,7.78,7.78,0,0,1,2,.13,6.18,6.18,0,0,1,1.92.75,3.86,3.86,0,0,1,1.46,1.28,1.72,1.72,0,0,1,.21,1.31,2.84,2.84,0,0,1-.79,1.3,8.2,8.2,0,0,1-1.54,1.22l2.14,1.24-1.17.67-2.16-1.25a17.84,17.84,0,0,1-3.21,1.22,21.54,21.54,0,0,1-3.55.66l-1.13-2a9.37,9.37,0,0,0,1-.08q.63-.07,1.41-.24t1.65-.42a12.3,12.3,0,0,0,1.64-.61l-3.35-1.94-.44.15-.46.14c-.84.28-1.61.5-2.32.66a11.24,11.24,0,0,1-2,.26,7.08,7.08,0,0,1-1.75-.16,6.25,6.25,0,0,1-1.61-.65,4.24,4.24,0,0,1-1.41-1.21,2.09,2.09,0,0,1-.38-1.3,2.5,2.5,0,0,1,.56-1.31,6.13,6.13,0,0,1,1.36-1.24l-2-1.14,1.17-.68,2,1.14a14.6,14.6,0,0,1,2.9-1.07,21.54,21.54,0,0,1,2.89-.52Zm-5.73,3.53a2.4,2.4,0,0,0,1.47.31,8.93,8.93,0,0,0,2-.45l-3.15-1.82C147.09,289.46,147,290.11,147.93,290.66Zm11.07.92a2.55,2.55,0,0,0-1.58-.28,13.69,13.69,0,0,0-2.2.48l3.14,1.82C159.7,292.78,159.91,292.11,159,291.58Z"/></g><g id="Coin-13" data-name="Coin"><ellipse class="cls-1" cx="29.32" cy="357.94" rx="29.32" ry="16.93"/><ellipse class="cls-2" cx="33.67" cy="355.76" rx="29.32" ry="16.93"/><polygon class="cls-2" points="4.36 356.02 4.36 348.31 10.15 353.47 4.36 356.02"/><polygon class="cls-2" points="62.99 348.51 62.99 355.76 60.02 358.91 58.57 350.6 62.99 348.51"/><ellipse class="cls-3" cx="33.67" cy="348.51" rx="29.32" ry="16.93"/><path class="cls-4" d="M54.62,349c-.3,2.86-2.33,5.66-6.11,7.85-8.19,4.73-21.48,4.73-29.68,0-3.78-2.19-5.81-5-6.1-7.85-.36-3.33,1.68-6.74,6.1-9.29,8.2-4.73,21.49-4.73,29.68,0C52.93,342.29,55,345.7,54.62,349Z"/><path class="cls-5" d="M54.62,349c-.3,2.86-2.33,5.66-6.11,7.85-8.19,4.73-21.48,4.73-29.68,0-3.78-2.19-5.81-5-6.1-7.85.29-2.85,2.32-5.65,6.1-7.84,8.2-4.73,21.49-4.73,29.68,0C52.29,343.38,54.32,346.18,54.62,349Z"/><path class="cls-4" d="M33.36,345.07a4.21,4.21,0,0,0-.77.06c-.34.05-.73.12-1.16.21s-.87.2-1.33.34a10.91,10.91,0,0,0-1.32.5l3.37,1.95.61-.21c.86-.29,1.66-.53,2.43-.73a10.89,10.89,0,0,1,2.18-.36,7.78,7.78,0,0,1,2,.13,6.71,6.71,0,0,1,1.92.75A3.94,3.94,0,0,1,42.75,349a1.74,1.74,0,0,1,.21,1.32,2.94,2.94,0,0,1-.79,1.3,8.6,8.6,0,0,1-1.54,1.21l2.14,1.24-1.17.67-2.16-1.25a17.12,17.12,0,0,1-3.21,1.22,21.54,21.54,0,0,1-3.55.66l-1.13-2a9.37,9.37,0,0,0,.95-.08,11,11,0,0,0,1.41-.24q.78-.16,1.65-.42A12.3,12.3,0,0,0,37.2,352l-3.35-1.94-.44.16-.46.14c-.84.27-1.61.49-2.32.65a10.37,10.37,0,0,1-2,.26,6.63,6.63,0,0,1-1.75-.16,6.25,6.25,0,0,1-1.61-.65,4.24,4.24,0,0,1-1.41-1.21,2.07,2.07,0,0,1-.38-1.3,2.53,2.53,0,0,1,.56-1.31,6.11,6.11,0,0,1,1.36-1.23l-2-1.15,1.17-.68,2,1.14a14,14,0,0,1,2.9-1.06,21.63,21.63,0,0,1,2.89-.53Zm-5.73,3.53a2.47,2.47,0,0,0,1.47.32,10.21,10.21,0,0,0,2-.45L28,346.64C26.79,347.4,26.69,348.05,27.63,348.6Zm11.07.92a2.62,2.62,0,0,0-1.58-.28,12.82,12.82,0,0,0-2.2.49l3.14,1.81C39.4,350.72,39.61,350.05,38.7,349.52Z"/><path class="cls-4" d="M31.55,353.34c0-.08,0-1.14,0-1.14l1.29.83-.56.86Z"/><polygon class="cls-4" points="42.77 354.06 42.77 352.92 39.99 353.13 41.59 354.23 42.77 354.06"/><polygon class="cls-4" points="43.01 349.88 43.01 348.74 40.92 349.49 43.01 349.88"/><path class="cls-4" d="M34.36,349.82l.7-.66,2.45,1.69-.15.5s-1.83-.77-1.89-.81S34.36,349.82,34.36,349.82Z"/><path class="cls-4" d="M28,346.24l3.25,1.85.66-.49-.44-.51a4.29,4.29,0,0,0-1-.85c-.24,0-1.78-.73-1.78-.73Z"/><polygon class="cls-4" points="33.36 345.07 33.36 343.93 31.87 343.45 31.55 344.34 31.63 344.75 33.36 345.07"/><polygon class="cls-4" points="23.45 344.25 23.45 343.11 25.18 343.3 24.62 344.4 23.45 344.25"/><path class="cls-4" d="M23.51,348.11v-1.19h2L25,348l-.86.95Z"/><path class="cls-6" d="M33.36,343.93a7.44,7.44,0,0,0-.77.06c-.34.05-.73.12-1.16.21s-.87.21-1.33.35a8.35,8.35,0,0,0-1.32.5L32.15,347l.61-.21c.86-.29,1.66-.53,2.43-.73a10.89,10.89,0,0,1,2.18-.36,7.77,7.77,0,0,1,2,.14,6.18,6.18,0,0,1,1.92.75,3.85,3.85,0,0,1,1.46,1.27,1.74,1.74,0,0,1,.21,1.32,2.89,2.89,0,0,1-.79,1.3,8.17,8.17,0,0,1-1.54,1.21l2.14,1.24-1.17.68-2.16-1.25a17.84,17.84,0,0,1-3.21,1.21,20.57,20.57,0,0,1-3.55.67l-1.13-2a8.71,8.71,0,0,0,.95-.07q.63-.08,1.41-.24c.52-.12,1.07-.26,1.65-.43a11.06,11.06,0,0,0,1.64-.61l-3.35-1.93-.44.15-.46.14a24,24,0,0,1-2.32.65,10.43,10.43,0,0,1-2,.27,7.08,7.08,0,0,1-1.75-.17,5.61,5.61,0,0,1-1.61-.65,4.22,4.22,0,0,1-1.41-1.2,2.09,2.09,0,0,1-.38-1.3,2.46,2.46,0,0,1,.56-1.31,5.9,5.9,0,0,1,1.36-1.24l-2-1.15,1.17-.67,2,1.13a14.57,14.57,0,0,1,2.9-1.06,20.07,20.07,0,0,1,2.89-.52Zm-5.73,3.54a2.47,2.47,0,0,0,1.47.31,8.93,8.93,0,0,0,2-.45L28,345.51C26.79,346.27,26.69,346.92,27.63,347.47Zm11.07.92a2.48,2.48,0,0,0-1.58-.28,12.68,12.68,0,0,0-2.2.48l3.14,1.81C39.4,349.58,39.61,348.91,38.7,348.39Z"/><ellipse class="cls-2" cx="35.92" cy="346.46" rx="29.32" ry="16.93"/><polygon class="cls-2" points="6.61 346.71 6.61 339 12.4 344.16 6.61 346.71"/><polygon class="cls-2" points="65.24 339.2 65.24 346.45 62.27 349.6 60.82 341.3 65.24 339.2"/><ellipse class="cls-3" cx="35.92" cy="339.2" rx="29.32" ry="16.93"/><path class="cls-4" d="M56.87,339.73c-.3,2.85-2.33,5.65-6.11,7.84-8.19,4.73-21.48,4.73-29.68,0-3.78-2.19-5.81-5-6.1-7.84-.36-3.34,1.68-6.75,6.1-9.3,8.2-4.73,21.49-4.73,29.68,0C55.18,333,57.22,336.39,56.87,339.73Z"/><path class="cls-5" d="M56.87,339.73c-.3,2.85-2.33,5.65-6.11,7.84-8.19,4.73-21.48,4.73-29.68,0-3.78-2.19-5.81-5-6.1-7.84.29-2.85,2.32-5.66,6.1-7.84,8.2-4.74,21.49-4.74,29.68,0C54.54,334.07,56.57,336.88,56.87,339.73Z"/><path class="cls-4" d="M35.61,335.76a4.21,4.21,0,0,0-.77.06c-.34.05-.73.12-1.16.21s-.87.21-1.33.34a10.91,10.91,0,0,0-1.32.5l3.37,1.95.61-.21c.86-.29,1.66-.53,2.43-.73a10.89,10.89,0,0,1,2.18-.36,7.77,7.77,0,0,1,2,.14,6.4,6.4,0,0,1,1.92.74A3.94,3.94,0,0,1,45,339.68a1.74,1.74,0,0,1,.21,1.32,2.89,2.89,0,0,1-.79,1.3,8.6,8.6,0,0,1-1.54,1.21L45,344.75l-1.16.67-2.17-1.24a17.84,17.84,0,0,1-3.21,1.21,20.55,20.55,0,0,1-3.55.66l-1.13-2a8.71,8.71,0,0,0,1-.07,13.25,13.25,0,0,0,1.41-.25q.78-.16,1.65-.42a12.3,12.3,0,0,0,1.64-.61l-3.35-1.93-.44.15-.46.14c-.84.27-1.61.49-2.32.65a9.62,9.62,0,0,1-2,.26,6.63,6.63,0,0,1-1.75-.16,5.92,5.92,0,0,1-1.61-.65,4.34,4.34,0,0,1-1.41-1.2,2.11,2.11,0,0,1-.38-1.3,2.46,2.46,0,0,1,.56-1.31,5.9,5.9,0,0,1,1.36-1.24l-2-1.15,1.16-.67,2,1.13a14,14,0,0,1,2.9-1.06,20.07,20.07,0,0,1,2.89-.52Zm-5.73,3.53a2.47,2.47,0,0,0,1.47.32,10.21,10.21,0,0,0,2-.45l-3.15-1.82C29,338.09,28.94,338.75,29.88,339.29Zm11.07.93a2.55,2.55,0,0,0-1.58-.29,12.82,12.82,0,0,0-2.2.49l3.14,1.81C41.65,341.41,41.86,340.74,41,340.22Z"/><path class="cls-4" d="M33.8,344c0-.08,0-1.14,0-1.14l1.29.83-.56.86Z"/><polygon class="cls-4" points="45.02 344.75 45.02 343.61 42.24 343.83 43.84 344.92 45.02 344.75"/><polygon class="cls-4" points="45.26 340.58 45.26 339.43 43.17 340.18 45.26 340.58"/><path class="cls-4" d="M36.61,340.52l.7-.67,2.45,1.69-.15.5s-1.83-.77-1.89-.81S36.61,340.52,36.61,340.52Z"/><path class="cls-4" d="M30.21,336.94l3.25,1.84.66-.48s-.41-.47-.44-.52-.77-.8-1-.84-1.78-.74-1.78-.74Z"/><polygon class="cls-4" points="35.61 335.76 35.61 334.63 34.12 334.14 33.8 335.03 33.88 335.44 35.61 335.76"/><polygon class="cls-4" points="25.7 334.94 25.7 333.8 27.43 333.99 26.87 335.09 25.7 334.94"/><path class="cls-4" d="M25.76,338.8v-1.18h2l-.48,1.05-.86.95Z"/><path class="cls-6" d="M35.61,334.62a5.77,5.77,0,0,0-.77.07c-.34.05-.73.11-1.16.2s-.87.21-1.33.35a9.46,9.46,0,0,0-1.32.5l3.37,1.94.61-.21c.86-.28,1.66-.53,2.43-.72a11.7,11.7,0,0,1,2.18-.37,7.77,7.77,0,0,1,2,.14,6.18,6.18,0,0,1,1.92.75A3.86,3.86,0,0,1,45,338.55a1.71,1.71,0,0,1,.21,1.31,2.89,2.89,0,0,1-.79,1.3,8.62,8.62,0,0,1-1.54,1.22L45,343.61l-1.16.68L41.69,343a17.11,17.11,0,0,1-3.21,1.21,20.57,20.57,0,0,1-3.55.67l-1.13-2a8.71,8.71,0,0,0,1-.07q.63-.07,1.41-.24t1.65-.42a12.34,12.34,0,0,0,1.64-.62l-3.35-1.93-.44.15-.46.14a21.44,21.44,0,0,1-2.32.65,10.43,10.43,0,0,1-2,.27,6.63,6.63,0,0,1-1.75-.17,5.61,5.61,0,0,1-1.61-.65,4.11,4.11,0,0,1-1.41-1.2,2.09,2.09,0,0,1-.38-1.3,2.46,2.46,0,0,1,.56-1.31A5.9,5.9,0,0,1,27.68,335l-2-1.15,1.16-.67,2,1.13a14.57,14.57,0,0,1,2.9-1.06,21.54,21.54,0,0,1,2.89-.52Zm-5.73,3.54a2.47,2.47,0,0,0,1.47.31,8.93,8.93,0,0,0,2-.45L30.2,336.2C29,337,28.94,337.61,29.88,338.16Zm11.07.92a2.48,2.48,0,0,0-1.58-.28,13.69,13.69,0,0,0-2.2.48l3.14,1.81C41.65,340.28,41.86,339.6,41,339.08Z"/></g><g id="Coin-14" data-name="Coin"><ellipse class="cls-1" cx="101.25" cy="421.81" rx="29.32" ry="16.93"/><ellipse class="cls-2" cx="105.61" cy="419.63" rx="29.32" ry="16.93"/><polygon class="cls-2" points="76.3 419.89 76.3 412.18 82.09 417.34 76.3 419.89"/><polygon class="cls-2" points="134.92 412.38 134.92 419.63 131.96 422.78 130.51 414.47 134.92 412.38"/><ellipse class="cls-3" cx="105.61" cy="412.38" rx="29.32" ry="16.93"/><path class="cls-4" d="M126.56,412.91c-.3,2.85-2.33,5.65-6.11,7.84-8.2,4.73-21.49,4.73-29.68,0-3.78-2.19-5.81-5-6.1-7.84-.36-3.34,1.68-6.75,6.1-9.3,8.19-4.73,21.48-4.73,29.68,0C124.87,406.16,126.91,409.57,126.56,412.91Z"/><path class="cls-5" d="M126.56,412.91c-.3,2.85-2.33,5.65-6.11,7.84-8.2,4.73-21.49,4.73-29.68,0-3.78-2.19-5.81-5-6.1-7.84.29-2.86,2.32-5.66,6.1-7.85,8.19-4.73,21.48-4.73,29.68,0C124.23,407.25,126.26,410.05,126.56,412.91Z"/><path class="cls-4" d="M105.3,408.94a4.21,4.21,0,0,0-.77.06c-.34.05-.73.12-1.16.21s-.87.2-1.33.34a10.91,10.91,0,0,0-1.32.5l3.37,1.95.61-.21c.85-.29,1.66-.53,2.42-.73a11.1,11.1,0,0,1,2.19-.36,7.35,7.35,0,0,1,2,.14,6.5,6.5,0,0,1,1.92.74,3.82,3.82,0,0,1,1.45,1.28,1.7,1.7,0,0,1,.22,1.32,3,3,0,0,1-.79,1.3,8.6,8.6,0,0,1-1.54,1.21l2.14,1.24-1.17.67-2.16-1.24a17.94,17.94,0,0,1-3.22,1.21,21.42,21.42,0,0,1-3.54.66l-1.13-2c.21,0,.52,0,.94-.07a13,13,0,0,0,1.42-.25c.52-.11,1.07-.25,1.64-.42a11.94,11.94,0,0,0,1.65-.61l-3.35-1.94-.44.16-.46.14c-.84.27-1.62.49-2.32.65a10.37,10.37,0,0,1-2,.26,6.63,6.63,0,0,1-1.75-.16,6.11,6.11,0,0,1-1.62-.65,4.19,4.19,0,0,1-1.4-1.21,2,2,0,0,1-.38-1.3A2.45,2.45,0,0,1,96,410.5a5.89,5.89,0,0,1,1.36-1.23l-2-1.15,1.17-.68,2,1.14a14.1,14.1,0,0,1,2.89-1.06,22.06,22.06,0,0,1,2.9-.53Zm-5.73,3.53a2.44,2.44,0,0,0,1.46.32,10.13,10.13,0,0,0,2-.45l-3.16-1.83C98.73,411.27,98.62,411.93,99.57,412.47Zm11.07.93a2.55,2.55,0,0,0-1.58-.29,12.82,12.82,0,0,0-2.2.49l3.14,1.81C111.33,414.59,111.55,413.92,110.64,413.4Z"/><path class="cls-4" d="M103.49,417.21c0-.08,0-1.14,0-1.14l1.29.83-.56.86Z"/><polygon class="cls-4" points="114.71 417.93 114.71 416.79 111.92 417 113.53 418.1 114.71 417.93"/><polygon class="cls-4" points="114.95 413.76 114.95 412.61 112.86 413.36 114.95 413.76"/><path class="cls-4" d="M106.3,413.7l.7-.67,2.45,1.69-.16.5s-1.82-.77-1.88-.81Z"/><path class="cls-4" d="M99.89,410.11l3.25,1.85.67-.49s-.41-.46-.44-.51a4.54,4.54,0,0,0-1-.85c-.24,0-1.79-.73-1.79-.73Z"/><polygon class="cls-4" points="105.3 408.94 105.3 407.8 103.81 407.32 103.49 408.21 103.57 408.62 105.3 408.94"/><polygon class="cls-4" points="95.38 408.12 95.38 406.98 97.11 407.17 96.56 408.27 95.38 408.12"/><path class="cls-4" d="M95.45,412v-1.19h2L97,411.85l-.86.95Z"/><path class="cls-6" d="M105.3,407.8a5.77,5.77,0,0,0-.77.07c-.34,0-.73.11-1.16.2s-.87.21-1.33.35a9.46,9.46,0,0,0-1.32.5l3.37,1.94.61-.21c.85-.29,1.66-.53,2.42-.73a12.8,12.8,0,0,1,2.19-.36,7.77,7.77,0,0,1,2,.14,6.27,6.27,0,0,1,1.92.75,3.81,3.81,0,0,1,1.45,1.27,1.7,1.7,0,0,1,.22,1.32,3,3,0,0,1-.79,1.3,8.17,8.17,0,0,1-1.54,1.21l2.14,1.24-1.17.68-2.16-1.25a17.22,17.22,0,0,1-3.22,1.21,20.46,20.46,0,0,1-3.54.67l-1.13-2a8.4,8.4,0,0,0,.94-.07c.43-.05.9-.13,1.42-.24s1.07-.26,1.64-.42a12,12,0,0,0,1.65-.62l-3.35-1.93-.44.15-.46.14c-.84.28-1.62.49-2.32.65a10.43,10.43,0,0,1-2,.27,6.63,6.63,0,0,1-1.75-.17,5.79,5.79,0,0,1-1.62-.65,4.17,4.17,0,0,1-1.4-1.2,2,2,0,0,1-.38-1.3,2.39,2.39,0,0,1,.56-1.31,5.7,5.7,0,0,1,1.36-1.24l-2-1.15,1.17-.67,2,1.13a14.71,14.71,0,0,1,2.89-1.06,20.44,20.44,0,0,1,2.9-.52Zm-5.73,3.54a2.44,2.44,0,0,0,1.46.31,8.88,8.88,0,0,0,2-.45l-3.16-1.82C98.73,410.14,98.62,410.79,99.57,411.34Zm11.07.92a2.48,2.48,0,0,0-1.58-.28,12.68,12.68,0,0,0-2.2.48l3.14,1.81C111.33,413.45,111.55,412.78,110.64,412.26Z"/></g><polygon class="cls-1" points="286.4 295.55 90.82 182.63 182.74 129.56 378.31 242.48 286.4 295.55"/><polygon class="cls-7" points="300.24 244.78 104.67 131.87 196.58 78.8 392.16 191.72 300.24 244.78"/><ellipse class="cls-8" cx="248.41" cy="161.79" rx="37.44" ry="21.51" transform="translate(-9.31 15.28) rotate(-3.46)"/><path class="cls-8" d="M197.36,86.28l-79.74,46,181.85,105,79.74-46ZM288.3,223,143.4,139.34c4.3-4.2,4-9.52-.81-13.58l42.72-24.67a36,36,0,0,0,23.45-.37l144.44,83.4c-5,4.29-5,10,.12,14.24L310.59,223A36.12,36.12,0,0,0,288.3,223Z"/><ellipse class="cls-8" cx="195.5" cy="131.78" rx="8.48" ry="4.89"/><ellipse class="cls-8" cx="299.41" cy="191.77" rx="8.48" ry="4.89"/><path class="cls-9" d="M245.48,167.38c1.07-.62,1.62-1.28,1.66-2a4.57,4.57,0,0,0-1.27-2.76,23.64,23.64,0,0,1-2.09-3A6.16,6.16,0,0,1,243,157a3.78,3.78,0,0,1,.69-2.39,8.08,8.08,0,0,1,2.7-2.27,14.85,14.85,0,0,1,7.54-1.91,18.86,18.86,0,0,1,8.1,1.82l4.19-2.42,3.14,1.81-4.26,2.46c2,1.52,2.83,3.12,2.54,4.8s-1.71,3.25-4.26,4.72l-5.66-3.27c1.56-.9,2.41-1.77,2.54-2.59s-.34-1.55-1.43-2.17a6.55,6.55,0,0,0-3.4-.91,6.81,6.81,0,0,0-3.4.94c-1,.58-1.5,1.2-1.53,1.88a5.41,5.41,0,0,0,1.37,2.91,23.76,23.76,0,0,1,2.07,3.25,5.59,5.59,0,0,1,.67,2.56,4,4,0,0,1-.8,2.3,8.39,8.39,0,0,1-2.58,2.12,14.73,14.73,0,0,1-7.49,1.92,19,19,0,0,1-8.17-1.89l-3.9,2.25-3.12-1.8,3.89-2.24c-2.4-1.71-3.52-3.46-3.38-5.24s1.56-3.44,4.24-5l5.66,3.27c-1.55.9-2.38,1.8-2.47,2.71s.56,1.76,1.94,2.56a7.57,7.57,0,0,0,3.64,1A6.37,6.37,0,0,0,245.48,167.38Z"/><polygon class="cls-7" points="300.24 287.47 104.67 174.54 104.67 131.85 300.24 244.78 300.24 287.47"/><polygon class="cls-10" points="300.24 287.47 104.67 174.54 104.67 131.85 300.24 244.78 300.24 287.47"/><polygon class="cls-7" points="392.16 234.4 300.24 287.47 300.24 244.78 392.16 191.71 392.16 234.4"/><polygon class="cls-11" points="392.16 234.4 300.24 287.47 300.24 244.78 392.16 191.71 392.16 234.4"/><polygon class="cls-12" points="217.13 239.31 182.96 219.77 182.96 176.77 217.13 196.49 217.13 239.31"/><polygon class="cls-10" points="217.13 239.31 182.96 219.77 182.96 176.77 217.13 196.49 217.13 239.31"/><polygon class="cls-12" points="309.48 142.94 217.1 196.48 182.96 176.77 275.02 123.04 309.48 142.94"/><polygon class="cls-7" points="314.62 203.29 119.05 90.37 210.96 37.3 406.54 150.22 314.62 203.29"/><ellipse class="cls-8" cx="262.79" cy="120.3" rx="37.44" ry="21.51" transform="translate(-6.78 16.08) rotate(-3.46)"/><path class="cls-8" d="M211.73,44.78,132,90.82l181.86,105,79.74-46Zm91,136.72L157.78,97.84c4.3-4.2,4-9.52-.81-13.58l42.72-24.67a35.86,35.86,0,0,0,23.44-.37l144.45,83.4c-5,4.29-5,10,.12,14.24L325,181.53A36.12,36.12,0,0,0,302.68,181.5Z"/><ellipse class="cls-8" cx="209.88" cy="90.28" rx="8.48" ry="4.89"/><ellipse class="cls-8" cx="313.79" cy="150.27" rx="8.48" ry="4.89"/><path class="cls-9" d="M259.86,125.88c1.07-.62,1.62-1.28,1.66-2a4.63,4.63,0,0,0-1.27-2.76,23.64,23.64,0,0,1-2.09-3,6.11,6.11,0,0,1-.83-2.59,3.78,3.78,0,0,1,.69-2.39,8.08,8.08,0,0,1,2.7-2.27,14.83,14.83,0,0,1,7.54-1.91,18.86,18.86,0,0,1,8.1,1.82l4.19-2.42,3.13,1.81-4.25,2.46c2,1.52,2.83,3.12,2.54,4.8s-1.71,3.25-4.26,4.72L272,118.84c1.57-.9,2.42-1.77,2.55-2.59s-.34-1.54-1.43-2.17a6.55,6.55,0,0,0-3.4-.91,6.91,6.91,0,0,0-3.4.94c-1,.58-1.5,1.2-1.53,1.88a5.51,5.51,0,0,0,1.36,2.92,22.45,22.45,0,0,1,2.08,3.24,5.75,5.75,0,0,1,.67,2.56,4,4,0,0,1-.81,2.3,8.21,8.21,0,0,1-2.57,2.12,14.73,14.73,0,0,1-7.49,1.92,19,19,0,0,1-8.17-1.89l-3.9,2.25-3.12-1.8,3.88-2.24q-3.58-2.57-3.37-5.23c.15-1.78,1.56-3.45,4.24-5l5.66,3.27c-1.56.89-2.38,1.79-2.47,2.7s.56,1.76,1.94,2.56a7.57,7.57,0,0,0,3.64,1A6.37,6.37,0,0,0,259.86,125.88Z"/><polygon class="cls-7" points="314.62 245.97 119.05 133.04 119.05 90.36 314.62 203.29 314.62 245.97"/><polygon class="cls-13" points="314.62 245.97 119.05 133.04 119.05 90.36 314.62 203.29 314.62 245.97"/><polygon class="cls-7" points="406.54 192.9 314.62 245.97 314.62 203.28 406.54 150.21 406.54 192.9"/><polygon class="cls-14" points="406.54 192.9 314.62 245.97 314.62 203.28 406.54 150.21 406.54 192.9"/><polygon class="cls-12" points="229.49 196.48 195.33 176.94 195.33 133.94 229.49 153.66 229.49 196.48"/><polygon class="cls-13" points="229.49 196.48 195.33 176.94 195.33 133.94 229.49 153.66 229.49 196.48"/><polygon class="cls-12" points="321.85 100.11 229.46 153.65 195.33 133.94 287.38 80.21 321.85 100.11"/><polygon class="cls-7" points="305.11 165.98 109.53 53.07 201.45 0 397.02 112.92 305.11 165.98"/><ellipse class="cls-15" cx="253.28" cy="82.99" rx="37.44" ry="21.51" transform="translate(-4.55 15.43) rotate(-3.46)"/><path class="cls-15" d="M202.22,7.48l-79.74,46,181.85,105,79.74-46Zm91,136.72L148.26,60.54c4.31-4.2,4.05-9.53-.8-13.58l42.72-24.67a35.93,35.93,0,0,0,23.44-.37l144.45,83.39c-5,4.3-5,10,.11,14.24l-42.73,24.67A36.16,36.16,0,0,0,293.17,144.2Z"/><ellipse class="cls-15" cx="200.37" cy="52.97" rx="8.48" ry="4.89"/><ellipse class="cls-15" cx="304.27" cy="112.96" rx="8.48" ry="4.89"/><path class="cls-7" d="M250.34,88.58c1.07-.62,1.63-1.28,1.67-2a4.59,4.59,0,0,0-1.28-2.76,24.16,24.16,0,0,1-2.08-3,6.08,6.08,0,0,1-.84-2.59,3.79,3.79,0,0,1,.7-2.39,7.82,7.82,0,0,1,2.69-2.27,14.79,14.79,0,0,1,7.55-1.91,18.64,18.64,0,0,1,8.09,1.82L271,71l3.13,1.81-4.25,2.45q3,2.3,2.54,4.81c-.3,1.67-1.72,3.25-4.27,4.72l-5.66-3.27c1.57-.91,2.42-1.77,2.55-2.59s-.35-1.55-1.43-2.17a6.48,6.48,0,0,0-3.4-.91,6.78,6.78,0,0,0-3.4.94c-1,.57-1.51,1.2-1.53,1.88a5.38,5.38,0,0,0,1.36,2.91,24,24,0,0,1,2.08,3.25,5.57,5.57,0,0,1,.66,2.56,3.82,3.82,0,0,1-.8,2.29A8.12,8.12,0,0,1,256,91.82a14.6,14.6,0,0,1-7.48,1.93,19,19,0,0,1-8.17-1.89l-3.9,2.25-3.12-1.8,3.88-2.24q-3.58-2.56-3.37-5.24t4.23-5l5.67,3.27c-1.56.9-2.38,1.8-2.47,2.71s.55,1.75,1.94,2.55a7.46,7.46,0,0,0,3.63,1A6.51,6.51,0,0,0,250.34,88.58Z"/><polygon class="cls-7" points="305.1 208.67 109.53 95.74 109.53 53.05 305.1 165.98 305.1 208.67"/><polygon class="cls-10" points="305.1 208.67 109.53 95.74 109.53 53.05 305.1 165.98 305.1 208.67"/><polygon class="cls-7" points="397.02 155.59 305.1 208.66 305.1 165.98 397.02 112.91 397.02 155.59"/><polygon class="cls-11" points="397.02 155.59 305.1 208.66 305.1 165.98 397.02 112.91 397.02 155.59"/><polygon class="cls-12" points="223.72 161.87 189.56 142.33 189.56 99.33 223.72 119.05 223.72 161.87"/><polygon class="cls-10" points="223.72 161.87 189.56 142.33 189.56 99.33 223.72 119.05 223.72 161.87"/><polygon class="cls-12" points="316.08 65.5 223.69 119.04 189.56 99.33 281.61 45.6 316.08 65.5"/><polygon class="cls-1" points="489.62 351.07 294.04 463.99 202.13 410.92 397.7 298 489.62 351.07"/><polygon class="cls-7" points="500 310.69 304.42 423.61 212.51 370.54 408.08 257.63 500 310.69"/><ellipse class="cls-15" cx="356.25" cy="340.62" rx="21.51" ry="37.44" transform="translate(-5.24 675.67) rotate(-86.54)"/><path class="cls-15" d="M225.46,370.09l79.74,46,181.85-105-79.74-46Zm236.81-52.5-144.9,83.66a35.87,35.87,0,0,0-23.53.46l-42.73-24.66c4.32-4.18,4.12-9.48-.64-13.54l144.45-83.39a35.75,35.75,0,0,0,24.66-.07l42.73,24.67C458.23,308.67,458.22,313.62,462.27,317.59Z"/><ellipse class="cls-15" cx="304.26" cy="371.16" rx="8.48" ry="4.89"/><ellipse class="cls-15" cx="408.17" cy="311.17" rx="8.48" ry="4.89"/><path class="cls-7" d="M365.93,342.31a7,7,0,0,0-3.45-1,18.28,18.28,0,0,0-4.78.74q-2.94.77-5.28,1.2a27.8,27.8,0,0,1-4.48.48,17.3,17.3,0,0,1-4.15-.4,14,14,0,0,1-3.92-1.56q-3.31-1.9-3.32-4.35t3.16-4.68l-4.19-2.42,3.13-1.81L342.9,331a17.94,17.94,0,0,1,8.32-1.47A18.25,18.25,0,0,1,359.4,332l-5.66,3.27a10.21,10.21,0,0,0-4.49-1.47,6.66,6.66,0,0,0-3.76.83c-1.07.62-1.6,1.27-1.58,2s.57,1.35,1.64,2a6.65,6.65,0,0,0,3.25.88,22,22,0,0,0,5.05-.79q3.28-.81,5.62-1.2a25.92,25.92,0,0,1,4.43-.38,17.15,17.15,0,0,1,4,.46,13.75,13.75,0,0,1,3.67,1.49q3.34,1.92,3.34,4.32c0,1.6-1.1,3.17-3.28,4.72l3.9,2.25-3.11,1.8-3.88-2.24a20.06,20.06,0,0,1-9.08,1.95,18,18,0,0,1-8.64-2.45l5.66-3.27a10.08,10.08,0,0,0,4.69,1.43,8.18,8.18,0,0,0,4.43-1.12c1.15-.67,1.75-1.37,1.81-2.1S367,342.91,365.93,342.31Z"/><polygon class="cls-7" points="304.42 457.64 212.51 404.52 212.51 370.48 304.42 423.61 304.42 457.64"/><polygon class="cls-10" points="304.42 457.64 212.51 404.52 212.51 370.48 304.42 423.61 304.42 457.64"/><polygon class="cls-7" points="500 344.67 304.42 457.64 304.42 423.61 500 310.64 500 344.67"/><polygon class="cls-11" points="500 344.67 304.42 457.64 304.42 423.61 500 310.64 500 344.67"/></g></g></svg>