<svg xmlns="http://www.w3.org/2000/svg" viewBox="0 0 417.61 500"><defs><style>.cls-1{fill:#d6d8e5;opacity:0.4;}.cls-2{fill:#3a2c6d;}.cls-3{fill:#ffcea9;}.cls-4{fill:#f4f4f4;}.cls-5{fill:#38226d;}.cls-6{fill:#9c73ff;}.cls-7{fill:#ededed;}.cls-8{fill:#434b5b;}.cls-9{fill:#c1c4d3;}.cls-10{fill:#a7abb7;}.cls-11{fill:#916f5d;}.cls-12{fill:#d5d7e2;}.cls-13{fill:#3a4151;}.cls-14{fill:#2b303f;}.cls-15{fill:#8c50ff;}.cls-16{fill:#dd7a7a;}.cls-17{fill:#252935;}.cls-18{isolation:isolate;}.cls-19{fill:#653ab8;}.cls-20{fill:#7945dc;}.cls-21{fill:#4b2b89;}.cls-22{fill:#212531;}.cls-23{fill:#1f232d;}.cls-24{fill:#171a22;}.cls-25{fill:#727379;}.cls-26{fill:#1f232b;}.cls-27{fill:#e9eaf4;}.cls-28{fill:#f4f6f9;}</style></defs><title>people_SVG</title><g id="Слой_2" data-name="Слой 2"><g id="Слой_1-2" data-name="Слой 1"><ellipse class="cls-1" cx="313.01" cy="478.78" rx="32.23" ry="18.61" transform="translate(-160.97 158.55) rotate(-22.78)"/><ellipse class="cls-1" cx="385.83" cy="256.9" rx="33.48" ry="19.51" transform="translate(-69.38 169.44) rotate(-22.78)"/><ellipse class="cls-1" cx="316.88" cy="254.5" rx="19.51" ry="33.48" transform="translate(-33.6 460.29) rotate(-69.19)"/><ellipse class="cls-1" cx="367.39" cy="210.63" rx="19.51" ry="33.48" transform="translate(39.98 479.22) rotate(-69.19)"/><ellipse class="cls-1" cx="271.34" cy="450.99" rx="32.23" ry="18.61" transform="translate(-153.46 140.25) rotate(-22.78)"/><ellipse class="cls-1" cx="150.34" cy="451.66" rx="18.61" ry="42.83" transform="translate(-324.61 483.5) rotate(-75.42)"/><ellipse class="cls-1" cx="193.62" cy="226.13" rx="18.61" ry="48.67" transform="translate(-73.96 356.6) rotate(-75.42)"/><ellipse class="cls-1" cx="70.72" cy="313.92" rx="32.23" ry="18.61" transform="translate(-116.04 51.87) rotate(-22.78)"/><ellipse class="cls-1" cx="27.74" cy="289.46" rx="28.08" ry="16.21" transform="translate(-109.92 33.32) rotate(-22.78)"/><path class="cls-2" d="M27.57,91.88C26.09,89.51,14.8,88,11.09,97.51c-1.41,3.63-1.19,12.9-2.37,18.73s-4,9.12-5,13.85.63,12.65,12,14,20.15-2.6,22.84-6.23,2.74-11.35-.05-15.49-4.92-7.52-4.85-12.92Z"/><path class="cls-3" d="M41.1,131.92s2.68,18.88-2.38,32.29-3.66-3.45-3.66-3.45l1.22-4s1-15.44.6-19.22-.33-7-.6-7.34,1-.91,1.54-1S41.1,131.92,41.1,131.92Z"/><path class="cls-2" d="M20.12,90.23s8.5-2.45,13.65,2.15A12.63,12.63,0,0,1,37.41,105c-.69,2.69-2.06,6.35-4.2,6.56S20.12,90.23,20.12,90.23Z"/><path class="cls-3" d="M16.87,113.42s.56,9.47.38,10.17-3.72,1.37-4.71,2.2,5.15,10.43,8.28,11.86,12.8-2.22,13.47-7c.62-4.43-2.77-7.88-4.07-9.08a19.91,19.91,0,0,0-2.67-.07l-.29-4.59C23,115.53,16.87,113.42,16.87,113.42Z"/><path class="cls-4" d="M36.88,145.37c0,2-.25,5.06-.44,7.26-.1,1.21-.19,2.18-.23,2.58a.76.76,0,0,1,0,.19c-9.29,5.76-20.79.82-20.79.82-.38-.75-.78-1.59-1.2-2.56-1.08-2.44-2.34-5.68-4-10C7.9,137.51,9,129.5,9.44,127.8c.42-1.46,3.47-2.88,6.13-3.29,3.09,1.72,5,6.06,14.65,9,4.5-4.36-2-12-2-12a16.41,16.41,0,0,1,2.62,0C38.13,128.67,45.44,137.88,36.88,145.37Z"/><path class="cls-3" d="M34.57,101.68h0c-1-6.09-5.36-10.69-11.63-10.32a12.1,12.1,0,0,0-11.38,12.8,12,12,0,0,0,5.31,9.26,12.6,12.6,0,0,0,1,2.66c2.23,2.59,8.14,4.23,10.09,4.26,1.68,0,3.14-1.56,4.72-4.17C35.92,110.72,35.09,104.68,34.57,101.68Z"/><path class="cls-2" d="M21,91.47c-4.4.86-8,2.1-9.22,6.43-.82,3-1.89,8.65-.87,11l.63,1.73,5.34,2.75s2.49-2.08,1.71-8.15a4.44,4.44,0,0,1,.75-2.31,7,7,0,0,0,.74-1.83,6.86,6.86,0,0,1,3.45-3.74c4-2.23,9.79-.31,10.6.5A11.59,11.59,0,0,0,21,91.47Z"/><path class="cls-3" d="M9.14,168.78c-1-6.17-2.84-10.17-2-13.56a121.58,121.58,0,0,1,7.5-20c1.95-3.84,1.35-6.51-.67-8-2.27-1.7-4.44-1-6.48,3.29C4.94,135.85,2,141.34.63,149.3c-.69,3.86-1,7.61.19,15.54.87,5.55,2.64,8.66,4.72,13.87C6.11,180.13,10,174,9.14,168.78Z"/><path class="cls-5" d="M13,283.82c2.23,1.82,5.7.56,5.86.73,2.27,2.27,5.65,4.25,8.17,6.23,1.39,1.1,3.55,2.56,3.16,4.66-.7,3.75-6.71,2.6-9,1.45s-4.12-3.05-6.27-4.39c-1.53-.95-3-1.44-3.27-3.37C11.51,288,12.6,283.78,13,283.82Z"/><path class="cls-6" d="M11.69,288.35c.29,1.85,1.78,2.36,3.3,3.3,2.18,1.36,4.1,3.31,6.37,4.46,2.09,1.06,7.32,2.11,8.79-.57-.8,3.62-6.71,2.49-8.95,1.35s-4.12-3.05-6.27-4.39c-1.53-.95-3-1.44-3.27-3.37A3.09,3.09,0,0,1,11.69,288.35Z"/><path class="cls-5" d="M28.63,280.7c2,1.66,5.12.73,5.27.88,2.08,2.08,5.16,3.87,7.46,5.69,1.27,1,3.26,2.34,2.9,4.26-.64,3.44-6.15,2.38-8.23,1.33s-3.77-2.8-5.74-4c-1.4-.87-2.78-1.32-3-3.09C27.16,284.68,28.26,280.66,28.63,280.7Z"/><path class="cls-6" d="M27.32,285c.27,1.7,1.63,2.17,3,3,2,1.24,3.76,3,5.84,4.08,1.91,1,6.7,1.94,8-.51-.73,3.31-6.14,2.27-8.2,1.23s-3.77-2.8-5.74-4c-1.4-.87-2.78-1.32-3-3.09A3.82,3.82,0,0,1,27.32,285Z"/><path class="cls-3" d="M40.64,177c-1-7.68-3.81-18.84-3.81-18.84a22.81,22.81,0,0,1-8.53,2.12c-5,.25-12.9-1.26-12.9-1.26a77.09,77.09,0,0,1-4.54,7c-2.21,3.08-6.52,9.82-5.48,21.59.68,7.69,5,40.36,5,40.36A61.33,61.33,0,0,0,7.72,245c0,4.75,1.3,12.83,2.7,20.3L13,283.82s3.42,2.47,5.86.73l-.3-18.15c.29-4.44.73-11,1-15.18.46-6.81,1.68-17.64,2-20.34s1.22-7.42,1.63-12.72S25.64,186,25.64,186l.27,5s.27,8.17,1.44,18.26,1.59,14.56,1.59,14.56a21.69,21.69,0,0,0-2.3,6.52c-.21,2.18-2.7,19.43-1.21,28.2l3.06,22.31a5.85,5.85,0,0,0,5.28.69l1.8-22.48c1.2-8.56,3.76-26.69,4.15-29,.51-3.1.94-4.63,1.53-14.38S41.62,184.71,40.64,177Z"/><path class="cls-7" d="M3.52,138s4.6,4.57,10.05,4l2.61-8.91s1.71-4.66-2.27-6.7S5.8,128.83,3.52,138Z"/><path class="cls-7" d="M30.86,121.5s5.26-1.6,10.84,10.05l-2.09,1.26S34.12,124.5,30.86,121.5Z"/><path class="cls-3" d="M99.64,161.25c.4,3.47,4.53,18.43,3.64,23.55s-15,13.7-15,13.7l-2-8.77,7.82-7.67L92,167.53Z"/><path class="cls-8" d="M101,166.16a9.16,9.16,0,0,1-.94,1l0,.05a8.88,8.88,0,0,1-3.48,2.08h0a6.37,6.37,0,0,1-2.78.18l-.63-2.85-4.38-20.16a6.17,6.17,0,0,1,7.86,2.37c1.17,1.92,2.35,6.43,3.2,10.41C100.45,162.45,100.92,165.26,101,166.16Z"/><path class="cls-9" d="M72.56,313.32a12.15,12.15,0,0,1-9.15-1.11c-2.2.07-14.16-5-15.79-.75-1.42,3.76,3.76,7.25,6.53,7.92,6,1.46,10.51,4.48,12.93,5,1.81.38,4.15.63,5.59-.79C74.4,321.87,74.25,315.56,72.56,313.32Z"/><path class="cls-10" d="M67.08,323.32c-2.42-.51-6.89-3.52-12.93-5-2.32-.57-6.32-3.1-6.72-6.13-.54,3.47,4.13,6.54,6.72,7.17,6,1.46,10.51,4.48,12.93,5,1.81.38,4.15.63,5.59-.79a3.51,3.51,0,0,0,.8-1.45A7.25,7.25,0,0,1,67.08,323.32Z"/><path class="cls-9" d="M92,304.61a12.15,12.15,0,0,1-9.15-1.11c-2.2.07-14.16-5.05-15.79-.76-1.42,3.77,3.76,7.26,6.53,7.93,6,1.46,10.51,4.48,12.93,5,1.81.38,4.15.63,5.59-.79C93.8,313.16,93.65,306.85,92,304.61Z"/><path class="cls-10" d="M86.48,314.61c-2.42-.51-6.89-3.52-12.93-5-2.32-.57-6.32-3.11-6.72-6.13C66.29,307,71,310,73.55,310.67c6,1.46,10.51,4.48,12.93,5,1.81.38,4.15.63,5.59-.79a3.57,3.57,0,0,0,.8-1.45A7.25,7.25,0,0,1,86.48,314.61Z"/><path class="cls-11" d="M92.2,272.11A72.66,72.66,0,0,0,89.44,259s.82-11.31,1.23-22c.47-12.17,4.69-22.88,1.36-32.58L54.5,212.76s2.27,48.49,2.77,54.36A112.15,112.15,0,0,0,59,280.73c1.71,9.42,4.49,31.81,4.49,31.81,4,2.31,9.18,1,9.18,1s-.28-28.32-.54-35.1c-.31-8.28-.56-7.65-.56-7.65l1.24-20.63.81-10.26s1,7.53,1.71,14.26c.59,5.86,2,11.17,3.59,22.09,1.37,9.47,3.6,28.51,3.6,28.51,4,2.3,9.36.39,9.36.39S93.27,280.33,92.2,272.11Z"/><path class="cls-3" d="M86.72,146.71c-2.86.14-5,.87-5.35,0a36.61,36.61,0,0,1-.65-4.47c.33-.82.61-1.72.61-1.72,3.59-2.2,4.73-6.08,5.2-10.6.8-7.72-3.37-14.48-11.09-15.29-7.26-.75-12.6,4.35-14,11.35-.77,3.46-2.3,10-.23,15.68,1.15,3.18,2.64,5.71,4.13,6.2a34.74,34.74,0,0,0,4.29-.38h0s.38,2.14.65,3.52.16,2.1-2.58,3.79,4.14,5.16,8.64,4.82,9.56-3.06,11-6C88.81,150.44,88.68,146.61,86.72,146.71Z"/><path class="cls-12" d="M101,166.16a9.16,9.16,0,0,1-.94,1l0,.05a12.52,12.52,0,0,1-3.48,2.08h0a9.36,9.36,0,0,1-2.43.59l-2.61-2.33a14.41,14.41,0,0,0,1.63-.93,19.55,19.55,0,0,0,4.6-4.26,18.81,18.81,0,0,0,2.08-3.12C100.45,162.45,100.92,165.26,101,166.16Z"/><path class="cls-8" d="M92.46,186c-1.81,6.43-.5,8.25-.41,19.41-3.15,5.28-16.12,12.09-23.82,12.73s-13.72-5.38-13.72-5.38c-.44-3.26-.39-22.15.11-34.88.44-11,1.86-17.52,5.09-19.77a53.17,53.17,0,0,1,5.48-3c2.4-1.19,4.64-2.21,4.92-2.34l0,0a.28.28,0,0,0,0,.06h0c.13.33,1,1.94,5.83.42,5.3-1.66,7.32-4.05,6.61-6a.19.19,0,0,0,0-.07h0c.25,0,2.17-.32,4.36-.5.86-.08,1.77-.13,2.62-.16,3.2-.08,5.51.92,7.17,9C98.77,165.24,96.59,171.27,92.46,186Z"/><path class="cls-3" d="M42.51,188.4c6.32,1.59,7.81-2.39,8.64-5.69,2-8,3.1-15.22,4.6-19.75,1.76-5.36,3.61-6.21,6.21-7.25,3.06-1.22,5.68,1.36,4.67,8.17-1.21,8.05-2.78,13.71-5.8,23.24-.78,2.49-2.55,6.92-5.19,9-3.26,2.64-8.18,2.53-15.61.68-3.17-.79-6.65-2.69-12.65-5.48-1.61-.75-2.86-1.25-5.95-2.69a21,21,0,0,1-7.92-6.19c-1.63-2.35-1.84-3.45-1.51-4s1.15-.52,2,.46a17.17,17.17,0,0,0,4.55,4.21s-2-2.06-3.08-3.4a17.28,17.28,0,0,1-2.39-3.91c-.57-1.37.61-3.22,1.5-2.25s1.33,2,3,3.93a17.12,17.12,0,0,0,2.93,2.79,32.46,32.46,0,0,1-2.7-4.34,7.07,7.07,0,0,1-1-3.92c0-.72,1.05-1.57,2-.21.85,1.21,1.41,3.12,3.39,5.18,1.45,1.5,2.68,2.36,2.71,1.95s-.87-1.24-1.39-3,0-3.59,1-3.8.78-.14,1.55,1.49,2,2.84,2.87,5.22a10.85,10.85,0,0,0,2.6,4.48C33.06,185.06,36.5,186.89,42.51,188.4Z"/><path class="cls-13" d="M61.66,125S55,114.85,69.45,112.78c10.42-1.49,17.12,5.21,17.9,12.48.74,6.94-3.54,14.15-6.63,17-1.5.54-4.75.85-9-1.08a51.48,51.48,0,0,1-.2-5.69S76.59,124.81,61.66,125Z"/><path class="cls-14" d="M388.71,205.92c-2.69,2.2-6.66.19-6.86.39a121.12,121.12,0,0,1-9.94,8.28c-1.68,1.32-4.29,3.08-3.82,5.62.85,4.54,8.11,3.14,10.85,1.75s5-3.68,7.57-5.29c1.85-1.15,3.67-1.75,4-4.08C390.64,211.18,389.19,205.87,388.71,205.92Z"/><path class="cls-13" d="M390.43,211.64c-.35,2.24-2.15,2.86-4,4-2.64,1.63-5,4-7.7,5.38-2.53,1.28-8.84,2.56-10.62-.68,1,4.37,8.1,3,10.81,1.62s5-3.68,7.57-5.29c1.85-1.15,3.67-1.75,4-4.08A4.06,4.06,0,0,0,390.43,211.64Z"/><path class="cls-14" d="M365.35,197.24c-2.69,2.19-7.41-.2-7.61,0a103.41,103.41,0,0,1-8.87,8c-1.68,1.32-4.3,3.09-3.82,5.62.84,4.54,8.11,3.15,10.85,1.76s5-3.69,7.57-5.3c1.85-1.15,3.67-1.74,3.95-4.08C367.6,201.84,365.82,197.18,365.35,197.24Z"/><path class="cls-13" d="M367.34,202.63c-.35,2.24-2.15,2.85-4,4-2.64,1.64-5,4-7.7,5.39-2.53,1.28-8.84,2.55-10.62-.69,1,4.38,8.1,3,10.81,1.63s5-3.69,7.57-5.3c1.85-1.15,3.67-1.74,4-4.08A4,4,0,0,0,367.34,202.63Z"/><path class="cls-3" d="M347.36,48.52s.08,4.39-.45,15.25A179.32,179.32,0,0,0,348,88.09a65.51,65.51,0,0,0,5.16,18.5c1.93-9.29-.31-10.92-.31-10.92l1.1-19.74s-1.1-19.06-.66-25.83C353.56,45.8,347.36,48.52,347.36,48.52Z"/><path class="cls-15" d="M388.8,106.5c-.13,4.07-1.4,21.75-2,31.12s-.7,20.83-.7,20.83,1.62,6.81,2.66,14.83,0,33.31,0,33.31a6.37,6.37,0,0,1-6.89,0s-4.31-20.25-6.31-29.37-2.34-14.37-3.38-20c-1.25-6.84-4-38.75-4-38.75l-1.08.06-2.88,36a40.25,40.25,0,0,1,1.82,8.18c.78,5.87-.83,35.4-.83,35.4a7.15,7.15,0,0,1-7.45-.31s-7.2-39.1-7.2-45.06c0-3.93.67-55.83.67-55.83Z"/><path class="cls-3" d="M374.32,51.52c-1.49.68-4.35.32-7.17-.76a16.66,16.66,0,0,1-5.6-3.34,6.13,6.13,0,0,1-2.16-4.06c-.16-4.38,1.16-8.2,2.57-9.69A1.81,1.81,0,0,1,363,33l.72-.16.44-.13c.14,0,.29-.09.45-.12,4.19-1.25,14.41-4.8,14.41-4.8s-.45,8.89-.26,9.67a.8.8,0,0,0,.19.32,13.14,13.14,0,0,0,2,1.7c.21.17.44.33.66.5,1,.72,1.92,1.41,2.39,1.8C385.12,42.73,377.85,49.9,374.32,51.52Z"/><path class="cls-16" d="M390.71,50.59c0,.45,0,.95-.07,1.49-.33,5-1.38,9.61-2.34,15-.18,1-.35,2-.52,3s-.32,2.06-.46,3.12a34.4,34.4,0,0,0-.22,5.07c0,4,.46,8.66.95,13.13.16,1.4.32,2.77.48,4.09.06.6.13,1.18.21,1.75.39,3.28.73,6.15.84,8.09a6.44,6.44,0,0,1-.78,1.28,11,11,0,0,1-5,3.46c-.49.19-1,.37-1.53.53-.82.26-1.68.49-2.57.69a22.77,22.77,0,0,1-6.19.6,20,20,0,0,1-2.62-.26c-.49-.08-1-.17-1.5-.28s-1.31-.32-2-.52a37.65,37.65,0,0,1-7.38-3.22,22.63,22.63,0,0,1-6.24-5,16.62,16.62,0,0,1-2.5-3.8,9.94,9.94,0,0,1-.66-1.82s.16-28.77,0-38.19c0-2.28,0-4.36.08-6.26a3.19,3.19,0,0,1,0-.42c.08-1.62.2-3.12.37-4.52a46,46,0,0,1,1.95-9.11,13.4,13.4,0,0,1,6.29-7.3v0a3.49,3.49,0,0,1,.86-.05A8.43,8.43,0,0,1,364,32.61a1.22,1.22,0,0,1,.19.12c.69.42,1.15.79,1.24.85h0a6.15,6.15,0,0,0-1.2,1.37c-2.62,4-2.14,12.08.37,14.55C373.59,48.61,380,39,380,39s.28.14.9.49l.7.43c1,.62,2.58,1.62,4.76,3.17q.24.18.48.33c2.3,1.59,3.54,2.08,3.79,5.11,0,.05,0,.09,0,.14C390.72,49.23,390.73,49.85,390.71,50.59Z"/><path class="cls-3" d="M383.64,110.36c1.33-1.49,3.64-9.79,5-15a53.19,53.19,0,0,0,.76-18c-1.19-7.16-4.46-17.06-5.4-21.16s.29-5.84,2.12-7.5c2.14-1.94,5.32-1.36,7.38,4.34a112.14,112.14,0,0,1,5.37,24.35,56.3,56.3,0,0,1-1.59,18.37c-1.38,5.56-3.39,9.63-6,14.75-.7,1.39-2.3,5.28-3.33,8.1S382.41,111.73,383.64,110.36Z"/><path class="cls-12" d="M381.63,39.93s0,0,0,.07c-1.61,2.11-7.17,8.87-14.44,10.76a14.48,14.48,0,0,1-2.38.44l-.79.08-.57-.56a7.89,7.89,0,0,1-1.86-3.3,18.58,18.58,0,0,1-.75-6.29,14.61,14.61,0,0,1,1.87-6.88,7.21,7.21,0,0,1,1.07-1.39,3,3,0,0,1,.25-.25,3,3,0,0,1,.38-.33l.26.33.79,1h0l1.07,1.33a2.22,2.22,0,0,0-.37.38c-1.08,1.17-1.8,3.41-1.92,6a12.64,12.64,0,0,0,1.13,6.38c6.81-1.23,12.4-8.24,13.63-9.88a13.14,13.14,0,0,0,2,1.7Z"/><path class="cls-3" d="M359,14.58h0C360,7.69,365,2.47,372.08,2.86a13.66,13.66,0,0,1,7,25,13.75,13.75,0,0,1-1.1,3c-2.51,2.94-10.11,4.76-12.3,4.45-2.8-.4-4.32-1.57-5.65-4.64C357.63,25.22,358.37,18,359,14.58Z"/><path class="cls-13" d="M379,27.81h0l-.65-6s4.91-12.72-6.69-10.28c-7.67,1.62-9.59,2.32-11.92-2.82s5.89-9.77,15.65-8.48a13.48,13.48,0,0,1,12.08,13.69C387.25,17.69,386.25,25.34,379,27.81Z"/><path class="cls-16" d="M398.91,62.32s-6.34,6.3-13.83,4.49c-1.07-.73-3.64-15.46-3.64-15.46s0-8.16,6.25-7.94S398.91,62.32,398.91,62.32Z"/><path class="cls-16" d="M359.37,31.25a29.13,29.13,0,0,0-5.31,6.41c-2,3.43-2.83,9.83-3.13,13.53-.14,1.73-.17,2.86-.17,2.86s-4.23.51-5.6-1.42a17.58,17.58,0,0,1,.64-3C347.5,43.66,352.4,32,359.37,31.25Z"/><path class="cls-3" d="M288.66,99.84c-.41,3.55-4.65,18.88-3.74,24.13s15.39,14,15.39,14l2-9-8-7.86,2.17-14.89Z"/><path class="cls-7" d="M299.86,84.73a6.34,6.34,0,0,0-8.06,2.44c-2.13,3.53-4.35,15.63-4.55,17.7,0,0,3,4.13,7.48,3.44Z"/><path class="cls-14" d="M316.4,255.63a12.43,12.43,0,0,0,9.37-1.13c2.26.07,14.51-5.18,16.18-.78,1.46,3.86-3.85,7.44-6.69,8.12-6.19,1.5-10.77,4.59-13.25,5.11-1.85.39-4.25.65-5.73-.81C314.51,264.4,314.67,257.93,316.4,255.63Z"/><path class="cls-13" d="M322,265.88c2.48-.52,7.06-3.61,13.25-5.11,2.38-.57,6.47-3.17,6.89-6.27.55,3.55-4.24,6.7-6.89,7.34-6.19,1.5-10.77,4.59-13.25,5.11-1.85.39-4.25.65-5.73-.81a3.65,3.65,0,0,1-.81-1.48A7.42,7.42,0,0,0,322,265.88Z"/><path class="cls-14" d="M296.52,246.71a12.51,12.51,0,0,0,9.38-1.13c2.25.06,14.51-5.18,16.17-.78,1.46,3.86-3.84,7.43-6.68,8.12-6.19,1.5-10.77,4.58-13.26,5.11-1.85.39-4.25.64-5.72-.81C294.64,255.47,294.79,249,296.52,246.71Z"/><path class="cls-13" d="M302.13,257c2.49-.53,7.07-3.61,13.26-5.11,2.37-.58,6.47-3.18,6.88-6.27.55,3.55-4.24,6.7-6.88,7.34-6.19,1.5-10.77,4.58-13.26,5.11-1.85.39-4.25.64-5.72-.81a3.65,3.65,0,0,1-.81-1.48A7.4,7.4,0,0,0,302.13,257Z"/><path class="cls-3" d="M301.9,85c2.92.14,5.1.89,5.47,0A39.48,39.48,0,0,0,308,80.4c-.34-.85-.63-1.76-.63-1.76-3.68-2.26-4.84-6.24-5.32-10.87-.83-7.91,3.45-14.83,11.36-15.66,7.43-.77,12.9,4.45,14.36,11.63.79,3.54,2.36,10.24.24,16.07-1.18,3.25-2.71,5.84-4.23,6.34a34.7,34.7,0,0,1-4.4-.38h0s-.39,2.2-.66,3.61-.17,2.15,2.64,3.88-4.25,5.29-8.86,4.94-9.79-3.13-11.21-6.11C299.75,88.76,299.89,84.85,301.9,85Z"/><path class="cls-4" d="M306.13,85.38c-.81,2,1.25,4.5,6.75,6.22s6-.49,6-.49,8.06,3.67,10.68,5.51c3.31,2.3,4.77,9,5.21,20.25.52,13,.56,32.4.13,35.74,0,0-6.17,6.15-14.06,5.5s-21.18-7.64-24.4-13c.09-11.44,1.42-13.3-.43-19.89-4.23-15.08-6.47-21.26-4.41-31.28,1.7-8.26,4.08-9.29,7.35-9.21A67.48,67.48,0,0,1,306.13,85.38Z"/><path class="cls-3" d="M347.18,127.66c-6.47,1.63-8-2.45-8.85-5.84-2.06-8.19-3.17-15.58-4.71-20.23-1.8-5.48-3.7-6.35-6.37-7.42-3.12-1.26-5.81,1.39-4.77,8.36,1.23,8.26,2.85,14,5.93,23.82.81,2.55,2.62,7.08,5.32,9.27,3.34,2.7,8.38,2.59,16,.69,3.24-.81,6.81-2.75,12.95-5.61,1.65-.77,2.93-1.29,6.1-2.76a21.63,21.63,0,0,0,8.12-6.34c1.66-2.4,1.88-3.53,1.54-4.08s-1.18-.53-2.06.48a17.7,17.7,0,0,1-4.66,4.31s2-2.11,3.15-3.49a17.4,17.4,0,0,0,2.45-4c.59-1.4-.62-3.3-1.53-2.31s-1.36,2-3,4a17,17,0,0,1-3,2.86,32.06,32.06,0,0,0,2.77-4.45,7.42,7.42,0,0,0,1-4c0-.73-1.08-1.6-2-.21C370.6,112,370,113.91,368,116c-1.48,1.54-2.74,2.42-2.78,2s.9-1.27,1.43-3.06,0-3.68-1-3.89-.8-.15-1.59,1.53-2,2.91-2.95,5.35a10.94,10.94,0,0,1-2.66,4.58C356.87,124.23,353.34,126.11,347.18,127.66Z"/><path class="cls-7" d="M324.86,93.05c4.32-.64,7.38,1.31,9.29,7.86s3.25,11.94,3.25,11.94a11.8,11.8,0,0,1-7.25,4.81c-5.18,1.25-7-1.22-7-1.22s-1.43-6.87-2.33-11.55S319.5,93.84,324.86,93.05Z"/><path class="cls-13" d="M327.56,62.69s6.84-10.39-8-12.5C308.91,48.66,302,55.52,301.25,63c-.76,7.11,3.62,14.5,6.79,17.43,1.54.55,4.86.87,9.23-1.11a54,54,0,0,0,.2-5.83S312.27,62.51,327.56,62.69Z"/><path class="cls-3" d="M416,103s-1.15,17.26-3.41,19.74-9.92,4.18-9.92,4.18l-5.89,9.7s5.38-30.85,6.55-31.59S416,103,416,103Z"/><path class="cls-8" d="M404.65,83.83a6.45,6.45,0,0,1,8.21,2.48c2.17,3.59,4.42,15.92,4.63,18,0,0-3.05,4.2-7.61,3.5Z"/><path class="cls-5" d="M387.18,256.05a12.65,12.65,0,0,1-9.55-1.15c-2.3.07-14.78-5.27-16.48-.79-1.48,3.93,3.92,7.57,6.81,8.27,6.31,1.53,11,4.67,13.5,5.2,1.89.4,4.33.66,5.83-.82C389.1,265,388.94,258.4,387.18,256.05Z"/><path class="cls-6" d="M381.46,266.49c-2.53-.53-7.19-3.67-13.5-5.2-2.42-.59-6.59-3.23-7-6.39-.56,3.62,4.32,6.83,7,7.48,6.31,1.53,11,4.67,13.5,5.2,1.89.4,4.33.66,5.83-.82a3.61,3.61,0,0,0,.83-1.51A7.52,7.52,0,0,1,381.46,266.49Z"/><path class="cls-5" d="M406.61,250a12.63,12.63,0,0,1-9.54-1.15c-2.3.07-14.78-5.27-16.48-.79-1.49,3.93,3.92,7.57,6.81,8.27,6.3,1.53,11,4.67,13.5,5.2,1.88.4,4.33.66,5.83-.82C408.53,258.92,408.38,252.34,406.61,250Z"/><path class="cls-6" d="M400.9,260.44c-2.54-.54-7.2-3.68-13.5-5.21-2.42-.58-6.59-3.23-7-6.39-.56,3.62,4.32,6.83,7,7.48,6.3,1.53,11,4.67,13.5,5.2,1.88.4,4.33.66,5.83-.82a3.73,3.73,0,0,0,.83-1.51A7.57,7.57,0,0,1,400.9,260.44Z"/><path class="cls-9" d="M408,214.89a75.34,75.34,0,0,0-2.88-13.67s.86-11.79,1.29-23c.49-12.69,4.89-23.86,1.42-34l-38.66,8.6s1.87,50.71,2.39,56.84a114.15,114.15,0,0,0,1.76,14.21c1.78,9.82,3.73,31.81,3.73,31.81,4.14,2.4,10.21.42,10.21.42s0-27.52-.24-34.6c-.33-8.64-.59-8-.59-8l1.3-21.53.84-10.71s1.09,7.86,1.79,14.88c.62,6.12,2.1,11.66,3.75,23.05,1.43,9.89,2.9,30,2.9,30,4.15,2.4,9.72.75,9.72.75S409.11,223.47,408,214.89Z"/><path class="cls-3" d="M402.57,84c-3,.15-5.2.91-5.57,0a38.41,38.41,0,0,1-.68-4.66c.34-.86.64-1.79.64-1.79,3.74-2.31,4.93-6.36,5.42-11.07.84-8.06-3.51-15.11-11.57-15.95-7.58-.79-13.15,4.53-14.64,11.84-.8,3.61-2.39,10.43-.24,16.37,1.21,3.31,2.76,6,4.31,6.46a36.19,36.19,0,0,0,4.49-.39h0s.4,2.24.68,3.68.17,2.19-2.69,4,4.32,5.39,9,5,10-3.19,11.42-6.22C404.76,87.93,404.62,83.94,402.57,84Z"/><path class="cls-8" d="M398.26,84.48c.82,2.06-1.27,4.58-6.88,6.34s-6.1-.5-6.1-.5-8.21,3.74-10.89,5.61c-3.36,2.35-4.85,9.15-5.3,20.63-.53,13.29-.57,33-.13,36.4,0,0,6.28,6.26,14.32,5.6s21.57-7.77,24.85-13.27c-.09-11.65-1.45-13.54.44-20.26,4.31-15.36,6.59-21.65,4.49-31.86-1.73-8.42-4.16-9.46-7.48-9.38A68.55,68.55,0,0,0,398.26,84.48Z"/><path class="cls-3" d="M376,163.19l4.09-46.27-8.62-4.57-3.37,2.82,1,41.56h0l0,1.14v0l.06,1.46s-.2,3.5,6.4,7.68c0,0,.11-1.09.2-2.12h0l.15-1.72Z"/><path class="cls-8" d="M377.05,93.07c-4.45-.09-7.29,2.27-8.37,9.14s-1.75,12.48-1.75,12.48a12,12,0,0,0,7.95,3.93c5.39.6,6.95-2.14,6.95-2.14s.57-7.13.87-12S382.56,93.18,377.05,93.07Z"/><path class="cls-2" d="M376.43,61.38s-7-10.59,8.12-12.74c10.88-1.56,17.87,5.43,18.68,13,.77,7.24-3.69,14.77-6.91,17.75-1.57.56-5,.89-9.4-1.13a54.17,54.17,0,0,1-.21-5.94S392,61.19,376.43,61.38Z"/><path class="cls-5" d="M195.24,216.47c-2.53,2.06-6.27.17-6.46.36a110.71,110.71,0,0,1-9.36,7.79c-1.58,1.25-4,2.91-3.6,5.3.8,4.28,7.64,3,10.22,1.65s4.69-3.47,7.13-5c1.74-1.08,3.46-1.64,3.73-3.84C197.06,221.41,195.69,216.41,195.24,216.47Z"/><path class="cls-6" d="M196.87,221.85c-.34,2.11-2,2.69-3.76,3.76-2.48,1.55-4.67,3.77-7.25,5.08-2.38,1.2-8.33,2.4-10-.65.91,4.12,7.63,2.83,10.18,1.53s4.69-3.47,7.13-5c1.74-1.08,3.46-1.64,3.73-3.84A4,4,0,0,0,196.87,221.85Z"/><path class="cls-5" d="M173.24,208.28c-2.54,2.07-7-.19-7.16,0a96.21,96.21,0,0,1-8.36,7.55c-1.58,1.25-4.05,2.91-3.6,5.3.79,4.27,7.64,3,10.22,1.65s4.68-3.47,7.13-5c1.74-1.08,3.45-1.64,3.72-3.84C175.36,212.62,173.69,208.23,173.24,208.28Z"/><path class="cls-6" d="M175.12,213.36c-.34,2.11-2,2.69-3.76,3.76-2.48,1.55-4.67,3.77-7.25,5.08-2.38,1.2-8.33,2.4-10-.65.91,4.12,7.63,2.83,10.18,1.53s4.69-3.47,7.13-5c1.74-1.08,3.46-1.64,3.73-3.84A4,4,0,0,0,175.12,213.36Z"/><path class="cls-16" d="M195.39,122.86c-.12,3.83-1.32,20.49-1.85,29.3s-.65,19.62-.65,19.62,1.52,6.42,2.5,14,0,31.37,0,31.37a6,6,0,0,1-6.49,0s-4.06-19.07-5.94-27.66-2.21-13.54-3.18-18.87c-1.18-6.44-3.72-36.5-3.72-36.5l-1,.06-2.72,33.93a37.7,37.7,0,0,1,1.72,7.7c.73,5.53-.78,33.34-.78,33.34a6.74,6.74,0,0,1-7-.29s-6.77-36.83-6.77-42.44c0-3.7.63-52.59.63-52.59Z"/><path class="cls-3" d="M166.08,125.44c-1.1-.94-1.79-2.12-3.46-3.32-1.46-1.06-2.53-1.59-3.41-3s-.83-6.9-1.17-11.84c-.41-5.82.66-13.47,1.75-16.55,2.22-6.25,1.53-16.7,3-20.23s5.8-2.76,4.42-4.54c-1.61-2.1-7.89-3.41-10.66,1.39S153.84,82.69,151.87,90c-1,3.53-1.1,7.26-.61,14.74.34,5.23.43,10.35,1.94,15.37.41,1.37.37,2.87.84,5.57s1.13,5.93,2.61,7.68,2.3,2.14,2.78,2,.65-.79.06-1.66a14.19,14.19,0,0,1-2.32-4.41s1.19,2,2,3.1a14,14,0,0,0,2.54,2.67c.94.73,2.63.2,2.06-.7s-1.25-1.44-2.44-3.11a14,14,0,0,1-1.56-2.86,26.28,26.28,0,0,0,2.81,3,5.72,5.72,0,0,0,2.85,1.58c.56.12,1.43-.49.58-1.51s-2.13-1.74-3.32-3.72c-.87-1.43-1.28-2.57-.95-2.51s.78.94,2,1.7,2.8.74,3.15,0S167.19,126.38,166.08,125.44Z"/><path class="cls-3" d="M186.2,48.74s-.43,8.36-.25,9.1,3.84,3.19,4.91,4.07-5.79,7.63-9.11,9.16-13.88-2.5-14.06-7.68,1.8-9.52,3.42-9.75S186.2,48.74,186.2,48.74Z"/><path class="cls-7" d="M187.13,59.29s-6.06,9-14.53,9.89c-2.67-2.63-2.91-12,.78-15,0,0-3.39-2.74-5.72-2.21a12,12,0,0,0-5.22,6.67,54.49,54.49,0,0,0-3,19.36c.14,8.87,0,36,0,36s1.19,5.73,8.85,10,13.34,4.68,18.53,3.47c4.29-1,7.83-2.51,9.31-5.62-.39-6.22-3.16-22.44-2.13-30.26s2.69-13.66,3.12-20-.83-6.19-4-8.44A48.71,48.71,0,0,0,187.13,59.29Z"/><path class="cls-3" d="M182.05,129.58c1.36-.79,2.32-1.92,4.33-2.88,1.77-.85,3-1.21,4.22-2.57s2.75-6.88,4.06-12.08a52.53,52.53,0,0,0,.75-17.82c-1.18-7.1-4.42-16.92-5.35-21s.29-5.8,2.1-7.44c2.12-1.93,5.28-1.35,7.32,4.3a111.87,111.87,0,0,1,5.33,24.15,55.63,55.63,0,0,1-1.59,18.21c-1.36,5.52-3.35,9.56-5.92,14.63-.7,1.38-.87,2.58-1.9,5.37a18.37,18.37,0,0,1-4.79,7.35c-1.92,1.59-2.86,1.85-3.35,1.61s-.54-1,.26-1.79a15.11,15.11,0,0,0,3.32-4.27s-1.65,1.89-2.73,2.93a14.92,14.92,0,0,1-3.22,2.37c-1.15.6-2.85-.29-2.07-1.14s1.61-1.29,3.2-2.86a15,15,0,0,0,2.21-2.75,28.15,28.15,0,0,1-3.58,2.67,6.24,6.24,0,0,1-3.34,1.14c-.62,0-1.43-.8-.33-1.72s2.61-1.46,4.26-3.34c1.2-1.37,1.86-2.5,1.49-2.5s-1,.85-2.49,1.43-3.12.26-3.37-.56S180.69,130.38,182.05,129.58Z"/><path class="cls-3" d="M167.27,36.28h0c1-6.49,5.68-11.41,12.37-11a12.87,12.87,0,0,1,6.56,23.5,13.43,13.43,0,0,1-1,2.84c-2.36,2.77-9.52,4.48-11.58,4.18-2.64-.38-4.07-1.48-5.33-4.36C166,46.3,166.73,39.49,167.27,36.28Z"/><path class="cls-13" d="M186.2,48.74h0l-.62-5.66s4.63-12-6.3-9.68c-7.22,1.52-9,2.17-11.22-2.67s5.54-9.19,14.74-8a12.71,12.71,0,0,1,11.38,12.89C193.93,39.2,193,46.41,186.2,48.74Z"/><path class="cls-12" d="M204.91,81.24s-6,5.94-13,4.23c-1-.69-3.44-14.56-3.44-14.56s0-7.68,5.9-7.48S204.91,81.24,204.91,81.24Z"/><path class="cls-12" d="M159.86,69.74s-3.12-.16-4.41-2c.24-3.1,4.22-14.9,12.21-15.78a14.84,14.84,0,0,0-5,6C161.21,61.57,159.86,69.74,159.86,69.74Z"/><path class="cls-3" d="M179.21,97.19l.57-.37c1.93-1.26,14.82-9.2,16.08-11.37a126.61,126.61,0,0,0,9-20.47c1.35-4.3,3.75-5.87,6.37-5.53,2.94.39,4,2.53,2.45,7.21-2,5.89-3.82,12.13-8.59,19.13a39.43,39.43,0,0,1-4.71,5.77,51.65,51.65,0,0,1-4.74,4.38c-2.49,1.91-11.16,5.76-14,7.08a23.22,23.22,0,0,1-9.22,2.47,3.52,3.52,0,0,1-2-.42,2.6,2.6,0,0,1-1-1.82,8,8,0,0,1,.12-2.13A29.79,29.79,0,0,0,179.21,97.19Z"/><path class="cls-2" d="M216.67,29.35c1.55-2.49,13.37-4.13,17.26,5.89,1.47,3.8,1.24,13.51,2.48,19.61s4.14,9.56,5.18,14.51S240.93,82.6,229,84.07s-19-3.23-21.83-7-5-11.38-2-15.72,5.15-7.87,5.08-13.52Z"/><path class="cls-2" d="M224.48,27.62s-8.91-2.57-14.31,2.24a13.23,13.23,0,0,0-3.8,13.2c.72,2.81,2.16,6.64,4.39,6.86S224.48,27.62,224.48,27.62Z"/><path class="cls-7" d="M210.78,75.77s-6.67-1.23-9.43-6.27L207.46,62s3-4.25,7.13-2S217.29,68.37,210.78,75.77Z"/><path class="cls-3" d="M227.88,51.9s-.59,9.92-.41,10.65,3.9,1.43,4.94,2.3S227,75.78,223.74,77.27,210.33,75,209.63,69.91c-.65-4.64,2.9-8.25,4.27-9.51a21.73,21.73,0,0,1,2.79-.07l.3-4.81C221.43,54.11,227.88,51.9,227.88,51.9Z"/><path class="cls-4" d="M234.85,83.51c-1.42,3.76-2.57,6.72-3.56,9.08-.69,1.65-1.3,3-1.87,4.12,0,0-12.06,5.18-21.79-.85,0,0-.21-2.23-.42-4.82-.13-2-.27-4.12-.29-5.69-9-7.82-1.3-17.48,6.3-25a16.76,16.76,0,0,1,2.74,0s-6.78,8-2.07,12.59c10.11-3.06,12.11-7.6,15.35-9.41,2.78.43,6,1.92,6.41,3.44C236.16,68.74,237.26,77.13,234.85,83.51Z"/><path class="cls-3" d="M209.34,39.6h0c1-6.37,5.61-11.19,12.18-10.8a12.63,12.63,0,0,1,6.36,23.1,12.52,12.52,0,0,1-1,2.78c-2.33,2.72-8.51,4.44-10.55,4.46-1.77,0-3.29-1.63-4.94-4.36C207.92,49.07,208.79,42.75,209.34,39.6Z"/><path class="cls-2" d="M223.56,28.92c4.61.9,8.4,2.2,9.65,6.72.86,3.12,2,9.07.91,11.57L233.46,49l-5.58,2.88s-2.61-2.17-1.8-8.54A4.48,4.48,0,0,0,225.3,41a7.36,7.36,0,0,1-.78-1.92,7.2,7.2,0,0,0-3.61-3.92c-4.16-2.33-10.25-.32-11.09.52A12.11,12.11,0,0,1,223.56,28.92Z"/><path class="cls-3" d="M236,109.87c1-6.46,3-10.65,2.07-14.2a127.37,127.37,0,0,0-7.85-20.93c-2-4-1.42-6.82.7-8.4,2.37-1.78,4.65-1,6.79,3.45,2.69,5.6,5.73,11.34,7.2,19.68.72,4,1.1,8-.2,16.28-.91,5.8-2.76,9.07-4.94,14.52C239.14,121.76,235.09,115.35,236,109.87Z"/><path class="cls-9" d="M231.94,230.34c-2.34,1.9-6,.59-6.14.76-2.37,2.38-5.91,4.45-8.55,6.53-1.45,1.14-3.72,2.68-3.31,4.87.73,3.94,7,2.73,9.4,1.52s4.32-3.19,6.56-4.59c1.61-1,3.18-1.51,3.43-3.53C233.48,234.67,232.35,230.29,231.94,230.34Z"/><path class="cls-10" d="M233.3,235.08c-.31,1.94-1.86,2.47-3.45,3.46-2.29,1.42-4.3,3.47-6.67,4.67-2.2,1.11-7.67,2.21-9.21-.6.84,3.79,7,2.6,9.37,1.41s4.32-3.19,6.56-4.59c1.61-1,3.18-1.51,3.43-3.53A3.4,3.4,0,0,0,233.3,235.08Z"/><path class="cls-9" d="M215.56,227.07c-2.13,1.74-5.36.76-5.52.92-2.17,2.18-5.4,4.06-7.81,6-1.33,1.05-3.41,2.45-3,4.46.67,3.6,6.43,2.5,8.61,1.39s3.95-2.92,6-4.2c1.47-.91,2.91-1.39,3.14-3.24C217.1,231.24,215.94,227,215.56,227.07Z"/><path class="cls-10" d="M216.93,231.61c-.28,1.78-1.71,2.27-3.16,3.17-2.1,1.3-3.94,3.18-6.11,4.28-2,1-7,2-8.43-.55.76,3.47,6.43,2.38,8.58,1.29s3.95-2.92,6-4.2c1.47-.91,2.91-1.39,3.14-3.24A3.38,3.38,0,0,0,216.93,231.61Z"/><path class="cls-3" d="M203,118.51c1-8,4-19.73,4-19.73a23.84,23.84,0,0,0,8.93,2.22c5.19.26,13.5-1.32,13.5-1.32a82.13,82.13,0,0,0,4.76,7.37c2.32,3.22,6.83,10.27,5.74,22.6-.71,8.06-5.23,42.27-5.23,42.27a64,64,0,0,1,2.77,17.75c0,5-1.35,13.43-2.82,21.25l-2.69,19.42s-3.59,2.59-6.14.76l.32-19c-.31-4.65-.77-11.52-1.07-15.9-.48-7.13-1.76-18.47-2.13-21.3s-1.27-7.77-1.71-13.32-2.52-33.7-2.52-33.7l-.29,5.28s-.27,8.56-1.5,19.12-1.66,15.25-1.66,15.25,2.13,3.93,2.41,6.83c.21,2.28,2.82,20.34,1.26,29.53l-3.2,23.36a6.16,6.16,0,0,1-5.53.73l-1.88-23.55c-1.26-9-3.94-28-4.35-30.42-.54-3.24-1-4.85-1.6-15.06S202,126.56,203,118.51Z"/><path class="cls-9" d="M229.42,96.72l6.93,13.91s10.57,15.48-.38,55.26L238,178.17s-20.74,13.31-34.62,0c0,0-4.82-36.77-2.25-53.72a194.32,194.32,0,0,1,6.46-28.8s3.4,3.75,20.88,1.27"/><path class="cls-7" d="M241.85,77.6s-4.81,4.79-10.52,4.19l-2.74-9.32s-1.78-4.89,2.38-7S239.46,68,241.85,77.6Z"/><path class="cls-14" d="M167.36,96.72v0a1.1,1.1,0,0,1,0,.18v0a1.77,1.77,0,0,1,0,.2.59.59,0,0,1-.06.14.93.93,0,0,1,0,.13c-.05.07-.09.15-.15.22l0,.06-.11.13a1.59,1.59,0,0,1-.13.13l-.15.14,0,0-.24.17,0,0-.25.14,0,0-.26.11-.05,0a2.1,2.1,0,0,1-.24.06l0,0a2.85,2.85,0,0,1-.29,0,1,1,0,0,1-.69-.18.64.64,0,0,1-.13-.15L175,115.19a.88.88,0,0,0,.82.33l.28,0h0l.16,0,.09,0h.05l0,0,.16-.06.06,0,0,0,.05,0,.15-.08,0,0,0,0,.06,0,.16-.11v0l0,0,.12-.1,0,0,.13-.13.06-.07,0-.06,0-.06c.05-.08.1-.15.14-.23v0a.42.42,0,0,0,0-.1,1.47,1.47,0,0,0,.06-.14v0a.4.4,0,0,0,0-.15v-.07s0,0,0-.06,0-.07,0-.11h0v0a.14.14,0,0,0,0-.06.19.19,0,0,0,0-.09v0l-10.6-16.77A.33.33,0,0,1,167.36,96.72Z"/><path class="cls-17" d="M166.48,96.23c.78,0,1.13.5.77,1.2a2.72,2.72,0,0,1-2.08,1.31c-.79,0-1.13-.5-.77-1.2A2.7,2.7,0,0,1,166.48,96.23Z"/><path class="cls-12" d="M147.75,66.78h0a.53.53,0,0,1,0,.13v0a.4.4,0,0,1,0,.15l0,.1s0,0,0,.08a.86.86,0,0,1-.1.16l0,0-.08.1-.09.09-.11.1,0,0a.66.66,0,0,1-.17.12l0,0a1,1,0,0,1-.17.1l0,0-.19.07h0l-.17,0h0l-.21,0a.77.77,0,0,1-.49-.13l-.09-.11,19,30a.63.63,0,0,0,.58.23l.19,0h0l.11,0,.06,0h.06l.12,0,0,0h0l0,0,.11-.06,0,0,0,0,.05,0,.11-.08h0l0,0a.27.27,0,0,1,.08-.07l0,0,.09-.1,0,0,0-.05,0,0,.1-.16v0a.64.64,0,0,0,0-.07.3.3,0,0,0,0-.1h0s0-.07,0-.11v-.09s0,0,0-.07h0v0s0,0,0,0l0-.07h0l-19-30A.22.22,0,0,1,147.75,66.78Z"/><path class="cls-9" d="M147.13,66.42c.55,0,.8.36.54.85a2,2,0,0,1-1.47.94c-.56,0-.8-.36-.54-.85A1.93,1.93,0,0,1,147.13,66.42Z"/><path class="cls-12" d="M135.7,48.58h0a.27.27,0,0,1,0,.09h0a.28.28,0,0,1,0,.09l0,.07a.14.14,0,0,1,0,.06.61.61,0,0,1-.07.1l0,0-.05.06,0,.06-.08.06v0l-.11.07,0,0-.12.06h0l-.12.05h0l-.11,0h0l-.13,0a.51.51,0,0,1-.32-.09.15.15,0,0,1,0-.06l11.38,18a.41.41,0,0,0,.38.15h.22l0,0h0l.08,0,0,0h0l0,0,.06,0,0,0h0l0,0,.07-.05h0s0,0,0,0a0,0,0,0,0,0,0l.06-.06,0,0,0,0,0,0,.07-.11h0s0,0,0,0l0-.07h0s0,0,0-.07h0v-.09h0a0,0,0,0,0,0,0l0,0h0l-11.39-18A.11.11,0,0,1,135.7,48.58Z"/><path class="cls-9" d="M135.3,48.36c.36,0,.52.23.35.55a1.28,1.28,0,0,1-1,.6c-.36,0-.52-.23-.35-.55A1.21,1.21,0,0,1,135.3,48.36Z"/><g class="cls-18"><polygon class="cls-19" points="138.76 51.13 141.59 49.48 141.59 50.28 138.75 51.93 138.76 51.13"/><polygon class="cls-20" points="131.21 46.77 134.05 45.12 141.59 49.48 138.76 51.13 131.21 46.77"/><polygon class="cls-21" points="138.76 51.13 138.75 51.93 131.21 47.58 131.21 46.77 138.76 51.13"/></g><path class="cls-22" d="M146.31,44.84l0,8a1.36,1.36,0,0,1,0,.29h0a.85.85,0,0,1-.08.24h0a.86.86,0,0,1-.1.16l0,0a.57.57,0,0,1-.15.12l.79-.46a.57.57,0,0,0,.15-.12l0,0,0-.06.05-.09h0l0-.07,0-.07s0,0,0-.07v0h0v0a.13.13,0,0,1,0-.06v-.07a.13.13,0,0,0,0-.06v-.07h0l0-8Z"/><path class="cls-23" d="M147.1,44.31v-.06a.17.17,0,0,0,0-.07v-.06a.2.2,0,0,1,0-.07h0s0,0,0-.06,0,0,0-.07a.64.64,0,0,0,0-.07.24.24,0,0,0,0-.08v0h0a.19.19,0,0,0,0-.07.19.19,0,0,1,0-.07l0-.07,0-.06,0-.05h0l0-.06a.3.3,0,0,1,0-.08l0-.08,0-.09h0v0l-.1-.16-.09-.12h0l-.06-.08-.05-.06,0-.06-.06-.06h0l0,0-.06-.06-.06-.05-.06-.06,0,0h0l-.06,0-.06,0-.06,0-.06,0h0l-16.19-9.35,0,0-.06,0,0,0-.06,0-.05,0h-.06l0,0h-.4l-.09,0-.11,0-.79.46A.68.68,0,0,1,128,33h0a.6.6,0,0,1,.23,0h0a.79.79,0,0,1,.25,0h0a1.11,1.11,0,0,1,.27.13L145,42.48l.27.18h0a2.73,2.73,0,0,1,.25.23h0a3,3,0,0,1,.23.27h0a2.23,2.23,0,0,1,.2.3h0l.16.32h0c0,.12.09.23.13.34h0c0,.12.06.23.08.34h0c0,.12,0,.23,0,.34l.79-.46Z"/><path class="cls-24" d="M145,42.48a3,3,0,0,1,1.36,2.36l0,8c0,.86-.62,1.21-1.37.78l-16.19-9.35a3,3,0,0,1-1.36-2.36l0-8c0-.87.62-1.22,1.37-.78Z"/><g class="cls-18"><path class="cls-25" d="M144.12,43.29a1.28,1.28,0,0,1,.58,1c0,.37-.26.52-.59.34a1.33,1.33,0,0,1-.59-1C143.53,43.25,143.79,43.1,144.12,43.29Z"/><path class="cls-26" d="M144.82,42.72a2.44,2.44,0,0,1,1.09,1.91l0,8c0,.69-.5,1-1.1.63l-15.66-9.05a2.42,2.42,0,0,1-1.1-1.9l0-8c0-.69.5-1,1.11-.63Zm-4,0c.33.19.59,0,.6-.33a1.3,1.3,0,0,0-.59-1c-.33-.19-.59,0-.59.33a1.28,1.28,0,0,0,.58,1m3.33,1.93c.33.18.59,0,.59-.34a1.28,1.28,0,0,0-.58-1c-.33-.19-.59,0-.6.33a1.33,1.33,0,0,0,.59,1m-1.66-1c.32.19.59,0,.59-.33a1.27,1.27,0,0,0-.59-1c-.32-.19-.59,0-.59.33a1.27,1.27,0,0,0,.59,1"/></g><path class="cls-25" d="M142.45,42.33a1.27,1.27,0,0,1,.59,1c0,.37-.27.52-.59.33a1.27,1.27,0,0,1-.59-1C141.86,42.29,142.13,42.14,142.45,42.33Z"/><path class="cls-25" d="M140.79,41.37a1.3,1.3,0,0,1,.59,1c0,.37-.27.52-.6.33a1.28,1.28,0,0,1-.58-1C140.2,41.33,140.46,41.18,140.79,41.37Z"/><path class="cls-20" d="M133.28,42.09l0,0-.05,0,0,0,0,0,0,0h-.41l-.08,0-.09,0-1,.55a.55.55,0,0,1,.36-.07h0a1,1,0,0,1,.44.15l5.33,3.07.94-.55Z"/><path class="cls-19" d="M139.71,47v-.39l0-.05v0h0v-.06l0-.06,0,0,0-.05,0-.06,0-.05,0-.06,0-.07a.25.25,0,0,0,0-.07h0l-.08-.14a.36.36,0,0,1-.07-.1l0-.06s0,0-.05-.05a.1.1,0,0,0,0,0l0,0h0l0,0,0,0-.05,0,0,0-.05,0-.05,0,0,0-.05,0,0,0h0l-.94.55a2,2,0,0,1,.42.35h0a2.69,2.69,0,0,1,.34.47h0a2.24,2.24,0,0,1,.23.53h0a1.7,1.7,0,0,1,.09.54v3.52l.94-.55V47Z"/><path class="cls-21" d="M137.67,45.71a2.46,2.46,0,0,1,1.1,1.91v3.52l-7.55-4.35V43.26c0-.7.5-1,1.12-.62Z"/><path class="cls-3" d="M167.65,100.33a1.35,1.35,0,0,1,1,.73.72.72,0,0,1-.51,1,1.34,1.34,0,0,1,1.21,2.21,1.29,1.29,0,0,1,1.52.69,1.4,1.4,0,0,1-.45,1.55,2.92,2.92,0,0,1,.88.17.81.81,0,0,1,.47.82.8.8,0,0,1-.46.52,2.35,2.35,0,0,1-.7.14,6.27,6.27,0,0,1-.86.09,4.74,4.74,0,0,1-1.87-.25,4.15,4.15,0,0,1-1.75-1.84,15.65,15.65,0,0,1-1.41-2.84c-.32-.85-.76-2.18.19-2.8a2.13,2.13,0,0,1,1.14-.29A5.87,5.87,0,0,1,167.65,100.33Z"/><path class="cls-3" d="M168.46,100.93a1,1,0,0,0,.24,1,.74.74,0,0,0,.77,0,2.29,2.29,0,0,0,.58-.54,5.58,5.58,0,0,0,.77-1.12c.33-.7.28-2.15-.83-1.88S168.61,100.08,168.46,100.93Z"/><path class="cls-9" d="M252.29,446.34c2.73,2.23,6.77.2,7,.4a125,125,0,0,0,10.1,8.41c1.7,1.34,4.36,3.13,3.88,5.71-.86,4.61-8.24,3.19-11,1.78s-5.06-3.74-7.7-5.38c-1.88-1.17-3.72-1.77-4-4.15C250.33,451.68,251.8,446.29,252.29,446.34Z"/><path class="cls-10" d="M250.54,452.16c.36,2.27,2.19,2.9,4.05,4,2.68,1.67,5,4.07,7.82,5.47,2.57,1.31,9,2.6,10.79-.69-1,4.44-8.23,3.05-11,1.65s-5.06-3.74-7.7-5.38c-1.88-1.17-3.72-1.77-4-4.15A4.08,4.08,0,0,1,250.54,452.16Z"/><path class="cls-9" d="M276,437.52c2.73,2.23,7.52-.21,7.72,0a105.17,105.17,0,0,0,9,8.14c1.71,1.34,4.37,3.14,3.88,5.71-.86,4.61-8.24,3.2-11,1.79s-5.06-3.75-7.69-5.39c-1.88-1.16-3.73-1.77-4-4.14C273.74,442.19,275.54,437.46,276,437.52Z"/><path class="cls-10" d="M274,443c.36,2.27,2.19,2.9,4.05,4.05,2.68,1.67,5,4.07,7.82,5.48,2.57,1.3,9,2.59,10.79-.7-1,4.44-8.23,3.05-11,1.65s-5.06-3.74-7.69-5.38c-1.88-1.17-3.73-1.77-4-4.15A4.72,4.72,0,0,1,274,443Z"/><path class="cls-3" d="M294.3,286.41s-.08,4.46.46,15.49a182,182,0,0,1-1.09,24.72,66.45,66.45,0,0,1-5.25,18.8c-2-9.45.31-11.1.31-11.1l-1.11-20.06s1.12-19.36.67-26.24C288,283.65,294.3,286.41,294.3,286.41Z"/><path class="cls-11" d="M252.2,345.32c.13,4.14,1.42,22.11,2,31.62s.71,21.16.71,21.16-1.64,6.93-2.7,15.08,0,33.84,0,33.84a6.49,6.49,0,0,0,7,0s4.38-20.57,6.41-29.84S268,402.57,269,396.83c1.27-6.95,4-39.38,4-39.38l1.1.06,2.92,36.61a41.09,41.09,0,0,0-1.84,8.31c-.8,6,.84,36,.84,36a7.26,7.26,0,0,0,7.57-.31S291,398.35,291,392.3c0-4-.68-56.73-.68-56.73Z"/><path class="cls-3" d="M282.08,281.17a6.25,6.25,0,0,1-2.24,4.16,17,17,0,0,1-5.61,3.35c-2.87,1.09-5.79,1.46-7.32.77-3.59-1.65-11-8.93-9.82-9.87.5-.41,1.5-1.12,2.5-1.86.2-.17.42-.33.62-.48a13.35,13.35,0,0,0,2-1.74.79.79,0,0,0,.19-.32c.19-.79-.26-9.81-.26-9.81s10.38,3.6,14.64,4.86l.46.13a3.34,3.34,0,0,0,.36.1h0a7.38,7.38,0,0,0,.8.19C280.14,270.9,282.28,275.58,282.08,281.17Z"/><path class="cls-7" d="M291,296.94c-.16,9.57,0,38.8,0,38.8s-1.28,6.19-9.54,10.79-14.39,5.05-20,3.75c-4.62-1.08-8.44-2.71-10-6.06.41-6.71,3.41-24.21,2.28-32.65s-2.9-14.73-3.36-21.55.9-6.68,4.32-9.11c2.24-1.6,3.85-2.64,4.88-3.27.27-.16.49-.3.68-.4.62-.36.9-.5.9-.5s6.54,9.76,15.67,10.68c2.88-2.84,3.15-12.94-.84-16.17,0,0,.52-.4,1.28-.89l.17-.11c1.29-.79,3.21-1.73,4.72-1.38a13.71,13.71,0,0,1,6.39,7.43C290.18,281.44,291.12,287.37,291,296.94Z"/><path class="cls-3" d="M257.44,349.25c-1.35-1.52-3.7-10-5-15.29a53.89,53.89,0,0,1-.77-18.26c1.21-7.27,4.53-17.33,5.49-21.5s-.3-5.93-2.15-7.62c-2.18-2-5.41-1.38-7.5,4.41A114.12,114.12,0,0,0,242,315.73a57.27,57.27,0,0,0,1.63,18.67c1.4,5.65,3.44,9.79,6.07,15,.71,1.42,2.34,5.37,3.39,8.24S258.69,350.64,257.44,349.25Z"/><path class="cls-9" d="M279.84,285.33a8,8,0,0,1-1.86,3.29l-.57.57-.8-.08a15.6,15.6,0,0,1-2.38-.43c-7.59-2-13.25-9.07-14.64-11a.21.21,0,0,1-.06-.08c.27-.16.49-.3.68-.4a13.35,13.35,0,0,0,2-1.74c.9,1.23,6.67,8.81,13.86,10.09a13,13,0,0,0,1.17-6.52c-.15-3-1-5.42-2.35-6.5l1.07-1.32.82-1,.25-.3.38.32a1.29,1.29,0,0,1,.19.21h0c1.76,1.81,2.86,4.83,3,8.44A18.62,18.62,0,0,1,279.84,285.33Z"/><path class="cls-3" d="M282.53,251.92h0c-1.08-7-6.12-12.3-13.34-11.9a13.88,13.88,0,0,0-7.08,25.35,14.44,14.44,0,0,0,1.12,3.06c2.56,3,10.28,4.83,12.5,4.51,2.85-.4,4.39-1.59,5.75-4.71C283.87,262.74,283.12,255.39,282.53,251.92Z"/><path class="cls-2" d="M262.11,265.37h0l.67-6.11s-5-12.92,6.8-10.44c7.78,1.64,9.74,2.35,12.11-2.88s-6-9.92-15.91-8.61a13.7,13.7,0,0,0-12.27,13.91C253.77,255.08,254.79,262.86,262.11,265.37Z"/><path class="cls-12" d="M259.68,289.28s-1.46,8.35-2.66,12.88a7.61,7.61,0,0,1-1,2.83c-7.61,1.84-14-4.55-14-4.55s.32-1.2.9-3c1.71-5.36,5.73-16.06,10.5-16.22C259.69,281,259.68,289.28,259.68,289.28Z"/><path class="cls-12" d="M296.54,290.59c-1.4,2-5.57,1.44-5.57,1.44s0-.75-.12-1.95c-.27-3.51-1.1-10.9-3.35-14.7a29.45,29.45,0,0,0-5.39-6.51c7.37.81,12.5,13.66,14,19.47A15.45,15.45,0,0,1,296.54,290.59Z"/><path class="cls-3" d="M336.41,316.65c3.25.94,5.11,4.53,8,12.22s3.81,18.72,3.43,21.69c-.92,7.25-3.91,12.88-11.17,18.76L333.17,363s7.1-6.27,7.83-13.52c.41-4.07-4.37-17.78-4.37-18.15S336.41,316.65,336.41,316.65Z"/><path class="cls-5" d="M308,483.73a7.89,7.89,0,0,1-6.58-.89c-1.77.05-12.19-4.07-13.49-.61-1.15,3,3,5.84,5.25,6.38,4.86,1.18,8.46,3.61,10.41,4,1.46.31,3.34.51,4.5-.64C309.5,490.62,309.38,485.54,308,483.73Z"/><path class="cls-6" d="M303.6,491.79c-2-.41-5.55-2.84-10.41-4-1.87-.45-5.09-2.49-5.41-4.93-.44,2.79,3.33,5.27,5.41,5.77,4.86,1.18,8.46,3.61,10.41,4,1.46.31,3.34.51,4.5-.64a2.73,2.73,0,0,0,.64-1.16A5.84,5.84,0,0,1,303.6,491.79Z"/><path class="cls-5" d="M334.46,470a6.29,6.29,0,0,1-5.72-.86c-1.71.05-12.35-3.92-13.61-.59-1.11,2.92,2.91,5.62,5.05,6.14,4.69,1.14,8.15,3.47,10,3.87,1.4.29,3.22.49,4.33-.61C335.88,476.61,335.77,471.73,334.46,470Z"/><path class="cls-6" d="M330.21,477.74c-1.88-.4-5.34-2.73-10-3.87-1.79-.43-4.89-2.4-5.2-4.74-.42,2.69,3.2,5.07,5.2,5.55,4.69,1.14,8.15,3.47,10,3.87,1.4.29,3.22.49,4.33-.61a2.91,2.91,0,0,0,.62-1.12A5.65,5.65,0,0,1,330.21,477.74Z"/><path class="cls-3" d="M338,443.57a34.49,34.49,0,0,0-2-11.73s1.36-16.06,2.38-26.6c1.51-15.55,3.9-17.09,3.23-26.53-.63-8.76-5.61-14.45-6.91-20.37l-25.38,2s-2.2,7.2-5.06,21.53-3,31.37-2.76,53.95c.07,5.81-1,10.87-.65,25.36.23,9.75.78,21.69.78,21.69,3.72,3.18,6.29.83,6.29.83s6.5-28.86,7.46-35.49c1-6.86-.88-11-.88-11s1.9-9.07,3.31-16.2c1.73-8.7,6-27.5,6-27.5s-.73,28.88.53,34.56,1.49,10.65,2.56,18.39c1.3,9.36,1.89,23.05,1.89,23.05,3.87,2.46,5.58.57,5.58.57S338,451.75,338,443.57Z"/><path class="cls-9" d="M334.61,358.34c2.66,2.71,7.05,11,7.05,23.53,0,14.11-2.06,11.25-3,26.78l-1,15.54s-21.21,10.12-36.33.72c-1.35-2.93.51-35.59,3.15-47.2s4.49-17.3,4.49-17.3S328.46,365.66,334.61,358.34Z"/><path class="cls-3" d="M334.91,316.5c-5.41-.32-5.93.57-6.36-1.34-.15-.69-.45-5.45-.45-5.45a17.94,17.94,0,0,0,1.35-2,13.84,13.84,0,0,0-5.82-25.57c-7.17-.75-12.44,4.29-13.85,11.2-.76,3.42-1.54,10.4.58,16,1.2,3.17,2.31,5.38,5.17,5.27a17.36,17.36,0,0,0,2.82-.5,24.43,24.43,0,0,1,.16,4c-.07,1.38.16,2.08-2.55,3.74s4.1,5.1,8.54,4.76,9.44-3,10.81-5.89C336.83,317.47,337.45,316.66,334.91,316.5Z"/><path class="cls-7" d="M338.88,340.46s6.12-1.38,8.92-4.09c0,0-3.64-11.46-6-14.34s-4.57,15.61-4.57,15.61Z"/><path class="cls-4" d="M329.54,316.39c1,1.24,1.11,2.81-2.75,3.78a12.15,12.15,0,0,1-8.44-.65,56.69,56.69,0,0,0-8.73,4.63c-3.33,10.82-.63,12.22-2,20,.53,3.91,1.18,14,1.34,16.26,7.36,5.14,22.3,3.38,25.65-2.06a45.64,45.64,0,0,1,.51-5.44c3.52-13,6.26-16.47,5.28-26.29-.56-5.61-1-8.44-4-9.94C334.61,316.09,330.63,316.32,329.54,316.39Z"/><path class="cls-3" d="M309.4,340.17a27.55,27.55,0,0,0-1.35,23.27l-2.55,9.81s-9.81-15-7-25,4.25-12.9,4.25-12.9l7.2-.87Z"/><path class="cls-7" d="M312.07,341.38a19.69,19.69,0,0,1-11.22-5.68l6.79-9.42s3.82-4.83,8.87-2.09c0,0,3.81.4,0,8.37S312.07,341.38,312.07,341.38Z"/><path class="cls-13" d="M308.47,289.27c.61-4.59,5.34-5.5,7.09-5.17a11.89,11.89,0,0,1,8.07-2c6.44.67,10.66,4.84,12.61,11.3.9,2.42,1.37,5.95,1.9,9.86,1.95,14.36,7.16,25.75,2.28,30s-18.22,7-23.79,4.24,4.59-27.4-6.46-41.14C307.59,293.18,307.35,290.9,308.47,289.27Z"/><path class="cls-3" d="M123.52,273.88s-14.13-4.33-18.7-4.33C98.09,259,85,246.94,85,246.94l-2.76,4s10.2,22.12,17.29,26.5,24,7.63,24,7.63Z"/><path class="cls-22" d="M97.1,248.66l0,8.08a1.39,1.39,0,0,1,0,.3h0a.91.91,0,0,1-.07.25h0c0,.06-.07.11-.1.16l0,.05a.93.93,0,0,1-.15.13l.77-.47a.61.61,0,0,0,.15-.12.1.1,0,0,1,0-.05l0-.06.06-.1h0l0-.07a.64.64,0,0,0,0-.07s0-.05,0-.07v0h0v0s0,0,0-.06,0-.05,0-.07v-.13h0l0-8.07Z"/><path class="cls-23" d="M97.87,248.14V248a.15.15,0,0,1,0-.07s0,0,0-.06h0a.13.13,0,0,1,0-.06s0-.05,0-.08,0,0,0-.07a.19.19,0,0,1,0-.07l0-.06h0v0a.14.14,0,0,1,0-.07l0-.07s0,0,0-.06l0-.07,0,0h0l0-.07,0-.07s0-.05,0-.08l-.05-.09v0h0l-.1-.17-.08-.12h0l-.06-.08,0-.07-.05-.06,0-.06h0l0,0-.06-.06,0-.06-.06-.05,0,0h0l0,0-.06,0-.06,0-.06,0,0,0h0l-15.79-9.46-.05,0,0,0-.06,0,0,0,0,0h-.06l0,0H80l-.09,0-.1.06-.77.46a.64.64,0,0,1,.19-.08h0a.79.79,0,0,1,.22,0h0l.24.06h0a1.62,1.62,0,0,1,.27.13l15.78,9.45a1.71,1.71,0,0,1,.27.2h0a2.72,2.72,0,0,1,.24.24h0a3.11,3.11,0,0,1,.23.28h0a3.21,3.21,0,0,1,.19.31h0c.06.11.11.22.16.33h0A2.3,2.3,0,0,1,97,248h0c0,.12.06.23.08.35h0a1.83,1.83,0,0,1,0,.33l.77-.46Z"/><path class="cls-24" d="M95.77,246.27a3.06,3.06,0,0,1,1.33,2.39l0,8.08c0,.88-.6,1.23-1.34.79L80,248.07a3,3,0,0,1-1.32-2.39l0-8.07c0-.88.6-1.23,1.34-.79Z"/><path class="cls-25" d="M95,247.1a1.29,1.29,0,0,1,.57,1c0,.38-.26.53-.57.34a1.32,1.32,0,0,1-.58-1C94.39,247.06,94.64,246.91,95,247.1Z"/><path class="cls-26" d="M95.64,246.53a2.44,2.44,0,0,1,1.08,1.92l0,8.08c0,.7-.48,1-1.08.63L80.34,248a2.46,2.46,0,0,1-1.07-1.92l0-8.07c0-.71.49-1,1.08-.64Zm-3.93,0c.32.19.58,0,.58-.34a1.34,1.34,0,0,0-.57-1c-.32-.19-.58,0-.58.34a1.31,1.31,0,0,0,.57,1ZM95,248.46c.31.19.57,0,.57-.34a1.29,1.29,0,0,0-.57-1c-.32-.19-.57,0-.58.33a1.32,1.32,0,0,0,.58,1Zm-1.63-1c.32.19.58,0,.58-.34a1.31,1.31,0,0,0-.57-1c-.32-.19-.58,0-.58.34a1.34,1.34,0,0,0,.57,1Z"/><path class="cls-25" d="M93.34,246.12a1.31,1.31,0,0,1,.57,1c0,.38-.26.53-.58.34a1.34,1.34,0,0,1-.57-1C92.76,246.09,93,245.93,93.34,246.12Z"/><path class="cls-25" d="M91.72,245.15a1.34,1.34,0,0,1,.57,1c0,.38-.26.53-.58.34a1.31,1.31,0,0,1-.57-1C91.14,245.11,91.4,245,91.72,245.15Z"/><path class="cls-3" d="M82.28,250.92s-5.83-4-6-6.42a12,12,0,0,1,.7-5c.25-.72.4-1.6,1.17-1.95a1.56,1.56,0,0,1,1.46.3,25.61,25.61,0,0,1,2.34,1.68c1,.73,2,1.41,3.08,2.11.43.29,2.78,1.57,2.15,2.27C86,245.16,84,243.53,83,243a19.91,19.91,0,0,1-3.75-2.33c0,.07.07.39.14.52a2.66,2.66,0,0,0,.41.6,6,6,0,0,0,1.15.85c.62.4,1.29.76,2,1.13a16.4,16.4,0,0,1,2.42,1.35.65.65,0,0,1,0,1c-.29.28-.89.19-1.27.12s-.93-.29-1.4-.44a11.62,11.62,0,0,1-1.94-.87,15.06,15.06,0,0,1-1.51-1.06,3,3,0,0,0,.14.53,2.82,2.82,0,0,0,.63.66c.41.35.86.63,1.28,1,.85.67,2,.78,2.85,1.47a.53.53,0,0,1,0,.82c-.21.19-.66.17-.94.19a6,6,0,0,1-2.2-.64,8.55,8.55,0,0,1-1.28-.65,5.26,5.26,0,0,1-.82-.52c.33.6,4.81,3.59,4.81,3.59Z"/><path class="cls-7" d="M114.35,284.06s-2.24-8.4,2.92-13.84c1.13-.55,14.81,4.42,14.81,4.42s6.9,3.95,3.68,9.13S114.35,284.06,114.35,284.06Z"/><path class="cls-5" d="M159.5,442.46c-2.62,2.13-6.49.18-6.68.38a118.18,118.18,0,0,1-9.67,8.05c-1.64,1.29-4.18,3-3.72,5.48.82,4.41,7.89,3.05,10.56,1.7s4.84-3.59,7.37-5.15c1.8-1.12,3.57-1.7,3.85-4C161.38,447.57,160,442.41,159.5,442.46Z"/><path class="cls-6" d="M161.18,448c-.35,2.18-2.1,2.78-3.88,3.88-2.57,1.6-4.83,3.9-7.49,5.25-2.47,1.24-8.62,2.48-10.35-.67.94,4.26,7.89,2.92,10.53,1.58s4.84-3.59,7.37-5.15c1.8-1.12,3.57-1.7,3.85-4A4.29,4.29,0,0,0,161.18,448Z"/><path class="cls-5" d="M136.76,434c-2.62,2.14-7.21-.19-7.41,0a98,98,0,0,1-8.63,7.8c-1.64,1.29-4.19,3-3.72,5.48.82,4.42,7.89,3.06,10.56,1.71s4.84-3.59,7.37-5.16c1.8-1.12,3.57-1.7,3.85-4C139,438.48,137.22,434,136.76,434Z"/><path class="cls-6" d="M138.7,439.25c-.35,2.18-2.1,2.78-3.88,3.89-2.57,1.59-4.83,3.89-7.49,5.24-2.47,1.25-8.61,2.49-10.34-.67.94,4.26,7.88,2.93,10.52,1.59s4.85-3.59,7.37-5.16c1.8-1.12,3.57-1.7,3.85-4A4.3,4.3,0,0,0,138.7,439.25Z"/><path class="cls-15" d="M159.65,345.72c-.12,4-1.36,21.17-1.91,30.28s-.68,20.28-.68,20.28,1.58,6.64,2.59,14.44,0,32.42,0,32.42a6.21,6.21,0,0,1-6.71,0s-4.19-19.7-6.14-28.58-2.28-14-3.28-19.5c-1.22-6.66-3.85-37.73-3.85-37.73l-1,.06-2.81,35.07a39.11,39.11,0,0,1,1.77,8c.76,5.72-.8,34.46-.8,34.46a7,7,0,0,1-7.26-.3s-7-38.06-7-43.86c0-3.83.66-54.35.66-54.35Z"/><path class="cls-3" d="M150.15,269.11s-.44,8.65-.25,9.41,4,3.3,5.07,4.21-6,7.88-9.42,9.46-14.34-2.58-14.53-7.93,1.87-9.85,3.54-10.09S150.15,269.11,150.15,269.11Z"/><path class="cls-4" d="M151.12,280s-6.27,9.35-15,10.23c-2.76-2.72-3-12.4.81-15.49,0,0-3.51-2.83-5.91-2.28a12.36,12.36,0,0,0-5.4,6.89,56.23,56.23,0,0,0-3.09,20c.15,9.17,0,37.18,0,37.18s1.23,5.92,9.14,10.33,13.79,4.84,19.16,3.59c4.43-1,8.09-2.59,9.61-5.81-.39-6.42-3.26-23.19-2.19-31.27s2.78-14.12,3.22-20.65-.86-6.4-4.14-8.73A51.87,51.87,0,0,0,151.12,280Z"/><path class="cls-3" d="M145.86,352.67c1.41-.83,2.4-2,4.48-3,1.82-.87,3.1-1.25,4.36-2.65s2.84-7.11,4.2-12.49a54.3,54.3,0,0,0,.77-18.42c-1.22-7.33-4.57-17.48-5.53-21.68s.3-6,2.17-7.68c2.2-2,5.46-1.4,7.57,4.44a114.62,114.62,0,0,1,5.5,25A57.62,57.62,0,0,1,167.75,335c-1.41,5.7-3.47,9.88-6.12,15.12-.72,1.43-.91,2.66-2,5.55a19,19,0,0,1-5,7.6c-2,1.63-3,1.91-3.46,1.65s-.55-1,.27-1.84a15.7,15.7,0,0,0,3.43-4.41s-1.7,2-2.82,3a15.85,15.85,0,0,1-3.33,2.45c-1.19.62-2.94-.3-2.14-1.18s1.67-1.34,3.3-3a15.35,15.35,0,0,0,2.29-2.84,29.19,29.19,0,0,1-3.69,2.75,6.51,6.51,0,0,1-3.46,1.19c-.64,0-1.48-.83-.34-1.78s2.7-1.51,4.4-3.45c1.24-1.42,1.92-2.59,1.54-2.59s-1,.89-2.57,1.48-3.23.27-3.48-.58S144.46,353.49,145.86,352.67Z"/><path class="cls-3" d="M130.59,256.23h0c1-6.71,5.87-11.79,12.79-11.4A13.34,13.34,0,0,1,156,258.89a13.2,13.2,0,0,1-5.81,10.22,13.39,13.39,0,0,1-1.07,2.94c-2.44,2.86-9.85,4.63-12,4.32-2.73-.39-4.21-1.53-5.51-4.51C129.31,266.59,130,259.55,130.59,256.23Z"/><path class="cls-13" d="M150.15,269.11h0l-.63-5.85s4.78-12.38-6.52-10c-7.46,1.57-9.33,2.25-11.6-2.75s5.74-9.51,15.24-8.26a13.13,13.13,0,0,1,11.76,13.33C158.15,259.26,157.17,266.71,150.15,269.11Z"/><path class="cls-7" d="M169.49,302.71s-6.17,6.13-13.46,4.36c-1-.7-3.55-15-3.55-15s0-7.94,6.09-7.74S169.49,302.71,169.49,302.71Z"/><path class="cls-2" d="M168.82,267.14c1.43-2.28,12.29-3.79,15.87,5.42,1.35,3.49,1.14,12.41,2.28,18s3.8,8.79,4.76,13.34-.6,12.17-11.56,13.52-19.4-2.51-22-6-2.65-10.92,0-14.91,4.73-7.23,4.67-12.43Z"/><path class="cls-3" d="M155.81,305.67s-2.58,18.17,2.29,31.09,3.52-3.33,3.52-3.33l-1.18-3.86s-1-14.85-.57-18.5.31-6.77.57-7.06-1-.87-1.48-.95S155.81,305.67,155.81,305.67Z"/><path class="cls-2" d="M176,265.55s-8.19-2.35-13.14,2.07a12.13,12.13,0,0,0-3.5,12.12c.66,2.58,2,6.11,4,6.31S176,265.55,176,265.55Z"/><path class="cls-3" d="M179.13,287.87s-.54,9.12-.37,9.79,3.58,1.32,4.53,2.11-5,10.05-8,11.42-12.33-2.13-13-6.76c-.6-4.27,2.66-7.59,3.92-8.75a19.82,19.82,0,0,1,2.57-.06l.27-4.42C173.2,289.9,179.13,287.87,179.13,287.87Z"/><path class="cls-4" d="M185.54,316.93c-1.24,3.28-2.25,5.9-3.13,8-.69,1.67-1.3,3-1.86,4.13a25.72,25.72,0,0,1-4.7,1.37c-3.76.74-9.2,1.06-14.17-1.5-.39-.21-.77-.42-1.16-.66,0,0,0-.06,0-.17-.05-.55-.22-2.34-.36-4.37-.14-1.76-.25-3.69-.28-5.11-8.23-7.2-1.19-16.07,5.81-23a14.05,14.05,0,0,1,2.51,0s-6.24,7.37-1.9,11.56c9.28-2.8,11.13-7,14.1-8.64,2.55.4,5.48,1.77,5.89,3.17C186.74,303.34,187.75,311.06,185.54,316.93Z"/><path class="cls-3" d="M162.09,276.57h0c.92-5.86,5.15-10.29,11.2-9.93a11.61,11.61,0,0,1,5.84,21.23,11.91,11.91,0,0,1-.93,2.56c-2.15,2.49-7.83,4.07-9.71,4.1-1.62,0-3-1.5-4.54-4C160.79,285.27,161.59,279.46,162.09,276.57Z"/><path class="cls-2" d="M175.16,266.75c4.24.82,7.72,2,8.87,6.18.79,2.86,1.82,8.33.84,10.63l-.61,1.66-5.13,2.65s-2.4-2-1.65-7.85a4.25,4.25,0,0,0-.72-2.21,6.69,6.69,0,0,1-.71-1.77,6.58,6.58,0,0,0-3.33-3.6c-3.82-2.15-9.41-.29-10.19.48A11.13,11.13,0,0,1,175.16,266.75Z"/><path class="cls-3" d="M186.57,341.15c1-5.94,2.73-9.79,1.9-13a117.08,117.08,0,0,0-7.22-19.24c-1.87-3.7-1.3-6.26.64-7.72,2.19-1.63,4.28-.92,6.24,3.17,2.48,5.15,5.27,10.43,6.63,18.09.66,3.72,1,7.33-.19,15-.84,5.34-2.53,8.34-4.54,13.35C189.48,352.08,185.76,346.18,186.57,341.15Z"/><path class="cls-14" d="M182.86,451.88c-2.15,1.74-5.48.53-5.64.69-2.18,2.19-5.44,4.1-7.86,6-1.34,1.06-3.42,2.46-3,4.48.67,3.62,6.46,2.51,8.64,1.4s4-2.94,6-4.22c1.47-.91,2.92-1.39,3.15-3.25C184.28,455.86,183.24,451.83,182.86,451.88Z"/><path class="cls-13" d="M184.11,456.23c-.28,1.78-1.71,2.27-3.17,3.18-2.1,1.31-3.95,3.19-6.13,4.29-2,1-7.05,2-8.46-.54.77,3.48,6.45,2.39,8.61,1.29s4-2.94,6-4.22c1.47-.91,2.92-1.39,3.15-3.25A3.38,3.38,0,0,0,184.11,456.23Z"/><path class="cls-14" d="M167.81,448.87c-2,1.6-4.93.7-5.07.85-2,2-5,3.72-7.19,5.47-1.22,1-3.13,2.25-2.78,4.1.61,3.31,5.91,2.3,7.91,1.28s3.63-2.69,5.53-3.86c1.34-.84,2.67-1.27,2.88-3C169.22,452.7,168.16,448.83,167.81,448.87Z"/><path class="cls-13" d="M169.07,453c-.26,1.64-1.57,2.09-2.91,2.92-1.92,1.19-3.62,2.91-5.62,3.93-1.84.93-6.45,1.86-7.75-.5.71,3.19,5.91,2.19,7.89,1.18s3.63-2.69,5.53-3.86c1.34-.84,2.67-1.27,2.88-3A3.38,3.38,0,0,0,169.07,453Z"/><path class="cls-3" d="M156.25,349.1c.94-7.4,3.67-18.14,3.67-18.14a22,22,0,0,0,8.21,2c4.77.24,12.41-1.21,12.41-1.21a74.47,74.47,0,0,0,4.37,6.76c2.13,3,6.28,9.45,5.28,20.78-.66,7.41-4.81,38.85-4.81,38.85a58.87,58.87,0,0,1,2.55,16.31c0,4.58-1.25,12.35-2.6,19.54l-2.47,17.85s-3.3,2.38-5.64.69l.29-17.46c-.28-4.28-.71-10.58-1-14.61-.44-6.56-1.62-17-2-19.58s-1.17-7.14-1.57-12.24-2.31-31-2.31-31l-.27,4.85s-.25,7.87-1.38,17.58-1.53,14-1.53,14a20.92,20.92,0,0,1,2.21,6.27c.2,2.1,2.6,18.7,1.17,27.15L167.94,449a5.61,5.61,0,0,1-5.08.67l-1.73-21.64c-1.16-8.23-3.62-25.69-4-27.95a96.08,96.08,0,0,1-1.47-13.85C155.1,376.88,155.3,356.49,156.25,349.1Z"/><path class="cls-15" d="M40.72,229.91c-.29,2.56-.49,4.09-.49,4.09a20.47,20.47,0,0,1-15.7,5.62C15.25,239.18,7.17,234,7.17,234l.6-3.61,1.37-8.12c-10.47-38-.37-52.76-.37-52.76l5.52-11.08,1.11-2.21.87.19c16.3,2.32,19.79-1,19.94-1.2h0s.27.81.71,2.34a196.34,196.34,0,0,1,5.46,25.16C44.32,195.52,41.84,220.19,40.72,229.91Z"/><path class="cls-11" d="M296.28,213.41A74.71,74.71,0,0,1,299.11,200s-.84-11.58-1.27-22.56c-.48-12.46-4.8-23.43-1.39-33.37l38.45,8.55s-2.33,49.68-2.84,55.69a111.91,111.91,0,0,1-1.73,13.95c-1.75,9.65-4.6,32.59-4.6,32.59-4.07,2.36-9.41,1-9.41,1s.3-29,.56-36c.32-8.49.58-7.84.58-7.84L316.19,191l-.84-10.52s-1.06,7.72-1.75,14.61c-.6,6-2.06,11.45-3.68,22.63-1.4,9.71-3.68,29.21-3.68,29.21-4.07,2.36-9.59.4-9.59.4S295.18,221.83,296.28,213.41Z"/><path class="cls-16" d="M186.57,392.64l1.88,11.28s-19.06,12.23-31.81,0c0,0-4.42-33.78-2.07-49.37a185.29,185.29,0,0,1,5.78-26c.08-.25.14-.41.15-.46a0,0,0,0,0,0,0l20,1,.4.81,6,12S196.63,356.07,186.57,392.64Z"/><path class="cls-7" d="M192,311.49s-4.42,4.4-9.67,3.86l-2.51-8.57s-1.64-4.5,2.18-6.45S189.78,302.7,192,311.49Z"/><path class="cls-7" d="M165.66,295.65s-5.06-1.54-10.44,9.67l2,1.21S162.53,298.53,165.66,295.65Z"/><path class="cls-9" d="M180.55,329.06l.4.81a40.33,40.33,0,0,1-5.1.56c-.67,0-1.34,0-2,0a51.1,51.1,0,0,1-12.18-1.54l-1.33-.37c.08-.25.14-.41.15-.46-.05-.55-.22-2.34-.36-4.37,2.86.94,12.43,3.59,22.27,1.2C181.72,326.6,181.11,327.94,180.55,329.06Z"/><path class="cls-27" d="M231.29,92.59c-.69,1.65-1.3,3-1.87,4.12,0,0-12.06,5.18-21.79-.85,0,0-.21-2.23-.42-4.82C210.92,92.34,220.9,95.21,231.29,92.59Z"/><path class="cls-12" d="M350.93,51.19c-.14,1.73-.17,2.86-.17,2.86s-4.23.51-5.6-1.42a17.58,17.58,0,0,1,.64-3A7,7,0,0,0,350.93,51.19Z"/><path class="cls-28" d="M301.54,482.87l-.26-6.18a11.1,11.1,0,0,0,8,.41l-1.47,6.6a3.8,3.8,0,0,1-2.7.84A6,6,0,0,1,301.54,482.87Z"/><path class="cls-28" d="M328.61,469.46l-.26-6.17a7.67,7.67,0,0,0,7.07.68l-1.12,6s-.2.82-2.1.82A6.56,6.56,0,0,1,328.61,469.46Z"/><path class="cls-12" d="M86.69,150.13c-1.32,2.65-4.9,5.07-9.57,6.46a17.35,17.35,0,0,1-5,.8,15.24,15.24,0,0,1-7-2.3c2.4-1.19,4.64-2.21,4.92-2.34,0,0,0,0,0,0h0c.81.54,2.54,1.2,5.77.24,3.74-1.13,6.69-2.72,6.67-5.83v-.07c.25,0,2.17-.32,4.36-.5A4.19,4.19,0,0,1,86.69,150.13Z"/><path class="cls-8" d="M68.28,166.18c-.45,2.37-1,5.33-1.52,7.62-.42,2.12-.75,3.65-.75,3.65s-1.81,2.42-6.87,1.19a11.51,11.51,0,0,1-7.08-4.7s.33-1.31.88-3.39,1.36-5,2.29-8.25c1.87-6.4,4.85-8.31,9.08-7.68C69.53,155.39,69.16,161.61,68.28,166.18Z"/><path class="cls-12" d="M66.76,173.8c-.42,2.12-.75,3.65-.75,3.65s-1.81,2.42-6.87,1.19a11.51,11.51,0,0,1-7.08-4.7s.33-1.31.88-3.39A13.39,13.39,0,0,0,60,174.44,10.63,10.63,0,0,0,66.76,173.8Z"/><path class="cls-28" d="M13,283.82a7.3,7.3,0,0,0,3.79,1.35,3,3,0,0,0,2.07-.62l-.1-6.24a8.36,8.36,0,0,1-3.19.54,7.74,7.74,0,0,1-3.33-.54Z"/><path class="cls-28" d="M28.47,280.94a6.09,6.09,0,0,0,3.31,1,4.12,4.12,0,0,0,2-.34l.49-6.13A8.63,8.63,0,0,1,31,276a7.5,7.5,0,0,1-3.3-.54Z"/><path class="cls-9" d="M257,302.16a7.61,7.61,0,0,1-1,2.83c-7.61,1.84-14-4.55-14-4.55s.32-1.2.9-3C247.66,301.56,252.42,303.15,257,302.16Z"/><path class="cls-9" d="M296.54,290.59c-1.4,2-5.57,1.44-5.57,1.44s0-.75-.12-1.95c3.21.12,4.54-.78,5.25-1.74A15.45,15.45,0,0,1,296.54,290.59Z"/><path class="cls-16" d="M36.93,157.54a27.46,27.46,0,0,1-11.78,2.3,42.75,42.75,0,0,1-10.86-1.41l1.11-2.21c-.38-.75-.78-1.59-1.2-2.56,5.5,1.76,16.44,2.87,22.23-1h0c-.1,1.21-.19,2.18-.23,2.58h0S36.49,156,36.93,157.54Z"/></g></g></svg>