<svg xmlns="http://www.w3.org/2000/svg" xmlns:xlink="http://www.w3.org/1999/xlink" viewBox="0 0 384.72 500"><defs><style>.cls-1{fill:none;}.cls-2,.cls-9{fill:#d6d8e5;}.cls-2{opacity:0.4;isolation:isolate;}.cls-3{fill:#d5d6e0;}.cls-4{fill:#e9eaf4;}.cls-5{fill:url(#Безымянный_градиент_15);}.cls-6{clip-path:url(#clip-path);}.cls-7{fill:#8c50ff;}.cls-8{opacity:0.05;}.cls-9{opacity:0.4;}.cls-10{fill:#c5c7d3;}.cls-11{fill:#38226d;}.cls-12{fill:#9c73ff;}.cls-13{fill:#ffcea9;}.cls-14{fill:#ededed;}.cls-15{fill:#e5e5e5;}.cls-16{fill:#f4f4f4;}.cls-17{fill:#bfbfbf;}.cls-18{fill:#3a2c6d;}.cls-19{fill:#dceeff;}.cls-20{fill:#dbdbdb;}.cls-21{fill:#1e3779;}.cls-22{fill:#031f60;}</style><linearGradient id="Безымянный_градиент_15" x1="235.62" y1="356.16" x2="235.62" y2="256.93" gradientUnits="userSpaceOnUse"><stop offset="0" stop-color="#e9eaf4"/><stop offset="0.63" stop-color="#e9eaf4" stop-opacity="0"/></linearGradient><clipPath id="clip-path"><circle class="cls-1" cx="233.41" cy="151.32" r="151.32"/></clipPath></defs><title>Web_SVG</title><g id="Слой_2" data-name="Слой 2"><g id="Слой_1-2" data-name="Слой 1"><path class="cls-2" d="M228.17,397.27l-47.08-27.18c-2.19-1.27-1.92-3.48.62-4.94l45.84-26.47c2.54-1.46,6.37-1.62,8.56-.36l47.07,27.18c2.2,1.27,1.92,3.48-.61,4.94l-45.85,26.47C234.19,398.38,230.36,398.53,228.17,397.27Z"/><polygon class="cls-2" points="207.39 381.01 207.39 381.02 88.47 449.67 19.88 489.27 21.4 490.15 89.99 450.54 208.9 381.89 208.9 381.89 207.39 381.01"/><path class="cls-3" d="M288,362.37l-2.32.71-46.23-26.7c-2.19-1.26-6-1.1-8.55.36l-45.85,26.47-.11.07-2-.61v3c0,.11,0,.22,0,.34v.24h0a2.68,2.68,0,0,0,1.44,1.86l47.08,27.18c2.19,1.26,6,1.11,8.56-.36L286,368.5a3.62,3.62,0,0,0,2.08-2.64h0Z"/><path class="cls-4" d="M231.55,392.14,184.47,365c-2.19-1.26-1.91-3.47.62-4.93l45.85-26.47c2.53-1.47,6.36-1.63,8.55-.36l47.08,27.18c2.19,1.27,1.92,3.48-.62,4.94l-45.84,26.47C237.57,393.25,233.74,393.41,231.55,392.14Z"/><path class="cls-3" d="M255.38,360.25l0-4-5.7,1.5L237,350.4a3.58,3.58,0,0,0-3.24.14l-12.33,7.12-5.83-1.54,0,4.31,0,0v1a.48.48,0,0,0,0,.12v.1h0a1,1,0,0,0,.55.7L234,372.74a3.61,3.61,0,0,0,3.24-.13l17.38-10a1.36,1.36,0,0,0,.78-1h0v-1.32Z"/><path class="cls-4" d="M234,367.33,216.13,357c-.83-.48-.73-1.32.23-1.87l17.38-10A3.58,3.58,0,0,1,237,345l17.84,10.3c.83.48.73,1.32-.23,1.88l-17.38,10A3.61,3.61,0,0,1,234,367.33Z"/><polygon class="cls-5" points="235.48 356.16 129.08 260.92 342.17 256.93 235.48 356.16"/><circle class="cls-4" cx="233.41" cy="151.32" r="151.32"/><g class="cls-6"><path class="cls-7" d="M193.61,61.31l.51-1.79V55.64a9.1,9.1,0,0,1-2.17,0c-.38-.17-.12-1.23-.12-1.23l1.78-1.53-3.57.76-1.28,2-4,2.47,1.79,1,1.15.76,1.72.26V59s2-.51,2.49.25l-.25,1.41Zm-44.22,55.25a4,4,0,0,0-3.28,0,2.7,2.7,0,0,1-2.56,2.73l2.92,1.63,2.92-1.09,3.82-1.27,3.27,2.36c2.46-3,0-4.73,0-4.73Zm62.1,55.63-2.83-.6-4.92-3.13h-4.32l-3.73-1.93H194.2s.3-2.09-.15-2.24-3.72-2.09-3.72-2.09l-2.54.9v-1.79l-1.79-.75h-1.49l.15-1.49s1.34-2.65.6-3.11-3.43-6.43-3.43-6.43l-4-2.24h-4.32l-3.73-3.57-3.72-3-2.09-4.17-2.24-1.49s-2.53,1.64-3.13,1.49-4.32-1.49-4.32-1.49l-3.13-.89L147.24,136v4l-1.49-1v-1.5l1.34-2.53.6-1.79-1.34-.59-1.79,2.08L140.09,136l-.9,1.94-2.09,1.94-.59,1.64-3.28-2.68a25.86,25.86,0,0,1-3.43,1.49,22.67,22.67,0,0,1-3.43-2.24l-1.64-3.13.9-4.17.74-4.33-2.83-1.79h-3.88l-3-.89,1.4-2.24,1.64-3.28,1.49-2.38s.42-1.09.9-1.34c1.9-1,0-1.94,0-1.94s-4-.3-4.62,0-2.24,1.19-2.24,1.19v3.43l-3,1.34-4.62,1-3.13-3.14c-.45-.44-1.49-5.36-1.49-5.36l1.93-1.79.9-1.49.15-3.58,1.93-1.64.75-1.94L110.87,99,113,97.05l1.94-.59,2.68.59c.15-1,5.07-.59,5.07-.59l1.94-.1-.15-1.09c.9-.75,3.88,0,3.88,0l4-.34c.88.19,1.62,2,1.62,2l-1.79,1.64,1.2,3.57,1.19,1.64-.45,1.64L137,105l.14-2.84.15-3.43-.44-3.76,2.68-5.78,10.88-7-.15-2.54L151,76l1.94.67,3.43-4.07,4.47-1.48,2.68-1.82,1.34-2.69,4.92-1.49,4.92-2.53L172.44,65l-.3,2.09,2.68-.6,2.39-1.34,2.08-.59,1.94-.6.6-1.34h-1.34l-2.09-.75c-1.34-1-3-2.23-3-2.23a1.66,1.66,0,0,1,.44-1.35l1.35-1.21s.59-.72.15-.72-3.73-.72-3.73-.72l-3.58,1.44H168l2.54-2.21h2.83l3.13-.75H183l3.58-.75L189.13,52l3.13-.32.9-3.35-2.09-1.79-3-1.55-.6-3.52-1.64-3.58h-1.49l-.15,1.94h-2.38l-.6,1.19-.89.6-1.49.3-1.35-1.35,1.79-1.93-2.08-1.94-2.54-1.34H172l-1.94.59-2.68,3.13-2.09,1.79.6,1.64L165.13,45l.45,1-2.54.9-2.83.59-1.19-.3-.9,1.2,1.64,3.35-1.64,1.12h-2.23L154,50.43l-.45-1.38,1.34-.74-1-1.79-3.13-.15-4.17-2.59h-1.94l-.45-1.59-1.34-.59,1.94-2.24,2.83-1.64,4.92-1.79,1.79-.59,3.87-.9L160.81,33l2.38-2.09h3.13l3.73-.94h2.39l1-2.78h-4.77l-1.79,1.37h-3.13a5.39,5.39,0,0,0-2.39-1.37V26.09L163,24.6,165.13,23a12.52,12.52,0,0,0,1.79-3.13l4.32,1.49,3.27-.17,2.25-.13,2.83.15,1.64.6c-.45,1.19-2.23.3-2.23.3l-5.37.59L171.24,24l.75-1.64-2.54.15-3,1.93,2.09,1.05h4.92l2.68,1,2.24-.89,2.38.89,2.84.9-3.43,1.07-3,1.41-3,.65-2.38.89,1,2.09,6.26-.15L183,35.78h3.28l.15-1.34.74-1.34,1.5-.3-1.2-1.64-.44-1.24h1.78l1.5,1.09c1.19.9,3.72-1.09,3.72-1.09l3.73-1.41-4.62-1.37-1.49-1.49c.44-.9-4.92-2.24-4.92-2.24l-4.18-2.53-1-1.05H178l2.83-1.19,7,.74,3.58-.74,8.2-2.09,5.51-1.34,4-1.49L204.49,13s-3.28.9-3.73.9-4.32.3-4.77.3H185.55l-3.27.74,3,.75-1.79,1h-3.13l-1.79.6,2.38-1.79-2.53-.6-3.13.75-3.88,2.23,1.79.6,2.54-1,2.08.44-2.23.6-.9,1.19,1.49.45-4,.3-7-1.19-2.83,3.42-5.67,4,1.49,1.19-1,.63-1.34.71-3.88-.71-5.36,1.41-9.84,2.43L103.86,64,90.74,81.1l-7.6,45.62,13.41-4.47,2.09,2.23,3.58.6,2.39,1.49,2.53-1,2.09,2.09,4.62,2.53,4.47.6,1.34,4.47s3.13,2.83,3,3.43,1,3.28,1.64,3.28a30.41,30.41,0,0,1,4.33,1.94l2.53.29,1-2.23h2.24v2.23l.9,1.2.29,3.42.9,2.54L135,153l-2.39,3-3,4.15.3,4-.75,2.68,2.24.75-1.94,2.68a32.55,32.55,0,0,1,1,3.43,30.41,30.41,0,0,0,1.64,3.73l2.09,1.79.9,3,5.07,10.43,3.57,3,5.22,2.68s3.28,3.58,3.43,4,1.79,7,1.79,7L154.1,213l1,3.87.3,4.33.45,6,1.49,4.77,1.34,6.26-1.64,2.09,1,3.09,1.2,4.51,2.08,2.24-.14,3.58.44,3.57,9.25,9.84,1.78,1.94v-4.62l3-1.73V260l-3-1.34v-2.09l1.47-1.34,1.48-2.39V250.9c1.23-.44,0-1.79,0-1.79h-2.05l-.15-1.93h1.94l.8,1.19,1.58-1.19-1.19-2.39c.3-.74,2.39,0,2.39,0l3.57-2.09,1.49-1.78v-2.39L182.28,237l-1.5-2.39h1.79s2.69,1.35,3.58,0,2.24-3.13,2.24-3.13l1.64-3.87s3.13-5.67,3.43-6.12,0-6,0-6l4.92-4h3.28l2.68-4.48,2.09-2.94v-5l.74-4.77L206,189.64l4.17-5.52,3.13-3-1.19-5.51ZM244.71,55.05l1,.59,1.36-1.18H249l1.78-.6.8-1.1-.38-1.52.76-.81c.09-1.23-1.86-2.12-1.86-2.12H249l-1.36,1.57h-1.44l-.51,1.78L245.9,53l-1.19.74Zm9-11.27-1.52.68v2.29l.17.59a6.36,6.36,0,0,1,.17,1.44l1.1.76,1.1.68.51,1s-.17,1-.76,1l-1.36.43.51.93s-1,.51-1.1.93l.93.68-.85.85h-1.86v1h3.9l1.61-1,2.37.42s1.95-.42,2.37-.42l-.34-.43.6-.76.93-1.1L261,53.27l-1.35-.42.17-1.44-1.28-1-1.94-1.06-.17-1.95.17-1.69h-2l-.42-.85,1.18-1.1Zm11.1,7.29v-.64h1.36l.76-.55V47.76l1-.51-.34-1.69L266,45l-2.37.76V47l-1.44.17-.34,1.14,1,.47-1.61.93-.43.72,1.36,1.23Zm85.4,51.37,5.6,3,2.89-1.12,1.92,2.72,5.13,1.13,2.24,1.12,6.25-16.5L372.45,84l-28-45.82L336.09,32H326l-4.49.64-1.12,2.25L318,34,316.87,32h-2.25l1,1,.81,1.61h-3.53V36.6l-2.52-.37L308.85,36l-.86.43.8.49,1.11.25-1,.37L307.56,37l-1.67-.56-.5-1.11-1.23-1-1.42-.19-1-1.17,2.18.19,1.92.86,1.6.19s1-.25,1.11-.07a12.12,12.12,0,0,0,2.35.5l1.3-1L310,32l-3.9-1.15s-6.55-.9-6.86-.88a28.82,28.82,0,0,1-2.78-.85l-2.28-.56h-5l-7.6,1.41-4.2,2.67-5,4.51s-4.32.62-4.57.68a20.44,20.44,0,0,0-2,1.91l1,2.17-.25,1,.68.55.5,1,.68,1,2.53-.37,2.72-1.54,2.1,1.11,1.61,2.78.3,1.67,1.92.37,1.3-1.11,1.36-.31.74-2.23.12-1.73,1.86-.55V42.41l-.68-.49-.87-.56-.31-2,2.83-1.79s1.5-1.36,1.5-1.6.74-1.06.74-1.06,1.18.07,1.55.13,2.34.74,2.34.74l.75.56-2.29,1.11-1.35,1.36-1,.68.93,2.16,2.41,1.24,2.16-.44,3.43-.17s3.93.79,4.11.92-1.13.55-1.13.55l-1.53.43-.86.56L296.25,44a3.78,3.78,0,0,0-2-.68,4.09,4.09,0,0,0-1.67.74l.93,1.42,1.29.87s-.55,1.6-.92,1.54-1-1.17-1-1.17l-1.43-.56-.92.56.12,1.36L290.25,50l-1.54,1-1.12.87-1.48-.87-1.91.56-3.34-.19-.74.68-1.18-.49s-2.9.12-3.09.18a10.62,10.62,0,0,1-1.91-.86l-.74-1.67.92-1.11-.43-.5-.37-.92.62-.75-.93-.24-1.54,1.54-.07,1.49s.81,1.42.87,1.6a10.91,10.91,0,0,1,.06,1.3l-1.54.62-1.67.49.31.62,1.73.31-.56,1-1,.06-.49,1.24-.31.68-1.36-.37.06-.87.06-1.11-.55-.56-.81.87-.86,1.11-2,.37-.93.74-.62,1.36-1.48.68-1.17.74-1.8-.92-.24.43.37.92-.43.5-2.35-.19-1.3-.18-.19,1.73,2.29.37,1.11,1s.87,1.05,1.05,1.05,1.43.31,1.43.31l-.5,2.72-1.11,2.53-4.64-.06-5.06-.12-1.61.61-.5,1.42.44,1.49L245.2,76l-.37,1.49A7,7,0,0,0,245,79c.13.18.87,1.48.87,1.48l-.56,2.1,1.67.5,2.78.18,1.48.81,1.12.18,1.85-.8,2.78-.37,2.6-2.17-.43-2.65,1.6-2,3.4-2.16,1.48-.5-.18-2.22,2-1.18,2,.68,1.36-.74L275,68.86l4.14,3.84,5.68,3.89s1.18,2.35,1.24,2.53a7.8,7.8,0,0,1-.87,1.61H282L280.8,81s.37.92.61.92,2.79,1.18,2.79,1.18l.8.62.43-.13-.06-1.17.25-1.11.86.12a7.77,7.77,0,0,0,.93-1.24,17.93,17.93,0,0,1,.86-1.6l-.68-1.3.38-.87,1,.13.12,1.29h.37l-.12-1.6-1-.62L287,74.73l-.93-1.35-1.61-.44-1.85-1.3-.43-1.48-1.73-.86L280,67.94l.5-1.42,1.11-.19.06,1.36,1.11.37.75-.43,1.11,2,2.28,1.29,1.8,1,1.11.13,1.85,2,.44,2.59,3.46,3.59.49,2.53,2.47,1.73.68-.56-.37-1.6,1.36-.74-.43-1.12L298.41,80l-.56-1.11.25-1.8-.8-.92.74.12.55.68.87-1.17,1.48.06,1.49.62L303.54,78l1.11,1.73s-.74.43-.8.62a5.76,5.76,0,0,0,.62,1.36L305.89,83,307,84.56l2.22-.06.25,1,1.61.18,1.54-.37.44-1,.68.93,1.79.62,1.54-.12,1.3-1.43,1.17.5.87.55-.31,1.24.77,2.54-1.12,2.57v3.36H313l-2.56,1L306.29,94l-2.72.32-4.65-1.68h-3.68l-1.12,1,.64,1.76-1.44,1.44-3.69-2.24-2.88.32L285.63,93l-4.33-1.28-3-1.45L276,89.14l2.72-3.2-.8-2.72L276,82.09l-11.38,1.29-4.48,1.76-2.89.16-3,1.12-3.68-.8-2.41,2.88-2.88,1.92-2.6,5.45.68,2.4L240,101.48l-3.36,1.28-1.6,3s-3.53,7.85-3.85,8.49,0,4.65,0,4.65l1.44,4.64-3.36,7.85,1.28,3.85,1.76,3.52,4.65,6.57-.14,3.3,9.58,7.29,6.42-2.58L259,155.3l7.68-4.16s2.57,0,3.37,1.44,1.28,2.72,4.16,2.72,4.33,3.21,4.33,3.21l-1.28,3.68.64,1.92-1.28,3,3,6.24,2.24,4.81,2.09,4.65.48,5.92-.48,3.37-3.69,6.41,1.12,9.93,1.28,2.24-.48,1.6,2.25,2.41,1.44,5.6-1.28,5.29,1.92,4s1.76,4.33,1.92,4.81,1.28,2.08,1.12,2.88-.64,2.89-.64,2.89l.64,3.2h8.17l3.85-1.28,9.45-9.61a33.38,33.38,0,0,0,2.4-3.21c.16-.48,1.44-6.4,1.44-6.4l6.73-2.73V214.9l-1.44-4.17,3.52-3.36,9.46-5.45.8-4.17v-7.2l-1.77-5.45.48-3.36L331,180.29l3.05-4.48,1.12-5.93,4.48-2.72,1-2.73,8.17-8.47,2.57-8.06,2.4-4.45v-4.81l-2.24-.8-2.57,2.08-3.52.32-3.68,1-3.05-1.93.32-2.4-3.84-4.32-3.85-2.25-1.76-5.76L325.84,121l-.32-4.48-2.73-4L319.43,105l-3.53-3.52-.32-2.89,1.45.65,1.6,1.28.64,2.4c1.28,0,1.76-2.4,1.76-2.4l1.12,2.4,1.12,3,3.53,5.29,1.92.32,2.24,4.65-.16,2.08,6.41,6.57,1.12,6.08,1.12,2.73,2.09,2.08,9.61-2.56,1.76-1.61,4.16-1.28v-1.92l4.81-3.2,2-3.72,1.16-1.89,1.61-2.24L364,113.65l-3.7-3.13-1.18-3-1.36.32-1,2.88-3.68,1-1.92-1.28-.64-2.72-1.28.32-1.93-3.53-1.76-1-2.24-3.68,1.6-1.77Zm-75-23.58.34-1.53v-2.2a2.47,2.47,0,0,0-1.23-.59,1.34,1.34,0,0,0-.89.34v2.45a4.55,4.55,0,0,1,0,1.53Zm0-6.61a1,1,0,0,0-1.19-1.1l-.59,1.69.59,1.27h1.19ZM231.51,28.51h6l3.27-4.71h7.53l1.21-3,4.63-2.45c2.19-1.91,0-5.37,0-5.37l-9.44-1.18L235.33,13l-13.64-2.54-8.41,3.82s-6.05,3.27-6.87,3a29.17,29.17,0,0,0-4.91,0s3,2.72,4.36,3a9.87,9.87,0,0,0,3,0s0,2.66.55,3.27c1.91,2.19-2,3.82-2,3.82v2.58s.43,4.87,1.24,4.65,2.14,2.59,2.14,2.59l2.51,2.73h4.59l5.73-6.82,5.64-2.45ZM349.36,191.65l-.74-2-.85.84-.74,1.7-1.69,1-.74,2.23-1.06,2.64-4.13,1.27-1.8,3.07-.42,5.08L335.71,210l-1.69,1.8.63,3,1.17,1.38-1.17,1.58,1.17,1h3.91l2.22-3.28s1.8-3.81,1.8-4.13.85-3.81.85-3.81l3.06-4V198h2.12l-.63-3.92ZM135.75,110.5l-4.64-1.58s-1.29.18-2.8.54a16.83,16.83,0,0,0-3.24,1l6.58,2.24h2.66l4.44,3.82h3s2.45-1.09,1.63-3l-3.81-1.37Z"/></g><path class="cls-8" d="M248.12,269a151.41,151.41,0,0,1-145-194.66,151.34,151.34,0,1,0,275.3,120.31A151.23,151.23,0,0,1,248.12,269Z"/><polygon class="cls-9" points="27.18 500 0 484.45 40.68 461.16 67.86 476.71 27.18 500"/><polygon class="cls-4" points="27.75 468.65 5.24 455.65 27.75 442.66 50.26 455.65 27.75 468.65"/><polygon class="cls-10" points="27.75 494.64 5.24 481.64 5.24 455.65 27.75 468.65 27.75 494.64"/><polygon class="cls-3" points="50.26 481.64 27.75 494.64 27.75 468.65 50.26 455.65 50.26 481.64"/><g id="Men_5"><path class="cls-11" d="M58,473.47a7.73,7.73,0,0,0,5.8-.7c1.39,0,9-3.21,10-.48.9,2.38-2.38,4.59-4.14,5-3.83.93-6.66,2.84-8.2,3.16-1.15.24-2.63.4-3.54-.5C56.83,478.89,56.93,474.89,58,473.47Z"/><path class="cls-12" d="M61.47,479.81c1.54-.33,4.37-2.23,8.2-3.16,1.47-.36,4-2,4.26-3.88.34,2.19-2.62,4.14-4.26,4.54-3.83.93-6.66,2.84-8.2,3.16-1.15.24-2.63.4-3.54-.5a2.23,2.23,0,0,1-.5-.92A4.57,4.57,0,0,0,61.47,479.81Z"/><path class="cls-11" d="M44.33,466.19a7.68,7.68,0,0,0,5.8-.7c1.39,0,9-3.21,10-.48.91,2.39-2.38,4.6-4.13,5-3.83.93-6.66,2.84-8.2,3.16-1.15.24-2.63.4-3.54-.5C43.16,471.61,43.26,467.61,44.33,466.19Z"/><path class="cls-12" d="M47.8,472.53c1.54-.32,4.37-2.23,8.2-3.16,1.47-.36,4-2,4.26-3.88.34,2.2-2.62,4.14-4.26,4.54-3.83.93-6.66,2.84-8.2,3.16-1.15.24-2.63.4-3.54-.5a2.26,2.26,0,0,1-.51-.91A4.62,4.62,0,0,0,47.8,472.53Z"/><path class="cls-7" d="M23,456.75c5.91,2.6,11.49,3,16.05.56l4.71-2.72c.28,6.08.55,11.92.55,11.92s3.61,2.74,6.42.3c0,0,.59-8.54,1.19-16.93L56.89,447a6.12,6.12,0,0,0-.18,1.37c0,1.6,1.14,25.3,1.14,25.3s3.64,2.17,6.45-.27c0,0,1.89-27.47,2.33-31.86.49-4.93-5-7.36-8.46-6.1l-5.3,2c.11-1.38.2-2.45.26-3.05.49-4.94-5-7.37-8.45-6.11-3.16,1.15-24.49,9.15-24.49,9.15a54.78,54.78,0,0,0,.75,6.12l-8.42-.71C12,450.76,17.13,454.15,23,456.75ZM37.76,443.1l5.64-3.26a7.39,7.39,0,0,0-.19,1.21Z"/><path class="cls-13" d="M7.89,418.79s.69,10.49,2.07,12,6,2.54,6,2.54l3.58,5.9s-3.27-18.74-4-19.19S7.89,418.79,7.89,418.79Z"/><path id="_Контур_" data-name="&lt;Контур&gt;" class="cls-14" d="M14.78,407.15a3.93,3.93,0,0,0-5,1.51C8.47,410.84,7.1,418.33,7,419.61c0,0,1.85,2.56,4.62,2.13Z"/><path id="_Контур_2" data-name="&lt;Контур&gt;" class="cls-13" d="M16,407.28c1.81.09,3.16.56,3.38,0a22.88,22.88,0,0,0,.42-2.83c-.21-.52-.39-1.09-.39-1.09-2.28-1.4-3-3.86-3.29-6.72-.51-4.89,2.13-9.18,7-9.69,4.6-.48,8,2.75,8.89,7.19.49,2.2,1.46,6.34.15,9.94-.73,2-1.68,3.62-2.62,3.93a22,22,0,0,1-2.72-.24h0s-.24,1.36-.41,2.24-.1,1.33,1.63,2.4-2.62,3.27-5.47,3.05-6.06-1.93-6.94-3.78C14.71,409.65,14.79,407.22,16,407.28Z"/><g id="_Группа_" data-name="&lt;Группа&gt;"><g id="_Группа_2" data-name="&lt;Группа&gt;"><g id="_Группа_3" data-name="&lt;Группа&gt;"><path id="_Контур_3" data-name="&lt;Контур&gt;" class="cls-15" d="M61.93,439.35h0a1.47,1.47,0,0,1-.73,1.27l-13.81,8a1.48,1.48,0,0,1-1.47,0L26.56,437.42a1.46,1.46,0,0,1-.74-1.27V436Z"/><path id="_Контур_4" data-name="&lt;Контур&gt;" class="cls-15" d="M61.2,440.62l-13.81,8a1.48,1.48,0,0,1-.74.19v-9.44H61.93A1.47,1.47,0,0,1,61.2,440.62Z"/><g id="_Группа_4" data-name="&lt;Группа&gt;"><path id="_Контур_5" data-name="&lt;Контур&gt;" class="cls-16" d="M47.17,447.87a1,1,0,0,1-1,0L26,436.25c-.26-.14-.26-.38,0-.53l14.81-8.56,21.1,12.19Z"/></g><g id="_Группа_5" data-name="&lt;Группа&gt;"><polygon id="_Контур_6" data-name="&lt;Контур&gt;" class="cls-17" points="34.28 439.35 34.38 439.4 40.83 443.13 44.37 441.08 44.47 441.03 37.92 437.25 34.28 439.35"/><polygon id="_Контур_7" data-name="&lt;Контур&gt;" class="cls-15" points="34.38 439.4 40.83 443.13 44.37 441.08 37.92 437.36 34.38 439.4"/></g><path class="cls-18" d="M56.46,440l.93.54a.35.35,0,0,0,.3,0l.89-.51c.09,0,.09-.13,0-.17l-.93-.54a.32.32,0,0,0-.3,0l-.88.51C56.4,439.83,56.39,439.9,56.46,440Z"/><path class="cls-18" d="M55.15,439.19l.93.54a.33.33,0,0,0,.29,0l.89-.51c.09-.05.1-.13,0-.17l-.93-.54a.3.3,0,0,0-.29,0l-.89.51C55.08,439.07,55.07,439.14,55.15,439.19Z"/><path class="cls-18" d="M53.83,438.43l.93.54a.35.35,0,0,0,.3,0l.88-.51c.09-.05.1-.13,0-.17l-.93-.54a.32.32,0,0,0-.3,0l-.89.51C53.77,438.31,53.76,438.38,53.83,438.43Z"/><path class="cls-18" d="M52.52,437.67l.93.54a.33.33,0,0,0,.29,0l.89-.51c.09-.05.1-.13,0-.17l-.93-.54a.32.32,0,0,0-.3,0l-.88.51C52.45,437.55,52.44,437.62,52.52,437.67Z"/><path class="cls-18" d="M51.2,436.91l.93.54a.33.33,0,0,0,.29,0l.89-.51c.09-.05.1-.13,0-.17l-.93-.54a.3.3,0,0,0-.29,0l-.89.51C51.13,436.79,51.12,436.86,51.2,436.91Z"/><path class="cls-18" d="M49.88,436.15l.93.54a.35.35,0,0,0,.3,0l.89-.51c.08-.05.09-.13,0-.17l-.93-.54a.32.32,0,0,0-.3,0l-.89.51C49.82,436,49.81,436.1,49.88,436.15Z"/><path class="cls-18" d="M48.57,435.39l.93.54a.33.33,0,0,0,.29,0l.89-.51c.09,0,.1-.13,0-.17l-.93-.54a.32.32,0,0,0-.3,0l-.88.51C48.5,435.27,48.49,435.34,48.57,435.39Z"/><path class="cls-18" d="M47.25,434.63l.93.54a.35.35,0,0,0,.3,0l.88-.51c.09-.05.1-.13,0-.17l-.93-.54a.3.3,0,0,0-.29,0l-.89.51C47.18,434.51,47.17,434.58,47.25,434.63Z"/><path class="cls-18" d="M45.93,433.87l.93.54a.35.35,0,0,0,.3,0l.89-.51c.08-.05.09-.13,0-.17l-.93-.54a.32.32,0,0,0-.3,0l-.89.51C45.87,433.75,45.86,433.82,45.93,433.87Z"/><path class="cls-18" d="M44.62,433.11l.93.54a.33.33,0,0,0,.29,0l.89-.51c.09-.05.1-.13,0-.17l-.93-.54a.33.33,0,0,0-.29,0l-.89.52C44.55,433,44.54,433.06,44.62,433.11Z"/><path class="cls-18" d="M43.3,432.35l.93.54a.35.35,0,0,0,.3,0l.88-.51c.09-.05.1-.13,0-.17l-.93-.54a.33.33,0,0,0-.29,0l-.89.52C43.23,432.23,43.22,432.3,43.3,432.35Z"/><path class="cls-18" d="M42,431.59l.93.54a.35.35,0,0,0,.3,0l.89-.51c.08-.05.09-.13,0-.17l-.93-.54a.35.35,0,0,0-.3,0l-.88.52C41.92,431.47,41.91,431.54,42,431.59Z"/><path class="cls-18" d="M40.67,430.83l.93.53a.3.3,0,0,0,.29,0l.89-.51c.09,0,.1-.13,0-.17l-.93-.54a.33.33,0,0,0-.29,0l-.89.52C40.6,430.71,40.59,430.78,40.67,430.83Z"/><path class="cls-18" d="M38.72,429.7l1.56.9a.32.32,0,0,0,.3,0l.88-.51c.09-.05.1-.13,0-.17l-1.57-.9a.3.3,0,0,0-.29,0l-.89.51C38.65,429.58,38.64,429.66,38.72,429.7Z"/><path class="cls-18" d="M53.24,439.56l.93.53a.3.3,0,0,0,.29,0l.89-.51c.09-.05.1-.13,0-.17l-.93-.54a.35.35,0,0,0-.3,0l-.88.52C53.17,439.44,53.16,439.51,53.24,439.56Z"/><path class="cls-18" d="M51.92,438.8l.93.53a.3.3,0,0,0,.29,0l.89-.51c.09-.05.1-.13,0-.17l-.93-.54a.33.33,0,0,0-.29,0l-.89.52C51.85,438.68,51.84,438.75,51.92,438.8Z"/><path class="cls-18" d="M50.6,438l.93.53a.3.3,0,0,0,.29,0l.89-.51c.09-.05.1-.13,0-.17l-.93-.54a.33.33,0,0,0-.29,0l-.89.51C50.53,437.91,50.52,438,50.6,438Z"/><path class="cls-18" d="M49.28,437.27l.93.54a.35.35,0,0,0,.3,0l.88-.51c.09-.05.1-.13,0-.17l-.93-.54a.3.3,0,0,0-.29,0l-.89.51C49.21,437.15,49.2,437.23,49.28,437.27Z"/><path class="cls-18" d="M48,436.52l.93.54a.35.35,0,0,0,.3,0l.88-.51c.09,0,.1-.13,0-.17l-.93-.54a.32.32,0,0,0-.3,0l-.89.51C47.91,436.4,47.9,436.47,48,436.52Z"/><path class="cls-18" d="M46.65,435.76l.93.53a.32.32,0,0,0,.3,0l.89-.51c.08,0,.09-.13,0-.17l-.93-.54a.35.35,0,0,0-.3,0l-.89.52C46.59,435.64,46.58,435.71,46.65,435.76Z"/><path class="cls-18" d="M45.33,435l.93.53a.32.32,0,0,0,.3,0l.89-.51c.09-.05.09-.13,0-.17l-.93-.54a.35.35,0,0,0-.3,0l-.88.51C45.27,434.88,45.26,435,45.33,435Z"/><path class="cls-18" d="M44,434.23l.93.54a.3.3,0,0,0,.29,0l.89-.51c.09-.05.1-.13,0-.17l-.93-.54a.35.35,0,0,0-.3,0l-.88.51C44,434.11,43.94,434.19,44,434.23Z"/><path class="cls-18" d="M42.7,433.47l.93.54a.33.33,0,0,0,.29,0l.89-.51c.09-.06.1-.13,0-.18l-.93-.53a.3.3,0,0,0-.29,0l-.89.51C42.63,433.35,42.62,433.43,42.7,433.47Z"/><path class="cls-18" d="M41.38,432.71l.93.54a.33.33,0,0,0,.29,0l.89-.52c.09-.05.1-.12,0-.17l-.93-.53a.3.3,0,0,0-.29,0l-.89.51C41.31,432.59,41.3,432.67,41.38,432.71Z"/><path class="cls-18" d="M40.06,432l.93.54a.35.35,0,0,0,.3,0l.88-.52c.09,0,.1-.12,0-.17l-.93-.54a.33.33,0,0,0-.29,0l-.89.51C40,431.83,40,431.91,40.06,432Z"/><path class="cls-18" d="M38.74,431.19l.93.54a.35.35,0,0,0,.3,0l.88-.51c.09-.05.1-.13,0-.17l-.93-.54a.35.35,0,0,0-.3,0l-.89.51C38.67,431.07,38.66,431.15,38.74,431.19Z"/><path class="cls-18" d="M54.55,440.32l1.57.9a.3.3,0,0,0,.29,0l.89-.51c.09-.05.1-.13,0-.17l-1.56-.91a.35.35,0,0,0-.3,0l-.88.51C54.49,440.2,54.48,440.28,54.55,440.32Z"/><path class="cls-18" d="M38.63,429.74l.93.54c.08,0,.08.11,0,.15l-.94.55a.32.32,0,0,1-.27,0l-.08-.05a.28.28,0,0,0-.25,0l-1,.58a.34.34,0,0,1-.28,0l-.59-.34c-.08-.05-.08-.12,0-.16l.93-.54.19-.11.14-.08.14-.08.8-.46A.29.29,0,0,1,38.63,429.74Z"/><path class="cls-18" d="M51.36,442.89l.93.54a.33.33,0,0,0,.29,0l.89-.52c.09,0,.1-.12,0-.17l-.93-.53a.32.32,0,0,0-.3,0l-.88.51C51.29,442.77,51.28,442.85,51.36,442.89Z"/><path class="cls-18" d="M50,442.13l.93.54a.32.32,0,0,0,.3,0l.89-.51c.08,0,.09-.13,0-.17l-.93-.54a.35.35,0,0,0-.3,0l-.89.51C50,442,50,442.09,50,442.13Z"/><path class="cls-18" d="M48.73,441.38l.93.53a.32.32,0,0,0,.3,0l.88-.51c.09-.05.1-.13,0-.17l-.93-.54a.33.33,0,0,0-.29,0l-.89.52C48.66,441.26,48.65,441.33,48.73,441.38Z"/><path class="cls-18" d="M37.55,434.92l.93.54a.35.35,0,0,0,.3,0l.88-.52c.09-.05.1-.12,0-.17l-.93-.53a.32.32,0,0,0-.3,0l-.89.51C37.48,434.8,37.48,434.88,37.55,434.92Z"/><path class="cls-18" d="M36.24,434.16l.93.54a.3.3,0,0,0,.29,0l.89-.51c.09-.05.1-.13,0-.17l-.93-.54a.33.33,0,0,0-.29,0l-.89.51C36.17,434,36.16,434.12,36.24,434.16Z"/><path class="cls-18" d="M34.93,433.41l.93.53a.3.3,0,0,0,.29,0l.89-.51c.09-.05.1-.13,0-.17l-.93-.54a.35.35,0,0,0-.3,0l-.88.52C34.86,433.29,34.85,433.36,34.93,433.41Z"/><path class="cls-18" d="M33.61,432.65l.93.54a.35.35,0,0,0,.3,0l.89-.51c.08-.05.09-.13,0-.17l-.93-.54a.32.32,0,0,0-.3,0l-.89.51C33.55,432.53,33.54,432.6,33.61,432.65Z"/><path class="cls-18" d="M47.08,440.42l1.27.74a.33.33,0,0,0,.29,0l.89-.51c.09-.05.1-.13,0-.17l-1.27-.73a.3.3,0,0,0-.29,0l-.89.51C47,440.3,47,440.38,47.08,440.42Z"/><path class="cls-18" d="M38.86,435.68l1.27.73a.32.32,0,0,0,.3,0l.89-.51c.08-.05.09-.13,0-.17L40.07,435a.35.35,0,0,0-.3,0l-.88.51C38.8,435.56,38.79,435.64,38.86,435.68Z"/><path class="cls-18" d="M40.51,436.63l6.19,3.57a.3.3,0,0,0,.29,0l.89-.51c.09-.05.1-.13,0-.17l-6.18-3.57a.32.32,0,0,0-.3,0l-.88.51C40.45,436.51,40.44,436.59,40.51,436.63Z"/><path class="cls-18" d="M51.6,440.09l.93.53a.32.32,0,0,0,.3,0l.89-.51c.08-.05.09-.13,0-.17l-.93-.54a.35.35,0,0,0-.3,0l-.89.52C51.54,440,51.53,440,51.6,440.09Z"/><path class="cls-18" d="M50.29,439.33l.93.54a.33.33,0,0,0,.29,0l.89-.51c.09,0,.1-.13,0-.17l-.93-.54a.3.3,0,0,0-.29,0l-.89.51C50.22,439.21,50.21,439.28,50.29,439.33Z"/><path class="cls-18" d="M49,438.57l.93.54a.35.35,0,0,0,.3,0l.89-.51c.08-.05.09-.13,0-.17l-.93-.54a.35.35,0,0,0-.3,0l-.89.51C48.91,438.45,48.9,438.53,49,438.57Z"/><path class="cls-18" d="M47.66,437.81l.93.54a.3.3,0,0,0,.29,0l.89-.51c.09-.05.1-.12,0-.17l-.93-.54a.33.33,0,0,0-.29,0l-.89.51C47.59,437.69,47.58,437.77,47.66,437.81Z"/><path class="cls-18" d="M46.34,437.05l.93.54a.35.35,0,0,0,.3,0l.89-.52c.08-.05.09-.12,0-.17l-.93-.53a.32.32,0,0,0-.3,0l-.89.51C46.28,436.93,46.27,437,46.34,437.05Z"/><path class="cls-18" d="M45,436.29l.93.54a.33.33,0,0,0,.29,0l.89-.52c.09-.05.1-.12,0-.17l-.93-.53a.3.3,0,0,0-.29,0l-.89.51C45,436.17,45,436.25,45,436.29Z"/><path class="cls-18" d="M43.71,435.53l.93.54a.35.35,0,0,0,.3,0l.89-.52c.08-.05.09-.12,0-.17l-.93-.53a.32.32,0,0,0-.3,0l-.89.51C43.65,435.41,43.64,435.49,43.71,435.53Z"/><path class="cls-18" d="M42.4,434.77l.93.54a.33.33,0,0,0,.29,0l.89-.51c.09-.05.1-.13,0-.18l-.93-.53a.3.3,0,0,0-.29,0l-.89.51C42.33,434.65,42.32,434.73,42.4,434.77Z"/><path class="cls-18" d="M41.08,434l.93.54a.35.35,0,0,0,.3,0l.89-.51c.08,0,.09-.13,0-.17l-.93-.54a.32.32,0,0,0-.3,0l-.89.51C41,433.89,41,434,41.08,434Z"/><path class="cls-18" d="M39.77,433.26l.93.53a.3.3,0,0,0,.29,0l.89-.51c.09,0,.1-.13,0-.17l-.93-.54a.33.33,0,0,0-.29,0l-.89.51C39.7,433.13,39.69,433.21,39.77,433.26Z"/><path class="cls-18" d="M38.45,432.5l.93.53a.32.32,0,0,0,.3,0l.89-.51c.08-.05.09-.13,0-.17l-.93-.54a.35.35,0,0,0-.3,0l-.89.51C38.39,432.38,38.38,432.45,38.45,432.5Z"/><path class="cls-18" d="M37.14,431.74l.93.53a.3.3,0,0,0,.29,0l.89-.51c.09-.05.1-.13,0-.17l-.93-.54a.33.33,0,0,0-.29,0l-.89.52C37.07,431.62,37.06,431.69,37.14,431.74Z"/><path class="cls-18" d="M52.92,440.85,54.84,442a.32.32,0,0,0,.3,0l.88-.51c.09-.05.1-.12,0-.17l-1.92-1.11a.33.33,0,0,0-.29,0l-.89.52C52.85,440.73,52.84,440.8,52.92,440.85Z"/><path class="cls-18" d="M51,441.2l.93.54a.33.33,0,0,0,.29,0l.89-.52c.09,0,.1-.12,0-.17l-.93-.53a.3.3,0,0,0-.29,0L51,441C50.91,441.08,50.9,441.16,51,441.2Z"/><path class="cls-18" d="M49.66,440.44l.93.54a.35.35,0,0,0,.3,0l.89-.52c.08-.05.09-.12,0-.17l-.93-.53a.32.32,0,0,0-.3,0l-.88.51C49.6,440.32,49.59,440.4,49.66,440.44Z"/><path class="cls-18" d="M48.35,439.68l.93.54a.33.33,0,0,0,.29,0l.89-.51c.09-.06.1-.13,0-.18l-.93-.53a.3.3,0,0,0-.29,0l-.89.51C48.28,439.56,48.27,439.64,48.35,439.68Z"/><path class="cls-18" d="M47,438.92l.93.54a.35.35,0,0,0,.3,0l.89-.51c.09-.05.09-.13,0-.17l-.93-.54a.32.32,0,0,0-.3,0l-.88.51C47,438.8,47,438.88,47,438.92Z"/><path class="cls-18" d="M45.72,438.16l.93.54a.32.32,0,0,0,.3,0l.88-.51c.09-.05.1-.13,0-.17l-.93-.54a.33.33,0,0,0-.29,0l-.89.51C45.65,438,45.64,438.12,45.72,438.16Z"/><path class="cls-18" d="M44.4,437.41l.93.53a.32.32,0,0,0,.3,0l.89-.51c.09-.05.1-.13,0-.17l-.93-.54a.35.35,0,0,0-.3,0l-.88.52C44.34,437.29,44.33,437.36,44.4,437.41Z"/><path class="cls-18" d="M43.09,436.65l.93.53a.32.32,0,0,0,.3,0l.88-.51c.09-.05.1-.13,0-.17l-.93-.54a.33.33,0,0,0-.29,0l-.89.52C43,436.53,43,436.6,43.09,436.65Z"/><path class="cls-18" d="M41.78,435.89l.93.53a.3.3,0,0,0,.29,0l.89-.51c.09,0,.1-.13,0-.17l-.93-.54a.35.35,0,0,0-.3,0l-.88.52C41.71,435.77,41.7,435.84,41.78,435.89Z"/><path class="cls-18" d="M40.46,435.13l.93.54a.35.35,0,0,0,.3,0l.88-.51c.09-.05.1-.13,0-.17l-.93-.54a.32.32,0,0,0-.3,0l-.89.51C40.39,435,40.38,435.08,40.46,435.13Z"/><path class="cls-18" d="M39.15,434.37l.93.54a.33.33,0,0,0,.29,0l.89-.51c.09-.05.1-.13,0-.17l-.93-.54a.35.35,0,0,0-.3,0l-.88.51C39.08,434.25,39.07,434.33,39.15,434.37Z"/><path class="cls-18" d="M37.83,433.61l.93.54a.35.35,0,0,0,.3,0l.88-.52c.09-.05.1-.12,0-.17l-.93-.53a.32.32,0,0,0-.3,0l-.89.51C37.76,433.49,37.76,433.57,37.83,433.61Z"/><path class="cls-18" d="M34.89,431.91l2.56,1.48a.33.33,0,0,0,.29,0l.89-.52c.09-.05.1-.12,0-.17l-2.56-1.47a.3.3,0,0,0-.29,0l-.89.51C34.82,431.79,34.81,431.87,34.89,431.91Z"/><path class="cls-18" d="M52.29,442l1.27.73a.32.32,0,0,0,.3,0l.88-.51c.09-.05.1-.13,0-.17l-1.27-.74a.35.35,0,0,0-.3,0l-.89.51C52.23,441.84,52.22,441.92,52.29,442Z"/></g><g id="_Группа_6" data-name="&lt;Группа&gt;"><g id="_Группа_7" data-name="&lt;Группа&gt;"><g id="_Группа_8" data-name="&lt;Группа&gt;"><path id="_Контур_8" data-name="&lt;Контур&gt;" class="cls-15" d="M61.93,439.35h0l-21.1-12.19V410.57l.16-.38.18-.08h0a1.45,1.45,0,0,1,1.45,0l19.31,11.15a1.46,1.46,0,0,1,.73,1.26v15.57C62.53,438.89,62.38,439.09,61.93,439.35Z"/><path id="_Контур_9" data-name="&lt;Контур&gt;" class="cls-15" d="M60,423.26,40.83,411.12v-.55l.16-.38.18-.08a1.45,1.45,0,0,1,1.45,0l19.31,11.15a1.46,1.46,0,0,1,.56.57Z"/><path id="_Контур_10" data-name="&lt;Контур&gt;" class="cls-19" d="M41.32,410.19l20.26,11.7a.71.71,0,0,1,.35.61v16.85l-21.1-12.19V410.47A.33.33,0,0,1,41.32,410.19Z"/><path id="_Контур_11" data-name="&lt;Контур&gt;" class="cls-16" d="M41.32,410.19l20.26,11.7a.71.71,0,0,1,.35.61v16.85l-21.1-12.19V410.47A.33.33,0,0,1,41.32,410.19Z"/><polygon id="_Контур_12" data-name="&lt;Контур&gt;" class="cls-20" points="61.93 439.35 61.93 438.74 40.83 426.56 40.83 427.16 61.93 439.35"/></g><polygon id="_Контур_13" data-name="&lt;Контур&gt;" class="cls-21" points="41.38 426.28 41.38 411.06 41.63 411.21 41.63 426.15 41.38 426.28"/><polygon id="_Контур_14" data-name="&lt;Контур&gt;" class="cls-18" points="41.63 411.21 41.63 426.15 61.26 437.45 61.26 422.54 41.63 411.21"/><polygon id="_Контур_15" data-name="&lt;Контур&gt;" class="cls-22" points="41.38 426.28 61.26 437.75 61.26 437.45 41.63 426.15 41.38 426.28"/></g></g></g></g><path id="_Контур_16" data-name="&lt;Контур&gt;" class="cls-16" d="M18.66,407.55c-.5,1.25.77,2.78,4.17,3.85s3.71-.3,3.71-.3a68.14,68.14,0,0,1,6.62,3.4c2,1.43,2.94,5.56,3.22,12.54.32,8.07.34,20,.08,22.11,0,0-3.82,3.8-8.7,3.4s-13.1-4.72-15.1-8.06c.06-7.08.88-8.23-.26-12.31-2.62-9.33-4-13.15-2.73-19.35,1.05-5.11,2.52-5.75,4.54-5.7A42.15,42.15,0,0,1,18.66,407.55Z"/><path id="_Контур_17" data-name="&lt;Контур&gt;" class="cls-13" d="M44.41,435.69c-4,1-4.95-1.52-5.48-3.61-1.27-5.07-2-9.64-2.91-12.52-1.12-3.39-2.29-3.93-3.94-4.59-1.93-.78-3.6.86-2.95,5.17a86.17,86.17,0,0,0,3.67,14.74c.5,1.58,1.62,4.38,3.29,5.74,2.07,1.67,5.18,1.6,9.89.42,2-.5,4.22-1.7,8-3.47,1-.48,1.81-.79,3.77-1.71a13.34,13.34,0,0,0,5-3.92c1-1.48,1.16-2.18,1-2.52s-.73-.33-1.28.29a10.59,10.59,0,0,1-2.88,2.67s1.27-1.31,1.95-2.16a10.46,10.46,0,0,0,1.52-2.47c.36-.87-.39-2.05-1-1.43s-.84,1.25-1.88,2.49a10.76,10.76,0,0,1-1.85,1.77,20.22,20.22,0,0,0,1.71-2.75,4.57,4.57,0,0,0,.62-2.49c0-.45-.67-1-1.27-.13a16.38,16.38,0,0,1-2.15,3.29c-.92.95-1.69,1.49-1.72,1.23s.56-.78.88-1.89,0-2.28-.61-2.4-.49-.1-1,.94A29.3,29.3,0,0,0,53,429.69a6.92,6.92,0,0,1-1.65,2.84C50.4,433.57,48.22,434.73,44.41,435.69Z"/><path id="_Контур_18" data-name="&lt;Контур&gt;" class="cls-14" d="M30.6,414.28c2.67-.4,4.56.81,5.75,4.86s2,7.39,2,7.39a7.31,7.31,0,0,1-4.49,3c-3.2.78-4.35-.75-4.35-.75s-.89-4.25-1.44-7.14S27.29,414.77,30.6,414.28Z"/><path class="cls-18" d="M31.92,393.52s4.23-6.43-4.94-7.74c-6.61-.95-10.85,3.3-11.34,7.91-.47,4.4,2.24,9,4.2,10.78a8,8,0,0,0,5.71-.69,33.2,33.2,0,0,0,.12-3.6S22.45,393.4,31.92,393.52Z"/></g><polygon class="cls-3" points="50.26 474.86 50.26 455.55 34.93 464.5 40.83 476.71 50.26 474.86"/><polygon class="cls-4" points="40.21 456.66 46.09 453.25 50.26 455.65 44.16 459.11 40.21 456.66"/><ellipse class="cls-3" cx="235.62" cy="356.16" rx="4.09" ry="2.36"/></g></g></svg>