<svg xmlns="http://www.w3.org/2000/svg" width="32" height="32" viewBox="0 0 32 32">
  <g id="capitalDown" transform="translate(-77 -581)">
    <circle id="Ellipse_17" data-name="Ellipse 17" cx="16" cy="16" r="16" transform="translate(77 581)" fill="#fff"/>
    <g id="_16104017791582534645" data-name="16104017791582534645" transform="translate(-35.911 584.9)">
      <path id="Path_9" data-name="Path 9" d="M135.035,14.734a4.881,4.881,0,0,0-.425-1.033,3.494,3.494,0,0,0-.716-.858,8.548,8.548,0,0,0-.837-.675,8.163,8.163,0,0,0-1.02-.574q-.648-.318-1.026-.473t-1.094-.425q-.635-.243-.945-.371t-.817-.365a4.762,4.762,0,0,1-.756-.419,5.943,5.943,0,0,1-.533-.446,1.521,1.521,0,0,1-.4-.56,1.816,1.816,0,0,1,.7-2.147,3.511,3.511,0,0,1,2.093-.581,4.5,4.5,0,0,1,1.155.155,6.039,6.039,0,0,1,1.006.351,6.989,6.989,0,0,1,.79.432q.371.236.527.358c.1.081.169.135.2.162a.431.431,0,0,0,.365.095.369.369,0,0,0,.311-.216L134.7,5.173a.391.391,0,0,0-.067-.513c-.054-.054-.121-.117-.2-.189s-.256-.2-.527-.392a6.519,6.519,0,0,0-.857-.506,8.67,8.67,0,0,0-1.175-.452,7.491,7.491,0,0,0-1.492-.311V.432A.416.416,0,0,0,129.944,0h-1.823a.415.415,0,0,0-.3.128.415.415,0,0,0-.128.3V2.863a6.179,6.179,0,0,0-3.444,1.81,4.618,4.618,0,0,0-1.324,3.268,4.69,4.69,0,0,0,.115,1.053,5.4,5.4,0,0,0,.284.9,3.306,3.306,0,0,0,.479.783,8.39,8.39,0,0,0,.587.662,4.77,4.77,0,0,0,.723.574q.446.3.763.48t.844.418q.527.236.831.358t.831.337q.729.284,1.08.439t.892.432a3.7,3.7,0,0,1,.79.506,2.538,2.538,0,0,1,.452.567,1.368,1.368,0,0,1,.2.716,1.891,1.891,0,0,1-.831,1.647,3.274,3.274,0,0,1-1.925.581,4.718,4.718,0,0,1-1-.108,7.056,7.056,0,0,1-3.282-1.688l-.027-.027a.335.335,0,0,0-.324-.121.42.42,0,0,0-.311.162l-1.391,1.823a.41.41,0,0,0,.027.554q.068.081.236.243a7.815,7.815,0,0,0,.628.507,8.288,8.288,0,0,0,2.37,1.249,8.526,8.526,0,0,0,1.722.418v2.363a.438.438,0,0,0,.432.432h1.823a.415.415,0,0,0,.432-.432V21.405a5.8,5.8,0,0,0,3.491-1.843A5.138,5.138,0,0,0,135.212,16,4.44,4.44,0,0,0,135.035,14.734Z" transform="translate(0)" fill="#ff6f36"/>
    </g>
  </g>
</svg>
