<?xml version="1.0" encoding="utf-8"?>
<!-- Generator: Adobe Illustrator 23.0.1, SVG Export Plug-In . SVG Version: 6.00 Build 0)  -->
<svg version="1.1" xmlns="http://www.w3.org/2000/svg" xmlns:xlink="http://www.w3.org/1999/xlink" x="0px" y="0px"
	 viewBox="0 0 1538.33 492.33" style="enable-background:new 0 0 1538.33 492.33;" xml:space="preserve">
<style type="text/css">
	.st0{display:none;}
	.st1{display:inline;}
	.st2{fill:#0F0F22;}
	.st3{display:inline;fill:#E9C445;}
	.st4{display:inline;fill:#0F0F22;}
	.st5{font-family:'SourceSansPro-Regular';}
	.st6{font-size:78.7708px;}
	.st7{letter-spacing:39;}
	.st8{font-family:'CooperHewitt-Bold';}
	.st9{font-size:271.0822px;}
	.st10{fill:#E9C445;}
</style>
<g id="with_fonts" class="st0">
	<g class="st1">
		<g>
			<path class="st2" d="M452.34,213.46c4.97-8.88,5.42-14.67-1.16-22.61c-8.08-9.75-14.72-20.98-23.4-33.64
				c-26.62,63.81-52.18,125.07-77.74,186.33c-1.17-0.67-2.34-1.34-3.51-2.01c11.38-44.93,22.75-89.85,34.14-134.77
				c5.71-22.51,10.94-45.21,17.42-67.44c3.15-10.79,0.36-16.28-8.2-20.57c-10.38-5.21-20.47-11.18-32.18-17.65
				c-5.11,54.5-10.16,108.58-15.61,166.77c-22.38-43.07-46.99-77.15-83.66-97.15c-1.46,1.21-2.92,5.18-4.39,6.39
				c2.26,5.26,0,2.46,6.94,12.89c9.66,14.5,20.72,27.96,31.47,41.58c27.03,34.27,31.3,71.13,13.93,112.21
				c-2.96,6.99-3.87,17.51-2.14,24.96c4.61,19.85,10.41,37.59,16.53,61.51h12.19c0.05-2.66,0.11-0.94,0.16-1.03
				C372.84,357.54,412.33,284.94,452.34,213.46z"/>
			<path class="st2" d="M323.07,153.27c-0.56-9.54-1.01-18.74-1.69-27.92c-0.7-9.58-1.63-19.15-2.45-28.72
				c-7.32,4.59-12.34,9.87-14.75,16.36c-6.36,17.18,1.25,31.7,8.56,46.23c7.51,14.93,14.37,30.26,21.51,45.41
				c-1.46,1.17-2.93,2.34-4.4,3.51c-10.41-10.14-20.78-20.32-31.23-30.41c-31.61-30.48-31.62-30.47-60.9,2.6
				c-16.65,18.8-33.27,37.62-51.64,58.39c27.85,6.48,52.4,12.4,77.02,17.86c16.92,3.74,29.42,14.71,28.99,33.69
				c-0.44,19.9-6.22,39.7-10.23,59.39c-0.47,2.35-4.37,5.06-6.93,5.42c-9.78,1.39-19.65,1.88-29.41,2.69
				c4.35-19.14,9.45-37.02,12.3-55.33c2.95-18.91-2.28-27.63-19-32.11c-18.28-4.89-36.96-8.01-55.56-11.18
				c-3.16-0.54-7.88-2-10.22,3.88c1.52,7.25,4.75,7.85,7.99,9.26c9.73,4.24,19.91,7.17,29.89,10.67
				c22.17,7.79,25.25,13.61,20.95,39.97c-0.94,5.74-2.82,11.33-3.47,17.1c-2.03,18.06-11.91,22-27.4,19.48
				c3.51-13.25,7.65-25.32,9.61-37.83c0.93-5.91-0.54-16.4-3.93-18.39c-20.49-12.04-43.29-11.63-67.89-15.84
				c5.96,20.71,19.85,19.03,30.42,22.84c17.72,6.39,20.8,14.21,16.64,34.11c-5.26,25.15-23.05,29.24-40.87,34.43
				c-19.41,5.64-41.14-5.21-53.66-26.83c-9.01-15.55-7.28-23.48,10.1-46.09c2.39-3.11,4.74-6.29,7.29-9.22
				c44.23-50.86,88.13-102.09,133.04-152.19c8.83-9.85,21.56-15.33,36.81-25.8c5.11-24.58,26.63-41.92,48.81-58.84
				C351.28,94.24,349.31,141.21,323.07,153.27z"/>
			<path class="st2" d="M259.2,219.31c0,9.17-7.43,16.6-16.6,16.6c-9.17,0-16.6-7.43-16.6-16.6c0-9.17,7.43-16.6,16.6-16.6
				C251.76,202.71,259.2,210.14,259.2,219.31z"/>
			<g>
				<path class="st2" d="M488.3,316.37c-0.32-1.72-0.64-3.38-0.96-5.06c-11.3,12.01-32.21,38.53-39.85,45.11
					c0.36,0.32,17.15-11.85,17.5-11.53c7.52-4.76,14.8-9.5,22.52-14.28C489.25,321.88,488.3,316.37,488.3,316.37z"/>
				<path class="st2" d="M410.7,380.32c15.28-16.8,53-65.68,72.85-87.73c-2.92-13.52-5.91-25.68-8.8-36.37
					c-40.03,55.79-82.74,111.5-124.41,169.9c81.05-19.69,114.82-49.97,128.72-73.74c-1.56,0.81-3.11,1.69-4.65,2.59L410.7,380.32z"
					/>
			</g>
		</g>
	</g>
	<rect x="616.59" y="303.34" class="st3" width="792.08" height="126.91"/>
	<text transform="matrix(1 0 0 1 721.4717 393.7246)" class="st4 st5 st6 st7">STUDIOS</text>
	<text transform="matrix(1 0 0 1 622.583 308.1123)" class="st4 st8 st9">klurdy</text>
</g>
<g id="Official_logo">
	<g>
		<path class="st2" d="M474.18,214.57c4.97-8.88,5.42-14.67-1.16-22.61c-8.08-9.75-14.72-20.98-23.4-33.64
			c-26.62,63.81-52.18,125.07-77.74,186.33c-1.17-0.67-2.34-1.34-3.51-2.01c11.38-44.93,22.75-89.85,34.14-134.77
			c5.71-22.51,10.94-45.21,17.42-67.44c3.15-10.79,0.36-16.28-8.2-20.57c-10.38-5.21-20.47-11.18-32.18-17.65
			c-5.11,54.5-10.16,108.58-15.61,166.77c-22.38-43.07-46.99-77.15-83.66-97.15c-1.46,1.21-2.92,5.18-4.39,6.39
			c2.26,5.26,0,2.46,6.94,12.89c9.66,14.5,20.72,27.96,31.47,41.58c27.03,34.27,31.3,71.13,13.93,112.21
			c-2.96,6.99-3.87,17.51-2.14,24.96c4.61,19.85,10.41,37.59,16.53,61.51h12.19c0.05-2.66,0.11-0.94,0.16-1.03
			C394.68,358.65,434.17,286.05,474.18,214.57z"/>
		<path class="st2" d="M344.91,154.38c-0.56-9.54-1.01-18.74-1.69-27.92c-0.7-9.58-1.63-19.15-2.45-28.72
			c-7.32,4.59-12.34,9.87-14.75,16.36c-6.36,17.18,1.25,31.7,8.56,46.23c7.51,14.93,14.37,30.26,21.51,45.41
			c-1.46,1.17-2.93,2.34-4.4,3.51c-10.41-10.14-20.78-20.32-31.23-30.41c-31.61-30.48-31.62-30.47-60.9,2.6
			c-16.65,18.8-33.27,37.62-51.64,58.39c27.85,6.48,52.4,12.4,77.02,17.86c16.92,3.74,29.42,14.71,28.99,33.69
			c-0.44,19.9-6.22,39.7-10.23,59.39c-0.47,2.35-4.37,5.06-6.93,5.42c-9.78,1.39-19.65,1.88-29.41,2.69
			c4.35-19.14,9.45-37.02,12.3-55.33c2.95-18.91-2.28-27.63-19-32.11c-18.28-4.89-36.96-8.01-55.56-11.18
			c-3.16-0.54-7.88-2-10.22,3.88c1.52,7.25,4.75,7.85,7.99,9.26c9.73,4.24,19.91,7.17,29.89,10.67
			c22.17,7.79,25.25,13.61,20.95,39.97c-0.94,5.74-2.82,11.33-3.47,17.1c-2.03,18.06-11.91,22-27.4,19.48
			c3.51-13.25,7.65-25.32,9.61-37.83c0.93-5.91-0.54-16.4-3.93-18.39c-20.49-12.04-43.29-11.63-67.89-15.84
			c5.96,20.71,19.85,19.03,30.42,22.84c17.72,6.39,20.8,14.21,16.64,34.11c-5.26,25.15-23.05,29.24-40.87,34.43
			c-19.41,5.64-41.14-5.21-53.66-26.83c-9.01-15.55-7.28-23.48,10.1-46.09c2.39-3.11,4.74-6.29,7.29-9.22
			c44.23-50.86,88.13-102.09,133.04-152.19c8.83-9.85,21.56-15.33,36.81-25.8c5.11-24.58,26.63-41.92,48.81-58.84
			C373.11,95.35,371.15,142.32,344.91,154.38z"/>
		<path class="st2" d="M281.03,220.42c0,9.17-7.43,16.6-16.6,16.6c-9.17,0-16.6-7.43-16.6-16.6c0-9.17,7.43-16.6,16.6-16.6
			C273.6,203.82,281.03,211.25,281.03,220.42z"/>
		<g>
			<path class="st2" d="M510.14,317.48c-0.32-1.72-0.64-3.38-0.96-5.06c-11.3,12.01-32.21,38.53-39.85,45.11
				c0.36,0.32,17.15-11.85,17.5-11.53c7.52-4.76,14.8-9.5,22.52-14.28C511.08,322.98,510.14,317.48,510.14,317.48z"/>
			<path class="st2" d="M432.53,381.42c15.28-16.8,53-65.68,72.85-87.73c-2.92-13.52-5.91-25.68-8.8-36.37
				c-40.03,55.79-82.74,111.5-124.41,169.9c81.05-19.69,114.82-49.97,128.72-73.74c-1.56,0.81-3.11,1.69-4.65,2.59L432.53,381.42z"
				/>
		</g>
	</g>
	<rect x="638.43" y="291.26" class="st10" width="792.08" height="126.91"/>
	<g>
		<path class="st2" d="M746.61,374.95l3.94-4.57c3.7,3.86,8.9,6.46,14.26,6.46c6.77,0,10.79-3.39,10.79-8.43
			c0-5.28-3.7-6.93-8.58-9.14l-7.4-3.23c-4.88-2.05-10.48-5.75-10.48-13.31c0-7.88,6.85-13.71,16.23-13.71
			c6.14,0,11.58,2.6,15.28,6.38l-3.54,4.25c-3.15-2.99-6.93-4.88-11.74-4.88c-5.75,0-9.61,2.91-9.61,7.56
			c0,4.96,4.49,6.85,8.58,8.58l7.33,3.15c5.99,2.6,10.63,6.14,10.63,13.78c0,8.19-6.7,14.73-17.57,14.73
			C757.48,382.59,751.1,379.6,746.61,374.95z"/>
		<path class="st2" d="M840.98,335.49h-15.6v-5.51h37.81v5.51h-15.6v46.16h-6.62V335.49z"/>
		<path class="st2" d="M911.64,360.3v-30.33h6.54v30.48c0,12.45,5.28,16.38,12.05,16.38c6.85,0,12.21-3.94,12.21-16.38v-30.48h6.3
			v30.33c0,16.62-7.96,22.29-18.51,22.29S911.64,376.92,911.64,360.3z"/>
		<path class="st2" d="M1002.07,329.97h12.92c15.91,0,24.42,9.22,24.42,25.6c0,16.46-8.51,26.07-24.1,26.07h-13.23V329.97z
			 M1014.51,376.29c12.05,0,18.12-7.64,18.12-20.71c0-13-6.07-20.24-18.12-20.24h-5.91v40.96H1014.51z"/>
		<path class="st2" d="M1089.9,329.97h6.54v51.67h-6.54V329.97z"/>
		<path class="st2" d="M1147,355.57c0-16.54,9.06-26.54,22.05-26.54s22.13,10.08,22.13,26.54c0,16.62-9.14,27.02-22.13,27.02
			S1147,372.19,1147,355.57z M1184.34,355.57c0-12.84-6.06-20.79-15.28-20.79s-15.28,7.96-15.28,20.79
			c0,12.92,6.06,21.27,15.28,21.27S1184.34,368.49,1184.34,355.57z"/>
		<path class="st2" d="M1237.9,374.95l3.94-4.57c3.7,3.86,8.9,6.46,14.26,6.46c6.77,0,10.79-3.39,10.79-8.43
			c0-5.28-3.7-6.93-8.58-9.14l-7.4-3.23c-4.88-2.05-10.48-5.75-10.48-13.31c0-7.88,6.85-13.71,16.23-13.71
			c6.14,0,11.58,2.6,15.28,6.38l-3.54,4.25c-3.15-2.99-6.93-4.88-11.74-4.88c-5.75,0-9.61,2.91-9.61,7.56
			c0,4.96,4.49,6.85,8.58,8.58l7.33,3.15c5.99,2.6,10.63,6.14,10.63,13.78c0,8.19-6.7,14.73-17.56,14.73
			C1248.77,382.59,1242.39,379.6,1237.9,374.95z"/>
	</g>
	<path class="st2" d="M1379.88,331.54c-1.17-0.67,2.46-7.62,1.29-8.28c11.38-44.93,9.95-45.58,21.34-90.5
		c5.71-22.51,10.94-45.21,17.42-67.44c3.15-10.79,0.36-16.28-8.2-20.57c-10.38-5.21-20.47-11.18-32.18-17.65
		c-5.11,54.5-2.16,70.58-7.61,128.77c-22.38-43.07-46.99-77.15-83.66-97.15c-1.46,1.21-2.92,5.18-4.39,6.39
		c2.26,5.26,0,2.46,6.94,12.89c9.66,14.5,20.72,27.96,31.47,41.58c27.03,34.27,31.3,71.13,13.93,112.21
		c-2.96,6.99-3.87,17.51-2.14,24.96c4.61,19.85,10.41,37.59,16.53,61.51h12.19c0.05-2.66,0.11-0.94,0.16-1.03"/>
	<path class="st2" d="M663.97,74.16h42.83v121.99l39.85-48.8h51.24l-47.44,54.49l47.44,89.19h-49.88l-27.11-55.3l-14.1,16.26v39.04
		h-42.83V74.16z"/>
	<path class="st2" d="M817.4,74.16h42.83v216.87H817.4V74.16z"/>
	<path class="st2" d="M930.44,147.36v90.27c0,10.3,4.34,20.06,18.98,20.06c13.55,0,21.69-8.4,25.21-13.55v-96.78h42.83v103.01
		l2.44,40.66h-38.22l-3.25-18.16c-9.22,12.74-24.13,21.69-46.08,21.69c-32.8,0-44.46-23.86-44.46-49.88v-97.32H930.44z"/>
	<path class="st2" d="M1127.79,144.1v41.21h-7.32c-17.35,0-27.11,7.05-30.9,12.47v93.25h-42.83V188.02l-2.44-40.66h38.22l2.98,16.81
		c8.4-11.93,21.42-20.33,38.22-20.33C1125.08,143.83,1126.7,143.83,1127.79,144.1z"/>
	<path class="st2" d="M1237.03,159.55V74.16h42.83v176.21l2.44,40.66h-38.49l-2.98-17.08c-8.13,11.93-20.87,20.6-40.66,20.6
		c-39.31,0-53.4-29.01-53.4-70.48v-9.76c0-41.48,14.1-70.48,53.4-70.48C1216.97,143.83,1228.9,150.07,1237.03,159.55z
		 M1212.63,180.7c-16.81,0-23.31,12.47-23.31,33.62v9.76c0,21.15,6.51,33.62,23.31,33.62c12.74,0,20.87-8.4,24.4-13.55v-49.88
		C1233.51,189.1,1225.38,180.7,1212.63,180.7z"/>
</g>
</svg>
