<svg width="19" height="29" viewBox="0 0 19 29" fill="none" xmlns="http://www.w3.org/2000/svg">
<path d="M4.46442 6.60045C4.46499 6.62161 4.46982 6.64172 4.47892 6.66109C4.48185 6.66759 4.48409 6.67387 4.48814 6.67984C4.50219 6.70173 4.52006 6.72173 4.54524 6.73598C4.54558 6.73619 4.54625 6.73619 4.54659 6.7364C4.54704 6.73661 4.54715 6.73713 4.5476 6.73734L7.89221 8.56336C7.8948 8.56483 7.89783 8.5641 7.90064 8.56556C7.9247 8.57708 7.95122 8.58567 7.98056 8.58567C8.0099 8.58567 8.03642 8.57708 8.0607 8.56514C8.06374 8.56399 8.06722 8.56441 8.07014 8.56295L11.3553 6.73661C11.381 6.72236 11.399 6.70194 11.4136 6.67963C11.4176 6.67345 11.42 6.66769 11.4228 6.66109C11.4321 6.64161 11.4369 6.62161 11.4377 6.60045C11.4377 6.59595 11.4408 6.59228 11.4405 6.58799C11.4405 6.586 11.4388 6.58464 11.4384 6.58265C11.4363 6.55866 11.4299 6.5352 11.4159 6.51321L8.13062 1.38871C8.12938 1.38662 8.12724 1.38578 8.12578 1.38379C8.12185 1.37793 8.11701 1.37332 8.11218 1.36808C8.10611 1.36148 8.09993 1.35562 8.09285 1.34975C8.08745 1.34567 8.08262 1.34117 8.07689 1.33781C8.07464 1.33635 8.07352 1.33425 8.07127 1.333C8.06745 1.3308 8.06329 1.3308 8.05947 1.32902C8.05182 1.32525 8.04418 1.32252 8.03575 1.3198C8.02878 1.3175 8.02181 1.31519 8.01428 1.31383C8.00686 1.31226 7.99967 1.31194 7.99225 1.31163C7.9882 1.31121 7.98461 1.30933 7.98056 1.30933C7.97651 1.30933 7.97337 1.31121 7.96932 1.31142C7.96213 1.31205 7.95538 1.31215 7.94841 1.31352C7.94043 1.31488 7.93313 1.31729 7.92526 1.31969C7.91705 1.32231 7.90941 1.32514 7.90177 1.32891C7.89828 1.33069 7.89435 1.33069 7.89086 1.33247C7.88884 1.33362 7.8876 1.33561 7.88569 1.33677C7.87951 1.34054 7.87423 1.34514 7.86838 1.34986C7.86141 1.35551 7.85512 1.36106 7.84905 1.36766C7.84467 1.37269 7.83983 1.37719 7.83624 1.38253C7.83455 1.38463 7.83241 1.38568 7.83095 1.38777L4.48645 6.51237C4.47195 6.53437 4.46555 6.55835 4.4633 6.58275C4.46307 6.58485 4.4615 6.58621 4.46128 6.58841C4.46116 6.59239 4.4642 6.59616 4.46442 6.60045ZM8.15546 2.06246L10.8269 6.22991L8.15546 5.0881V2.06246ZM7.80578 5.08716L5.07881 6.232L7.80578 2.05367V5.08716ZM7.80578 5.44472V8.13825L5.01654 6.61564L7.80578 5.44472ZM8.15546 8.13563V5.4464L10.8904 6.61564L8.15546 8.13563Z" fill="#222222"/>
<path d="M11.4256 7.15647C11.3701 7.09992 11.2789 7.08871 11.2081 7.12652L7.98057 8.90206L4.75431 7.12652C4.68384 7.08829 4.59257 7.09992 4.53648 7.15647C4.48062 7.21345 4.47477 7.29828 4.52254 7.36123L7.83782 11.7134C7.8404 11.7168 7.84467 11.7178 7.84726 11.7209C7.85412 11.7286 7.86097 11.7354 7.86895 11.7418C7.87278 11.7447 7.87502 11.7492 7.87918 11.7519C7.88244 11.7541 7.8866 11.7531 7.89008 11.7552C7.8957 11.7582 7.90054 11.7626 7.90672 11.7655C7.92898 11.7755 7.95359 11.7819 7.97989 11.7819C7.98001 11.7819 7.98001 11.7819 7.98023 11.7819C7.98023 11.7819 7.98023 11.7819 7.98046 11.7819C7.98068 11.7819 7.98068 11.7819 7.98068 11.7819C7.98079 11.7819 7.98079 11.7819 7.98102 11.7819C8.00732 11.7819 8.03182 11.7754 8.05419 11.7655C8.06037 11.7627 8.06521 11.7583 8.07083 11.7552C8.0742 11.753 8.07836 11.7541 8.08173 11.7519C8.08589 11.7493 8.08814 11.7448 8.09196 11.7418C8.09994 11.7353 8.10691 11.7286 8.11354 11.7209C8.11612 11.7178 8.12051 11.7168 8.12298 11.7134L11.4395 7.36123C11.4875 7.29828 11.4815 7.21345 11.4256 7.15647ZM7.80578 9.18474V11.1079L5.28282 7.79597L7.80578 9.18474ZM8.15546 11.1079V9.18474L10.6794 7.79597L8.15546 11.1079Z" fill="#222222"/>
<path d="M18.5851 19.9779H17.3315C15.6559 19.9779 14.1633 18.9489 13.5292 17.3556C13.1092 16.2985 12.1188 15.6157 11.0073 15.6157H8.51087V13.1938H14.1468C15.2755 13.1938 16.1951 12.2499 16.1951 11.0899V2.10383C16.1951 0.943909 15.2761 0 14.1468 0H2.04837C0.919663 0 0 0.943909 0 2.10383V11.0906C0 12.2505 0.919026 13.1944 2.04837 13.1944H7.68426V15.6655C6.82641 15.8599 6.18271 16.646 6.18271 17.5847V18.7113C5.36438 18.7623 4.71112 19.4555 4.71112 20.3078C4.71112 20.7732 4.90615 21.1948 5.21589 21.4893C4.90615 21.7819 4.71112 22.2028 4.71112 22.6695C4.71112 23.1389 4.91061 23.5565 5.22417 23.851C4.91188 24.145 4.71112 24.5632 4.71112 25.0326C4.71112 25.498 4.90615 25.9189 5.21589 26.2128C4.90615 26.5067 4.71112 26.9276 4.71112 27.3943C4.71112 28.2806 5.41346 29 6.27513 29H12.3743C13.178 29 13.9575 28.8311 14.6923 28.496L15.0326 28.3415C15.4947 28.1307 15.9861 28.0247 16.494 28.0247H18.5864C18.8145 28.0247 19 27.8342 19 27.5992V20.404C18.9987 20.1684 18.8133 19.9779 18.5851 19.9779ZM0.828526 11.0899V2.10383C0.828526 1.41325 1.37599 0.850958 2.04837 0.850958H14.148C14.8204 0.850958 15.3672 1.41325 15.3672 2.10383V11.0906C15.3672 11.7812 14.8204 12.3435 14.148 12.3435H2.04837C1.37535 12.3428 0.828526 11.7812 0.828526 11.0899ZM6.18144 19.5714V20.622C6.18144 20.7719 6.20566 20.9159 6.24007 21.0553C5.8513 21.0363 5.53901 20.7117 5.53901 20.3071C5.53901 19.9242 5.82198 19.6198 6.18144 19.5714ZM5.53901 22.6689C5.53901 22.2519 5.86915 21.9135 6.27385 21.9135H6.73719C7.0431 22.2048 7.45099 22.3881 7.90031 22.3881C8.35026 22.3881 8.75815 22.2054 9.06407 21.9135H9.92191C10.3273 21.9135 10.6568 22.2526 10.6568 22.6689C10.6568 23.0845 10.3266 23.4243 9.92191 23.4243H6.27385C5.86915 23.4249 5.53901 23.0858 5.53901 22.6689ZM9.55863 21.0632C9.57011 21.0174 9.58158 20.9722 9.58923 20.9251C9.61663 20.9709 9.64149 21.0187 9.67017 21.0632H9.55863ZM9.92191 24.2752C10.3273 24.2752 10.6568 24.6143 10.6568 25.0306C10.6568 25.4469 10.3266 25.786 9.92191 25.786H6.27385C5.86851 25.786 5.53901 25.4469 5.53901 25.0306C5.53901 24.6143 5.86915 24.2752 6.27385 24.2752H9.92191ZM5.53901 27.3917C5.53901 26.9747 5.86915 26.6363 6.27385 26.6363H9.92191C10.3273 26.6363 10.6568 26.9754 10.6568 27.3917C10.6568 27.8074 10.3266 28.1471 9.92191 28.1471H6.27385C5.86915 28.1477 5.53901 27.8074 5.53901 27.3917ZM18.1708 27.1704H16.4928C15.8688 27.1704 15.2634 27.302 14.6955 27.5619L14.3558 27.7164C13.7274 28.0031 13.0607 28.1471 12.3737 28.1471H11.2934C11.4133 27.9206 11.4859 27.6666 11.4859 27.3917C11.4859 26.9224 11.2864 26.5047 10.9735 26.2102C11.2858 25.9163 11.4859 25.498 11.4859 25.03C11.4859 24.5606 11.2864 24.143 10.9735 23.8484C11.2074 23.6285 11.3782 23.3398 11.4483 23.0099C12.245 23.6324 13.1583 24.1057 14.1582 24.3754C14.1939 24.3858 14.229 24.3891 14.264 24.3891C14.4476 24.3891 14.6152 24.2628 14.6643 24.0723C14.7223 23.8445 14.5903 23.6121 14.3692 23.5519C12.1475 22.9523 10.377 21.2687 9.61918 19.0438V18.8572C9.61918 18.6222 9.43372 18.4318 9.20556 18.4318C8.97676 18.4318 8.79129 18.6222 8.79129 18.8572V20.6213C8.79129 21.1254 8.39169 21.5351 7.90095 21.5351C7.4102 21.5351 7.01124 21.1247 7.01124 20.6213V17.5821C7.01124 16.9661 7.49943 16.4647 8.09916 16.4647H11.0086C11.7829 16.4647 12.4712 16.9393 12.7644 17.6757C13.5254 19.5897 15.3188 20.8269 17.3328 20.8269H18.1715L18.1708 27.1704Z" fill="#222222"/>
</svg>
