<svg width="18" height="15" viewBox="0 0 18 15" fill="none" xmlns="http://www.w3.org/2000/svg">
<mask id="path-1-inside-1_391_182" fill="white">
<path d="M6.48837 0C6.31141 0.00520455 6.17333 0.144491 6.11556 0.24858L5.18023 2.27273H1.67442C0.754033 2.27273 0 3.0915 0 4.09091V13.1818C0 14.1812 0.754033 15 1.67442 15H16.3256C17.246 15 18 14.1812 18 13.1818V4.09091C18 3.0915 17.246 2.27273 16.3256 2.27273H12.8198L11.8844 0.24858C11.8149 0.100055 11.6651 0.000152273 11.5116 0H6.48837V0ZM6.74347 0.909091H11.2565L12.1853 2.92614C12.253 3.07728 12.4033 3.18036 12.5581 3.18182H16.3256C16.7966 3.18182 17.1628 3.57941 17.1628 4.09091V13.1818C17.1628 13.6933 16.7966 14.0909 16.3256 14.0909H1.67442C1.20336 14.0909 0.837209 13.6933 0.837209 13.1818V4.09091C0.837209 3.57941 1.20336 3.18182 1.67442 3.18182H5.44186C5.59666 3.17955 5.74696 3.07728 5.81467 2.92614L6.74347 0.909091V0.909091ZM9 4.31818C6.92429 4.31818 5.23256 6.15511 5.23256 8.40909C5.23256 10.663 6.92429 12.5 9 12.5C11.0758 12.5 12.7674 10.663 12.7674 8.40909C12.7674 6.15513 11.0758 4.31818 9 4.31818V4.31818ZM9 5.22727C10.6233 5.22727 11.9302 6.64643 11.9302 8.40909C11.9302 10.1717 10.6233 11.5909 9 11.5909C7.37676 11.5909 6.06977 10.1717 6.06977 8.40909C6.06977 6.64645 7.37676 5.22727 9 5.22727Z"/>
</mask>
<path d="M6.48837 0C6.31141 0.00520455 6.17333 0.144491 6.11556 0.24858L5.18023 2.27273H1.67442C0.754033 2.27273 0 3.0915 0 4.09091V13.1818C0 14.1812 0.754033 15 1.67442 15H16.3256C17.246 15 18 14.1812 18 13.1818V4.09091C18 3.0915 17.246 2.27273 16.3256 2.27273H12.8198L11.8844 0.24858C11.8149 0.100055 11.6651 0.000152273 11.5116 0H6.48837V0ZM6.74347 0.909091H11.2565L12.1853 2.92614C12.253 3.07728 12.4033 3.18036 12.5581 3.18182H16.3256C16.7966 3.18182 17.1628 3.57941 17.1628 4.09091V13.1818C17.1628 13.6933 16.7966 14.0909 16.3256 14.0909H1.67442C1.20336 14.0909 0.837209 13.6933 0.837209 13.1818V4.09091C0.837209 3.57941 1.20336 3.18182 1.67442 3.18182H5.44186C5.59666 3.17955 5.74696 3.07728 5.81467 2.92614L6.74347 0.909091V0.909091ZM9 4.31818C6.92429 4.31818 5.23256 6.15511 5.23256 8.40909C5.23256 10.663 6.92429 12.5 9 12.5C11.0758 12.5 12.7674 10.663 12.7674 8.40909C12.7674 6.15513 11.0758 4.31818 9 4.31818V4.31818ZM9 5.22727C10.6233 5.22727 11.9302 6.64643 11.9302 8.40909C11.9302 10.1717 10.6233 11.5909 9 11.5909C7.37676 11.5909 6.06977 10.1717 6.06977 8.40909C6.06977 6.64645 7.37676 5.22727 9 5.22727Z" fill="white"/>
<path d="M6.11556 0.24858L4.36682 -0.721939L4.33099 -0.65738L4.30002 -0.590356L6.11556 0.24858ZM5.18023 2.27273V4.27273H6.45926L6.99577 3.11166L5.18023 2.27273ZM12.8198 2.27273L11.0042 3.11166L11.5407 4.27273H12.8198V2.27273ZM11.8844 0.24858L13.7 -0.590366L13.6958 -0.59938L11.8844 0.24858ZM11.5116 0L11.5136 -2H11.5116V0ZM11.2565 0.909091L13.0732 0.0725664L12.5374 -1.09091H11.2565V0.909091ZM12.1853 2.92614L14.0105 2.10846L14.0063 2.09902L14.002 2.08961L12.1853 2.92614ZM12.5581 3.18182L12.5393 5.18173L12.5487 5.18182H12.5581V3.18182ZM5.44186 3.18182V5.18182H5.45654L5.47122 5.1816L5.44186 3.18182ZM5.81467 2.92614L3.99802 2.08961L3.99369 2.09901L3.98946 2.10845L5.81467 2.92614ZM6.42958 -1.99914C5.26152 -1.96478 4.60076 -1.14347 4.36682 -0.721939L7.8643 1.2191C7.76509 1.39786 7.63433 1.55283 7.46663 1.68014C7.29192 1.81278 6.97865 1.98645 6.54717 1.99914L6.42958 -1.99914ZM4.30002 -0.590356L3.36469 1.43379L6.99577 3.11166L7.9311 1.08752L4.30002 -0.590356ZM5.18023 0.272727H1.67442V4.27273H5.18023V0.272727ZM1.67442 0.272727C-0.502447 0.272727 -2 2.14522 -2 4.09091H2C2 4.0961 1.99776 4.12441 1.96324 4.16189C1.9268 4.20147 1.82788 4.27273 1.67442 4.27273V0.272727ZM-2 4.09091V13.1818H2V4.09091H-2ZM-2 13.1818C-2 15.1275 -0.502447 17 1.67442 17V13C1.82788 13 1.9268 13.0713 1.96324 13.1108C1.99776 13.1483 2 13.1766 2 13.1818H-2ZM1.67442 17H16.3256V13H1.67442V17ZM16.3256 17C18.5024 17 20 15.1275 20 13.1818H16C16 13.1766 16.0022 13.1483 16.0368 13.1108C16.0732 13.0713 16.1721 13 16.3256 13V17ZM20 13.1818V4.09091H16V13.1818H20ZM20 4.09091C20 2.14522 18.5024 0.272727 16.3256 0.272727V4.27273C16.1721 4.27273 16.0732 4.20147 16.0368 4.16189C16.0022 4.12441 16 4.0961 16 4.09091H20ZM16.3256 0.272727H12.8198V4.27273H16.3256V0.272727ZM14.6353 1.43379L13.7 -0.590356L10.0689 1.08752L11.0042 3.11166L14.6353 1.43379ZM13.6958 -0.59938C13.3262 -1.38887 12.508 -1.99901 11.5136 -2L11.5096 2C10.8221 1.99932 10.3036 1.58898 10.0731 1.09654L13.6958 -0.59938ZM11.5116 -2H6.48837V2H11.5116V-2ZM6.74347 2.90909H11.2565V-1.09091H6.74347V2.90909ZM9.43988 1.74562L10.3687 3.76266L14.002 2.08961L13.0732 0.0725664L9.43988 1.74562ZM10.3601 3.74381C10.7188 4.54444 11.5357 5.1723 12.5393 5.18173L12.5769 1.18191C13.2709 1.18843 13.7873 1.61011 14.0105 2.10846L10.3601 3.74381ZM12.5581 5.18182H16.3256V1.18182H12.5581V5.18182ZM16.3256 5.18182C15.5402 5.18182 15.1628 4.52569 15.1628 4.09091H19.1628C19.1628 2.63313 18.0531 1.18182 16.3256 1.18182V5.18182ZM15.1628 4.09091V13.1818H19.1628V4.09091H15.1628ZM15.1628 13.1818C15.1628 12.747 15.5402 12.0909 16.3256 12.0909V16.0909C18.0531 16.0909 19.1628 14.6396 19.1628 13.1818H15.1628ZM16.3256 12.0909H1.67442V16.0909H16.3256V12.0909ZM1.67442 12.0909C2.45984 12.0909 2.83721 12.747 2.83721 13.1818H-1.16279C-1.16279 14.6396 -0.0531175 16.0909 1.67442 16.0909V12.0909ZM2.83721 13.1818V4.09091H-1.16279V13.1818H2.83721ZM2.83721 4.09091C2.83721 4.52569 2.45984 5.18182 1.67442 5.18182V1.18182C-0.0531175 1.18182 -1.16279 2.63313 -1.16279 4.09091H2.83721ZM1.67442 5.18182H5.44186V1.18182H1.67442V5.18182ZM5.47122 5.1816C6.45949 5.16709 7.27779 4.55207 7.63988 3.74382L3.98946 2.10845C4.21613 1.60248 4.73383 1.192 5.4125 1.18203L5.47122 5.1816ZM7.63132 3.76266L8.56012 1.74561L4.92682 0.072567L3.99802 2.08961L7.63132 3.76266ZM9 2.31818C5.66782 2.31818 3.23256 5.20882 3.23256 8.40909H7.23256C7.23256 7.1014 8.18075 6.31818 9 6.31818V2.31818ZM3.23256 8.40909C3.23256 11.6093 5.66781 14.5 9 14.5V10.5C8.18076 10.5 7.23256 9.71676 7.23256 8.40909H3.23256ZM9 14.5C12.3322 14.5 14.7674 11.6093 14.7674 8.40909H10.7674C10.7674 9.71678 9.81927 10.5 9 10.5V14.5ZM14.7674 8.40909C14.7674 5.20886 12.3322 2.31818 9 2.31818V6.31818C9.81927 6.31818 10.7674 7.1014 10.7674 8.40909H14.7674ZM9 7.22727C9.36681 7.22727 9.93023 7.59271 9.93023 8.40909H13.9302C13.9302 5.70015 11.8798 3.22727 9 3.22727V7.22727ZM9.93023 8.40909C9.93023 9.22546 9.3668 9.59091 9 9.59091V13.5909C11.8798 13.5909 13.9302 11.118 13.9302 8.40909H9.93023ZM9 9.59091C8.63323 9.59091 8.06977 9.22544 8.06977 8.40909H4.06977C4.06977 11.118 6.12028 13.5909 9 13.5909V9.59091ZM8.06977 8.40909C8.06977 7.59274 8.63322 7.22727 9 7.22727V3.22727C6.12029 3.22727 4.06977 5.70016 4.06977 8.40909H8.06977Z" fill="white" mask="url(#path-1-inside-1_391_182)"/>
</svg>
