<svg width="14" height="14" viewBox="0 0 14 14" fill="none" xmlns="http://www.w3.org/2000/svg">
<path d="M1.41232 0.00019081C0.633194 0.00019081 0 0.650442 0 1.45076V8.60686C0 9.40721 0.633194 10.0576 1.41235 10.0576H3.76161C3.78679 10.058 3.81179 10.0532 3.83514 10.0435C3.8585 10.0338 3.87976 10.0195 3.89768 10.0013C3.9156 9.98312 3.92982 9.96147 3.93954 9.9376C3.94925 9.91374 3.95425 9.88812 3.95425 9.86225C3.95425 9.83638 3.94925 9.81077 3.93954 9.7869C3.92982 9.76303 3.9156 9.74139 3.89768 9.72321C3.87976 9.70503 3.8585 9.69069 3.83514 9.68102C3.81179 9.67135 3.78679 9.66654 3.76161 9.66686H1.41235C0.837381 9.66686 0.380434 9.19747 0.380434 8.60686V1.45076C0.380434 0.86015 0.837381 0.390779 1.41235 0.390779H8.36486C8.93983 0.390779 9.39678 0.86015 9.39678 1.45076V3.3265C9.39646 3.35237 9.40115 3.37804 9.41056 3.40203C9.41998 3.42602 9.43394 3.44786 9.45163 3.46627C9.46933 3.48467 9.49041 3.49929 9.51364 3.50927C9.53688 3.51924 9.56181 3.52438 9.587 3.52438C9.61218 3.52438 9.63711 3.51924 9.66035 3.50927C9.68359 3.49929 9.70466 3.48467 9.72236 3.46627C9.74005 3.44786 9.75401 3.42602 9.76343 3.40203C9.77285 3.37804 9.77753 3.35237 9.77721 3.3265V1.45076C9.77721 0.650411 9.144 0 8.36486 0H1.41235L1.41232 0.00019081ZM5.63042 3.94237C4.85126 3.94237 4.21807 4.59278 4.21807 5.39313V12.5492C4.21807 13.3496 4.85126 14 5.63042 14H12.5876C13.3668 14 14 13.3496 14 12.5492V5.39313C14 4.59278 13.3668 3.94237 12.5876 3.94237H5.63042ZM5.63042 4.33315H12.5876C13.1626 4.33315 13.6196 4.80252 13.6196 5.39313V12.5492C13.6196 13.1399 13.1626 13.6092 12.5876 13.6092H5.63042C5.05545 13.6092 4.5985 13.1399 4.5985 12.5492V5.39313C4.5985 4.80252 5.05545 4.33315 5.63042 4.33315Z" fill="#6D6D6D"/>
</svg>
