<svg width="291" height="170" viewBox="0 0 291 170" fill="none" xmlns="http://www.w3.org/2000/svg">
<path d="M44.8548 145.743C47.2377 154.893 55.3994 160.56 55.3994 160.56C55.3994 160.56 59.6979 151.391 57.315 142.242C54.9322 133.092 46.7704 127.425 46.7704 127.425C46.7704 127.425 42.472 136.593 44.8548 145.743Z" fill="#5B1F71"/>
<path d="M48.3564 143.777C54.8949 150.388 55.6935 160.552 55.6935 160.552C55.6935 160.552 45.8911 159.996 39.3526 153.384C32.814 146.773 32.0154 136.609 32.0154 136.609C32.0154 136.609 41.8178 137.165 48.3564 143.777Z" fill="#742D5C"/>
<path d="M261.81 169.262H31.5686V170H261.81V169.262Z" fill="#2F2E41"/>
<path d="M58.6263 169.631H49.3882V160.035H58.6263V169.631ZM50.0988 168.893H57.9157V160.773H50.0988V168.893Z" fill="#3F3D56"/>
<path d="M78.2917 0H0V81.3267H78.2917V0Z" fill="#CECECE"/>
<path d="M78.2916 20.2337V22.1003C77.0984 21.2791 76.1352 20.145 75.4995 18.8129C74.4572 16.5985 74.4902 14.046 74.5233 11.5768C74.561 8.64219 74.5987 5.87414 72.8065 4.07124C70.8351 2.09194 67.6798 2.37119 64.6283 2.64068C64.2699 2.67007 63.9114 2.70434 63.5577 2.73373C60.4968 2.97382 57.0868 2.17034 55.4314 0H57.4972C59.0111 1.05821 61.3269 1.43056 63.4539 1.26397C63.7982 1.23948 64.152 1.20518 64.5057 1.17579C67.7176 0.891655 71.3586 0.568292 73.7875 3.01299C76.0231 5.25683 75.9806 8.48051 75.9382 11.5964C75.9052 13.8941 75.8769 16.2653 76.773 18.1662C77.1447 18.9515 77.6606 19.6538 78.2916 20.2337Z" fill="#837575"/>
<path d="M78.2919 33.143V35.3281C77.9484 34.8618 77.5631 34.4304 77.1411 34.0396C74.7075 31.8105 71.2127 31.3206 67.8358 30.8404C67.3971 30.7816 66.9679 30.718 66.5388 30.6543C61.063 29.8361 57.6673 27.8813 56.1627 24.6919C55.1204 22.4775 55.1534 19.925 55.1864 17.4558C55.2242 14.5212 55.2619 11.7532 53.4697 9.95027C51.4982 7.97097 48.343 8.25023 45.2915 8.51971C44.9331 8.54911 44.5746 8.58337 44.2209 8.61277C40.2874 8.9214 35.7739 7.50557 35.156 3.6793C34.9438 2.36629 35.2598 1.16111 35.7267 0H37.2737C36.7549 1.16601 36.3681 2.29283 36.5521 3.43434C37.019 6.35425 40.8015 7.40268 44.1171 7.14301C44.4614 7.11852 44.8152 7.08422 45.1689 7.05483C48.3807 6.77069 52.0217 6.44733 54.4507 8.89202C56.6862 11.1359 56.6438 14.3595 56.6014 17.4754C56.5683 19.7732 56.54 22.1444 57.4362 24.0452C58.719 26.7692 61.7611 28.4545 66.7415 29.1992C67.166 29.2629 67.5952 29.3266 68.0244 29.3854C71.6088 29.89 75.3206 30.4142 78.0797 32.9373C78.1504 33.001 78.2212 33.0696 78.2919 33.143Z" fill="#FDFDFD"/>
<path d="M78.2917 69.9752V72.9931C76.5891 71.1118 75.1647 68.53 74.0753 65.3014C73.8442 64.6155 73.6225 63.9149 73.4008 63.2143C72.1793 59.3783 70.9153 55.4148 67.9062 52.8819C64.6897 50.1776 60.0818 49.5799 55.6248 49.0017C55.0541 48.9283 54.4835 48.8548 53.9175 48.7764C46.692 47.7818 42.2162 45.4156 40.2306 41.5452C38.8534 38.8555 38.8958 35.7592 38.9383 32.7658C38.9902 29.209 39.0421 25.8482 36.6745 23.6631C34.0757 21.2625 29.9112 21.6005 25.8881 21.9288C25.4118 21.968 24.9401 22.0072 24.4779 22.0415C19.2852 22.4138 13.3284 20.6991 12.5172 16.0595C12.1163 13.7863 13.1398 11.7728 14.1255 9.82288C14.6915 8.70585 15.2291 7.64274 15.5027 6.55022C16.0781 4.30148 15.3659 1.7686 13.7859 0H16.0969C16.7638 1.0061 17.2176 2.14777 17.4281 3.34956C17.6387 4.55135 17.6013 5.78588 17.3184 6.97154C16.993 8.25023 16.3893 9.44563 15.8045 10.6019C14.9037 12.3754 14.0594 14.0509 14.3566 15.7656C14.9791 19.3028 19.9644 20.5766 24.3364 20.2631C24.7939 20.2288 25.2608 20.1896 25.7277 20.1553C29.9631 19.8074 34.7643 19.4204 37.9714 22.3844C40.9192 25.1035 40.8626 29.013 40.806 32.7903C40.7682 35.578 40.7258 38.4538 41.9049 40.7613C43.5981 44.0585 47.6164 46.1063 54.1863 47.0127C54.7429 47.0911 55.3088 47.1645 55.8748 47.238C60.61 47.8504 65.5009 48.4824 69.1372 51.5444C72.5472 54.4154 73.8913 58.6238 75.1836 62.695C75.4053 63.3907 75.6269 64.0766 75.8533 64.7576C76.453 66.5958 77.2722 68.3487 78.2917 69.9752Z" fill="#837575"/>
<path d="M0 32.8393C2.15067 35.5436 6.7114 36.5431 10.8005 36.2492C11.2627 36.2149 11.7343 36.1757 12.2107 36.1365C16.2337 35.8082 20.3983 35.4702 22.997 37.8708C25.3646 40.0558 25.3128 43.4167 25.2609 46.9735C25.2184 49.9669 25.176 53.0632 26.5532 55.7529C28.5387 59.6232 33.0146 61.9895 40.2401 62.9841C40.806 63.0625 41.3767 63.1359 41.9474 63.2094C46.4044 63.7875 51.0123 64.3852 54.2288 67.0896C57.2379 69.6225 58.5019 73.5859 59.7234 77.422C59.9451 78.1226 60.1667 78.8232 60.3978 79.5091C60.6101 80.1411 60.8365 80.7437 61.0723 81.3267H63.0909C62.7372 80.5281 62.4353 79.7295 62.1759 78.9653C61.9495 78.2843 61.7278 77.5984 61.5062 76.9027C60.2139 72.8315 58.8697 68.6231 55.4598 65.7521C51.8235 62.6901 46.9326 62.0581 42.1974 61.4457C41.6314 61.3722 41.0654 61.2988 40.5089 61.2204C33.939 60.314 29.9207 58.2662 28.2275 54.969C27.0484 52.6615 27.0908 49.7857 27.1286 46.998C27.1852 43.2207 27.2418 39.3112 24.294 36.5921C21.0869 33.6281 16.2856 34.0151 12.0503 34.363C11.5834 34.3973 11.1165 34.4365 10.659 34.4708C6.28693 34.7843 1.30173 33.5105 0.679168 29.9733C0.382047 28.2586 1.22627 26.5831 2.12709 24.8096C2.71192 23.6534 3.31562 22.4579 3.64105 21.1793C4.52773 17.6812 3.03264 13.806 1.06126e-05 11.6895V14.0901C1.65546 15.8636 2.41008 18.4553 1.82525 20.7579C1.5517 21.8504 1.01403 22.9136 0.448066 24.0306C0.297143 24.3294 0.146214 24.6234 1.06126e-05 24.9271L0 32.8393Z" fill="#FDFDFD"/>
<path d="M34.6323 81.3266H32.675C32.5713 81.0082 32.4722 80.6849 32.3684 80.3615C31.1469 76.5254 29.8829 72.562 26.8739 70.0291C23.6573 67.3247 19.0494 66.727 14.5924 66.1489C14.0218 66.0754 13.4511 66.0019 12.8851 65.9236C6.50858 65.0466 2.26857 63.0967 0 59.9907V55.116C0.145799 56.0891 0.440351 57.0319 0.872516 57.9085C2.56571 61.2056 6.58406 63.2535 13.154 64.1598C13.7105 64.2383 14.2765 64.3117 14.8424 64.3852C19.5777 64.9976 24.4685 65.6296 28.1049 68.6916C31.5148 71.5626 32.8589 75.7709 34.1512 79.8422C34.3116 80.3419 34.4672 80.8367 34.6323 81.3266Z" fill="#837575"/>
<path d="M184.41 0H106.118V81.3267H184.41V0Z" fill="#383743"/>
<path d="M143.849 5.87905C143.849 10.4609 142.682 14.9612 140.466 18.9229C138.25 22.8846 135.064 26.1667 131.232 28.436C127.4 30.7054 123.059 31.8811 118.648 31.8439C114.237 31.8067 109.914 30.5579 106.118 28.2243V0H143.203C143.635 1.92747 143.852 3.90011 143.849 5.87905Z" fill="#585858"/>
<path d="M164.13 37.7238C172.465 37.7238 179.222 30.7048 179.222 22.0464C179.222 13.388 172.465 6.36897 164.13 6.36897C155.794 6.36897 149.037 13.388 149.037 22.0464C149.037 30.7048 155.794 37.7238 164.13 37.7238Z" fill="#FDFDFD"/>
<path d="M130.172 66.6291C136.163 66.6291 141.02 61.5841 141.02 55.3609C141.02 49.1377 136.163 44.0927 130.172 44.0927C124.181 44.0927 119.324 49.1377 119.324 55.3609C119.324 61.5841 124.181 66.6291 130.172 66.6291Z" fill="#C9BEBE"/>
<path d="M184.41 68.0008V81.3266H168.889C168.229 79.1831 168.203 76.8837 168.813 74.7245C169.423 72.5654 170.642 70.6454 172.312 69.2118C173.981 67.7783 176.026 66.8968 178.182 66.681C180.338 66.4652 182.508 66.9249 184.41 68.0008H184.41Z" fill="#BABABA"/>
<path d="M157.527 57.8105C159.089 57.8105 160.356 56.4944 160.356 54.871C160.356 53.2475 159.089 51.9315 157.527 51.9315C155.964 51.9315 154.697 53.2475 154.697 54.871C154.697 56.4944 155.964 57.8105 157.527 57.8105Z" fill="#837575"/>
<path d="M291 0H212.708V81.3267H291V0Z" fill="#3F3D56"/>
<path d="M250.911 0V33.3145H212.708V35.2742H252.797V0H250.911Z" fill="#FDE8E8"/>
<path d="M287.76 81.3266L291 76.5401V73.1352L285.454 81.3266H287.76ZM274.601 46.2582L257.24 71.9055L270.14 81.3266H273.417L259.867 71.4303L275.059 48.987L291 60.6324V58.2367L274.601 46.2582Z" fill="#E3D2D2"/>
<path d="M245.723 43.01L235.719 53.4012L245.723 63.7924L255.726 53.4012L245.723 43.01ZM238.384 53.4012L245.723 45.7781L253.062 53.4012L245.723 61.0244L238.384 53.4012Z" fill="#F3F3F3"/>
<path d="M140.881 43.0624C144.609 43.0624 147.632 39.9227 147.632 36.0498C147.632 32.1768 144.609 29.0371 140.881 29.0371C137.153 29.0371 134.13 32.1768 134.13 36.0498C134.13 39.9227 137.153 43.0624 140.881 43.0624Z" fill="#FFB8B8"/>
<path d="M94.9533 164.065C96.5019 164.065 97.7572 162.761 97.7572 161.153C97.7572 159.544 96.5019 158.24 94.9533 158.24C93.4048 158.24 92.1494 159.544 92.1494 161.153C92.1494 162.761 93.4048 164.065 94.9533 164.065Z" fill="#CECECE"/>
<path d="M94.9532 169.567C93.3511 169.567 91.785 169.073 90.453 168.149C89.1209 167.224 88.0827 165.91 87.4696 164.373C86.8565 162.835 86.6961 161.143 87.0087 159.511C87.3212 157.879 88.0927 156.38 89.2255 155.203C90.3583 154.026 91.8016 153.225 93.3729 152.9C94.9442 152.576 96.5729 152.742 98.053 153.379C99.5331 154.016 100.798 155.094 101.688 156.478C102.578 157.862 103.053 159.489 103.053 161.153C103.051 163.384 102.197 165.522 100.678 167.1C99.1596 168.677 97.1007 169.564 94.9532 169.567ZM94.9532 153.386C93.4744 153.386 92.0287 153.841 90.7992 154.695C89.5696 155.548 88.6112 156.761 88.0453 158.18C87.4794 159.6 87.3313 161.161 87.6198 162.668C87.9083 164.175 88.6204 165.559 89.6661 166.645C90.7118 167.731 92.0441 168.471 93.4945 168.77C94.9449 169.07 96.4483 168.916 97.8145 168.328C99.1808 167.741 100.349 166.745 101.17 165.468C101.992 164.191 102.43 162.689 102.43 161.153C102.428 159.094 101.639 157.119 100.238 155.663C98.836 154.207 96.9355 153.388 94.9532 153.386Z" fill="#2F2E41"/>
<path d="M231.393 164.434C232.942 164.434 234.197 163.13 234.197 161.522C234.197 159.913 232.942 158.609 231.393 158.609C229.845 158.609 228.589 159.913 228.589 161.522C228.589 163.13 229.845 164.434 231.393 164.434Z" fill="#CECECE"/>
<path d="M231.393 169.936C229.791 169.936 228.225 169.443 226.893 168.518C225.561 167.593 224.522 166.279 223.909 164.742C223.296 163.204 223.136 161.513 223.448 159.88C223.761 158.248 224.532 156.749 225.665 155.572C226.798 154.395 228.241 153.594 229.813 153.269C231.384 152.945 233.013 153.111 234.493 153.748C235.973 154.385 237.238 155.463 238.128 156.847C239.018 158.231 239.493 159.858 239.493 161.522C239.491 163.753 238.636 165.891 237.118 167.469C235.599 169.046 233.54 169.933 231.393 169.936ZM231.393 153.755C229.914 153.755 228.468 154.21 227.239 155.064C226.009 155.917 225.051 157.13 224.485 158.55C223.919 159.969 223.771 161.53 224.059 163.037C224.348 164.544 225.06 165.928 226.106 167.014C227.151 168.1 228.484 168.84 229.934 169.14C231.385 169.439 232.888 169.285 234.254 168.698C235.62 168.11 236.788 167.114 237.61 165.837C238.431 164.56 238.87 163.058 238.87 161.522C238.868 159.463 238.079 157.488 236.677 156.032C235.276 154.576 233.375 153.757 231.393 153.755V153.755Z" fill="#2F2E41"/>
<path d="M231.393 148.195C232.942 148.195 234.197 146.891 234.197 145.282C234.197 143.674 232.942 142.37 231.393 142.37C229.845 142.37 228.589 143.674 228.589 145.282C228.589 146.891 229.845 148.195 231.393 148.195Z" fill="#CECECE"/>
<path d="M231.393 153.696C229.791 153.696 228.225 153.203 226.893 152.278C225.561 151.354 224.522 150.04 223.909 148.502C223.296 146.965 223.136 145.273 223.448 143.641C223.761 142.008 224.532 140.509 225.665 139.332C226.798 138.156 228.241 137.354 229.813 137.03C231.384 136.705 233.013 136.872 234.493 137.508C235.973 138.145 237.238 139.224 238.128 140.607C239.018 141.991 239.493 143.618 239.493 145.282C239.491 147.513 238.636 149.652 237.118 151.229C235.599 152.806 233.54 153.694 231.393 153.696ZM231.393 137.515C229.914 137.515 228.468 137.971 227.239 138.824C226.009 139.678 225.051 140.891 224.485 142.31C223.919 143.729 223.771 145.291 224.059 146.797C224.348 148.304 225.06 149.688 226.106 150.774C227.151 151.86 228.484 152.6 229.934 152.9C231.385 153.199 232.888 153.046 234.254 152.458C235.62 151.87 236.788 150.874 237.61 149.597C238.431 148.32 238.87 146.818 238.87 145.282C238.868 143.223 238.079 141.249 236.677 139.793C235.276 138.337 233.375 137.518 231.393 137.515Z" fill="#2F2E41"/>
</svg>
