<svg width="23" height="33" viewBox="0 0 23 33" fill="none" xmlns="http://www.w3.org/2000/svg">
<path d="M0.610163 16.3664C0.611959 16.431 0.627403 16.4925 0.656493 16.5517C0.665831 16.5715 0.673013 16.5907 0.685942 16.6089C0.730835 16.6758 0.787939 16.7369 0.868386 16.7805C0.869464 16.7811 0.871618 16.7811 0.872696 16.7817C0.874132 16.7824 0.874492 16.784 0.875928 16.7846L11.5625 22.3638C11.5708 22.3683 11.5805 22.3661 11.5895 22.3705C11.6663 22.4057 11.7511 22.432 11.8448 22.432C11.9385 22.432 12.0233 22.4057 12.1009 22.3693C12.1106 22.3657 12.1217 22.367 12.131 22.3625L22.6276 16.7824C22.7099 16.7389 22.7674 16.6765 22.814 16.6083C22.8266 16.5894 22.8345 16.5718 22.8435 16.5517C22.8729 16.4921 22.8884 16.431 22.8909 16.3664C22.8909 16.3526 22.901 16.3414 22.8999 16.3283C22.8999 16.3222 22.8945 16.3181 22.8931 16.312C22.8866 16.2387 22.8661 16.167 22.8212 16.0998L12.3243 0.442542C12.3203 0.436142 12.3135 0.433582 12.3088 0.427502C12.2962 0.409582 12.2808 0.395502 12.2654 0.379502C12.246 0.359342 12.2262 0.341422 12.2036 0.323502C12.1863 0.311022 12.1709 0.297262 12.1526 0.287022C12.1454 0.282542 12.1418 0.276142 12.1346 0.272302C12.1224 0.265582 12.1091 0.265582 12.0969 0.260142C12.0725 0.248622 12.0481 0.240302 12.0211 0.231982C11.9989 0.224942 11.9766 0.217902 11.9525 0.213742C11.9288 0.208942 11.9059 0.207982 11.8822 0.207022C11.8692 0.205742 11.8577 0.199982 11.8448 0.199982C11.8319 0.199982 11.8218 0.205742 11.8089 0.206382C11.7859 0.208302 11.7644 0.208622 11.7421 0.212782C11.7166 0.216942 11.6932 0.224302 11.6681 0.231662C11.6419 0.239662 11.6175 0.248302 11.593 0.259822C11.5819 0.265262 11.5693 0.265262 11.5582 0.270702C11.5517 0.274222 11.5478 0.280302 11.5417 0.283822C11.5219 0.295342 11.5051 0.309422 11.4864 0.323822C11.4641 0.341102 11.444 0.358062 11.4246 0.378222C11.4106 0.393582 11.3952 0.407342 11.3837 0.423662C11.3783 0.430062 11.3715 0.433262 11.3668 0.439662L0.680555 16.0973C0.634226 16.1645 0.613755 16.2377 0.606572 16.3123C0.605854 16.3187 0.600826 16.3229 0.600107 16.3296C0.599748 16.3417 0.609445 16.3533 0.610163 16.3664ZM12.4036 2.5011L20.9393 15.2342L12.4036 11.7456V2.5011ZM11.2863 11.7427L2.57323 15.2406L11.2863 2.47422V11.7427ZM11.2863 12.8352V21.0649L2.37426 16.4128L11.2863 12.8352ZM12.4036 21.0569V12.8403L21.1422 16.4128L12.4036 21.0569Z" fill="#444444"/>
<path d="M22.8522 18.0675C22.6751 17.8947 22.3835 17.8605 22.1572 17.976L11.8449 23.401L1.53646 17.976C1.31127 17.8592 1.01965 17.8947 0.840441 18.0675C0.661948 18.2416 0.643272 18.5008 0.795907 18.6931L11.3888 31.9907C11.397 32.001 11.4107 32.0042 11.4189 32.0134C11.4408 32.0371 11.4627 32.0579 11.4882 32.0774C11.5005 32.0864 11.5076 32.1002 11.5209 32.1082C11.5313 32.1149 11.5446 32.112 11.5558 32.1184C11.5737 32.1277 11.5892 32.1411 11.6089 32.1498C11.68 32.1805 11.7587 32.2 11.8427 32.2C11.8431 32.2 11.8431 32.2 11.8438 32.2C11.8438 32.2 11.8438 32.2 11.8445 32.2C11.8452 32.2 11.8452 32.2 11.8452 32.2C11.8456 32.2 11.8456 32.2 11.8463 32.2C11.9304 32.2 12.0086 32.1802 12.0801 32.1498C12.0999 32.1414 12.1153 32.128 12.1333 32.1184C12.144 32.1117 12.1573 32.1149 12.1681 32.1082C12.1814 32.1005 12.1886 32.0867 12.2008 32.0774C12.2263 32.0576 12.2486 32.0371 12.2697 32.0134C12.278 32.0042 12.292 32.001 12.2999 31.9907L22.8967 18.6931C23.0501 18.5008 23.031 18.2416 22.8522 18.0675ZM11.2864 24.2646V30.1405L3.22514 20.0214L11.2864 24.2646ZM12.4037 30.1405V24.2646L20.4682 20.0214L12.4037 30.1405Z" fill="#444444"/>
</svg>
