<svg width="15" height="20" viewBox="0 0 15 20" fill="none" xmlns="http://www.w3.org/2000/svg">
<path d="M0.766049 10.104C0.767127 10.1444 0.776393 10.1828 0.793847 10.2198C0.79945 10.2322 0.803759 10.2442 0.811516 10.2556C0.838452 10.2974 0.872714 10.3356 0.920983 10.3628C0.921629 10.3632 0.922922 10.3632 0.923569 10.3636C0.92443 10.364 0.924646 10.365 0.925508 10.3654L7.33746 13.8524C7.34242 13.8552 7.34824 13.8538 7.35363 13.8566C7.39974 13.8786 7.45059 13.895 7.50683 13.895C7.56308 13.895 7.61393 13.8786 7.66048 13.8558C7.66629 13.8536 7.67297 13.8544 7.67858 13.8516L13.9765 10.364C14.0259 10.3368 14.0604 10.2978 14.0884 10.2552C14.0959 10.2434 14.1007 10.2324 14.106 10.2198C14.1237 10.1826 14.133 10.1444 14.1345 10.104C14.1345 10.0954 14.1405 10.0884 14.1399 10.0802C14.1399 10.0764 14.1366 10.0738 14.1358 10.07C14.1319 10.0242 14.1196 9.9794 14.0927 9.9374L7.79451 0.1516C7.79214 0.1476 7.78804 0.146 7.78524 0.1422C7.7777 0.131 7.76843 0.1222 7.75917 0.1122C7.74753 0.0996 7.73568 0.0884 7.7221 0.0772C7.71176 0.0694 7.70249 0.0608 7.6915 0.0544C7.6872 0.0516 7.68504 0.0476 7.68073 0.0452C7.6734 0.041 7.66543 0.041 7.6581 0.0376C7.64345 0.0304 7.6288 0.0252 7.61264 0.02C7.59928 0.0156 7.58592 0.0112 7.57148 0.0086C7.55726 0.0056 7.54347 0.005 7.52925 0.0044C7.52149 0.0036 7.51459 0 7.50683 0C7.49908 0 7.49304 0.0036 7.48529 0.004C7.4715 0.0052 7.45857 0.0054 7.44521 0.008C7.42991 0.0106 7.4159 0.0152 7.40082 0.0198C7.38509 0.0248 7.37043 0.0302 7.35578 0.0374C7.3491 0.0408 7.34156 0.0408 7.33488 0.0442C7.331 0.0464 7.32863 0.0502 7.32497 0.0524C7.31311 0.0596 7.30299 0.0684 7.29178 0.0774C7.27842 0.0882 7.26635 0.0988 7.25472 0.1114C7.24631 0.121 7.23705 0.1296 7.23015 0.1398C7.22692 0.1438 7.22283 0.1458 7.22003 0.1498L0.808284 9.9358C0.780487 9.9778 0.768204 10.0236 0.763895 10.0702C0.763464 10.0742 0.760447 10.0768 0.760016 10.081C0.7598 10.0886 0.765618 10.0958 0.766049 10.104ZM7.84213 1.4382L12.9635 9.3964L7.84213 7.216V1.4382ZM7.17176 7.2142L1.94389 9.4004L7.17176 1.4214V7.2142ZM7.17176 7.897V13.0406L1.82451 10.133L7.17176 7.897ZM7.84213 13.0356V7.9002L13.0853 10.133L7.84213 13.0356Z" fill="#444444"/>
<path d="M14.1113 11.1672C14.005 11.0592 13.8301 11.0378 13.6943 11.11L7.50688 14.5006L1.32182 11.11C1.18672 11.037 1.01174 11.0592 0.904216 11.1672C0.79712 11.276 0.785915 11.438 0.877495 11.5582L7.23321 19.8692C7.23817 19.8756 7.24636 19.8776 7.25131 19.8834C7.26446 19.8982 7.2776 19.9112 7.2929 19.9234C7.30023 19.929 7.30454 19.9376 7.31251 19.9426C7.31876 19.9468 7.32673 19.945 7.33341 19.949C7.34418 19.9548 7.35345 19.9632 7.3653 19.9686C7.40797 19.9878 7.45516 20 7.50558 20C7.5058 20 7.5058 20 7.50623 20C7.50623 20 7.50623 20 7.50666 20C7.50709 20 7.50709 20 7.50709 20C7.50731 20 7.50731 20 7.50774 20C7.55816 20 7.60514 19.9876 7.64802 19.9686C7.65987 19.9634 7.66914 19.955 7.67991 19.949C7.68637 19.9448 7.69435 19.9468 7.70081 19.9426C7.70878 19.9378 7.7131 19.9292 7.72042 19.9234C7.73572 19.911 7.74908 19.8982 7.76179 19.8834C7.76675 19.8776 7.77515 19.8756 7.77989 19.8692L14.138 11.5582C14.23 11.438 14.2186 11.276 14.1113 11.1672ZM7.1718 15.0404V18.7128L2.33503 12.3884L7.1718 15.0404ZM7.84217 18.7128V15.0404L12.6809 12.3884L7.84217 18.7128Z" fill="#444444"/>
</svg>
