<svg width="28" height="26" viewBox="0 0 28 26" fill="none" xmlns="http://www.w3.org/2000/svg">
<path d="M7.95455 0C3.18617 0 0 4.10329 0 8.67033C0 12.9552 2.32176 16.6586 5.16051 19.5812C7.99926 22.5038 11.3869 24.6704 13.7116 25.9276C13.801 25.9752 13.8998 26 14 26C14.1002 26 14.199 25.9752 14.2884 25.9276C16.6131 24.6704 20.0007 22.5038 22.8395 19.5812C25.6782 16.6586 28 12.9552 28 8.67033C28 4.10329 24.8138 0 20.0455 0C17.2346 0 15.3673 1.50211 14 3.53274C12.6327 1.50211 10.7654 0 7.95455 0ZM7.95455 1.3339C10.6803 1.3339 12.1739 2.75923 13.4531 5.00211C13.5095 5.10143 13.5896 5.18368 13.6855 5.2408C13.7813 5.29792 13.8897 5.32796 14 5.32796C14.1103 5.32796 14.2187 5.29792 14.3145 5.2408C14.4104 5.18368 14.4905 5.10143 14.5469 5.00211C15.8261 2.75923 17.3197 1.3339 20.0455 1.3339C24.1271 1.3339 26.7273 4.73778 26.7273 8.67033C26.7273 12.4465 24.6469 15.8404 21.9446 18.6225C19.3407 21.3032 16.2292 23.3422 14 24.5729C11.7708 23.3422 8.65926 21.3032 6.0554 18.6225C3.35312 15.8404 1.27273 12.4465 1.27273 8.67033C1.27273 4.73778 3.87291 1.3339 7.95455 1.3339Z" fill="#FF2222"/>
</svg>