<svg width="28" height="26" viewBox="0 0 28 26" fill="none" xmlns="http://www.w3.org/2000/svg">
<path d="M27.995 8.30498C27.9946 6.58191 27.4878 4.90163 26.5448 3.49683C25.6018 2.09204 24.2693 1.03227 22.7318 0.464291C21.1943 -0.103686 19.528 -0.151758 17.9635 0.326732C16.3991 0.805222 15.0139 1.78659 14 3.13493C12.9861 1.78659 11.6009 0.805222 10.0365 0.326732C8.47204 -0.151758 6.80568 -0.103686 5.2682 0.464291C3.73072 1.03227 2.3982 2.09204 1.4552 3.49683C0.5122 4.90163 0.00538621 6.58191 0.00495096 8.30498C0.00495096 8.30498 -0.678047 16.9701 14 26C28.678 16.9701 27.995 8.30498 27.995 8.30498Z" fill="#FF2222"/>
</svg>