<svg width="24" height="23" viewBox="0 0 24 23" fill="none" xmlns="http://www.w3.org/2000/svg">
<path d="M23.9958 7.70787C23.9954 6.31616 23.561 4.95901 22.7527 3.82437C21.9444 2.68973 20.8022 1.83376 19.4844 1.375C18.1666 0.916254 16.7383 0.877426 15.3973 1.2639C14.0563 1.65037 12.8691 2.44302 12 3.53206C11.1309 2.44302 9.94366 1.65037 8.60271 1.2639C7.26175 0.877426 5.83344 0.916254 4.5156 1.375C3.19776 1.83376 2.0556 2.68973 1.24731 3.82437C0.439029 4.95901 0.00461676 6.31616 0.00424369 7.70787C0.00424369 7.70787 -0.581183 14.7066 12 22C24.5812 14.7066 23.9958 7.70787 23.9958 7.70787Z" fill="#CECECE"/>
<path d="M7.36052 6.9543C7.38285 7.19181 7.24897 7.38652 7.06189 7.39005C6.12482 7.40642 5.45348 8.38664 5.56522 9.57462C5.58755 9.81214 5.4537 10.007 5.26648 10.0104C5.07929 10.0139 4.90932 9.82439 4.88675 9.58634C4.73039 7.9245 5.66989 6.55359 6.98091 6.53022C7.16813 6.52681 7.33818 6.7162 7.36052 6.9543Z" fill="#3C3B3F"/>
<path d="M6.81818 0C2.731 0 0 3.62983 0 7.66991C0 11.4604 1.99008 14.7365 4.4233 17.3218C6.85651 19.9072 9.76022 21.8238 11.7528 22.936C11.8294 22.9781 11.9141 23 12 23C12.0859 23 12.1706 22.9781 12.2472 22.936C14.2398 21.8238 17.1435 19.9072 19.5767 17.3218C22.0099 14.7365 24 11.4604 24 7.66991C24 3.62983 21.269 0 17.1818 0C14.7725 0 13.1719 1.32879 12 3.12512C10.8281 1.32879 9.22751 0 6.81818 0ZM6.81818 1.17999C9.15454 1.17999 10.4348 2.44086 11.5313 4.42495C11.5796 4.5128 11.6482 4.58556 11.7304 4.63609C11.8126 4.68662 11.9055 4.71319 12 4.71319C12.0945 4.71319 12.1874 4.68662 12.2696 4.63609C12.3518 4.58556 12.4204 4.5128 12.4688 4.42495C13.5652 2.44086 14.8455 1.17999 17.1818 1.17999C20.6804 1.17999 22.9091 4.19111 22.9091 7.66991C22.9091 11.0104 21.1259 14.0126 18.8097 16.4737C16.5778 18.8451 13.9107 20.6489 12 21.7376C10.0893 20.6489 7.42222 18.8451 5.19034 16.4737C2.87411 14.0126 1.09091 11.0104 1.09091 7.66991C1.09091 4.19111 3.31963 1.17999 6.81818 1.17999Z" fill="#3C3B3F"/>
</svg>
