<svg width="24" height="22" viewBox="0 0 24 22" fill="none" xmlns="http://www.w3.org/2000/svg">
<path d="M7.36046 6.65192C7.38279 6.8791 7.24891 7.06534 7.06183 7.06872C6.12476 7.08438 5.45342 8.02198 5.56516 9.15831C5.58749 9.3855 5.45364 9.57188 5.26642 9.57514C5.07923 9.57853 4.90926 9.39722 4.88669 9.16952C4.73033 7.57994 5.66983 6.26863 6.98085 6.24627C7.16807 6.24301 7.33812 6.42417 7.36046 6.65192Z" fill="#CECECE"/>
<path d="M6.81818 0C2.731 0 0 3.47202 0 7.33643C0 10.9621 1.99008 14.0957 4.4233 16.5687C6.85651 19.0417 9.76022 20.875 11.7528 21.9388C11.8294 21.979 11.9141 22 12 22C12.0859 22 12.1706 21.979 12.2472 21.9388C14.2398 20.875 17.1435 19.0417 19.5767 16.5687C22.0099 14.0957 24 10.9621 24 7.33643C24 3.47202 21.269 0 17.1818 0C14.7725 0 13.1719 1.27102 12 2.98924C10.8281 1.27102 9.22751 0 6.81818 0ZM6.81818 1.12868C9.15454 1.12868 10.4348 2.33474 11.5313 4.23256C11.5796 4.31659 11.6482 4.38619 11.7304 4.43452C11.8126 4.48286 11.9055 4.50827 12 4.50827C12.0945 4.50827 12.1874 4.48286 12.2696 4.43452C12.3518 4.38619 12.4204 4.31659 12.4688 4.23256C13.5652 2.33474 14.8455 1.12868 17.1818 1.12868C20.6804 1.12868 22.9091 4.00889 22.9091 7.33643C22.9091 10.5316 21.1259 13.4034 18.8097 15.7575C16.5778 18.0258 13.9107 19.7511 12 20.7924C10.0893 19.7511 7.42222 18.0258 5.19034 15.7575C2.87411 13.4034 1.09091 10.5316 1.09091 7.33643C1.09091 4.00889 3.31963 1.12868 6.81818 1.12868Z" fill="#888888"/>
</svg>
