<svg width="59" height="18" viewBox="0 0 59 18" fill="none" xmlns="http://www.w3.org/2000/svg">
<path d="M0.313965 18V0.543945H3.54883V7.74609H12.1548V0.543945H15.3896V18H12.1548V10.5537H3.54883V18H0.313965ZM22.2988 0.543945V18H19.064V0.543945H22.2988ZM25.9731 18V0.543945H33.7856C37.3501 0.543945 39.1323 2.18376 39.1323 5.46338C39.1323 9.01969 36.695 11.1722 31.8203 11.9209L31.3564 9.04004C34.2861 8.51107 35.751 7.3514 35.751 5.56104C35.751 4.11247 35.0267 3.38818 33.5781 3.38818H29.208V18H25.9731ZM43.0752 18H39.7549L47.1646 0.543945H50.6436L58.2119 18H54.7329L52.7432 13.2393H46.9448L48.0557 10.4316H51.5713L48.8247 3.87646L43.0752 18Z" fill="#222222"/>
</svg>
