<svg width="26" height="24" viewBox="0 0 26 24" fill="none" xmlns="http://www.w3.org/2000/svg">
<path d="M4 8C4 7.44772 4.44772 7 5 7H21C21.5523 7 22 7.44772 22 8V23H4V8Z" fill="#C4C4C4"/>
<path d="M13 0L24.2583 9H1.74167L13 0Z" fill="#C4C4C4"/>
<path d="M1.11979 8.57917C1.07122 8.51196 1.03638 8.43583 1.01726 8.35515C0.99813 8.27446 0.995097 8.1908 1.00833 8.10893C1.02156 8.02707 1.0508 7.94862 1.09437 7.87807C1.13794 7.80752 1.19499 7.74625 1.26226 7.69776L11.0797 0.612478C11.6409 0.214043 12.3121 0 13.0003 0C13.6886 0 14.3598 0.214043 14.921 0.612478L24.7384 7.69776C24.8056 7.74628 24.8626 7.80757 24.9062 7.87813C24.9497 7.94869 24.9789 8.02713 24.9922 8.10898C25.0054 8.19083 25.0024 8.27448 24.9833 8.35516C24.9642 8.43584 24.9294 8.51197 24.8808 8.5792C24.8323 8.64643 24.771 8.70344 24.7005 8.74699C24.6299 8.79053 24.5515 8.81975 24.4696 8.83298C24.3878 8.84621 24.3041 8.84318 24.2235 8.82408C24.1428 8.80498 24.0667 8.77017 23.9994 8.72165L14.182 1.63638C13.8367 1.39141 13.4237 1.25982 13.0003 1.25982C12.5768 1.25982 12.1639 1.39141 11.8185 1.63638L2.00109 8.72165C1.93398 8.77047 1.85787 8.80552 1.77715 8.82479C1.69643 8.84405 1.6127 8.84715 1.53078 8.83391C1.44885 8.82066 1.37036 8.79134 1.29982 8.74762C1.22929 8.7039 1.1681 8.64665 1.11979 8.57917ZM4.78965 9.0461V20.8419C4.7902 21.3443 4.99001 21.826 5.34522 22.1812C5.70044 22.5364 6.18206 22.7362 6.68442 22.7368H9.84236V18.4506C9.83017 17.6861 10.0871 16.9417 10.5682 16.3475C11.0493 15.7533 11.7239 15.3471 12.4742 15.2C12.9271 15.1239 13.3911 15.1474 13.834 15.2688C14.2769 15.3903 14.688 15.6069 15.0386 15.9034C15.3893 16.2 15.6711 16.5694 15.8645 16.986C16.0578 17.4025 16.1581 17.8562 16.1582 18.3155V22.7368H19.3162C19.8185 22.7362 20.3002 22.5364 20.6554 22.1812C21.0106 21.826 21.2104 21.3443 21.2109 20.8419V9.04602H22.4741V20.8419C22.4731 21.6792 22.1401 22.4819 21.5481 23.0739C20.9561 23.666 20.1534 23.999 19.3162 24H6.68442C5.84718 23.999 5.04452 23.666 4.4525 23.0739C3.86049 22.4819 3.52746 21.6792 3.52648 20.8419V9.0461H4.78965ZM11.1055 22.7368H14.8951V18.3155C14.8949 18.0393 14.8345 17.7665 14.7179 17.5161C14.6014 17.2657 14.4315 17.0437 14.2203 16.8658C14.0091 16.6879 13.7615 16.5582 13.495 16.4859C13.2284 16.4136 12.9493 16.4004 12.6771 16.4472C12.222 16.5442 11.8154 16.7978 11.5282 17.164C11.2409 17.5301 11.0914 17.9854 11.1055 18.4506V22.7368Z" fill="#3C3B3F"/>
</svg>
