<svg width="14" height="20" viewBox="0 0 14 20" fill="none" xmlns="http://www.w3.org/2000/svg">
<path d="M0.00381104 10.0639C0.0214466 10.2663 0.133399 10.4587 0.321844 10.6104L11.771 19.6961C11.8831 19.7856 12.0188 19.8583 12.1703 19.9103C12.3218 19.9622 12.4862 19.9922 12.654 19.9987C12.8219 20.0051 12.9898 19.9879 13.1483 19.9479C13.3067 19.9079 13.4526 19.846 13.5775 19.7657C13.7023 19.6853 13.8038 19.5882 13.876 19.4798C13.9483 19.3714 13.9898 19.2539 13.9984 19.1341C14.0069 19.0142 13.9822 18.8943 13.9257 18.7812C13.8693 18.6682 13.7821 18.5642 13.6693 18.4753L2.98537 10L13.6693 1.52474C13.7821 1.4358 13.8693 1.33181 13.9257 1.21876C13.9822 1.10571 14.0069 0.985817 13.9984 0.865943C13.9898 0.746068 13.9483 0.628576 13.876 0.520196C13.8038 0.411816 13.7023 0.314677 13.5775 0.234355C13.4526 0.154033 13.3067 0.0921053 13.1483 0.0521169C12.9898 0.0121285 12.8219 -0.00513559 12.654 0.00132038C12.4862 0.00777635 12.3218 0.0378292 12.1703 0.0897429C12.0188 0.141657 11.8831 0.214416 11.771 0.303854L0.321844 9.38955C0.208035 9.48089 0.121207 9.58769 0.0665601 9.70357C0.0119129 9.81944 -0.00942959 9.94199 0.00381104 10.0639Z" fill="#666666"/>
</svg>
