<svg width="20" height="14" viewBox="0 0 20 14" fill="none" xmlns="http://www.w3.org/2000/svg">
<path d="M19.0909 1.27273H0.909091C0.667985 1.27273 0.436754 1.20568 0.266266 1.08634C0.0957788 0.966999 0 0.805138 0 0.636364C0 0.467589 0.0957788 0.305728 0.266266 0.186387C0.436754 0.0670452 0.667985 5.02986e-09 0.909091 0H19.0909C19.332 5.02986e-09 19.5632 0.0670452 19.7337 0.186387C19.9042 0.305728 20 0.467589 20 0.636364C20 0.805138 19.9042 0.966999 19.7337 1.08634C19.5632 1.20568 19.332 1.27273 19.0909 1.27273V1.27273Z" fill="#666666"/>
<path d="M19.0909 7.63637H0.909091C0.667985 7.63637 0.436754 7.56933 0.266266 7.44999C0.0957788 7.33065 0 7.16879 0 7.00001C0 6.83124 0.0957788 6.66938 0.266266 6.55003C0.436754 6.43069 0.667985 6.36365 0.909091 6.36365H19.0909C19.332 6.36365 19.5632 6.43069 19.7337 6.55003C19.9042 6.66938 20 6.83124 20 7.00001C20 7.16879 19.9042 7.33065 19.7337 7.44999C19.5632 7.56933 19.332 7.63637 19.0909 7.63637V7.63637Z" fill="#666666"/>
<path d="M19.0909 14H0.909091C0.667985 14 0.436754 13.9329 0.266266 13.8136C0.0957788 13.6943 0 13.5324 0 13.3636C0 13.1949 0.0957788 13.033 0.266266 12.9137C0.436754 12.7943 0.667985 12.7273 0.909091 12.7273H19.0909C19.332 12.7273 19.5632 12.7943 19.7337 12.9137C19.9042 13.033 20 13.1949 20 13.3636C20 13.5324 19.9042 13.6943 19.7337 13.8136C19.5632 13.9329 19.332 14 19.0909 14Z" fill="#666666"/>
</svg>
