<svg width="24" height="24" viewBox="0 0 24 24" fill="none" xmlns="http://www.w3.org/2000/svg">
<circle cx="12" cy="12" r="11.5" fill="white" stroke="#888888"/>
<path d="M12 6.46155C11.6693 6.46155 11.4013 6.72962 11.4013 7.0603V11.4013H7.0603C6.72962 11.4013 6.46155 11.6693 6.46155 12C6.46155 12.3307 6.72962 12.5988 7.0603 12.5988H11.4013V16.9397C11.4013 17.2704 11.6693 17.5385 12 17.5385C12.3307 17.5385 12.5988 17.2704 12.5988 16.9397V12.5988H16.9397C17.2704 12.5988 17.5385 12.3307 17.5385 12C17.5385 11.6693 17.2704 11.4013 16.9397 11.4013H12.5988V7.0603C12.5988 6.72962 12.3307 6.46155 12 6.46155V6.46155Z" fill="#888888"/>
</svg>
