<svg width="24" height="24" viewBox="0 0 24 24" fill="none" xmlns="http://www.w3.org/2000/svg">
<path d="M16.0735 8.34605C16.0735 10.4386 14.2466 12.9585 11.9952 12.9585C9.74371 12.9585 7.91681 10.4386 7.91681 8.34605C7.91681 7.84879 8.0223 7.35641 8.22725 6.897C8.43221 6.4376 8.73262 6.02017 9.11133 5.66856C9.49004 5.31695 9.93963 5.03803 10.4344 4.84774C10.9292 4.65745 11.4596 4.55951 11.9952 4.55951C12.5307 4.55951 13.0611 4.65745 13.5559 4.84774C14.0507 5.03803 14.5003 5.31695 14.879 5.66856C15.2577 6.02017 15.5581 6.4376 15.763 6.897C15.968 7.35641 16.0735 7.84879 16.0735 8.34605V8.34605Z" fill="#C6C6C6"/>
<path d="M19.7895 20.6092C19.7895 20.9139 15.7111 23.6616 12.0023 23.6616C8.36054 23.6616 4.21503 21.1203 4.21503 20.6092C4.21503 17.2639 8.65802 14.5522 12.0023 14.5522C15.3465 14.5522 19.7895 17.2639 19.7895 20.6092Z" fill="#C6C6C6"/>
<path d="M12.0022 24C9.23304 24.0016 6.54865 23.0448 4.4045 21.292C2.26035 19.5391 0.788529 17.0982 0.23878 14.3834C-0.310969 11.6686 0.095222 8.84719 1.38843 6.39788C2.68163 3.94857 4.78219 2.02225 7.33365 0.945819C10.2649 -0.292706 13.568 -0.315728 16.5162 0.881816C19.4644 2.07936 21.8163 4.39938 23.0545 7.33149C24.2926 10.2636 24.3156 13.5676 23.1184 16.5167C21.9212 19.4658 19.6019 21.8184 16.6707 23.0569C15.1939 23.6827 13.606 24.0035 12.0022 24V24ZM12.0022 1.05141C9.83709 1.05141 7.72065 1.69361 5.92047 2.8968C4.12028 4.1 2.71721 5.81015 1.88868 7.81099C1.06015 9.81183 0.843363 12.0135 1.26575 14.1376C1.68813 16.2617 2.7307 18.2127 4.26164 19.7441C5.79257 21.2755 7.74309 22.3184 9.86655 22.7409C11.99 23.1634 14.191 22.9466 16.1913 22.1178C18.1915 21.289 19.9012 19.8855 21.104 18.0848C22.3069 16.2841 22.9489 14.167 22.9489 12.0013C22.9457 9.09822 21.7914 6.3149 19.7392 4.26208C17.6869 2.20925 14.9044 1.05458 12.0022 1.05141V1.05141Z" fill="#888888"/>
</svg>
