<?xml version="1.0" encoding="utf-8"?>
<svg width="25.802" height="88.943" viewBox="0 0 25.802 88.943" xmlns="http://www.w3.org/2000/svg">
  <defs>
    <style>.a{fill:#62bc9b;}</style>
    <linearGradient gradientUnits="userSpaceOnUse" x1="49.847" y1="5" x2="49.847" y2="93.943" id="gradient-0">
      <stop offset="0" style="stop-color: rgba(94, 184, 151, 1)"/>
      <stop offset="1" style="stop-color: rgba(54, 122, 97, 1)"/>
    </linearGradient>
  </defs>
  <path class="a" d="M62.255,54.661c-.575-4.358-2.866-10.837-3.355-12.3s-3.669-9.68-4.462-14.553c-.7-4.3-1.1-15.683-1.147-16.988a.424.424,0,0,1,.057-.229l.042-.072a.435.435,0,0,0,.026-.379h0a.431.431,0,0,1,.032-.389l.347-.566a.431.431,0,0,0,.058-.292l-.139-.905a.426.426,0,0,0-.093-.208L53.477,7.6a.432.432,0,0,1-.093-.333,3.682,3.682,0,0,0-.03-1.285c-.151-.6-.3-.649-.713-.911A.415.415,0,0,0,52.409,5H47.283a.426.426,0,0,0-.231.067c-.41.263-.561.307-.713.911a3.682,3.682,0,0,0-.03,1.285.43.43,0,0,1-.093.333l-.143.176a.44.44,0,0,0-.093.208l-.139.905a.431.431,0,0,0,.058.292l.347.567a.431.431,0,0,1,.032.389.431.431,0,0,0,.026.379l.042.072a.426.426,0,0,1,.057.229c-.044,1.305-.447,12.685-1.147,16.988-.793,4.873-3.973,13.086-4.462,14.553s-2.78,7.948-3.355,12.3c-.6,4.532-.542,21.212-.4,23.746.107,1.87.007,10.011.187,12.18A3.637,3.637,0,0,0,38,92.606c1.072,1.184,11.725,1.337,11.725,1.337s10.893-.153,11.966-1.336a3.633,3.633,0,0,0,.773-2.02c.181-2.169.08-10.311.187-12.18C62.8,75.873,62.854,59.193,62.255,54.661ZM42.541,89.82h-.006a1.217,1.217,0,0,1-1.218-1.212l-.1-22.42a1.217,1.217,0,0,1,1.212-1.222h.006a1.217,1.217,0,0,1,1.218,1.212l.1,22.42A1.217,1.217,0,0,1,42.541,89.82ZM45.7,47.42c-.009.03-.84,3.028-1.207,5.021a53.318,53.318,0,0,0-.687,6.071,1.218,1.218,0,0,1-1.215,1.159H42.53A1.218,1.218,0,0,1,41.371,58.4,54.54,54.54,0,0,1,42.1,52c.386-2.1,1.22-5.106,1.255-5.233a1.218,1.218,0,0,1,2.346.652Z" transform="translate(-36.945 -5)" style="stroke: rgb(94, 184, 151); fill: url(#gradient-0);"/>
</svg>