<svg xmlns="http://www.w3.org/2000/svg" width="41.494" height="83.018" viewBox="0 0 41.494 83.018"><defs><style>.a{fill:#62bc9b;}</style></defs><g transform="translate(0 0)"><path class="a" d="M67.353,24.69H34.161L30.01,30.284V85.613l4.152,2.709H67.353L71.5,85.613V30.284Z" transform="translate(-30.01 -9.446)"/><path class="a" d="M67.252,87.33H34.06a1.38,1.38,0,1,0,0,2.761h33.2a1.38,1.38,0,1,0-.01-2.761Z" transform="translate(-29.909 -7.073)"/><path class="a" d="M34.06,23.461h33.2a1.38,1.38,0,1,0,0-2.761H34.06a1.38,1.38,0,1,0,0,2.761Z" transform="translate(-29.909 -9.597)"/><path class="a" d="M52.664,17.307l.01.021a2.211,2.211,0,0,1,3.124.01l1.962,1.92a2.827,2.827,0,0,1,.374.467h4.494l.955-.789a4.722,4.722,0,0,0,.228-6.892l-.675-.664a4.735,4.735,0,0,0-6.9.239l-4.681,5.355a4.67,4.67,0,0,0-1.183,2.74h1.837A2.179,2.179,0,0,1,52.664,17.307Zm4.982-4.826a3.359,3.359,0,0,1,4.691.394,3.358,3.358,0,0,1,.394,4.691,3.359,3.359,0,0,1-4.691-.394A3.359,3.359,0,0,1,57.646,12.48Z" transform="translate(-29.239 -10.002)"/></g></svg>