<?xml version="1.0" encoding="utf-8"?>
<svg width="52.323" height="75.251" viewBox="0 0 52.323 75.251" xmlns="http://www.w3.org/2000/svg">
  <defs>
    <style>.a{fill:#62bc9b;}</style>
    <linearGradient gradientUnits="userSpaceOnUse" x1="31.918" y1="8.29" x2="31.918" y2="20.342" id="gradient-0">
      <stop offset="0" style="stop-color: rgba(94, 184, 151, 1)"/>
      <stop offset="1" style="stop-color: rgba(54, 122, 97, 1)"/>
    </linearGradient>
    <linearGradient gradientUnits="userSpaceOnUse" x1="49.295" y1="20.54" x2="49.295" y2="72.816" id="gradient-1">
      <stop offset="0" style="stop-color: rgba(94, 184, 151, 1)"/>
      <stop offset="1" style="stop-color: rgba(54, 122, 97, 1)"/>
    </linearGradient>
    <linearGradient gradientUnits="userSpaceOnUse" x1="7.466" y1="0" x2="7.466" y2="63.284" id="gradient-2">
      <stop offset="0" style="stop-color: rgba(94, 184, 151, 1)"/>
      <stop offset="1" style="stop-color: rgba(54, 122, 97, 1)"/>
    </linearGradient>
    <linearGradient gradientUnits="userSpaceOnUse" x1="35.461" y1="1" x2="35.461" y2="7.22" id="gradient-3">
      <stop offset="0" style="stop-color: rgba(94, 184, 151, 1)"/>
      <stop offset="1" style="stop-color: rgba(54, 122, 97, 1)"/>
    </linearGradient>
    <linearGradient gradientUnits="userSpaceOnUse" x1="27.24" y1="53.47" x2="27.24" y2="67.027" id="gradient-4">
      <stop offset="0" style="stop-color: rgba(94, 184, 151, 1)"/>
      <stop offset="1" style="stop-color: rgba(54, 122, 97, 1)"/>
    </linearGradient>
    <linearGradient gradientUnits="userSpaceOnUse" x1="16.49" y1="0" x2="16.49" y2="13.557" id="gradient-5">
      <stop offset="0" style="stop-color: rgba(94, 184, 151, 1)"/>
      <stop offset="1" style="stop-color: rgba(54, 122, 97, 1)"/>
    </linearGradient>
    <linearGradient gradientUnits="userSpaceOnUse" x1="16.49" y1="0" x2="16.49" y2="20.459" id="gradient-6">
      <stop offset="0" style="stop-color: rgba(94, 184, 151, 1)"/>
      <stop offset="1" style="stop-color: rgba(54, 122, 97, 1)"/>
    </linearGradient>
  </defs>
  <rect class="a" width="32.981" height="20.459" transform="translate(0 38.883)" style="stroke: rgb(94, 184, 151); fill: url(#gradient-6);"/>
  <rect class="a" width="32.981" height="13.557" transform="translate(0 22.975)" style="stroke: rgb(94, 184, 151); fill: url(#gradient-5);"/>
  <path class="a" d="M10.75,63.347a3.68,3.68,0,0,0,3.68,3.68h29.3V53.47H10.809Z" transform="translate(-10.75 8.224)" style="stroke: rgb(94, 184, 151); fill: url(#gradient-4);"/>
  <path class="a" d="M51.922,2.246A1.258,1.258,0,0,0,50.746,1H20.176A1.258,1.258,0,0,0,19,2.246V7.22H51.922Z" transform="translate(-9.3 -1)" style="stroke: rgb(94, 184, 151); fill: url(#gradient-3);"/>
  <path class="a" d="M2.137,63.284V15.6h11.51V63.284ZM0,11.123,7.465,0l7.467,11.123Z" transform="translate(36.357 9.5)" style="stroke: rgb(94, 184, 151); fill: url(#gradient-2);"/>
  <path class="a" d="M 40.8 20.54 L 40.8 72.816 L 54.11 72.816 C 56.142 72.816 57.79 71.168 57.79 69.136 L 57.79 20.54 L 40.8 20.54 Z" transform="translate(-5.468 2.435)" style="stroke: rgb(94, 184, 151); fill: url(#gradient-1);"/>
  <path class="a" d="M52.207,8.29H19.719L11.63,20.342H44.117l2.528-3.763Zm-17.99,8.489a5.785,5.785,0,0,1-4.186,1.752,4.515,4.515,0,0,1-4.7-3.433,3.939,3.939,0,0,1,1.046-3.292A5.561,5.561,0,0,1,29.6,10.1a5.479,5.479,0,0,1,3.586.576,3.843,3.843,0,0,1,1.035,6.1Z" transform="translate(-10.595 0.282)" style="stroke: rgb(94, 184, 151); fill: url(#gradient-0);"/>
</svg>