<svg xmlns="http://www.w3.org/2000/svg" width="52.323" height="75.251" viewBox="0 0 52.323 75.251"><defs><style>.a{fill:#62bc9b;}</style></defs><rect class="a" width="32.981" height="20.459" transform="translate(0 38.883)"/><rect class="a" width="32.981" height="13.557" transform="translate(0 22.975)"/><path class="a" d="M10.75,63.347a3.68,3.68,0,0,0,3.68,3.68h29.3V53.47H10.809Z" transform="translate(-10.75 8.224)"/><path class="a" d="M51.922,2.246A1.258,1.258,0,0,0,50.746,1H20.176A1.258,1.258,0,0,0,19,2.246V7.22H51.922Z" transform="translate(-9.3 -1)"/><path class="a" d="M2.137,63.284V15.6h11.51V63.284ZM0,11.123,7.465,0l7.467,11.123Z" transform="translate(36.357 9.5)"/><path class="a" d="M40.8,20.54V72.816H54.11a3.68,3.68,0,0,0,3.68-3.68V20.54ZM54.075,67.924A1.176,1.176,0,0,1,52.9,69.1H45.738a1.176,1.176,0,0,1-1.176-1.176V25.431a1.176,1.176,0,0,1,1.176-1.176h7.208a1.176,1.176,0,0,1,1.176,1.176Z" transform="translate(-5.468 2.435)"/><path class="a" d="M52.207,8.29H19.719L11.63,20.342H44.117l2.528-3.763Zm-17.99,8.489a5.785,5.785,0,0,1-4.186,1.752,4.515,4.515,0,0,1-4.7-3.433,3.939,3.939,0,0,1,1.046-3.292A5.561,5.561,0,0,1,29.6,10.1a5.479,5.479,0,0,1,3.586.576,3.843,3.843,0,0,1,1.035,6.1Z" transform="translate(-10.595 0.282)"/></svg>