<?xml version="1.0" encoding="utf-8"?>
<svg width="41.494" height="83.018" viewBox="0 0 41.494 83.018" xmlns="http://www.w3.org/2000/svg">
  <defs>
    <style>.a{fill:#62bc9b;}</style>
    <linearGradient gradientUnits="userSpaceOnUse" x1="50.755" y1="24.69" x2="50.755" y2="88.322" id="gradient-0">
      <stop offset="0" style="stop-color: rgba(94, 184, 151, 1)"/>
      <stop offset="1" style="stop-color: rgba(54, 122, 97, 1)"/>
    </linearGradient>
    <linearGradient gradientUnits="userSpaceOnUse" x1="50.659" y1="87.33" x2="50.659" y2="90.091" id="gradient-1">
      <stop offset="0" style="stop-color: rgba(94, 184, 151, 1)"/>
      <stop offset="1" style="stop-color: rgba(54, 122, 97, 1)"/>
    </linearGradient>
    <linearGradient gradientUnits="userSpaceOnUse" x1="50.66" y1="20.7" x2="50.66" y2="23.461" id="gradient-2">
      <stop offset="0" style="stop-color: rgba(94, 184, 151, 1)"/>
      <stop offset="1" style="stop-color: rgba(54, 122, 97, 1)"/>
    </linearGradient>
    <linearGradient gradientUnits="userSpaceOnUse" x1="57.783" y1="10.003" x2="57.783" y2="19.725" id="gradient-3">
      <stop offset="0" style="stop-color: rgba(94, 184, 151, 1)"/>
      <stop offset="1" style="stop-color: rgba(54, 122, 97, 1)"/>
    </linearGradient>
  </defs>
  <g transform="translate(0 0)">
    <path class="a" d="M67.353,24.69H34.161L30.01,30.284V85.613l4.152,2.709H67.353L71.5,85.613V30.284Z" transform="translate(-30.01 -9.446)" style="paint-order: fill; fill: url(#gradient-0); stroke: rgb(94, 184, 151);"/>
    <path class="a" d="M67.252,87.33H34.06a1.38,1.38,0,1,0,0,2.761h33.2a1.38,1.38,0,1,0-.01-2.761Z" transform="translate(-29.909 -7.073)" style="paint-order: fill; fill: url(#gradient-1); stroke: rgb(94, 184, 151);"/>
    <path class="a" d="M34.06,23.461h33.2a1.38,1.38,0,1,0,0-2.761H34.06a1.38,1.38,0,1,0,0,2.761Z" transform="translate(-29.909 -9.597)" style="paint-order: fill; fill: url(#gradient-2); stroke: rgb(94, 184, 151);"/>
    <path class="a" d="M52.664,17.307l.01.021a2.211,2.211,0,0,1,3.124.01l1.962,1.92a2.827,2.827,0,0,1,.374.467h4.494l.955-.789a4.722,4.722,0,0,0,.228-6.892l-.675-.664a4.735,4.735,0,0,0-6.9.239l-4.681,5.355a4.67,4.67,0,0,0-1.183,2.74h1.837A2.179,2.179,0,0,1,52.664,17.307Zm4.982-4.826a3.359,3.359,0,0,1,4.691.394,3.358,3.358,0,0,1,.394,4.691,3.359,3.359,0,0,1-4.691-.394A3.359,3.359,0,0,1,57.646,12.48Z" transform="translate(-29.239 -10.002)" style="paint-order: fill; fill: url(#gradient-3); stroke: rgb(94, 184, 151);"/>
  </g>
</svg>