<svg xmlns="http://www.w3.org/2000/svg" data-name="Layer 1" width="963.50956" height="690.37172" viewBox="0 0 963.50956 690.37172" xmlns:xlink="http://www.w3.org/1999/xlink"><title>online_banking</title><ellipse cx="910.50956" cy="604.44538" rx="8" ry="5.44538" fill="#35d07f"/><path d="M1028.75478,709.25952s38,66.02521,37,75.55462" transform="translate(-118.24522 -104.81414)" fill="#35d07f"/><rect x="55.50956" y="49" width="419" height="640" fill="#f2f2f2"/><path d="M636.75478,794.81414h-464v-690h464Zm-462-2h460v-686h-460Z" transform="translate(-118.24522 -104.81414)" fill="#3f3d56"/><path d="M776.44659,179.98287s-2.28508-8.22583-5.71268-10.28229v10.28229s-13.71043-2.05645-23.422,8.22584l9.14029,2.05646s-13.4248,4.45566-16.28114,23.64928l5.71268-2.74194L761.308,244.07586l9.71155-17.82265,19.42311,19.87911-4.57014-10.96779L793.299,238.592l-5.14141-8.91133,22.85072,10.2823-1.71381-5.48389,8.3729,14.02911s28.75952-29.7953-2.66022-61.32768C815.00717,187.18048,800.72548,172.09978,776.44659,179.98287Z" transform="translate(-118.24522 -104.81414)" fill="#2f2e41"/><path d="M773.80958,253.192s8.51608,32.3611,5.96126,36.61914,24.69663,27.25145,24.69663,27.25145l26.39984-5.10965,1.70322-36.61914s-23.845-20.43859-18.73538-35.76753Z" transform="translate(-118.24522 -104.81414)" fill="#ffb9b9"/><path d="M773.80958,253.192s8.51608,32.3611,5.96126,36.61914,24.69663,27.25145,24.69663,27.25145l26.39984-5.10965,1.70322-36.61914s-23.845-20.43859-18.73538-35.76753Z" transform="translate(-118.24522 -104.81414)" opacity="0.1"/><path d="M751.66778,457.57791s-6.81287,42.58039-1.70322,77.49631,7.66447,60.46417,5.10965,65.57381-5.10965,4.258-3.40643,10.2193,5.10964,3.40643,1.70321,9.36768-2.55482,16.18055-2.55482,18.73538-4.258,57.90934,0,63.87059,5.96125,5.10965,5.96125,5.10965l5.10965,30.65788,27.25146-4.258-4.258-28.10306s10.21929-5.10964,5.96125-8.51608-6.81286-3.40643-4.258-3.40643,6.81286-.85161,3.40643-2.55482-.8516-47.69-.8516-47.69,5.96125-84.30919,29.80627-81.75436,42.5804,51.94808,42.5804,51.94808l6.81286,22.1418s2.55482,41.72879,4.258,45.13522.85161,4.258,0,5.96126-6.81286-2.55482-.85161,4.258,5.96126,9.36769,5.96126,9.36769l3.83223,44.70941,27.67726-17.458V701.98937s5.10965-8.51608,3.40643-15.32894-1.70321-39.174,0-45.13522.85161-7.66447-.85161-10.21929-5.96125-.85161-2.55482-6.81287,5.96125-21.29019.85161-32.3611-33.21271-120.07671-45.13522-126.038S751.66778,457.57791,751.66778,457.57791Z" transform="translate(-118.24522 -104.81414)" fill="#2f2e41"/><path d="M789.13853,719.87314s-19.587-3.40643-20.43859,1.70322,0,12.77411,0,12.77411-6.81287.85161-5.96126,6.81287,1.70322,22.1418,1.70322,22.1418-10.6451,25.12244-4.68385,31.08369c.05961.05961,11.75962-.4258,18.48459-.4258h24.52161s3.40643-11.92251,0-13.62573-11.0709-17.03216-10.21929-20.43859,0-28.10306,0-28.10306l-3.76131.21267Z" transform="translate(-118.24522 -104.81414)" fill="#3f3d56"/><path d="M888.77665,735.20208l-10.21929,7.66447s4.258,14.47734,1.70321,17.03216-8.09027,31.9353-2.98063,33.63851,36.61914-.8516,36.61914-.8516,35.34173,1.27741,36.19334-.42581,2.55482-11.92251-7.66447-15.32894-16.18055-2.55482-19.587-12.77412-11.07091-25.54824-11.07091-25.54824l-1.70321-18.73537s-10.2193,1.70322-11.92251,1.70322-10.2193,4.258-9.36769,7.66447A11.585,11.585,0,0,1,888.77665,735.20208Z" transform="translate(-118.24522 -104.81414)" fill="#3f3d56"/><circle cx="670.0417" cy="123.68124" r="35.34173" fill="#ffb9b9"/><path d="M811.28033,288.95954,824.05445,266.632s29.80628-1.51751,31.50949,1.88892,16.18055,172.0248,16.18055,172.0248,6.81287,9.36768,2.55483,15.32894l-4.258,5.96125v11.92252s-21.2902,17.03215-50.24487,13.62572-65.57381-18.73537-65.57381-18.73537l7.66447-47.69-.85161-140.51531,17.15871-8.363s19.46043,13.47265,22.86687,17.73069S811.28033,288.95954,811.28033,288.95954Z" transform="translate(-118.24522 -104.81414)" fill="#3f3d56"/><path d="M781.47405,288.95954l-3.83223-22.56761-52.37389,37.04494,28.95467,85.16079s-17.88376,32.36111-14.47733,44.28362,5.10964,29.80627,5.10964,29.80627,45.98683,11.92251,45.13522,5.96126,0-32.3611,0-32.3611,14.8889-110.28678,7.44445-127.10426S781.47405,288.95954,781.47405,288.95954Z" transform="translate(-118.24522 -104.81414)" fill="#d0cde1"/><path d="M828.31249,277.88864l-8.09028-15.75475c-.00218-.49382,57.48073,7.4573,60.03836,12.34832l-6.81286,131.14761s.85161,18.73538,5.10965,23.845,3.40643,13.62573,1.70321,14.47734-29.80628,9.36769-29.80628,9.36769-27.25145-46.83844-24.69663-103.04456S828.31249,277.88864,828.31249,277.88864Z" transform="translate(-118.24522 -104.81414)" fill="#d0cde1"/><path d="M870.04128,275.33381l9.01931-1.92008a19.07265,19.07265,0,0,1,8.01284,8.733c2.55483,5.96125,32.3611,69.83184,32.3611,74.08988s.85161,35.76754-17.88376,35.76754S868.33806,311.953,868.33806,311.953Z" transform="translate(-118.24522 -104.81414)" fill="#d0cde1"/><polygon points="624.055 391.086 639.384 414.08 647.9 385.125 641.939 376.609 624.055 391.086" fill="#ffb9b9"/><polygon points="614.687 199.474 607.023 198.623 588.287 299.112 620.648 399.602 648.752 378.312 629.165 311.035 635.977 259.087 614.687 199.474" fill="#d0cde1"/><path d="M825.18393,218.52423c-4.67911-17.05713-19.3137-29.507-36.6537-29.507-12.49486,0-23.58763,6.464-30.56292,16.45743l8.74418,16.75779,8.71883-14.37481L792.868,223.89111l-4.103-8.84606,6.66732,2.76438-4.61581-7.18737,20.51487,8.29314-1.53861-4.423,9.74458,12.71614A38.32957,38.32957,0,0,0,825.18393,218.52423Z" transform="translate(-118.24522 -104.81414)" fill="#2f2e41"/><polygon points="746.261 211.823 769.207 231.829 757.332 205.861 746.261 211.823" opacity="0.1"/><path d="M854.963,285.23267l-.79833-.31781,4.31555-10.84019a2.51011,2.51011,0,0,0-1.40368-3.26053L832.602,261.07069a2.51011,2.51011,0,0,0-3.26053,1.40368L809.269,312.89428a2.51013,2.51013,0,0,0,1.40368,3.26053l24.47449,9.74345a2.51012,2.51012,0,0,0,3.26054-1.40368l10.35406-26.00827.79832.31782Z" transform="translate(-118.24522 -104.81414)" fill="#2f2e41"/><circle cx="721.15048" cy="174.22111" r="4.29629" fill="#35d07f"/><path d="M854.71233,313.65617s-11.0709-34.06432-24.69663-28.10306,5.10965,41.72879,5.10965,41.72879l11.92251,7.66447Z" transform="translate(-118.24522 -104.81414)" fill="#ffb9b9"/><path d="M913.47328,357.08817l-59.61255-46.83843-21.2902,31.50949s56.20612,59.61255,68.98024,47.69S913.47328,357.08817,913.47328,357.08817Z" transform="translate(-118.24522 -104.81414)" fill="#d0cde1"/><rect y="688.131" width="963.50956" height="2.24072" fill="#2f2e41"/><circle cx="66.50956" cy="11" r="3" fill="#3f3d56"/><circle cx="77.50956" cy="11" r="3" fill="#3f3d56"/><circle cx="88.50956" cy="11" r="3" fill="#3f3d56"/><circle cx="99.50956" cy="11" r="3" fill="#3f3d56"/><circle cx="110.50956" cy="11" r="3" fill="#3f3d56"/><rect x="262.50956" y="9" width="44" height="4" fill="#3f3d56"/><rect x="73.50956" y="30" width="31" height="4" fill="#3f3d56"/><rect x="73.50956" y="36" width="31" height="4" fill="#3f3d56"/><rect x="73.50956" y="42" width="31" height="4" fill="#3f3d56"/><rect x="118.50956" y="214" width="356" height="250" fill="#3f3d56"/><rect x="142.50956" y="254" width="134" height="29" fill="#f2f2f2"/><rect x="392.50956" y="420" width="44" height="29" fill="#f2f2f2"/><rect x="142.50956" y="308" width="134" height="29" fill="#f2f2f2"/><rect x="142.50956" y="362" width="134" height="29" fill="#f2f2f2"/><path d="M514.32508,387.67424V384.2788a9.78825,9.78825,0,0,1-5.14354-1.47924l.80675-2.25235a8.96437,8.96437,0,0,0,4.841,1.44543c2.38695,0,4.00062-1.3783,4.00062-3.29448,0-1.84906-1.31116-2.992-3.79889-4.00063-3.42908-1.34464-5.547-2.89118-5.547-5.81586,0-2.7904,1.98349-4.90832,5.07641-5.41257v-3.39543h2.08427v3.261a8.96739,8.96739,0,0,1,4.37043,1.17657l-.84057,2.21886a8.12512,8.12512,0,0,0-4.23584-1.14308c-2.58851,0-3.56351,1.54638-3.56351,2.89119,0,1.74811,1.24387,2.62216,4.1687,3.83254,3.46257,1.41195,5.21084,3.16006,5.21084,6.152,0,2.65581-1.84905,5.1437-5.31178,5.71491v3.49655Z" transform="translate(-118.24522 -104.81414)" fill="#35d07f"/><path d="M531.32508,387.67424V384.2788a9.78825,9.78825,0,0,1-5.14354-1.47924l.80675-2.25235a8.96437,8.96437,0,0,0,4.841,1.44543c2.38695,0,4.00062-1.3783,4.00062-3.29448,0-1.84906-1.31116-2.992-3.79889-4.00063-3.42908-1.34464-5.547-2.89118-5.547-5.81586,0-2.7904,1.98349-4.90832,5.07641-5.41257v-3.39543h2.08427v3.261a8.96739,8.96739,0,0,1,4.37043,1.17657l-.84057,2.21886a8.12512,8.12512,0,0,0-4.23584-1.14308c-2.58851,0-3.56351,1.54638-3.56351,2.89119,0,1.74811,1.24387,2.62216,4.1687,3.83254,3.46257,1.41195,5.21084,3.16006,5.21084,6.152,0,2.65581-1.84905,5.1437-5.31178,5.71491v3.49655Z" transform="translate(-118.24522 -104.81414)" fill="#35d07f"/><path d="M548.32508,387.67424V384.2788a9.78825,9.78825,0,0,1-5.14354-1.47924l.80675-2.25235a8.96437,8.96437,0,0,0,4.841,1.44543c2.38695,0,4.00062-1.3783,4.00062-3.29448,0-1.84906-1.31116-2.992-3.79889-4.00063-3.42908-1.34464-5.547-2.89118-5.547-5.81586,0-2.7904,1.98349-4.90832,5.07641-5.41257v-3.39543h2.08427v3.261a8.96739,8.96739,0,0,1,4.37043,1.17657l-.84057,2.21886a8.12512,8.12512,0,0,0-4.23584-1.14308c-2.58851,0-3.56351,1.54638-3.56351,2.89119,0,1.74811,1.24387,2.62216,4.1687,3.83254,3.46257,1.41195,5.21084,3.16006,5.21084,6.152,0,2.65581-1.84905,5.1437-5.31178,5.71491v3.49655Z" transform="translate(-118.24522 -104.81414)" fill="#35d07f"/><path d="M514.32508,440.67424V437.2788a9.78825,9.78825,0,0,1-5.14354-1.47924l.80675-2.25235a8.96437,8.96437,0,0,0,4.841,1.44543c2.38695,0,4.00062-1.3783,4.00062-3.29448,0-1.84906-1.31116-2.992-3.79889-4.00063-3.42908-1.34464-5.547-2.89118-5.547-5.81586,0-2.7904,1.98349-4.90832,5.07641-5.41257v-3.39543h2.08427v3.261a8.96739,8.96739,0,0,1,4.37043,1.17657l-.84057,2.21886a8.12512,8.12512,0,0,0-4.23584-1.14308c-2.58851,0-3.56351,1.54638-3.56351,2.89119,0,1.74811,1.24387,2.62216,4.1687,3.83254,3.46257,1.41195,5.21084,3.16006,5.21084,6.152,0,2.65581-1.84905,5.1437-5.31178,5.71491v3.49655Z" transform="translate(-118.24522 -104.81414)" fill="#35d07f"/><path d="M531.32508,440.67424V437.2788a9.78825,9.78825,0,0,1-5.14354-1.47924l.80675-2.25235a8.96437,8.96437,0,0,0,4.841,1.44543c2.38695,0,4.00062-1.3783,4.00062-3.29448,0-1.84906-1.31116-2.992-3.79889-4.00063-3.42908-1.34464-5.547-2.89118-5.547-5.81586,0-2.7904,1.98349-4.90832,5.07641-5.41257v-3.39543h2.08427v3.261a8.96739,8.96739,0,0,1,4.37043,1.17657l-.84057,2.21886a8.12512,8.12512,0,0,0-4.23584-1.14308c-2.58851,0-3.56351,1.54638-3.56351,2.89119,0,1.74811,1.24387,2.62216,4.1687,3.83254,3.46257,1.41195,5.21084,3.16006,5.21084,6.152,0,2.65581-1.84905,5.1437-5.31178,5.71491v3.49655Z" transform="translate(-118.24522 -104.81414)" fill="#35d07f"/><path d="M548.32508,440.67424V437.2788a9.78825,9.78825,0,0,1-5.14354-1.47924l.80675-2.25235a8.96437,8.96437,0,0,0,4.841,1.44543c2.38695,0,4.00062-1.3783,4.00062-3.29448,0-1.84906-1.31116-2.992-3.79889-4.00063-3.42908-1.34464-5.547-2.89118-5.547-5.81586,0-2.7904,1.98349-4.90832,5.07641-5.41257v-3.39543h2.08427v3.261a8.96739,8.96739,0,0,1,4.37043,1.17657l-.84057,2.21886a8.12512,8.12512,0,0,0-4.23584-1.14308c-2.58851,0-3.56351,1.54638-3.56351,2.89119,0,1.74811,1.24387,2.62216,4.1687,3.83254,3.46257,1.41195,5.21084,3.16006,5.21084,6.152,0,2.65581-1.84905,5.1437-5.31178,5.71491v3.49655Z" transform="translate(-118.24522 -104.81414)" fill="#35d07f"/><path d="M514.32508,493.67424V490.2788a9.78825,9.78825,0,0,1-5.14354-1.47924l.80675-2.25235a8.96437,8.96437,0,0,0,4.841,1.44543c2.38695,0,4.00062-1.3783,4.00062-3.29448,0-1.84906-1.31116-2.992-3.79889-4.00063-3.42908-1.34464-5.547-2.89118-5.547-5.81586,0-2.7904,1.98349-4.90832,5.07641-5.41257v-3.39543h2.08427v3.261a8.96739,8.96739,0,0,1,4.37043,1.17657l-.84057,2.21886a8.12512,8.12512,0,0,0-4.23584-1.14308c-2.58851,0-3.56351,1.54638-3.56351,2.89119,0,1.74811,1.24387,2.62216,4.1687,3.83254,3.46257,1.41195,5.21084,3.16006,5.21084,6.152,0,2.65581-1.84905,5.1437-5.31178,5.71491v3.49655Z" transform="translate(-118.24522 -104.81414)" fill="#35d07f"/><path d="M531.32508,493.67424V490.2788a9.78825,9.78825,0,0,1-5.14354-1.47924l.80675-2.25235a8.96437,8.96437,0,0,0,4.841,1.44543c2.38695,0,4.00062-1.3783,4.00062-3.29448,0-1.84906-1.31116-2.992-3.79889-4.00063-3.42908-1.34464-5.547-2.89118-5.547-5.81586,0-2.7904,1.98349-4.90832,5.07641-5.41257v-3.39543h2.08427v3.261a8.96739,8.96739,0,0,1,4.37043,1.17657l-.84057,2.21886a8.12512,8.12512,0,0,0-4.23584-1.14308c-2.58851,0-3.56351,1.54638-3.56351,2.89119,0,1.74811,1.24387,2.62216,4.1687,3.83254,3.46257,1.41195,5.21084,3.16006,5.21084,6.152,0,2.65581-1.84905,5.1437-5.31178,5.71491v3.49655Z" transform="translate(-118.24522 -104.81414)" fill="#35d07f"/><path d="M548.32508,493.67424V490.2788a9.78825,9.78825,0,0,1-5.14354-1.47924l.80675-2.25235a8.96437,8.96437,0,0,0,4.841,1.44543c2.38695,0,4.00062-1.3783,4.00062-3.29448,0-1.84906-1.31116-2.992-3.79889-4.00063-3.42908-1.34464-5.547-2.89118-5.547-5.81586,0-2.7904,1.98349-4.90832,5.07641-5.41257v-3.39543h2.08427v3.261a8.96739,8.96739,0,0,1,4.37043,1.17657l-.84057,2.21886a8.12512,8.12512,0,0,0-4.23584-1.14308c-2.58851,0-3.56351,1.54638-3.56351,2.89119,0,1.74811,1.24387,2.62216,4.1687,3.83254,3.46257,1.41195,5.21084,3.16006,5.21084,6.152,0,2.65581-1.84905,5.1437-5.31178,5.71491v3.49655Z" transform="translate(-118.24522 -104.81414)" fill="#35d07f"/><polygon points="408.6 444.409 401.953 435.546 403.527 434.365 408.942 441.586 430.263 424.142 431.51 425.665 408.6 444.409" fill="#3f3d56"/><path d="M1053.75478,713.81414v38.62358c-7.95989-11.02932-23.83646-22.38613-53.5879-31.60524l53.5879,73.60687v.55913s.10122-.05457.28968-.16122l.09127.12535s.07652-.10222.21328-.29987C1060.59243,791.04624,1112.95488,758.43766,1053.75478,713.81414Z" transform="translate(-118.24522 -104.81414)" fill="#3f3d56"/><rect x="476.75478" y="9.18586" width="5" height="5" fill="#35d07f"/><rect x="484.75478" y="9.18586" width="5" height="5" fill="#35d07f"/><rect x="492.75478" y="9.18586" width="5" height="5" fill="#35d07f"/><rect x="500.75478" y="9.18586" width="5" height="5" fill="#f2f2f2"/></svg>